M48
; DRILL file {KiCad 7.0.7} date Tue Nov 14 16:40:51 2023
; FORMAT={-:-/ absolute / inch / decimal}
; #@! TF.CreationDate,2023-11-14T16:40:51-05:00
; #@! TF.GenerationSoftware,Kicad,Pcbnew,7.0.7
; #@! TF.FileFunction,Plated,1,2,PTH
FMAT,2
INCH
; #@! TA.AperFunction,Plated,PTH,ViaDrill
T1C0.0157
; #@! TA.AperFunction,Plated,PTH,ComponentDrill
T2C0.0276
; #@! TA.AperFunction,Plated,PTH,ComponentDrill
T3C0.0295
; #@! TA.AperFunction,Plated,PTH,ComponentDrill
T4C0.0354
; #@! TA.AperFunction,Plated,PTH,ComponentDrill
T5C0.0394
%
G90
G05
T1
X2.8937Y-2.1244
T2
X2.9512Y-3.6402
X2.9528Y-2.2622
X3.1512Y-3.6402
X3.1528Y-2.2622
X3.5811Y-3.3055
X3.5827Y-2.5969
X3.7811Y-3.3055
X3.7827Y-2.5969
X4.8228Y-2.6346
X4.8228Y-2.8346
X4.8228Y-3.1661
X4.8228Y-3.3661
X5.4709Y-2.9512
X5.6709Y-2.9512
T3
X4.2949Y-2.45
X4.2949Y-2.9512
X4.2949Y-3.3449
X4.3449Y-2.4
X4.3449Y-2.5
X4.3449Y-2.9012
X4.3449Y-3.0012
X4.3449Y-3.2949
X4.3449Y-3.3949
T4
X3.0014Y-2.6559
X3.0014Y-3.2465
X3.1014Y-2.6559
X3.1014Y-3.2465
X5.0772Y-2.9512
X5.1772Y-2.9512
T5
X2.1654Y-2.902
X2.1654Y-3.002
X2.5569Y-2.6569
X2.5569Y-3.2671
X2.6569Y-2.6569
X2.6569Y-3.2671
X2.7569Y-2.6569
X2.7569Y-3.2671
T0
M30
