%TF.GenerationSoftware,KiCad,Pcbnew,7.0.7*%
%TF.CreationDate,2023-11-12T18:02:06-05:00*%
%TF.ProjectId,TEJ4M-Unit-1-04,54454a34-4d2d-4556-9e69-742d312d3034,rev?*%
%TF.SameCoordinates,Original*%
%TF.FileFunction,Copper,L2,Bot*%
%TF.FilePolarity,Positive*%
%FSLAX46Y46*%
G04 Gerber Fmt 4.6, Leading zero omitted, Abs format (unit mm)*
G04 Created by KiCad (PCBNEW 7.0.7) date 2023-11-12 18:02:06*
%MOMM*%
%LPD*%
G01*
G04 APERTURE LIST*
%TA.AperFunction,ComponentPad*%
%ADD10C,1.400000*%
%TD*%
%TA.AperFunction,ComponentPad*%
%ADD11O,1.400000X1.400000*%
%TD*%
%TA.AperFunction,ComponentPad*%
%ADD12R,1.300000X1.300000*%
%TD*%
%TA.AperFunction,ComponentPad*%
%ADD13C,1.300000*%
%TD*%
%TA.AperFunction,ComponentPad*%
%ADD14R,1.800000X1.800000*%
%TD*%
%TA.AperFunction,ComponentPad*%
%ADD15C,1.800000*%
%TD*%
%TA.AperFunction,ComponentPad*%
%ADD16R,1.700000X1.700000*%
%TD*%
%TA.AperFunction,ComponentPad*%
%ADD17O,1.700000X1.700000*%
%TD*%
%TA.AperFunction,ViaPad*%
%ADD18C,0.800000*%
%TD*%
%TA.AperFunction,Conductor*%
%ADD19C,0.250000*%
%TD*%
G04 APERTURE END LIST*
D10*
%TO.P,R7,1*%
%TO.N,Net-(D7-K)*%
X188960000Y-75000000D03*
D11*
%TO.P,R7,2*%
%TO.N,Net-(J3-Pin_1)*%
X194040000Y-75000000D03*
%TD*%
D10*
%TO.P,R1,1*%
%TO.N,Net-(D1-K)*%
X130040000Y-92500000D03*
D11*
%TO.P,R1,2*%
%TO.N,Net-(J3-Pin_1)*%
X124960000Y-92500000D03*
%TD*%
D10*
%TO.P,R5,1*%
%TO.N,Net-(Q2-E)*%
X172500000Y-85540000D03*
D11*
%TO.P,R5,2*%
%TO.N,Net-(J3-Pin_2)*%
X172500000Y-80460000D03*
%TD*%
D12*
%TO.P,Q2,1,C*%
%TO.N,Net-(Q1-E)*%
X160360000Y-76270000D03*
D13*
%TO.P,Q2,2,B*%
%TO.N,Net-(Q2-B)*%
X159090000Y-75000000D03*
%TO.P,Q2,3,E*%
%TO.N,Net-(Q2-E)*%
X160360000Y-73730000D03*
%TD*%
D14*
%TO.P,D1,1,K*%
%TO.N,Net-(D1-K)*%
X128775000Y-82500000D03*
D15*
%TO.P,D1,2,A*%
%TO.N,Net-(D1-A)*%
X126235000Y-82500000D03*
%TD*%
D12*
%TO.P,Q3,1,C*%
%TO.N,Net-(J3-Pin_1)*%
X160360000Y-63540000D03*
D13*
%TO.P,Q3,2,B*%
%TO.N,Net-(Q2-E)*%
X159090000Y-62270000D03*
%TO.P,Q3,3,E*%
%TO.N,Net-(D7-A)*%
X160360000Y-61000000D03*
%TD*%
D16*
%TO.P,J2,1*%
%TO.N,Net-(J3-Pin_2)*%
X120025000Y-67525000D03*
D17*
%TO.P,J2,2*%
%TO.N,Net-(D2-A)*%
X117485000Y-67525000D03*
%TO.P,J2,3*%
%TO.N,Net-(J3-Pin_1)*%
X114945000Y-67525000D03*
%TD*%
D16*
%TO.P,J1,1*%
%TO.N,Net-(J3-Pin_2)*%
X120025000Y-83025000D03*
D17*
%TO.P,J1,2*%
%TO.N,Net-(D1-A)*%
X117485000Y-83025000D03*
%TO.P,J1,3*%
%TO.N,Net-(J3-Pin_1)*%
X114945000Y-83025000D03*
%TD*%
D10*
%TO.P,R2,1*%
%TO.N,Net-(D2-K)*%
X130080000Y-57500000D03*
D11*
%TO.P,R2,2*%
%TO.N,Net-(J3-Pin_1)*%
X125000000Y-57500000D03*
%TD*%
D10*
%TO.P,R6,1*%
%TO.N,Net-(D7-A)*%
X172500000Y-66960000D03*
D11*
%TO.P,R6,2*%
%TO.N,Net-(J3-Pin_2)*%
X172500000Y-72040000D03*
%TD*%
D14*
%TO.P,D7,1,K*%
%TO.N,Net-(D7-K)*%
X181500000Y-75000000D03*
D15*
%TO.P,D7,2,A*%
%TO.N,Net-(D7-A)*%
X178960000Y-75000000D03*
%TD*%
D10*
%TO.P,R4,1*%
%TO.N,Net-(D2-A)*%
X141000000Y-66000000D03*
D11*
%TO.P,R4,2*%
%TO.N,Net-(Q2-B)*%
X146080000Y-66000000D03*
%TD*%
D16*
%TO.P,J3,1,Pin_1*%
%TO.N,Net-(J3-Pin_1)*%
X105000000Y-73750000D03*
D17*
%TO.P,J3,2,Pin_2*%
%TO.N,Net-(J3-Pin_2)*%
X105000000Y-76290000D03*
%TD*%
D12*
%TO.P,Q1,1,C*%
%TO.N,Net-(J3-Pin_1)*%
X160360000Y-86270000D03*
D13*
%TO.P,Q1,2,B*%
%TO.N,Net-(Q1-B)*%
X159090000Y-85000000D03*
%TO.P,Q1,3,E*%
%TO.N,Net-(Q1-E)*%
X160360000Y-83730000D03*
%TD*%
D10*
%TO.P,R3,1*%
%TO.N,Net-(D1-A)*%
X140960000Y-84000000D03*
D11*
%TO.P,R3,2*%
%TO.N,Net-(Q1-B)*%
X146040000Y-84000000D03*
%TD*%
D14*
%TO.P,D2,1,K*%
%TO.N,Net-(D2-K)*%
X128775000Y-67500000D03*
D15*
%TO.P,D2,2,A*%
%TO.N,Net-(D2-A)*%
X126235000Y-67500000D03*
%TD*%
D18*
%TO.N,Net-(J3-Pin_1)*%
X123500000Y-54000000D03*
%TD*%
D19*
%TO.N,Net-(D1-A)*%
X118500000Y-78500000D02*
X140000000Y-78500000D01*
X140960000Y-79460000D02*
X140960000Y-84000000D01*
X117485000Y-83025000D02*
X117485000Y-79515000D01*
X140000000Y-78500000D02*
X140960000Y-79460000D01*
X117485000Y-79515000D02*
X118500000Y-78500000D01*
%TO.N,Net-(D2-A)*%
X117500000Y-67540000D02*
X117485000Y-67525000D01*
X141000000Y-66000000D02*
X141000000Y-70500000D01*
X117500000Y-70500000D02*
X117500000Y-67540000D01*
X141000000Y-70500000D02*
X140000000Y-71500000D01*
X140000000Y-71500000D02*
X118500000Y-71500000D01*
X118500000Y-71500000D02*
X117500000Y-70500000D01*
%TO.N,Net-(J3-Pin_2)*%
X174500000Y-97000000D02*
X106000000Y-97000000D01*
X173960000Y-80460000D02*
X175500000Y-82000000D01*
X175500000Y-96000000D02*
X174500000Y-97000000D01*
X105000000Y-96000000D02*
X105000000Y-75500000D01*
X172500000Y-80460000D02*
X173960000Y-80460000D01*
X175500000Y-82000000D02*
X175500000Y-96000000D01*
X106000000Y-97000000D02*
X105000000Y-96000000D01*
%TO.N,Net-(J3-Pin_1)*%
X154500000Y-67000000D02*
X153000000Y-65500000D01*
X160360000Y-65640000D02*
X159000000Y-67000000D01*
X151500000Y-54000000D02*
X123500000Y-54000000D01*
X153000000Y-65500000D02*
X153000000Y-55500000D01*
X160360000Y-63540000D02*
X160360000Y-65640000D01*
X159000000Y-67000000D02*
X154500000Y-67000000D01*
X153000000Y-55500000D02*
X151500000Y-54000000D01*
%TD*%
%TA.AperFunction,NonConductor*%
G36*
X199942539Y-50020185D02*
G01*
X199988294Y-50072989D01*
X199999500Y-50124500D01*
X199999500Y-99876000D01*
X199979815Y-99943039D01*
X199927011Y-99988794D01*
X199875500Y-100000000D01*
X100124500Y-100000000D01*
X100057461Y-99980315D01*
X100011706Y-99927511D01*
X100000500Y-99876000D01*
X100000500Y-76290000D01*
X103644341Y-76290000D01*
X103664936Y-76525403D01*
X103664938Y-76525413D01*
X103726094Y-76753655D01*
X103726096Y-76753659D01*
X103726097Y-76753663D01*
X103825964Y-76967830D01*
X103825965Y-76967830D01*
X103825967Y-76967834D01*
X103934281Y-77122521D01*
X103961505Y-77161401D01*
X104128599Y-77328495D01*
X104321624Y-77463653D01*
X104365248Y-77518228D01*
X104374500Y-77565226D01*
X104374500Y-95917255D01*
X104372775Y-95932872D01*
X104373061Y-95932899D01*
X104372326Y-95940665D01*
X104374500Y-96009814D01*
X104374500Y-96039343D01*
X104374501Y-96039360D01*
X104375368Y-96046231D01*
X104375826Y-96052050D01*
X104377290Y-96098624D01*
X104377291Y-96098627D01*
X104382880Y-96117867D01*
X104386824Y-96136911D01*
X104389336Y-96156792D01*
X104396899Y-96175895D01*
X104406490Y-96200119D01*
X104408382Y-96205647D01*
X104421381Y-96250388D01*
X104431580Y-96267634D01*
X104440136Y-96285100D01*
X104447514Y-96303732D01*
X104472542Y-96338181D01*
X104474898Y-96341423D01*
X104478106Y-96346307D01*
X104501827Y-96386416D01*
X104501833Y-96386424D01*
X104515990Y-96400580D01*
X104528628Y-96415376D01*
X104540405Y-96431586D01*
X104540406Y-96431587D01*
X104576309Y-96461288D01*
X104580620Y-96465210D01*
X105499193Y-97383783D01*
X105499194Y-97383784D01*
X105509019Y-97396048D01*
X105509240Y-97395866D01*
X105514210Y-97401873D01*
X105514213Y-97401876D01*
X105514214Y-97401877D01*
X105564651Y-97449241D01*
X105585530Y-97470120D01*
X105591004Y-97474366D01*
X105595442Y-97478156D01*
X105629418Y-97510062D01*
X105629422Y-97510064D01*
X105646973Y-97519713D01*
X105663231Y-97530392D01*
X105679064Y-97542674D01*
X105701015Y-97552172D01*
X105721837Y-97561183D01*
X105727081Y-97563752D01*
X105767908Y-97586197D01*
X105787312Y-97591179D01*
X105805710Y-97597478D01*
X105824105Y-97605438D01*
X105870129Y-97612726D01*
X105875832Y-97613907D01*
X105920981Y-97625500D01*
X105941016Y-97625500D01*
X105960413Y-97627026D01*
X105980196Y-97630160D01*
X106026583Y-97625775D01*
X106032422Y-97625500D01*
X174417257Y-97625500D01*
X174432877Y-97627224D01*
X174432904Y-97626939D01*
X174440660Y-97627671D01*
X174440667Y-97627673D01*
X174509814Y-97625500D01*
X174539350Y-97625500D01*
X174546228Y-97624630D01*
X174552041Y-97624172D01*
X174598627Y-97622709D01*
X174617869Y-97617117D01*
X174636912Y-97613174D01*
X174656792Y-97610664D01*
X174700122Y-97593507D01*
X174705646Y-97591617D01*
X174709396Y-97590527D01*
X174750390Y-97578618D01*
X174767629Y-97568422D01*
X174785103Y-97559862D01*
X174803727Y-97552488D01*
X174803727Y-97552487D01*
X174803732Y-97552486D01*
X174841449Y-97525082D01*
X174846305Y-97521892D01*
X174886420Y-97498170D01*
X174900589Y-97483999D01*
X174915379Y-97471368D01*
X174931587Y-97459594D01*
X174961299Y-97423676D01*
X174965212Y-97419376D01*
X175883786Y-96500802D01*
X175896048Y-96490980D01*
X175895865Y-96490759D01*
X175901867Y-96485792D01*
X175901877Y-96485786D01*
X175949241Y-96435348D01*
X175970120Y-96414470D01*
X175974373Y-96408986D01*
X175978150Y-96404563D01*
X176010062Y-96370582D01*
X176019714Y-96353023D01*
X176030389Y-96336772D01*
X176042674Y-96320936D01*
X176061186Y-96278152D01*
X176063742Y-96272935D01*
X176086197Y-96232092D01*
X176091180Y-96212680D01*
X176097477Y-96194291D01*
X176105438Y-96175895D01*
X176112729Y-96129853D01*
X176113908Y-96124162D01*
X176125500Y-96079019D01*
X176125500Y-96058974D01*
X176127025Y-96039591D01*
X176130160Y-96019804D01*
X176125775Y-95973415D01*
X176125500Y-95967577D01*
X176125500Y-82082742D01*
X176127224Y-82067122D01*
X176126939Y-82067096D01*
X176127671Y-82059340D01*
X176127673Y-82059333D01*
X176125500Y-81990185D01*
X176125500Y-81960650D01*
X176124631Y-81953772D01*
X176124172Y-81947943D01*
X176122709Y-81901372D01*
X176117122Y-81882144D01*
X176113174Y-81863084D01*
X176111644Y-81850967D01*
X176110664Y-81843208D01*
X176110663Y-81843206D01*
X176110663Y-81843204D01*
X176093512Y-81799887D01*
X176091619Y-81794358D01*
X176078618Y-81749609D01*
X176078616Y-81749606D01*
X176068423Y-81732371D01*
X176059861Y-81714894D01*
X176052487Y-81696270D01*
X176052486Y-81696268D01*
X176025079Y-81658545D01*
X176021888Y-81653686D01*
X175998172Y-81613583D01*
X175998165Y-81613574D01*
X175984006Y-81599415D01*
X175971368Y-81584619D01*
X175959594Y-81568413D01*
X175939907Y-81552127D01*
X175923688Y-81538709D01*
X175919376Y-81534786D01*
X174460803Y-80076212D01*
X174450980Y-80063950D01*
X174450759Y-80064134D01*
X174445786Y-80058123D01*
X174395364Y-80010773D01*
X174384919Y-80000328D01*
X174374475Y-79989883D01*
X174368986Y-79985625D01*
X174364561Y-79981847D01*
X174330582Y-79949938D01*
X174330580Y-79949936D01*
X174330577Y-79949935D01*
X174313029Y-79940288D01*
X174296763Y-79929604D01*
X174280933Y-79917325D01*
X174238168Y-79898818D01*
X174232922Y-79896248D01*
X174192093Y-79873803D01*
X174192092Y-79873802D01*
X174172693Y-79868822D01*
X174154281Y-79862518D01*
X174135898Y-79854562D01*
X174135892Y-79854560D01*
X174089874Y-79847272D01*
X174084152Y-79846087D01*
X174039021Y-79834500D01*
X174039019Y-79834500D01*
X174018984Y-79834500D01*
X173999586Y-79832973D01*
X173992162Y-79831797D01*
X173979805Y-79829840D01*
X173979804Y-79829840D01*
X173933416Y-79834225D01*
X173927578Y-79834500D01*
X173593742Y-79834500D01*
X173526703Y-79814815D01*
X173494788Y-79785227D01*
X173390979Y-79647761D01*
X173226562Y-79497876D01*
X173226560Y-79497874D01*
X173037404Y-79380754D01*
X173037398Y-79380752D01*
X172829940Y-79300382D01*
X172611243Y-79259500D01*
X172388757Y-79259500D01*
X172170060Y-79300382D01*
X172070107Y-79339104D01*
X171962601Y-79380752D01*
X171962595Y-79380754D01*
X171773439Y-79497874D01*
X171773437Y-79497876D01*
X171609020Y-79647761D01*
X171474943Y-79825308D01*
X171474938Y-79825316D01*
X171375775Y-80024461D01*
X171375769Y-80024476D01*
X171314885Y-80238462D01*
X171314884Y-80238464D01*
X171294356Y-80459999D01*
X171294356Y-80460000D01*
X171314884Y-80681535D01*
X171314885Y-80681537D01*
X171375769Y-80895523D01*
X171375775Y-80895538D01*
X171474938Y-81094683D01*
X171474943Y-81094691D01*
X171609020Y-81272238D01*
X171773437Y-81422123D01*
X171773439Y-81422125D01*
X171962595Y-81539245D01*
X171962596Y-81539245D01*
X171962599Y-81539247D01*
X172170060Y-81619618D01*
X172388757Y-81660500D01*
X172388759Y-81660500D01*
X172611241Y-81660500D01*
X172611243Y-81660500D01*
X172829940Y-81619618D01*
X173037401Y-81539247D01*
X173226562Y-81422124D01*
X173390981Y-81272236D01*
X173494788Y-81134772D01*
X173550897Y-81093137D01*
X173593742Y-81085500D01*
X173649548Y-81085500D01*
X173716587Y-81105185D01*
X173737229Y-81121819D01*
X174838181Y-82222771D01*
X174871666Y-82284094D01*
X174874500Y-82310452D01*
X174874500Y-95689547D01*
X174854815Y-95756586D01*
X174838181Y-95777228D01*
X174277228Y-96338181D01*
X174215905Y-96371666D01*
X174189547Y-96374500D01*
X106310452Y-96374500D01*
X106243413Y-96354815D01*
X106222771Y-96338181D01*
X105661819Y-95777228D01*
X105628334Y-95715905D01*
X105625500Y-95689547D01*
X105625500Y-92500000D01*
X123754357Y-92500000D01*
X123774884Y-92721535D01*
X123774885Y-92721537D01*
X123835769Y-92935523D01*
X123835775Y-92935538D01*
X123934938Y-93134683D01*
X123934943Y-93134691D01*
X124069020Y-93312238D01*
X124233437Y-93462123D01*
X124233439Y-93462125D01*
X124422595Y-93579245D01*
X124422596Y-93579245D01*
X124422599Y-93579247D01*
X124630060Y-93659618D01*
X124848757Y-93700500D01*
X124848759Y-93700500D01*
X125071241Y-93700500D01*
X125071243Y-93700500D01*
X125289940Y-93659618D01*
X125497401Y-93579247D01*
X125686562Y-93462124D01*
X125850981Y-93312236D01*
X125985058Y-93134689D01*
X126084229Y-92935528D01*
X126145115Y-92721536D01*
X126165643Y-92500000D01*
X128834357Y-92500000D01*
X128854884Y-92721535D01*
X128854885Y-92721537D01*
X128915769Y-92935523D01*
X128915775Y-92935538D01*
X129014938Y-93134683D01*
X129014943Y-93134691D01*
X129149020Y-93312238D01*
X129313437Y-93462123D01*
X129313439Y-93462125D01*
X129502595Y-93579245D01*
X129502596Y-93579245D01*
X129502599Y-93579247D01*
X129710060Y-93659618D01*
X129928757Y-93700500D01*
X129928759Y-93700500D01*
X130151241Y-93700500D01*
X130151243Y-93700500D01*
X130369940Y-93659618D01*
X130577401Y-93579247D01*
X130766562Y-93462124D01*
X130930981Y-93312236D01*
X131065058Y-93134689D01*
X131164229Y-92935528D01*
X131225115Y-92721536D01*
X131245643Y-92500000D01*
X131225115Y-92278464D01*
X131164229Y-92064472D01*
X131164224Y-92064461D01*
X131065061Y-91865316D01*
X131065056Y-91865308D01*
X130930979Y-91687761D01*
X130766562Y-91537876D01*
X130766560Y-91537874D01*
X130577404Y-91420754D01*
X130577398Y-91420752D01*
X130369940Y-91340382D01*
X130151243Y-91299500D01*
X129928757Y-91299500D01*
X129710060Y-91340382D01*
X129578864Y-91391207D01*
X129502601Y-91420752D01*
X129502595Y-91420754D01*
X129313439Y-91537874D01*
X129313437Y-91537876D01*
X129149020Y-91687761D01*
X129014943Y-91865308D01*
X129014938Y-91865316D01*
X128915775Y-92064461D01*
X128915769Y-92064476D01*
X128854885Y-92278462D01*
X128854884Y-92278464D01*
X128834357Y-92499999D01*
X128834357Y-92500000D01*
X126165643Y-92500000D01*
X126145115Y-92278464D01*
X126084229Y-92064472D01*
X126084224Y-92064461D01*
X125985061Y-91865316D01*
X125985056Y-91865308D01*
X125850979Y-91687761D01*
X125686562Y-91537876D01*
X125686560Y-91537874D01*
X125497404Y-91420754D01*
X125497398Y-91420752D01*
X125289940Y-91340382D01*
X125071243Y-91299500D01*
X124848757Y-91299500D01*
X124630060Y-91340382D01*
X124498864Y-91391207D01*
X124422601Y-91420752D01*
X124422595Y-91420754D01*
X124233439Y-91537874D01*
X124233437Y-91537876D01*
X124069020Y-91687761D01*
X123934943Y-91865308D01*
X123934938Y-91865316D01*
X123835775Y-92064461D01*
X123835769Y-92064476D01*
X123774885Y-92278462D01*
X123774884Y-92278464D01*
X123754357Y-92499999D01*
X123754357Y-92500000D01*
X105625500Y-92500000D01*
X105625500Y-86699617D01*
X105625500Y-83025000D01*
X113589341Y-83025000D01*
X113609936Y-83260403D01*
X113609938Y-83260413D01*
X113671094Y-83488655D01*
X113671096Y-83488659D01*
X113671097Y-83488663D01*
X113742753Y-83642330D01*
X113770965Y-83702830D01*
X113770967Y-83702834D01*
X113876199Y-83853120D01*
X113906505Y-83896401D01*
X114073599Y-84063495D01*
X114170384Y-84131265D01*
X114267165Y-84199032D01*
X114267167Y-84199033D01*
X114267170Y-84199035D01*
X114481337Y-84298903D01*
X114709592Y-84360063D01*
X114886034Y-84375500D01*
X114944999Y-84380659D01*
X114945000Y-84380659D01*
X114945001Y-84380659D01*
X115003966Y-84375500D01*
X115180408Y-84360063D01*
X115408663Y-84298903D01*
X115622830Y-84199035D01*
X115816401Y-84063495D01*
X115983495Y-83896401D01*
X116113424Y-83710842D01*
X116168002Y-83667217D01*
X116237500Y-83660023D01*
X116299855Y-83691546D01*
X116316575Y-83710842D01*
X116446500Y-83896395D01*
X116446505Y-83896401D01*
X116613599Y-84063495D01*
X116710384Y-84131265D01*
X116807165Y-84199032D01*
X116807167Y-84199033D01*
X116807170Y-84199035D01*
X117021337Y-84298903D01*
X117249592Y-84360063D01*
X117426034Y-84375500D01*
X117484999Y-84380659D01*
X117485000Y-84380659D01*
X117485001Y-84380659D01*
X117543966Y-84375500D01*
X117720408Y-84360063D01*
X117948663Y-84298903D01*
X118162830Y-84199035D01*
X118356401Y-84063495D01*
X118478329Y-83941566D01*
X118539648Y-83908084D01*
X118609340Y-83913068D01*
X118665274Y-83954939D01*
X118682189Y-83985917D01*
X118731202Y-84117328D01*
X118731206Y-84117335D01*
X118817452Y-84232544D01*
X118817455Y-84232547D01*
X118932664Y-84318793D01*
X118932671Y-84318797D01*
X119067517Y-84369091D01*
X119067516Y-84369091D01*
X119074444Y-84369835D01*
X119127127Y-84375500D01*
X120922872Y-84375499D01*
X120982483Y-84369091D01*
X121117331Y-84318796D01*
X121232546Y-84232546D01*
X121318796Y-84117331D01*
X121369091Y-83982483D01*
X121375500Y-83922873D01*
X121375499Y-82500006D01*
X124829700Y-82500006D01*
X124848864Y-82731297D01*
X124848866Y-82731308D01*
X124905842Y-82956300D01*
X124999075Y-83168848D01*
X125126016Y-83363147D01*
X125126019Y-83363151D01*
X125126021Y-83363153D01*
X125283216Y-83533913D01*
X125283219Y-83533915D01*
X125283222Y-83533918D01*
X125466365Y-83676464D01*
X125466371Y-83676468D01*
X125466374Y-83676470D01*
X125670497Y-83786936D01*
X125784487Y-83826068D01*
X125890015Y-83862297D01*
X125890017Y-83862297D01*
X125890019Y-83862298D01*
X126118951Y-83900500D01*
X126118952Y-83900500D01*
X126351048Y-83900500D01*
X126351049Y-83900500D01*
X126579981Y-83862298D01*
X126799503Y-83786936D01*
X127003626Y-83676470D01*
X127015515Y-83667217D01*
X127147516Y-83564476D01*
X127186784Y-83533913D01*
X127195130Y-83524846D01*
X127255010Y-83488854D01*
X127324849Y-83490949D01*
X127382468Y-83530469D01*
X127402544Y-83565491D01*
X127431203Y-83642330D01*
X127431206Y-83642335D01*
X127517452Y-83757544D01*
X127517455Y-83757547D01*
X127632664Y-83843793D01*
X127632671Y-83843797D01*
X127767517Y-83894091D01*
X127767516Y-83894091D01*
X127774444Y-83894835D01*
X127827127Y-83900500D01*
X129722872Y-83900499D01*
X129782483Y-83894091D01*
X129917331Y-83843796D01*
X130032546Y-83757546D01*
X130118796Y-83642331D01*
X130169091Y-83507483D01*
X130175500Y-83447873D01*
X130175499Y-81552128D01*
X130169091Y-81492517D01*
X130159233Y-81466087D01*
X130118797Y-81357671D01*
X130118793Y-81357664D01*
X130032547Y-81242455D01*
X130032544Y-81242452D01*
X129917335Y-81156206D01*
X129917328Y-81156202D01*
X129782482Y-81105908D01*
X129782483Y-81105908D01*
X129722883Y-81099501D01*
X129722881Y-81099500D01*
X129722873Y-81099500D01*
X129722864Y-81099500D01*
X127827129Y-81099500D01*
X127827123Y-81099501D01*
X127767516Y-81105908D01*
X127632671Y-81156202D01*
X127632664Y-81156206D01*
X127517455Y-81242452D01*
X127517452Y-81242455D01*
X127431206Y-81357664D01*
X127431203Y-81357670D01*
X127402544Y-81434508D01*
X127360672Y-81490441D01*
X127295208Y-81514858D01*
X127226935Y-81500006D01*
X127195135Y-81475158D01*
X127186784Y-81466087D01*
X127186778Y-81466082D01*
X127186777Y-81466081D01*
X127003634Y-81323535D01*
X127003628Y-81323531D01*
X126799504Y-81213064D01*
X126799495Y-81213061D01*
X126579984Y-81137702D01*
X126385117Y-81105185D01*
X126351049Y-81099500D01*
X126118951Y-81099500D01*
X126084883Y-81105185D01*
X125890015Y-81137702D01*
X125670504Y-81213061D01*
X125670495Y-81213064D01*
X125466371Y-81323531D01*
X125466365Y-81323535D01*
X125283222Y-81466081D01*
X125283219Y-81466084D01*
X125283216Y-81466086D01*
X125283216Y-81466087D01*
X125238319Y-81514858D01*
X125126016Y-81636852D01*
X124999075Y-81831151D01*
X124905842Y-82043699D01*
X124848866Y-82268691D01*
X124848864Y-82268702D01*
X124829700Y-82499993D01*
X124829700Y-82500006D01*
X121375499Y-82500006D01*
X121375499Y-82127128D01*
X121369091Y-82067517D01*
X121367810Y-82064083D01*
X121318797Y-81932671D01*
X121318793Y-81932664D01*
X121232547Y-81817455D01*
X121232544Y-81817452D01*
X121117335Y-81731206D01*
X121117328Y-81731202D01*
X120982482Y-81680908D01*
X120982483Y-81680908D01*
X120922883Y-81674501D01*
X120922881Y-81674500D01*
X120922873Y-81674500D01*
X120922864Y-81674500D01*
X119127129Y-81674500D01*
X119127123Y-81674501D01*
X119067516Y-81680908D01*
X118932671Y-81731202D01*
X118932664Y-81731206D01*
X118817455Y-81817452D01*
X118817452Y-81817455D01*
X118731206Y-81932664D01*
X118731203Y-81932669D01*
X118682189Y-82064083D01*
X118640317Y-82120016D01*
X118574853Y-82144433D01*
X118506580Y-82129581D01*
X118478326Y-82108430D01*
X118356402Y-81986506D01*
X118356401Y-81986505D01*
X118163376Y-81851347D01*
X118119751Y-81796770D01*
X118110500Y-81749772D01*
X118110500Y-80895523D01*
X118110499Y-79825448D01*
X118130184Y-79758413D01*
X118146813Y-79737776D01*
X118722770Y-79161819D01*
X118784094Y-79128334D01*
X118810452Y-79125500D01*
X139689548Y-79125500D01*
X139756587Y-79145185D01*
X139777228Y-79161818D01*
X140298182Y-79682772D01*
X140331666Y-79744093D01*
X140334500Y-79770451D01*
X140334500Y-82906233D01*
X140314815Y-82973272D01*
X140275778Y-83011660D01*
X140233436Y-83037877D01*
X140069020Y-83187761D01*
X139934943Y-83365308D01*
X139934938Y-83365316D01*
X139835775Y-83564461D01*
X139835769Y-83564476D01*
X139774885Y-83778462D01*
X139774884Y-83778464D01*
X139754357Y-83999999D01*
X139754357Y-84000000D01*
X139774884Y-84221535D01*
X139774885Y-84221537D01*
X139835769Y-84435523D01*
X139835775Y-84435538D01*
X139934938Y-84634683D01*
X139934943Y-84634691D01*
X140069020Y-84812238D01*
X140233437Y-84962123D01*
X140233439Y-84962125D01*
X140422595Y-85079245D01*
X140422596Y-85079245D01*
X140422599Y-85079247D01*
X140630060Y-85159618D01*
X140848757Y-85200500D01*
X140848759Y-85200500D01*
X141071241Y-85200500D01*
X141071243Y-85200500D01*
X141289940Y-85159618D01*
X141497401Y-85079247D01*
X141686562Y-84962124D01*
X141850981Y-84812236D01*
X141985058Y-84634689D01*
X142084229Y-84435528D01*
X142145115Y-84221536D01*
X142165643Y-84000000D01*
X144834357Y-84000000D01*
X144854884Y-84221535D01*
X144854885Y-84221537D01*
X144915769Y-84435523D01*
X144915775Y-84435538D01*
X145014938Y-84634683D01*
X145014943Y-84634691D01*
X145149020Y-84812238D01*
X145313437Y-84962123D01*
X145313439Y-84962125D01*
X145502595Y-85079245D01*
X145502596Y-85079245D01*
X145502599Y-85079247D01*
X145710060Y-85159618D01*
X145928757Y-85200500D01*
X145928759Y-85200500D01*
X146151241Y-85200500D01*
X146151243Y-85200500D01*
X146369940Y-85159618D01*
X146577401Y-85079247D01*
X146705390Y-85000000D01*
X157934571Y-85000000D01*
X157954244Y-85212310D01*
X158001293Y-85377669D01*
X158012596Y-85417392D01*
X158012596Y-85417394D01*
X158107632Y-85608253D01*
X158223387Y-85761536D01*
X158236128Y-85778407D01*
X158393698Y-85922052D01*
X158574981Y-86034298D01*
X158773802Y-86111321D01*
X158983390Y-86150500D01*
X158983392Y-86150500D01*
X159085500Y-86150500D01*
X159152539Y-86170185D01*
X159198294Y-86222989D01*
X159209500Y-86274500D01*
X159209500Y-86967870D01*
X159209501Y-86967876D01*
X159215908Y-87027483D01*
X159266202Y-87162328D01*
X159266206Y-87162335D01*
X159352452Y-87277544D01*
X159352455Y-87277547D01*
X159467664Y-87363793D01*
X159467671Y-87363797D01*
X159602517Y-87414091D01*
X159602516Y-87414091D01*
X159609444Y-87414835D01*
X159662127Y-87420500D01*
X161057872Y-87420499D01*
X161117483Y-87414091D01*
X161252331Y-87363796D01*
X161367546Y-87277546D01*
X161453796Y-87162331D01*
X161504091Y-87027483D01*
X161510500Y-86967873D01*
X161510499Y-85572128D01*
X161507045Y-85540000D01*
X171294356Y-85540000D01*
X171314884Y-85761535D01*
X171314885Y-85761537D01*
X171375769Y-85975523D01*
X171375775Y-85975538D01*
X171474938Y-86174683D01*
X171474943Y-86174691D01*
X171609020Y-86352238D01*
X171773437Y-86502123D01*
X171773439Y-86502125D01*
X171962595Y-86619245D01*
X171962596Y-86619245D01*
X171962599Y-86619247D01*
X172170060Y-86699618D01*
X172388757Y-86740500D01*
X172388759Y-86740500D01*
X172611241Y-86740500D01*
X172611243Y-86740500D01*
X172829940Y-86699618D01*
X173037401Y-86619247D01*
X173226562Y-86502124D01*
X173390981Y-86352236D01*
X173525058Y-86174689D01*
X173624229Y-85975528D01*
X173685115Y-85761536D01*
X173705643Y-85540000D01*
X173685115Y-85318464D01*
X173624229Y-85104472D01*
X173624224Y-85104461D01*
X173525061Y-84905316D01*
X173525056Y-84905308D01*
X173390979Y-84727761D01*
X173226562Y-84577876D01*
X173226560Y-84577874D01*
X173037404Y-84460754D01*
X173037398Y-84460752D01*
X172829940Y-84380382D01*
X172611243Y-84339500D01*
X172388757Y-84339500D01*
X172170060Y-84380382D01*
X172038864Y-84431207D01*
X171962601Y-84460752D01*
X171962595Y-84460754D01*
X171773439Y-84577874D01*
X171773437Y-84577876D01*
X171609020Y-84727761D01*
X171474943Y-84905308D01*
X171474938Y-84905316D01*
X171375775Y-85104461D01*
X171375769Y-85104476D01*
X171314885Y-85318462D01*
X171314884Y-85318464D01*
X171294356Y-85539999D01*
X171294356Y-85540000D01*
X161507045Y-85540000D01*
X161504091Y-85512517D01*
X161468612Y-85417394D01*
X161453797Y-85377671D01*
X161453793Y-85377664D01*
X161367547Y-85262455D01*
X161367544Y-85262452D01*
X161252335Y-85176206D01*
X161252328Y-85176202D01*
X161117482Y-85125908D01*
X161117483Y-85125908D01*
X161057883Y-85119501D01*
X161057881Y-85119500D01*
X161057873Y-85119500D01*
X161057865Y-85119500D01*
X160526245Y-85119500D01*
X160459206Y-85099815D01*
X160413451Y-85047011D01*
X160403507Y-84977853D01*
X160432532Y-84914297D01*
X160491310Y-84876523D01*
X160503450Y-84873613D01*
X160676198Y-84841321D01*
X160875019Y-84764298D01*
X161056302Y-84652052D01*
X161213872Y-84508407D01*
X161342366Y-84338255D01*
X161395002Y-84232547D01*
X161437403Y-84147394D01*
X161437403Y-84147393D01*
X161437405Y-84147389D01*
X161495756Y-83942310D01*
X161515429Y-83730000D01*
X161495756Y-83517690D01*
X161437405Y-83312611D01*
X161437403Y-83312606D01*
X161437403Y-83312605D01*
X161342367Y-83121746D01*
X161213872Y-82951593D01*
X161180041Y-82920752D01*
X161056302Y-82807948D01*
X160875019Y-82695702D01*
X160875017Y-82695701D01*
X160775608Y-82657190D01*
X160676198Y-82618679D01*
X160466610Y-82579500D01*
X160253390Y-82579500D01*
X160043802Y-82618679D01*
X160043799Y-82618679D01*
X160043799Y-82618680D01*
X159844982Y-82695701D01*
X159844980Y-82695702D01*
X159663699Y-82807947D01*
X159506127Y-82951593D01*
X159377632Y-83121746D01*
X159282596Y-83312605D01*
X159282596Y-83312607D01*
X159224244Y-83517689D01*
X159204042Y-83735708D01*
X159201638Y-83735485D01*
X159184886Y-83792539D01*
X159132082Y-83838294D01*
X159080571Y-83849500D01*
X158983390Y-83849500D01*
X158773802Y-83888679D01*
X158773799Y-83888679D01*
X158773799Y-83888680D01*
X158574982Y-83965701D01*
X158574980Y-83965702D01*
X158393699Y-84077947D01*
X158236127Y-84221593D01*
X158107632Y-84391746D01*
X158012596Y-84582605D01*
X158012596Y-84582607D01*
X157954244Y-84787689D01*
X157938081Y-84962125D01*
X157934571Y-85000000D01*
X146705390Y-85000000D01*
X146766562Y-84962124D01*
X146930981Y-84812236D01*
X147065058Y-84634689D01*
X147164229Y-84435528D01*
X147225115Y-84221536D01*
X147245643Y-84000000D01*
X147225115Y-83778464D01*
X147164229Y-83564472D01*
X147149015Y-83533918D01*
X147065061Y-83365316D01*
X147065056Y-83365308D01*
X146930979Y-83187761D01*
X146766562Y-83037876D01*
X146766560Y-83037874D01*
X146577404Y-82920754D01*
X146577398Y-82920752D01*
X146369940Y-82840382D01*
X146151243Y-82799500D01*
X145928757Y-82799500D01*
X145710060Y-82840382D01*
X145578864Y-82891207D01*
X145502601Y-82920752D01*
X145502595Y-82920754D01*
X145313439Y-83037874D01*
X145313437Y-83037876D01*
X145149020Y-83187761D01*
X145014943Y-83365308D01*
X145014938Y-83365316D01*
X144915775Y-83564461D01*
X144915769Y-83564476D01*
X144854885Y-83778462D01*
X144854884Y-83778464D01*
X144834357Y-83999999D01*
X144834357Y-84000000D01*
X142165643Y-84000000D01*
X142145115Y-83778464D01*
X142084229Y-83564472D01*
X142069015Y-83533918D01*
X141985061Y-83365316D01*
X141985056Y-83365308D01*
X141850979Y-83187761D01*
X141686563Y-83037877D01*
X141686562Y-83037876D01*
X141644222Y-83011660D01*
X141597587Y-82959631D01*
X141585500Y-82906233D01*
X141585500Y-79542742D01*
X141587224Y-79527122D01*
X141586939Y-79527096D01*
X141587671Y-79519340D01*
X141587673Y-79519333D01*
X141585500Y-79450185D01*
X141585500Y-79420650D01*
X141584631Y-79413772D01*
X141584172Y-79407943D01*
X141582709Y-79361372D01*
X141577122Y-79342144D01*
X141573174Y-79323084D01*
X141570663Y-79303204D01*
X141553512Y-79259887D01*
X141551619Y-79254358D01*
X141538618Y-79209609D01*
X141538616Y-79209606D01*
X141528423Y-79192371D01*
X141519861Y-79174894D01*
X141512487Y-79156270D01*
X141512486Y-79156268D01*
X141485079Y-79118545D01*
X141481888Y-79113686D01*
X141474101Y-79100519D01*
X141465975Y-79086777D01*
X141458172Y-79073583D01*
X141458165Y-79073574D01*
X141444006Y-79059415D01*
X141431368Y-79044619D01*
X141419594Y-79028413D01*
X141383688Y-78998709D01*
X141379376Y-78994786D01*
X140500803Y-78116212D01*
X140490980Y-78103950D01*
X140490759Y-78104134D01*
X140485786Y-78098123D01*
X140467159Y-78080631D01*
X140435364Y-78050773D01*
X140424919Y-78040328D01*
X140414475Y-78029883D01*
X140408986Y-78025625D01*
X140404561Y-78021847D01*
X140370582Y-77989938D01*
X140370580Y-77989936D01*
X140370577Y-77989935D01*
X140353029Y-77980288D01*
X140336763Y-77969604D01*
X140320933Y-77957325D01*
X140278168Y-77938818D01*
X140272922Y-77936248D01*
X140232093Y-77913803D01*
X140232092Y-77913802D01*
X140212693Y-77908822D01*
X140194281Y-77902518D01*
X140175898Y-77894562D01*
X140175892Y-77894560D01*
X140129874Y-77887272D01*
X140124152Y-77886087D01*
X140079021Y-77874500D01*
X140079019Y-77874500D01*
X140058984Y-77874500D01*
X140039586Y-77872973D01*
X140032162Y-77871797D01*
X140019805Y-77869840D01*
X140019804Y-77869840D01*
X139973416Y-77874225D01*
X139967578Y-77874500D01*
X118582743Y-77874500D01*
X118567122Y-77872775D01*
X118567095Y-77873061D01*
X118559333Y-77872326D01*
X118490172Y-77874500D01*
X118460649Y-77874500D01*
X118453778Y-77875367D01*
X118447959Y-77875825D01*
X118401374Y-77877289D01*
X118401368Y-77877290D01*
X118382126Y-77882880D01*
X118363087Y-77886823D01*
X118343217Y-77889334D01*
X118343203Y-77889337D01*
X118299883Y-77906488D01*
X118294358Y-77908380D01*
X118249613Y-77921380D01*
X118249610Y-77921381D01*
X118232366Y-77931579D01*
X118214905Y-77940133D01*
X118196274Y-77947510D01*
X118196262Y-77947517D01*
X118158570Y-77974902D01*
X118153687Y-77978109D01*
X118113580Y-78001829D01*
X118099414Y-78015995D01*
X118084624Y-78028627D01*
X118068414Y-78040404D01*
X118068411Y-78040407D01*
X118038710Y-78076309D01*
X118034777Y-78080631D01*
X117101208Y-79014199D01*
X117088951Y-79024020D01*
X117089134Y-79024241D01*
X117083123Y-79029213D01*
X117035772Y-79079636D01*
X117014889Y-79100519D01*
X117014877Y-79100532D01*
X117010621Y-79106017D01*
X117006837Y-79110447D01*
X116974937Y-79144418D01*
X116974936Y-79144420D01*
X116965284Y-79161976D01*
X116954610Y-79178226D01*
X116942329Y-79194061D01*
X116942324Y-79194068D01*
X116923815Y-79236838D01*
X116921245Y-79242084D01*
X116898803Y-79282906D01*
X116893822Y-79302307D01*
X116887521Y-79320710D01*
X116879562Y-79339102D01*
X116879561Y-79339105D01*
X116872271Y-79385127D01*
X116871087Y-79390846D01*
X116859501Y-79435972D01*
X116859500Y-79435982D01*
X116859500Y-79456016D01*
X116857973Y-79475415D01*
X116854840Y-79495194D01*
X116854839Y-79495197D01*
X116859224Y-79541585D01*
X116859499Y-79547421D01*
X116859500Y-81749773D01*
X116839815Y-81816812D01*
X116806623Y-81851348D01*
X116613597Y-81986505D01*
X116446505Y-82153597D01*
X116316575Y-82339158D01*
X116261998Y-82382783D01*
X116192500Y-82389977D01*
X116130145Y-82358454D01*
X116113425Y-82339158D01*
X115983494Y-82153597D01*
X115816402Y-81986506D01*
X115816395Y-81986501D01*
X115622834Y-81850967D01*
X115622830Y-81850965D01*
X115606195Y-81843208D01*
X115408663Y-81751097D01*
X115408659Y-81751096D01*
X115408655Y-81751094D01*
X115180413Y-81689938D01*
X115180403Y-81689936D01*
X114945001Y-81669341D01*
X114944999Y-81669341D01*
X114709596Y-81689936D01*
X114709586Y-81689938D01*
X114481344Y-81751094D01*
X114481335Y-81751098D01*
X114267171Y-81850964D01*
X114267169Y-81850965D01*
X114073597Y-81986505D01*
X113906505Y-82153597D01*
X113770965Y-82347169D01*
X113770964Y-82347171D01*
X113671098Y-82561335D01*
X113671094Y-82561344D01*
X113609938Y-82789586D01*
X113609936Y-82789596D01*
X113589341Y-83024999D01*
X113589341Y-83025000D01*
X105625500Y-83025000D01*
X105625500Y-77565222D01*
X105645184Y-77498187D01*
X105678371Y-77463656D01*
X105871401Y-77328495D01*
X106038495Y-77161401D01*
X106174035Y-76967830D01*
X106273903Y-76753663D01*
X106335063Y-76525408D01*
X106355659Y-76290000D01*
X106335063Y-76054592D01*
X106273903Y-75826337D01*
X106174035Y-75612171D01*
X106145997Y-75572129D01*
X106038496Y-75418600D01*
X105997560Y-75377664D01*
X105916567Y-75296671D01*
X105883084Y-75235351D01*
X105888068Y-75165659D01*
X105929939Y-75109725D01*
X105960915Y-75092810D01*
X106092331Y-75043796D01*
X106150835Y-75000000D01*
X157934571Y-75000000D01*
X157954244Y-75212310D01*
X158001293Y-75377669D01*
X158012596Y-75417392D01*
X158012596Y-75417394D01*
X158107632Y-75608253D01*
X158236127Y-75778406D01*
X158236128Y-75778407D01*
X158393698Y-75922052D01*
X158574981Y-76034298D01*
X158773802Y-76111321D01*
X158983390Y-76150500D01*
X158983392Y-76150500D01*
X159085500Y-76150500D01*
X159152539Y-76170185D01*
X159198294Y-76222989D01*
X159209500Y-76274500D01*
X159209500Y-76967870D01*
X159209501Y-76967876D01*
X159215908Y-77027483D01*
X159266202Y-77162328D01*
X159266206Y-77162335D01*
X159352452Y-77277544D01*
X159352455Y-77277547D01*
X159467664Y-77363793D01*
X159467671Y-77363797D01*
X159602517Y-77414091D01*
X159602516Y-77414091D01*
X159609444Y-77414835D01*
X159662127Y-77420500D01*
X161057872Y-77420499D01*
X161117483Y-77414091D01*
X161252331Y-77363796D01*
X161367546Y-77277546D01*
X161453796Y-77162331D01*
X161504091Y-77027483D01*
X161510500Y-76967873D01*
X161510499Y-75572128D01*
X161504091Y-75512517D01*
X161483123Y-75456300D01*
X161453797Y-75377671D01*
X161453793Y-75377664D01*
X161367547Y-75262455D01*
X161367544Y-75262452D01*
X161252335Y-75176206D01*
X161252328Y-75176202D01*
X161117482Y-75125908D01*
X161117483Y-75125908D01*
X161057883Y-75119501D01*
X161057881Y-75119500D01*
X161057873Y-75119500D01*
X161057865Y-75119500D01*
X160526245Y-75119500D01*
X160459206Y-75099815D01*
X160413451Y-75047011D01*
X160406692Y-75000006D01*
X177554700Y-75000006D01*
X177573864Y-75231297D01*
X177573866Y-75231308D01*
X177630842Y-75456300D01*
X177724075Y-75668848D01*
X177851016Y-75863147D01*
X177851019Y-75863151D01*
X177851021Y-75863153D01*
X178008216Y-76033913D01*
X178008219Y-76033915D01*
X178008222Y-76033918D01*
X178191365Y-76176464D01*
X178191371Y-76176468D01*
X178191374Y-76176470D01*
X178395497Y-76286936D01*
X178509487Y-76326068D01*
X178615015Y-76362297D01*
X178615017Y-76362297D01*
X178615019Y-76362298D01*
X178843951Y-76400500D01*
X178843952Y-76400500D01*
X179076048Y-76400500D01*
X179076049Y-76400500D01*
X179304981Y-76362298D01*
X179524503Y-76286936D01*
X179728626Y-76176470D01*
X179761993Y-76150500D01*
X179812332Y-76111319D01*
X179911784Y-76033913D01*
X179920130Y-76024846D01*
X179980010Y-75988854D01*
X180049849Y-75990949D01*
X180107468Y-76030469D01*
X180127544Y-76065491D01*
X180156203Y-76142330D01*
X180156206Y-76142335D01*
X180242452Y-76257544D01*
X180242455Y-76257547D01*
X180357664Y-76343793D01*
X180357671Y-76343797D01*
X180492517Y-76394091D01*
X180492516Y-76394091D01*
X180499444Y-76394835D01*
X180552127Y-76400500D01*
X182447872Y-76400499D01*
X182507483Y-76394091D01*
X182642331Y-76343796D01*
X182757546Y-76257546D01*
X182843796Y-76142331D01*
X182894091Y-76007483D01*
X182900500Y-75947873D01*
X182900499Y-75000000D01*
X187754356Y-75000000D01*
X187774884Y-75221535D01*
X187774885Y-75221537D01*
X187835769Y-75435523D01*
X187835775Y-75435538D01*
X187934938Y-75634683D01*
X187934943Y-75634691D01*
X188069020Y-75812238D01*
X188233437Y-75962123D01*
X188233439Y-75962125D01*
X188422595Y-76079245D01*
X188422596Y-76079245D01*
X188422599Y-76079247D01*
X188630060Y-76159618D01*
X188848757Y-76200500D01*
X188848759Y-76200500D01*
X189071241Y-76200500D01*
X189071243Y-76200500D01*
X189289940Y-76159618D01*
X189497401Y-76079247D01*
X189686562Y-75962124D01*
X189850981Y-75812236D01*
X189985058Y-75634689D01*
X190084229Y-75435528D01*
X190145115Y-75221536D01*
X190165643Y-75000000D01*
X192834356Y-75000000D01*
X192854884Y-75221535D01*
X192854885Y-75221537D01*
X192915769Y-75435523D01*
X192915775Y-75435538D01*
X193014938Y-75634683D01*
X193014943Y-75634691D01*
X193149020Y-75812238D01*
X193313437Y-75962123D01*
X193313439Y-75962125D01*
X193502595Y-76079245D01*
X193502596Y-76079245D01*
X193502599Y-76079247D01*
X193710060Y-76159618D01*
X193928757Y-76200500D01*
X193928759Y-76200500D01*
X194151241Y-76200500D01*
X194151243Y-76200500D01*
X194369940Y-76159618D01*
X194577401Y-76079247D01*
X194766562Y-75962124D01*
X194930981Y-75812236D01*
X195065058Y-75634689D01*
X195164229Y-75435528D01*
X195225115Y-75221536D01*
X195245643Y-75000000D01*
X195225115Y-74778464D01*
X195164229Y-74564472D01*
X195153886Y-74543700D01*
X195065061Y-74365316D01*
X195065056Y-74365308D01*
X194930979Y-74187761D01*
X194766562Y-74037876D01*
X194766560Y-74037874D01*
X194577404Y-73920754D01*
X194577398Y-73920752D01*
X194369940Y-73840382D01*
X194151243Y-73799500D01*
X193928757Y-73799500D01*
X193710060Y-73840382D01*
X193585391Y-73888679D01*
X193502601Y-73920752D01*
X193502595Y-73920754D01*
X193313439Y-74037874D01*
X193313437Y-74037876D01*
X193149020Y-74187761D01*
X193014943Y-74365308D01*
X193014938Y-74365316D01*
X192915775Y-74564461D01*
X192915769Y-74564476D01*
X192854885Y-74778462D01*
X192854884Y-74778464D01*
X192834356Y-74999999D01*
X192834356Y-75000000D01*
X190165643Y-75000000D01*
X190145115Y-74778464D01*
X190084229Y-74564472D01*
X190073886Y-74543700D01*
X189985061Y-74365316D01*
X189985056Y-74365308D01*
X189850979Y-74187761D01*
X189686562Y-74037876D01*
X189686560Y-74037874D01*
X189497404Y-73920754D01*
X189497398Y-73920752D01*
X189289940Y-73840382D01*
X189071243Y-73799500D01*
X188848757Y-73799500D01*
X188630060Y-73840382D01*
X188505391Y-73888679D01*
X188422601Y-73920752D01*
X188422595Y-73920754D01*
X188233439Y-74037874D01*
X188233437Y-74037876D01*
X188069020Y-74187761D01*
X187934943Y-74365308D01*
X187934938Y-74365316D01*
X187835775Y-74564461D01*
X187835769Y-74564476D01*
X187774885Y-74778462D01*
X187774884Y-74778464D01*
X187754356Y-74999999D01*
X187754356Y-75000000D01*
X182900499Y-75000000D01*
X182900499Y-74052128D01*
X182894091Y-73992517D01*
X182884233Y-73966087D01*
X182843797Y-73857671D01*
X182843793Y-73857664D01*
X182757547Y-73742455D01*
X182757544Y-73742452D01*
X182642335Y-73656206D01*
X182642328Y-73656202D01*
X182507482Y-73605908D01*
X182507483Y-73605908D01*
X182447883Y-73599501D01*
X182447881Y-73599500D01*
X182447873Y-73599500D01*
X182447864Y-73599500D01*
X180552129Y-73599500D01*
X180552123Y-73599501D01*
X180492516Y-73605908D01*
X180357671Y-73656202D01*
X180357664Y-73656206D01*
X180242455Y-73742452D01*
X180242452Y-73742455D01*
X180156206Y-73857664D01*
X180156203Y-73857670D01*
X180127544Y-73934508D01*
X180085672Y-73990441D01*
X180020208Y-74014858D01*
X179951935Y-74000006D01*
X179920135Y-73975158D01*
X179911784Y-73966087D01*
X179911778Y-73966082D01*
X179911777Y-73966081D01*
X179728634Y-73823535D01*
X179728628Y-73823531D01*
X179524504Y-73713064D01*
X179524495Y-73713061D01*
X179304984Y-73637702D01*
X179114450Y-73605908D01*
X179076049Y-73599500D01*
X178843951Y-73599500D01*
X178805550Y-73605908D01*
X178615015Y-73637702D01*
X178395504Y-73713061D01*
X178395495Y-73713064D01*
X178191371Y-73823531D01*
X178191365Y-73823535D01*
X178008222Y-73966081D01*
X178008219Y-73966084D01*
X178008216Y-73966086D01*
X178008216Y-73966087D01*
X177963319Y-74014858D01*
X177851016Y-74136852D01*
X177724075Y-74331151D01*
X177630842Y-74543699D01*
X177573866Y-74768691D01*
X177573864Y-74768702D01*
X177554700Y-74999993D01*
X177554700Y-75000006D01*
X160406692Y-75000006D01*
X160403507Y-74977853D01*
X160432532Y-74914297D01*
X160491310Y-74876523D01*
X160503450Y-74873613D01*
X160676198Y-74841321D01*
X160875019Y-74764298D01*
X161056302Y-74652052D01*
X161213872Y-74508407D01*
X161342366Y-74338255D01*
X161417301Y-74187764D01*
X161437403Y-74147394D01*
X161437403Y-74147393D01*
X161437405Y-74147389D01*
X161495756Y-73942310D01*
X161515429Y-73730000D01*
X161495756Y-73517690D01*
X161437405Y-73312611D01*
X161437403Y-73312606D01*
X161437403Y-73312605D01*
X161342367Y-73121746D01*
X161213872Y-72951593D01*
X161104883Y-72852236D01*
X161056302Y-72807948D01*
X160875019Y-72695702D01*
X160875017Y-72695701D01*
X160775608Y-72657190D01*
X160676198Y-72618679D01*
X160466610Y-72579500D01*
X160253390Y-72579500D01*
X160043802Y-72618679D01*
X160043799Y-72618679D01*
X160043799Y-72618680D01*
X159844982Y-72695701D01*
X159844980Y-72695702D01*
X159663699Y-72807947D01*
X159506127Y-72951593D01*
X159377632Y-73121746D01*
X159282596Y-73312605D01*
X159282596Y-73312607D01*
X159224244Y-73517689D01*
X159204042Y-73735708D01*
X159201638Y-73735485D01*
X159184886Y-73792539D01*
X159132082Y-73838294D01*
X159080571Y-73849500D01*
X158983390Y-73849500D01*
X158773802Y-73888679D01*
X158773799Y-73888679D01*
X158773799Y-73888680D01*
X158574982Y-73965701D01*
X158574980Y-73965702D01*
X158393699Y-74077947D01*
X158236127Y-74221593D01*
X158107632Y-74391746D01*
X158012596Y-74582605D01*
X158012596Y-74582607D01*
X157954244Y-74787689D01*
X157946013Y-74876523D01*
X157934571Y-75000000D01*
X106150835Y-75000000D01*
X106207546Y-74957546D01*
X106293796Y-74842331D01*
X106344091Y-74707483D01*
X106350500Y-74647873D01*
X106350499Y-72852128D01*
X106344091Y-72792517D01*
X106307981Y-72695702D01*
X106293797Y-72657671D01*
X106293793Y-72657664D01*
X106207547Y-72542455D01*
X106207544Y-72542452D01*
X106092335Y-72456206D01*
X106092328Y-72456202D01*
X105957482Y-72405908D01*
X105957483Y-72405908D01*
X105897883Y-72399501D01*
X105897881Y-72399500D01*
X105897873Y-72399500D01*
X105897864Y-72399500D01*
X104102129Y-72399500D01*
X104102123Y-72399501D01*
X104042516Y-72405908D01*
X103907671Y-72456202D01*
X103907664Y-72456206D01*
X103792455Y-72542452D01*
X103792452Y-72542455D01*
X103706206Y-72657664D01*
X103706202Y-72657671D01*
X103655908Y-72792517D01*
X103649501Y-72852116D01*
X103649501Y-72852123D01*
X103649500Y-72852135D01*
X103649500Y-74647870D01*
X103649501Y-74647876D01*
X103655908Y-74707483D01*
X103706202Y-74842328D01*
X103706206Y-74842335D01*
X103792452Y-74957544D01*
X103792455Y-74957547D01*
X103907664Y-75043793D01*
X103907671Y-75043797D01*
X104039081Y-75092810D01*
X104095015Y-75134681D01*
X104119432Y-75200145D01*
X104104580Y-75268418D01*
X104083430Y-75296673D01*
X103961503Y-75418600D01*
X103825965Y-75612169D01*
X103825964Y-75612171D01*
X103726098Y-75826335D01*
X103726094Y-75826344D01*
X103664938Y-76054586D01*
X103664936Y-76054596D01*
X103644341Y-76289999D01*
X103644341Y-76290000D01*
X100000500Y-76290000D01*
X100000500Y-67525000D01*
X113589341Y-67525000D01*
X113609936Y-67760403D01*
X113609938Y-67760413D01*
X113671094Y-67988655D01*
X113671096Y-67988659D01*
X113671097Y-67988663D01*
X113751004Y-68160023D01*
X113770965Y-68202830D01*
X113770967Y-68202834D01*
X113850512Y-68316435D01*
X113906505Y-68396401D01*
X114073599Y-68563495D01*
X114170384Y-68631264D01*
X114267165Y-68699032D01*
X114267167Y-68699033D01*
X114267170Y-68699035D01*
X114481337Y-68798903D01*
X114481343Y-68798904D01*
X114481344Y-68798905D01*
X114536285Y-68813626D01*
X114709592Y-68860063D01*
X114886034Y-68875500D01*
X114944999Y-68880659D01*
X114945000Y-68880659D01*
X114945001Y-68880659D01*
X115003966Y-68875500D01*
X115180408Y-68860063D01*
X115408663Y-68798903D01*
X115622830Y-68699035D01*
X115816401Y-68563495D01*
X115983495Y-68396401D01*
X116113424Y-68210842D01*
X116168002Y-68167217D01*
X116237500Y-68160023D01*
X116299855Y-68191546D01*
X116316575Y-68210842D01*
X116446500Y-68396395D01*
X116446505Y-68396401D01*
X116613599Y-68563495D01*
X116710384Y-68631264D01*
X116807165Y-68699032D01*
X116811856Y-68701740D01*
X116810621Y-68703877D01*
X116855267Y-68743096D01*
X116874500Y-68809427D01*
X116874500Y-70417255D01*
X116872775Y-70432872D01*
X116873061Y-70432899D01*
X116872326Y-70440665D01*
X116874500Y-70509814D01*
X116874500Y-70539343D01*
X116874501Y-70539360D01*
X116875368Y-70546231D01*
X116875826Y-70552050D01*
X116877290Y-70598624D01*
X116877291Y-70598627D01*
X116882880Y-70617867D01*
X116886824Y-70636911D01*
X116889336Y-70656792D01*
X116896899Y-70675895D01*
X116906490Y-70700119D01*
X116908382Y-70705647D01*
X116921381Y-70750388D01*
X116931580Y-70767634D01*
X116940136Y-70785100D01*
X116947514Y-70803732D01*
X116972542Y-70838181D01*
X116974898Y-70841423D01*
X116978106Y-70846307D01*
X117001827Y-70886416D01*
X117001833Y-70886424D01*
X117015990Y-70900580D01*
X117028628Y-70915376D01*
X117040405Y-70931586D01*
X117040406Y-70931587D01*
X117076309Y-70961288D01*
X117080620Y-70965210D01*
X117719871Y-71604461D01*
X117999194Y-71883784D01*
X118009019Y-71896048D01*
X118009240Y-71895866D01*
X118014210Y-71901873D01*
X118014213Y-71901876D01*
X118014214Y-71901877D01*
X118064651Y-71949241D01*
X118085530Y-71970120D01*
X118091004Y-71974366D01*
X118095442Y-71978156D01*
X118129418Y-72010062D01*
X118129422Y-72010064D01*
X118146973Y-72019713D01*
X118163231Y-72030392D01*
X118179064Y-72042674D01*
X118201015Y-72052172D01*
X118221837Y-72061183D01*
X118227081Y-72063752D01*
X118267908Y-72086197D01*
X118287312Y-72091179D01*
X118305710Y-72097478D01*
X118324105Y-72105438D01*
X118370129Y-72112726D01*
X118375832Y-72113907D01*
X118420981Y-72125500D01*
X118441016Y-72125500D01*
X118460413Y-72127026D01*
X118480196Y-72130160D01*
X118526583Y-72125775D01*
X118532422Y-72125500D01*
X139917257Y-72125500D01*
X139932877Y-72127224D01*
X139932904Y-72126939D01*
X139940660Y-72127671D01*
X139940667Y-72127673D01*
X140009814Y-72125500D01*
X140039350Y-72125500D01*
X140046228Y-72124630D01*
X140052041Y-72124172D01*
X140098627Y-72122709D01*
X140117869Y-72117117D01*
X140136912Y-72113174D01*
X140156792Y-72110664D01*
X140200122Y-72093507D01*
X140205646Y-72091617D01*
X140209396Y-72090527D01*
X140250390Y-72078618D01*
X140267629Y-72068422D01*
X140285103Y-72059862D01*
X140303727Y-72052488D01*
X140303727Y-72052487D01*
X140303732Y-72052486D01*
X140320917Y-72040000D01*
X171294356Y-72040000D01*
X171314884Y-72261535D01*
X171314885Y-72261537D01*
X171375769Y-72475523D01*
X171375775Y-72475538D01*
X171474938Y-72674683D01*
X171474943Y-72674691D01*
X171609020Y-72852238D01*
X171773437Y-73002123D01*
X171773439Y-73002125D01*
X171962595Y-73119245D01*
X171962596Y-73119245D01*
X171962599Y-73119247D01*
X172170060Y-73199618D01*
X172388757Y-73240500D01*
X172388759Y-73240500D01*
X172611241Y-73240500D01*
X172611243Y-73240500D01*
X172829940Y-73199618D01*
X173037401Y-73119247D01*
X173226562Y-73002124D01*
X173390981Y-72852236D01*
X173525058Y-72674689D01*
X173533536Y-72657664D01*
X173624224Y-72475538D01*
X173624223Y-72475538D01*
X173624229Y-72475528D01*
X173685115Y-72261536D01*
X173705643Y-72040000D01*
X173685115Y-71818464D01*
X173624229Y-71604472D01*
X173624224Y-71604461D01*
X173525061Y-71405316D01*
X173525056Y-71405308D01*
X173390979Y-71227761D01*
X173226562Y-71077876D01*
X173226560Y-71077874D01*
X173037404Y-70960754D01*
X173037398Y-70960752D01*
X172829940Y-70880382D01*
X172611243Y-70839500D01*
X172388757Y-70839500D01*
X172170060Y-70880382D01*
X172038864Y-70931207D01*
X171962601Y-70960752D01*
X171962595Y-70960754D01*
X171773439Y-71077874D01*
X171773437Y-71077876D01*
X171609020Y-71227761D01*
X171474943Y-71405308D01*
X171474938Y-71405316D01*
X171375775Y-71604461D01*
X171375769Y-71604476D01*
X171314885Y-71818462D01*
X171314884Y-71818464D01*
X171294356Y-72039999D01*
X171294356Y-72040000D01*
X140320917Y-72040000D01*
X140341449Y-72025082D01*
X140346305Y-72021892D01*
X140386420Y-71998170D01*
X140400589Y-71983999D01*
X140415379Y-71971368D01*
X140431587Y-71959594D01*
X140461299Y-71923676D01*
X140465212Y-71919376D01*
X141383786Y-71000802D01*
X141396048Y-70990980D01*
X141395865Y-70990759D01*
X141401867Y-70985792D01*
X141401877Y-70985786D01*
X141449241Y-70935348D01*
X141470120Y-70914470D01*
X141474373Y-70908986D01*
X141478150Y-70904563D01*
X141510062Y-70870582D01*
X141519714Y-70853023D01*
X141530389Y-70836772D01*
X141542674Y-70820936D01*
X141561186Y-70778152D01*
X141563742Y-70772935D01*
X141586197Y-70732092D01*
X141591180Y-70712680D01*
X141597477Y-70694291D01*
X141605438Y-70675895D01*
X141612729Y-70629853D01*
X141613908Y-70624162D01*
X141625500Y-70579019D01*
X141625500Y-70558982D01*
X141627027Y-70539582D01*
X141630160Y-70519804D01*
X141625775Y-70473415D01*
X141625500Y-70467577D01*
X141625500Y-67093765D01*
X141645185Y-67026726D01*
X141684220Y-66988340D01*
X141726562Y-66962124D01*
X141890981Y-66812236D01*
X142025058Y-66634689D01*
X142027602Y-66629581D01*
X142124224Y-66435538D01*
X142124223Y-66435538D01*
X142124229Y-66435528D01*
X142185115Y-66221536D01*
X142205643Y-66000000D01*
X144874357Y-66000000D01*
X144894884Y-66221535D01*
X144894885Y-66221537D01*
X144955769Y-66435523D01*
X144955775Y-66435538D01*
X145054938Y-66634683D01*
X145054943Y-66634691D01*
X145189020Y-66812238D01*
X145353437Y-66962123D01*
X145353439Y-66962125D01*
X145542595Y-67079245D01*
X145542596Y-67079245D01*
X145542599Y-67079247D01*
X145750060Y-67159618D01*
X145968757Y-67200500D01*
X145968759Y-67200500D01*
X146191241Y-67200500D01*
X146191243Y-67200500D01*
X146409940Y-67159618D01*
X146617401Y-67079247D01*
X146806562Y-66962124D01*
X146970981Y-66812236D01*
X147105058Y-66634689D01*
X147107602Y-66629581D01*
X147204224Y-66435538D01*
X147204223Y-66435538D01*
X147204229Y-66435528D01*
X147265115Y-66221536D01*
X147285643Y-66000000D01*
X147271401Y-65846307D01*
X147265115Y-65778464D01*
X147265114Y-65778462D01*
X147262033Y-65767634D01*
X147204229Y-65564472D01*
X147191720Y-65539350D01*
X147105061Y-65365316D01*
X147105056Y-65365308D01*
X146970979Y-65187761D01*
X146806562Y-65037876D01*
X146806560Y-65037874D01*
X146617404Y-64920754D01*
X146617398Y-64920752D01*
X146409940Y-64840382D01*
X146191243Y-64799500D01*
X145968757Y-64799500D01*
X145750060Y-64840382D01*
X145618864Y-64891207D01*
X145542601Y-64920752D01*
X145542595Y-64920754D01*
X145353439Y-65037874D01*
X145353437Y-65037876D01*
X145189020Y-65187761D01*
X145054943Y-65365308D01*
X145054938Y-65365316D01*
X144955775Y-65564461D01*
X144955769Y-65564476D01*
X144894885Y-65778462D01*
X144894884Y-65778464D01*
X144874357Y-65999999D01*
X144874357Y-66000000D01*
X142205643Y-66000000D01*
X142191401Y-65846307D01*
X142185115Y-65778464D01*
X142185114Y-65778462D01*
X142182033Y-65767634D01*
X142124229Y-65564472D01*
X142111720Y-65539350D01*
X142025061Y-65365316D01*
X142025056Y-65365308D01*
X141890979Y-65187761D01*
X141726562Y-65037876D01*
X141726560Y-65037874D01*
X141537404Y-64920754D01*
X141537398Y-64920752D01*
X141329940Y-64840382D01*
X141111243Y-64799500D01*
X140888757Y-64799500D01*
X140670060Y-64840382D01*
X140538864Y-64891207D01*
X140462601Y-64920752D01*
X140462595Y-64920754D01*
X140273439Y-65037874D01*
X140273437Y-65037876D01*
X140109020Y-65187761D01*
X139974943Y-65365308D01*
X139974938Y-65365316D01*
X139875775Y-65564461D01*
X139875769Y-65564476D01*
X139814885Y-65778462D01*
X139814884Y-65778464D01*
X139794357Y-65999999D01*
X139794357Y-66000000D01*
X139814884Y-66221535D01*
X139814885Y-66221537D01*
X139875769Y-66435523D01*
X139875775Y-66435538D01*
X139974938Y-66634683D01*
X139974943Y-66634691D01*
X140109020Y-66812238D01*
X140273433Y-66962120D01*
X140273435Y-66962122D01*
X140273437Y-66962123D01*
X140273438Y-66962124D01*
X140315778Y-66988339D01*
X140362412Y-67040364D01*
X140374500Y-67093765D01*
X140374500Y-70189547D01*
X140354815Y-70256586D01*
X140338181Y-70277228D01*
X139777228Y-70838181D01*
X139715905Y-70871666D01*
X139689547Y-70874500D01*
X118810452Y-70874500D01*
X118743413Y-70854815D01*
X118722771Y-70838181D01*
X118161819Y-70277228D01*
X118128334Y-70215905D01*
X118125500Y-70189547D01*
X118125500Y-68789724D01*
X118145185Y-68722685D01*
X118178377Y-68688149D01*
X118243806Y-68642335D01*
X118356401Y-68563495D01*
X118478329Y-68441566D01*
X118539648Y-68408084D01*
X118609340Y-68413068D01*
X118665274Y-68454939D01*
X118682189Y-68485917D01*
X118731202Y-68617328D01*
X118731206Y-68617335D01*
X118817452Y-68732544D01*
X118817455Y-68732547D01*
X118932664Y-68818793D01*
X118932671Y-68818797D01*
X119067517Y-68869091D01*
X119067516Y-68869091D01*
X119074444Y-68869835D01*
X119127127Y-68875500D01*
X120922872Y-68875499D01*
X120982483Y-68869091D01*
X121117331Y-68818796D01*
X121232546Y-68732546D01*
X121318796Y-68617331D01*
X121369091Y-68482483D01*
X121375500Y-68422873D01*
X121375499Y-67500006D01*
X124829700Y-67500006D01*
X124848864Y-67731297D01*
X124848866Y-67731308D01*
X124905842Y-67956300D01*
X124999075Y-68168848D01*
X125126016Y-68363147D01*
X125126019Y-68363151D01*
X125126021Y-68363153D01*
X125283216Y-68533913D01*
X125283219Y-68533915D01*
X125283222Y-68533918D01*
X125466365Y-68676464D01*
X125466371Y-68676468D01*
X125466374Y-68676470D01*
X125670497Y-68786936D01*
X125763293Y-68818793D01*
X125890015Y-68862297D01*
X125890017Y-68862297D01*
X125890019Y-68862298D01*
X126118951Y-68900500D01*
X126118952Y-68900500D01*
X126351048Y-68900500D01*
X126351049Y-68900500D01*
X126579981Y-68862298D01*
X126799503Y-68786936D01*
X127003626Y-68676470D01*
X127186784Y-68533913D01*
X127195130Y-68524846D01*
X127255010Y-68488854D01*
X127324849Y-68490949D01*
X127382468Y-68530469D01*
X127402544Y-68565491D01*
X127431203Y-68642330D01*
X127431206Y-68642335D01*
X127517452Y-68757544D01*
X127517455Y-68757547D01*
X127632664Y-68843793D01*
X127632671Y-68843797D01*
X127767517Y-68894091D01*
X127767516Y-68894091D01*
X127774444Y-68894835D01*
X127827127Y-68900500D01*
X129722872Y-68900499D01*
X129782483Y-68894091D01*
X129917331Y-68843796D01*
X130032546Y-68757546D01*
X130118796Y-68642331D01*
X130169091Y-68507483D01*
X130175500Y-68447873D01*
X130175499Y-66552128D01*
X130169091Y-66492517D01*
X130166847Y-66486501D01*
X130118797Y-66357671D01*
X130118793Y-66357664D01*
X130032547Y-66242455D01*
X130032544Y-66242452D01*
X129917335Y-66156206D01*
X129917328Y-66156202D01*
X129782482Y-66105908D01*
X129782483Y-66105908D01*
X129722883Y-66099501D01*
X129722881Y-66099500D01*
X129722873Y-66099500D01*
X129722864Y-66099500D01*
X127827129Y-66099500D01*
X127827123Y-66099501D01*
X127767516Y-66105908D01*
X127632671Y-66156202D01*
X127632664Y-66156206D01*
X127517455Y-66242452D01*
X127517452Y-66242455D01*
X127431206Y-66357664D01*
X127431203Y-66357670D01*
X127402544Y-66434508D01*
X127360672Y-66490441D01*
X127295208Y-66514858D01*
X127226935Y-66500006D01*
X127195135Y-66475158D01*
X127186784Y-66466087D01*
X127186778Y-66466082D01*
X127186777Y-66466081D01*
X127003634Y-66323535D01*
X127003628Y-66323531D01*
X126799504Y-66213064D01*
X126799495Y-66213061D01*
X126579984Y-66137702D01*
X126389450Y-66105908D01*
X126351049Y-66099500D01*
X126118951Y-66099500D01*
X126080550Y-66105908D01*
X125890015Y-66137702D01*
X125670504Y-66213061D01*
X125670495Y-66213064D01*
X125466371Y-66323531D01*
X125466365Y-66323535D01*
X125283222Y-66466081D01*
X125283219Y-66466084D01*
X125283216Y-66466086D01*
X125283216Y-66466087D01*
X125238319Y-66514858D01*
X125126016Y-66636852D01*
X124999075Y-66831151D01*
X124905842Y-67043699D01*
X124848866Y-67268691D01*
X124848864Y-67268702D01*
X124829700Y-67499993D01*
X124829700Y-67500006D01*
X121375499Y-67500006D01*
X121375499Y-66627128D01*
X121369091Y-66567517D01*
X121367810Y-66564083D01*
X121318797Y-66432671D01*
X121318793Y-66432664D01*
X121232547Y-66317455D01*
X121232544Y-66317452D01*
X121117335Y-66231206D01*
X121117328Y-66231202D01*
X120982482Y-66180908D01*
X120982483Y-66180908D01*
X120922883Y-66174501D01*
X120922881Y-66174500D01*
X120922873Y-66174500D01*
X120922864Y-66174500D01*
X119127129Y-66174500D01*
X119127123Y-66174501D01*
X119067516Y-66180908D01*
X118932671Y-66231202D01*
X118932664Y-66231206D01*
X118817455Y-66317452D01*
X118817452Y-66317455D01*
X118731206Y-66432664D01*
X118731203Y-66432669D01*
X118682189Y-66564083D01*
X118640317Y-66620016D01*
X118574853Y-66644433D01*
X118506580Y-66629581D01*
X118478326Y-66608430D01*
X118356402Y-66486506D01*
X118356395Y-66486501D01*
X118327232Y-66466081D01*
X118283613Y-66435538D01*
X118162834Y-66350967D01*
X118162830Y-66350965D01*
X118135415Y-66338181D01*
X117948663Y-66251097D01*
X117948659Y-66251096D01*
X117948655Y-66251094D01*
X117720413Y-66189938D01*
X117720403Y-66189936D01*
X117485001Y-66169341D01*
X117484999Y-66169341D01*
X117249596Y-66189936D01*
X117249586Y-66189938D01*
X117021344Y-66251094D01*
X117021335Y-66251098D01*
X116807171Y-66350964D01*
X116807169Y-66350965D01*
X116613597Y-66486505D01*
X116446505Y-66653597D01*
X116316575Y-66839158D01*
X116261998Y-66882783D01*
X116192500Y-66889977D01*
X116130145Y-66858454D01*
X116113425Y-66839158D01*
X115983494Y-66653597D01*
X115816402Y-66486506D01*
X115816395Y-66486501D01*
X115787232Y-66466081D01*
X115743613Y-66435538D01*
X115622834Y-66350967D01*
X115622830Y-66350965D01*
X115595415Y-66338181D01*
X115408663Y-66251097D01*
X115408659Y-66251096D01*
X115408655Y-66251094D01*
X115180413Y-66189938D01*
X115180403Y-66189936D01*
X114945001Y-66169341D01*
X114944999Y-66169341D01*
X114709596Y-66189936D01*
X114709586Y-66189938D01*
X114481344Y-66251094D01*
X114481335Y-66251098D01*
X114267171Y-66350964D01*
X114267169Y-66350965D01*
X114073597Y-66486505D01*
X113906505Y-66653597D01*
X113770965Y-66847169D01*
X113770964Y-66847171D01*
X113671098Y-67061335D01*
X113671094Y-67061344D01*
X113609938Y-67289586D01*
X113609936Y-67289596D01*
X113589341Y-67524999D01*
X113589341Y-67525000D01*
X100000500Y-67525000D01*
X100000500Y-57500000D01*
X123794357Y-57500000D01*
X123814884Y-57721535D01*
X123814885Y-57721537D01*
X123875769Y-57935523D01*
X123875775Y-57935538D01*
X123974938Y-58134683D01*
X123974943Y-58134691D01*
X124109020Y-58312238D01*
X124273437Y-58462123D01*
X124273439Y-58462125D01*
X124462595Y-58579245D01*
X124462596Y-58579245D01*
X124462599Y-58579247D01*
X124670060Y-58659618D01*
X124888757Y-58700500D01*
X124888759Y-58700500D01*
X125111241Y-58700500D01*
X125111243Y-58700500D01*
X125329940Y-58659618D01*
X125537401Y-58579247D01*
X125726562Y-58462124D01*
X125890981Y-58312236D01*
X126025058Y-58134689D01*
X126124229Y-57935528D01*
X126185115Y-57721536D01*
X126205643Y-57500000D01*
X128874357Y-57500000D01*
X128894884Y-57721535D01*
X128894885Y-57721537D01*
X128955769Y-57935523D01*
X128955775Y-57935538D01*
X129054938Y-58134683D01*
X129054943Y-58134691D01*
X129189020Y-58312238D01*
X129353437Y-58462123D01*
X129353439Y-58462125D01*
X129542595Y-58579245D01*
X129542596Y-58579245D01*
X129542599Y-58579247D01*
X129750060Y-58659618D01*
X129968757Y-58700500D01*
X129968759Y-58700500D01*
X130191241Y-58700500D01*
X130191243Y-58700500D01*
X130409940Y-58659618D01*
X130617401Y-58579247D01*
X130806562Y-58462124D01*
X130970981Y-58312236D01*
X131105058Y-58134689D01*
X131204229Y-57935528D01*
X131265115Y-57721536D01*
X131285643Y-57500000D01*
X131265115Y-57278464D01*
X131204229Y-57064472D01*
X131204224Y-57064461D01*
X131105061Y-56865316D01*
X131105056Y-56865308D01*
X130970979Y-56687761D01*
X130806562Y-56537876D01*
X130806560Y-56537874D01*
X130617404Y-56420754D01*
X130617398Y-56420752D01*
X130409940Y-56340382D01*
X130191243Y-56299500D01*
X129968757Y-56299500D01*
X129750060Y-56340382D01*
X129618864Y-56391207D01*
X129542601Y-56420752D01*
X129542595Y-56420754D01*
X129353439Y-56537874D01*
X129353437Y-56537876D01*
X129189020Y-56687761D01*
X129054943Y-56865308D01*
X129054938Y-56865316D01*
X128955775Y-57064461D01*
X128955769Y-57064476D01*
X128894885Y-57278462D01*
X128894884Y-57278464D01*
X128874357Y-57499999D01*
X128874357Y-57500000D01*
X126205643Y-57500000D01*
X126185115Y-57278464D01*
X126124229Y-57064472D01*
X126124224Y-57064461D01*
X126025061Y-56865316D01*
X126025056Y-56865308D01*
X125890979Y-56687761D01*
X125726562Y-56537876D01*
X125726560Y-56537874D01*
X125537404Y-56420754D01*
X125537398Y-56420752D01*
X125329940Y-56340382D01*
X125111243Y-56299500D01*
X124888757Y-56299500D01*
X124670060Y-56340382D01*
X124538864Y-56391207D01*
X124462601Y-56420752D01*
X124462595Y-56420754D01*
X124273439Y-56537874D01*
X124273437Y-56537876D01*
X124109020Y-56687761D01*
X123974943Y-56865308D01*
X123974938Y-56865316D01*
X123875775Y-57064461D01*
X123875769Y-57064476D01*
X123814885Y-57278462D01*
X123814884Y-57278464D01*
X123794357Y-57499999D01*
X123794357Y-57500000D01*
X100000500Y-57500000D01*
X100000500Y-54000000D01*
X122594540Y-54000000D01*
X122614326Y-54188256D01*
X122614327Y-54188259D01*
X122672818Y-54368277D01*
X122672821Y-54368284D01*
X122767467Y-54532216D01*
X122869185Y-54645185D01*
X122894129Y-54672888D01*
X123047265Y-54784148D01*
X123047270Y-54784151D01*
X123220192Y-54861142D01*
X123220197Y-54861144D01*
X123405354Y-54900500D01*
X123405355Y-54900500D01*
X123594644Y-54900500D01*
X123594646Y-54900500D01*
X123779803Y-54861144D01*
X123952730Y-54784151D01*
X124105871Y-54672888D01*
X124108788Y-54669647D01*
X124111600Y-54666526D01*
X124171087Y-54629879D01*
X124203748Y-54625500D01*
X151189548Y-54625500D01*
X151256587Y-54645185D01*
X151277228Y-54661818D01*
X152338181Y-55722772D01*
X152371665Y-55784093D01*
X152374499Y-55810451D01*
X152374499Y-65417255D01*
X152372776Y-65432872D01*
X152373061Y-65432899D01*
X152372326Y-65440665D01*
X152374500Y-65509814D01*
X152374500Y-65539343D01*
X152374501Y-65539360D01*
X152375368Y-65546231D01*
X152375826Y-65552050D01*
X152377290Y-65598624D01*
X152377291Y-65598627D01*
X152382880Y-65617867D01*
X152386824Y-65636911D01*
X152389336Y-65656791D01*
X152406490Y-65700119D01*
X152408382Y-65705647D01*
X152412267Y-65719019D01*
X152421382Y-65750390D01*
X152426769Y-65759500D01*
X152431580Y-65767634D01*
X152440136Y-65785100D01*
X152447514Y-65803732D01*
X152469702Y-65834272D01*
X152474898Y-65841423D01*
X152478106Y-65846307D01*
X152501827Y-65886416D01*
X152501833Y-65886424D01*
X152515990Y-65900580D01*
X152528627Y-65915375D01*
X152540406Y-65931587D01*
X152575884Y-65960937D01*
X152576309Y-65961288D01*
X152580620Y-65965210D01*
X153655773Y-67040364D01*
X153999197Y-67383788D01*
X154009022Y-67396051D01*
X154009243Y-67395869D01*
X154014214Y-67401878D01*
X154035043Y-67421437D01*
X154064635Y-67449226D01*
X154085529Y-67470120D01*
X154091011Y-67474373D01*
X154095443Y-67478157D01*
X154129418Y-67510062D01*
X154146976Y-67519714D01*
X154163235Y-67530395D01*
X154179064Y-67542673D01*
X154221838Y-67561182D01*
X154227056Y-67563738D01*
X154267908Y-67586197D01*
X154287316Y-67591180D01*
X154305717Y-67597480D01*
X154324104Y-67605437D01*
X154367488Y-67612308D01*
X154370119Y-67612725D01*
X154375839Y-67613909D01*
X154420981Y-67625500D01*
X154441016Y-67625500D01*
X154460414Y-67627026D01*
X154480194Y-67630159D01*
X154480195Y-67630160D01*
X154480195Y-67630159D01*
X154480196Y-67630160D01*
X154526583Y-67625775D01*
X154532422Y-67625500D01*
X158917257Y-67625500D01*
X158932877Y-67627224D01*
X158932904Y-67626939D01*
X158940660Y-67627671D01*
X158940667Y-67627673D01*
X159009814Y-67625500D01*
X159039350Y-67625500D01*
X159046228Y-67624630D01*
X159052041Y-67624172D01*
X159098627Y-67622709D01*
X159117869Y-67617117D01*
X159136912Y-67613174D01*
X159156792Y-67610664D01*
X159200122Y-67593507D01*
X159205646Y-67591617D01*
X159209396Y-67590527D01*
X159250390Y-67578618D01*
X159267629Y-67568422D01*
X159285103Y-67559862D01*
X159303727Y-67552488D01*
X159303727Y-67552487D01*
X159303732Y-67552486D01*
X159341449Y-67525082D01*
X159346305Y-67521892D01*
X159386420Y-67498170D01*
X159400589Y-67483999D01*
X159415379Y-67471368D01*
X159431587Y-67459594D01*
X159461299Y-67423676D01*
X159465212Y-67419376D01*
X159924588Y-66960000D01*
X171294356Y-66960000D01*
X171314884Y-67181535D01*
X171314885Y-67181537D01*
X171375769Y-67395523D01*
X171375775Y-67395538D01*
X171474938Y-67594683D01*
X171474943Y-67594691D01*
X171609020Y-67772238D01*
X171773437Y-67922123D01*
X171773439Y-67922125D01*
X171962595Y-68039245D01*
X171962596Y-68039245D01*
X171962599Y-68039247D01*
X172170060Y-68119618D01*
X172388757Y-68160500D01*
X172388759Y-68160500D01*
X172611241Y-68160500D01*
X172611243Y-68160500D01*
X172829940Y-68119618D01*
X173037401Y-68039247D01*
X173226562Y-67922124D01*
X173390981Y-67772236D01*
X173525058Y-67594689D01*
X173538136Y-67568426D01*
X173611328Y-67421437D01*
X173624229Y-67395528D01*
X173685115Y-67181536D01*
X173705643Y-66960000D01*
X173685115Y-66738464D01*
X173624229Y-66524472D01*
X173619442Y-66514858D01*
X173525061Y-66325316D01*
X173525056Y-66325308D01*
X173390979Y-66147761D01*
X173226562Y-65997876D01*
X173226560Y-65997874D01*
X173037404Y-65880754D01*
X173037398Y-65880752D01*
X172829940Y-65800382D01*
X172611243Y-65759500D01*
X172388757Y-65759500D01*
X172170060Y-65800382D01*
X172082580Y-65834272D01*
X171962601Y-65880752D01*
X171962595Y-65880754D01*
X171773439Y-65997874D01*
X171773437Y-65997876D01*
X171609020Y-66147761D01*
X171474943Y-66325308D01*
X171474938Y-66325316D01*
X171375775Y-66524461D01*
X171375769Y-66524476D01*
X171314885Y-66738462D01*
X171314884Y-66738464D01*
X171294356Y-66959999D01*
X171294356Y-66960000D01*
X159924588Y-66960000D01*
X160743787Y-66140802D01*
X160756042Y-66130986D01*
X160755859Y-66130764D01*
X160761866Y-66125792D01*
X160761877Y-66125786D01*
X160792775Y-66092882D01*
X160809227Y-66075364D01*
X160819671Y-66064918D01*
X160830120Y-66054471D01*
X160834379Y-66048978D01*
X160838152Y-66044561D01*
X160870062Y-66010582D01*
X160879713Y-65993024D01*
X160890396Y-65976761D01*
X160902673Y-65960936D01*
X160921185Y-65918153D01*
X160923738Y-65912941D01*
X160946197Y-65872092D01*
X160951180Y-65852680D01*
X160957481Y-65834280D01*
X160965437Y-65815896D01*
X160972729Y-65769852D01*
X160973906Y-65764171D01*
X160985500Y-65719019D01*
X160985500Y-65698982D01*
X160987027Y-65679582D01*
X160990160Y-65659804D01*
X160985775Y-65613415D01*
X160985500Y-65607577D01*
X160985500Y-64809663D01*
X161005185Y-64742624D01*
X161057989Y-64696869D01*
X161096248Y-64686373D01*
X161117483Y-64684091D01*
X161252331Y-64633796D01*
X161367546Y-64547546D01*
X161453796Y-64432331D01*
X161504091Y-64297483D01*
X161510500Y-64237873D01*
X161510499Y-62842128D01*
X161504091Y-62782517D01*
X161468612Y-62687394D01*
X161453797Y-62647671D01*
X161453793Y-62647664D01*
X161367547Y-62532455D01*
X161367544Y-62532452D01*
X161252335Y-62446206D01*
X161252328Y-62446202D01*
X161117482Y-62395908D01*
X161117483Y-62395908D01*
X161057883Y-62389501D01*
X161057881Y-62389500D01*
X161057873Y-62389500D01*
X161057865Y-62389500D01*
X160526245Y-62389500D01*
X160459206Y-62369815D01*
X160413451Y-62317011D01*
X160403507Y-62247853D01*
X160432532Y-62184297D01*
X160491310Y-62146523D01*
X160503450Y-62143613D01*
X160676198Y-62111321D01*
X160875019Y-62034298D01*
X161056302Y-61922052D01*
X161213872Y-61778407D01*
X161342366Y-61608255D01*
X161437405Y-61417389D01*
X161495756Y-61212310D01*
X161515429Y-61000000D01*
X161495756Y-60787690D01*
X161437405Y-60582611D01*
X161437403Y-60582606D01*
X161437403Y-60582605D01*
X161342367Y-60391746D01*
X161213872Y-60221593D01*
X161056302Y-60077948D01*
X160875019Y-59965702D01*
X160875017Y-59965701D01*
X160775608Y-59927190D01*
X160676198Y-59888679D01*
X160466610Y-59849500D01*
X160253390Y-59849500D01*
X160043802Y-59888679D01*
X160043799Y-59888679D01*
X160043799Y-59888680D01*
X159844982Y-59965701D01*
X159844980Y-59965702D01*
X159663699Y-60077947D01*
X159506127Y-60221593D01*
X159377632Y-60391746D01*
X159282596Y-60582605D01*
X159282596Y-60582607D01*
X159224244Y-60787689D01*
X159204042Y-61005708D01*
X159201638Y-61005485D01*
X159184886Y-61062539D01*
X159132082Y-61108294D01*
X159080571Y-61119500D01*
X158983390Y-61119500D01*
X158773802Y-61158679D01*
X158773799Y-61158679D01*
X158773799Y-61158680D01*
X158574982Y-61235701D01*
X158574980Y-61235702D01*
X158393699Y-61347947D01*
X158236127Y-61491593D01*
X158107632Y-61661746D01*
X158012596Y-61852605D01*
X158012596Y-61852607D01*
X157954244Y-62057689D01*
X157946013Y-62146523D01*
X157934571Y-62270000D01*
X157954244Y-62482310D01*
X158001293Y-62647669D01*
X158012596Y-62687392D01*
X158012596Y-62687394D01*
X158107632Y-62878253D01*
X158107634Y-62878255D01*
X158236128Y-63048407D01*
X158393698Y-63192052D01*
X158574981Y-63304298D01*
X158773802Y-63381321D01*
X158983390Y-63420500D01*
X158983392Y-63420500D01*
X159085500Y-63420500D01*
X159152539Y-63440185D01*
X159198294Y-63492989D01*
X159209500Y-63544500D01*
X159209500Y-64237870D01*
X159209501Y-64237876D01*
X159215908Y-64297483D01*
X159266202Y-64432328D01*
X159266206Y-64432335D01*
X159352452Y-64547544D01*
X159352455Y-64547547D01*
X159467664Y-64633793D01*
X159467671Y-64633797D01*
X159512618Y-64650560D01*
X159602517Y-64684091D01*
X159623756Y-64686374D01*
X159688304Y-64713110D01*
X159728154Y-64770502D01*
X159734500Y-64809663D01*
X159734500Y-65329546D01*
X159714815Y-65396585D01*
X159698181Y-65417227D01*
X158777228Y-66338181D01*
X158715905Y-66371666D01*
X158689547Y-66374500D01*
X154810453Y-66374500D01*
X154743414Y-66354815D01*
X154722772Y-66338181D01*
X153661819Y-65277228D01*
X153628334Y-65215905D01*
X153625500Y-65189547D01*
X153625500Y-55582737D01*
X153627224Y-55567123D01*
X153626938Y-55567096D01*
X153627672Y-55559333D01*
X153625500Y-55490203D01*
X153625500Y-55460651D01*
X153625500Y-55460650D01*
X153624629Y-55453759D01*
X153624172Y-55447945D01*
X153622709Y-55401373D01*
X153617121Y-55382139D01*
X153613174Y-55363081D01*
X153610664Y-55343208D01*
X153593507Y-55299875D01*
X153591614Y-55294346D01*
X153578618Y-55249614D01*
X153578617Y-55249610D01*
X153568420Y-55232368D01*
X153559863Y-55214902D01*
X153552486Y-55196268D01*
X153525083Y-55158550D01*
X153521900Y-55153705D01*
X153498170Y-55113579D01*
X153498165Y-55113573D01*
X153484005Y-55099413D01*
X153471370Y-55084620D01*
X153459593Y-55068412D01*
X153423693Y-55038713D01*
X153419381Y-55034790D01*
X152000802Y-53616211D01*
X151990980Y-53603950D01*
X151990759Y-53604134D01*
X151985786Y-53598123D01*
X151935364Y-53550773D01*
X151924919Y-53540328D01*
X151914475Y-53529883D01*
X151908986Y-53525625D01*
X151904561Y-53521847D01*
X151870582Y-53489938D01*
X151870580Y-53489936D01*
X151870577Y-53489935D01*
X151853029Y-53480288D01*
X151836763Y-53469604D01*
X151820933Y-53457325D01*
X151778168Y-53438818D01*
X151772922Y-53436248D01*
X151732093Y-53413803D01*
X151732092Y-53413802D01*
X151712693Y-53408822D01*
X151694281Y-53402518D01*
X151675898Y-53394562D01*
X151675892Y-53394560D01*
X151629874Y-53387272D01*
X151624152Y-53386087D01*
X151579021Y-53374500D01*
X151579019Y-53374500D01*
X151558984Y-53374500D01*
X151539586Y-53372973D01*
X151532162Y-53371797D01*
X151519805Y-53369840D01*
X151519804Y-53369840D01*
X151473416Y-53374225D01*
X151467578Y-53374500D01*
X124203748Y-53374500D01*
X124136709Y-53354815D01*
X124111600Y-53333474D01*
X124105873Y-53327114D01*
X124105869Y-53327110D01*
X123952734Y-53215851D01*
X123952729Y-53215848D01*
X123779807Y-53138857D01*
X123779802Y-53138855D01*
X123634000Y-53107865D01*
X123594646Y-53099500D01*
X123405354Y-53099500D01*
X123372897Y-53106398D01*
X123220197Y-53138855D01*
X123220192Y-53138857D01*
X123047270Y-53215848D01*
X123047265Y-53215851D01*
X122894129Y-53327111D01*
X122767466Y-53467785D01*
X122672821Y-53631715D01*
X122672818Y-53631722D01*
X122614327Y-53811740D01*
X122614326Y-53811744D01*
X122594540Y-54000000D01*
X100000500Y-54000000D01*
X100000500Y-50124500D01*
X100020185Y-50057461D01*
X100072989Y-50011706D01*
X100124500Y-50000500D01*
X199875500Y-50000500D01*
X199942539Y-50020185D01*
G37*
%TD.AperFunction*%
M02*
