%TF.GenerationSoftware,KiCad,Pcbnew,7.0.7*%
%TF.CreationDate,2023-11-12T18:02:06-05:00*%
%TF.ProjectId,TEJ4M-Unit-1-04,54454a34-4d2d-4556-9e69-742d312d3034,rev?*%
%TF.SameCoordinates,Original*%
%TF.FileFunction,Copper,L1,Top*%
%TF.FilePolarity,Positive*%
%FSLAX46Y46*%
G04 Gerber Fmt 4.6, Leading zero omitted, Abs format (unit mm)*
G04 Created by KiCad (PCBNEW 7.0.7) date 2023-11-12 18:02:06*
%MOMM*%
%LPD*%
G01*
G04 APERTURE LIST*
%ADD10C,0.300000*%
%TA.AperFunction,NonConductor*%
%ADD11C,0.300000*%
%TD*%
%TA.AperFunction,NonConductor*%
%ADD12C,0.200000*%
%TD*%
%TA.AperFunction,ComponentPad*%
%ADD13C,1.400000*%
%TD*%
%TA.AperFunction,ComponentPad*%
%ADD14O,1.400000X1.400000*%
%TD*%
%TA.AperFunction,ComponentPad*%
%ADD15R,1.300000X1.300000*%
%TD*%
%TA.AperFunction,ComponentPad*%
%ADD16C,1.300000*%
%TD*%
%TA.AperFunction,ComponentPad*%
%ADD17R,1.800000X1.800000*%
%TD*%
%TA.AperFunction,ComponentPad*%
%ADD18C,1.800000*%
%TD*%
%TA.AperFunction,ComponentPad*%
%ADD19R,1.700000X1.700000*%
%TD*%
%TA.AperFunction,ComponentPad*%
%ADD20O,1.700000X1.700000*%
%TD*%
%TA.AperFunction,ViaPad*%
%ADD21C,0.800000*%
%TD*%
%TA.AperFunction,Conductor*%
%ADD22C,0.250000*%
%TD*%
G04 APERTURE END LIST*
D10*
D11*
X93878328Y-106785712D02*
X93878328Y-107642855D01*
X93878328Y-107214284D02*
X92378328Y-107214284D01*
X92378328Y-107214284D02*
X92592614Y-107357141D01*
X92592614Y-107357141D02*
X92735471Y-107499998D01*
X92735471Y-107499998D02*
X92806900Y-107642855D01*
X92378328Y-105857141D02*
X92378328Y-105714284D01*
X92378328Y-105714284D02*
X92449757Y-105571427D01*
X92449757Y-105571427D02*
X92521185Y-105499999D01*
X92521185Y-105499999D02*
X92664042Y-105428570D01*
X92664042Y-105428570D02*
X92949757Y-105357141D01*
X92949757Y-105357141D02*
X93306900Y-105357141D01*
X93306900Y-105357141D02*
X93592614Y-105428570D01*
X93592614Y-105428570D02*
X93735471Y-105499999D01*
X93735471Y-105499999D02*
X93806900Y-105571427D01*
X93806900Y-105571427D02*
X93878328Y-105714284D01*
X93878328Y-105714284D02*
X93878328Y-105857141D01*
X93878328Y-105857141D02*
X93806900Y-105999999D01*
X93806900Y-105999999D02*
X93735471Y-106071427D01*
X93735471Y-106071427D02*
X93592614Y-106142856D01*
X93592614Y-106142856D02*
X93306900Y-106214284D01*
X93306900Y-106214284D02*
X92949757Y-106214284D01*
X92949757Y-106214284D02*
X92664042Y-106142856D01*
X92664042Y-106142856D02*
X92521185Y-106071427D01*
X92521185Y-106071427D02*
X92449757Y-105999999D01*
X92449757Y-105999999D02*
X92378328Y-105857141D01*
X92378328Y-104428570D02*
X92378328Y-104285713D01*
X92378328Y-104285713D02*
X92449757Y-104142856D01*
X92449757Y-104142856D02*
X92521185Y-104071428D01*
X92521185Y-104071428D02*
X92664042Y-103999999D01*
X92664042Y-103999999D02*
X92949757Y-103928570D01*
X92949757Y-103928570D02*
X93306900Y-103928570D01*
X93306900Y-103928570D02*
X93592614Y-103999999D01*
X93592614Y-103999999D02*
X93735471Y-104071428D01*
X93735471Y-104071428D02*
X93806900Y-104142856D01*
X93806900Y-104142856D02*
X93878328Y-104285713D01*
X93878328Y-104285713D02*
X93878328Y-104428570D01*
X93878328Y-104428570D02*
X93806900Y-104571428D01*
X93806900Y-104571428D02*
X93735471Y-104642856D01*
X93735471Y-104642856D02*
X93592614Y-104714285D01*
X93592614Y-104714285D02*
X93306900Y-104785713D01*
X93306900Y-104785713D02*
X92949757Y-104785713D01*
X92949757Y-104785713D02*
X92664042Y-104714285D01*
X92664042Y-104714285D02*
X92521185Y-104642856D01*
X92521185Y-104642856D02*
X92449757Y-104571428D01*
X92449757Y-104571428D02*
X92378328Y-104428570D01*
X93735471Y-103285714D02*
X93806900Y-103214285D01*
X93806900Y-103214285D02*
X93878328Y-103285714D01*
X93878328Y-103285714D02*
X93806900Y-103357142D01*
X93806900Y-103357142D02*
X93735471Y-103285714D01*
X93735471Y-103285714D02*
X93878328Y-103285714D01*
X92378328Y-102285713D02*
X92378328Y-102142856D01*
X92378328Y-102142856D02*
X92449757Y-101999999D01*
X92449757Y-101999999D02*
X92521185Y-101928571D01*
X92521185Y-101928571D02*
X92664042Y-101857142D01*
X92664042Y-101857142D02*
X92949757Y-101785713D01*
X92949757Y-101785713D02*
X93306900Y-101785713D01*
X93306900Y-101785713D02*
X93592614Y-101857142D01*
X93592614Y-101857142D02*
X93735471Y-101928571D01*
X93735471Y-101928571D02*
X93806900Y-101999999D01*
X93806900Y-101999999D02*
X93878328Y-102142856D01*
X93878328Y-102142856D02*
X93878328Y-102285713D01*
X93878328Y-102285713D02*
X93806900Y-102428571D01*
X93806900Y-102428571D02*
X93735471Y-102499999D01*
X93735471Y-102499999D02*
X93592614Y-102571428D01*
X93592614Y-102571428D02*
X93306900Y-102642856D01*
X93306900Y-102642856D02*
X92949757Y-102642856D01*
X92949757Y-102642856D02*
X92664042Y-102571428D01*
X92664042Y-102571428D02*
X92521185Y-102499999D01*
X92521185Y-102499999D02*
X92449757Y-102428571D01*
X92449757Y-102428571D02*
X92378328Y-102285713D01*
X92378328Y-100857142D02*
X92378328Y-100714285D01*
X92378328Y-100714285D02*
X92449757Y-100571428D01*
X92449757Y-100571428D02*
X92521185Y-100500000D01*
X92521185Y-100500000D02*
X92664042Y-100428571D01*
X92664042Y-100428571D02*
X92949757Y-100357142D01*
X92949757Y-100357142D02*
X93306900Y-100357142D01*
X93306900Y-100357142D02*
X93592614Y-100428571D01*
X93592614Y-100428571D02*
X93735471Y-100500000D01*
X93735471Y-100500000D02*
X93806900Y-100571428D01*
X93806900Y-100571428D02*
X93878328Y-100714285D01*
X93878328Y-100714285D02*
X93878328Y-100857142D01*
X93878328Y-100857142D02*
X93806900Y-101000000D01*
X93806900Y-101000000D02*
X93735471Y-101071428D01*
X93735471Y-101071428D02*
X93592614Y-101142857D01*
X93592614Y-101142857D02*
X93306900Y-101214285D01*
X93306900Y-101214285D02*
X92949757Y-101214285D01*
X92949757Y-101214285D02*
X92664042Y-101142857D01*
X92664042Y-101142857D02*
X92521185Y-101071428D01*
X92521185Y-101071428D02*
X92449757Y-101000000D01*
X92449757Y-101000000D02*
X92378328Y-100857142D01*
X92378328Y-99428571D02*
X92378328Y-99285714D01*
X92378328Y-99285714D02*
X92449757Y-99142857D01*
X92449757Y-99142857D02*
X92521185Y-99071429D01*
X92521185Y-99071429D02*
X92664042Y-99000000D01*
X92664042Y-99000000D02*
X92949757Y-98928571D01*
X92949757Y-98928571D02*
X93306900Y-98928571D01*
X93306900Y-98928571D02*
X93592614Y-99000000D01*
X93592614Y-99000000D02*
X93735471Y-99071429D01*
X93735471Y-99071429D02*
X93806900Y-99142857D01*
X93806900Y-99142857D02*
X93878328Y-99285714D01*
X93878328Y-99285714D02*
X93878328Y-99428571D01*
X93878328Y-99428571D02*
X93806900Y-99571429D01*
X93806900Y-99571429D02*
X93735471Y-99642857D01*
X93735471Y-99642857D02*
X93592614Y-99714286D01*
X93592614Y-99714286D02*
X93306900Y-99785714D01*
X93306900Y-99785714D02*
X92949757Y-99785714D01*
X92949757Y-99785714D02*
X92664042Y-99714286D01*
X92664042Y-99714286D02*
X92521185Y-99642857D01*
X92521185Y-99642857D02*
X92449757Y-99571429D01*
X92449757Y-99571429D02*
X92378328Y-99428571D01*
X92378328Y-98000000D02*
X92378328Y-97857143D01*
X92378328Y-97857143D02*
X92449757Y-97714286D01*
X92449757Y-97714286D02*
X92521185Y-97642858D01*
X92521185Y-97642858D02*
X92664042Y-97571429D01*
X92664042Y-97571429D02*
X92949757Y-97500000D01*
X92949757Y-97500000D02*
X93306900Y-97500000D01*
X93306900Y-97500000D02*
X93592614Y-97571429D01*
X93592614Y-97571429D02*
X93735471Y-97642858D01*
X93735471Y-97642858D02*
X93806900Y-97714286D01*
X93806900Y-97714286D02*
X93878328Y-97857143D01*
X93878328Y-97857143D02*
X93878328Y-98000000D01*
X93878328Y-98000000D02*
X93806900Y-98142858D01*
X93806900Y-98142858D02*
X93735471Y-98214286D01*
X93735471Y-98214286D02*
X93592614Y-98285715D01*
X93592614Y-98285715D02*
X93306900Y-98357143D01*
X93306900Y-98357143D02*
X92949757Y-98357143D01*
X92949757Y-98357143D02*
X92664042Y-98285715D01*
X92664042Y-98285715D02*
X92521185Y-98214286D01*
X92521185Y-98214286D02*
X92449757Y-98142858D01*
X92449757Y-98142858D02*
X92378328Y-98000000D01*
X93878328Y-95714287D02*
X92878328Y-95714287D01*
X93021185Y-95714287D02*
X92949757Y-95642858D01*
X92949757Y-95642858D02*
X92878328Y-95500001D01*
X92878328Y-95500001D02*
X92878328Y-95285715D01*
X92878328Y-95285715D02*
X92949757Y-95142858D01*
X92949757Y-95142858D02*
X93092614Y-95071430D01*
X93092614Y-95071430D02*
X93878328Y-95071430D01*
X93092614Y-95071430D02*
X92949757Y-95000001D01*
X92949757Y-95000001D02*
X92878328Y-94857144D01*
X92878328Y-94857144D02*
X92878328Y-94642858D01*
X92878328Y-94642858D02*
X92949757Y-94500001D01*
X92949757Y-94500001D02*
X93092614Y-94428572D01*
X93092614Y-94428572D02*
X93878328Y-94428572D01*
X93878328Y-93714287D02*
X92878328Y-93714287D01*
X93021185Y-93714287D02*
X92949757Y-93642858D01*
X92949757Y-93642858D02*
X92878328Y-93500001D01*
X92878328Y-93500001D02*
X92878328Y-93285715D01*
X92878328Y-93285715D02*
X92949757Y-93142858D01*
X92949757Y-93142858D02*
X93092614Y-93071430D01*
X93092614Y-93071430D02*
X93878328Y-93071430D01*
X93092614Y-93071430D02*
X92949757Y-93000001D01*
X92949757Y-93000001D02*
X92878328Y-92857144D01*
X92878328Y-92857144D02*
X92878328Y-92642858D01*
X92878328Y-92642858D02*
X92949757Y-92500001D01*
X92949757Y-92500001D02*
X93092614Y-92428572D01*
X93092614Y-92428572D02*
X93878328Y-92428572D01*
D12*
X99500000Y-150000000D02*
X94413580Y-150000000D01*
X99500000Y-50000000D02*
X94413580Y-50000000D01*
X95000000Y-150000000D02*
X95000000Y-50000000D01*
X95000000Y-150000000D02*
X95000000Y-50000000D01*
X95000000Y-150000000D02*
X94413579Y-148873496D01*
X95000000Y-150000000D02*
X95586421Y-148873496D01*
X95000000Y-50000000D02*
X95586421Y-51126504D01*
X95000000Y-50000000D02*
X94413579Y-51126504D01*
D10*
D11*
X143214287Y-43878328D02*
X142357144Y-43878328D01*
X142785715Y-43878328D02*
X142785715Y-42378328D01*
X142785715Y-42378328D02*
X142642858Y-42592614D01*
X142642858Y-42592614D02*
X142500001Y-42735471D01*
X142500001Y-42735471D02*
X142357144Y-42806900D01*
X144142858Y-42378328D02*
X144285715Y-42378328D01*
X144285715Y-42378328D02*
X144428572Y-42449757D01*
X144428572Y-42449757D02*
X144500001Y-42521185D01*
X144500001Y-42521185D02*
X144571429Y-42664042D01*
X144571429Y-42664042D02*
X144642858Y-42949757D01*
X144642858Y-42949757D02*
X144642858Y-43306900D01*
X144642858Y-43306900D02*
X144571429Y-43592614D01*
X144571429Y-43592614D02*
X144500001Y-43735471D01*
X144500001Y-43735471D02*
X144428572Y-43806900D01*
X144428572Y-43806900D02*
X144285715Y-43878328D01*
X144285715Y-43878328D02*
X144142858Y-43878328D01*
X144142858Y-43878328D02*
X144000001Y-43806900D01*
X144000001Y-43806900D02*
X143928572Y-43735471D01*
X143928572Y-43735471D02*
X143857143Y-43592614D01*
X143857143Y-43592614D02*
X143785715Y-43306900D01*
X143785715Y-43306900D02*
X143785715Y-42949757D01*
X143785715Y-42949757D02*
X143857143Y-42664042D01*
X143857143Y-42664042D02*
X143928572Y-42521185D01*
X143928572Y-42521185D02*
X144000001Y-42449757D01*
X144000001Y-42449757D02*
X144142858Y-42378328D01*
X145571429Y-42378328D02*
X145714286Y-42378328D01*
X145714286Y-42378328D02*
X145857143Y-42449757D01*
X145857143Y-42449757D02*
X145928572Y-42521185D01*
X145928572Y-42521185D02*
X146000000Y-42664042D01*
X146000000Y-42664042D02*
X146071429Y-42949757D01*
X146071429Y-42949757D02*
X146071429Y-43306900D01*
X146071429Y-43306900D02*
X146000000Y-43592614D01*
X146000000Y-43592614D02*
X145928572Y-43735471D01*
X145928572Y-43735471D02*
X145857143Y-43806900D01*
X145857143Y-43806900D02*
X145714286Y-43878328D01*
X145714286Y-43878328D02*
X145571429Y-43878328D01*
X145571429Y-43878328D02*
X145428572Y-43806900D01*
X145428572Y-43806900D02*
X145357143Y-43735471D01*
X145357143Y-43735471D02*
X145285714Y-43592614D01*
X145285714Y-43592614D02*
X145214286Y-43306900D01*
X145214286Y-43306900D02*
X145214286Y-42949757D01*
X145214286Y-42949757D02*
X145285714Y-42664042D01*
X145285714Y-42664042D02*
X145357143Y-42521185D01*
X145357143Y-42521185D02*
X145428572Y-42449757D01*
X145428572Y-42449757D02*
X145571429Y-42378328D01*
X146714285Y-43735471D02*
X146785714Y-43806900D01*
X146785714Y-43806900D02*
X146714285Y-43878328D01*
X146714285Y-43878328D02*
X146642857Y-43806900D01*
X146642857Y-43806900D02*
X146714285Y-43735471D01*
X146714285Y-43735471D02*
X146714285Y-43878328D01*
X147714286Y-42378328D02*
X147857143Y-42378328D01*
X147857143Y-42378328D02*
X148000000Y-42449757D01*
X148000000Y-42449757D02*
X148071429Y-42521185D01*
X148071429Y-42521185D02*
X148142857Y-42664042D01*
X148142857Y-42664042D02*
X148214286Y-42949757D01*
X148214286Y-42949757D02*
X148214286Y-43306900D01*
X148214286Y-43306900D02*
X148142857Y-43592614D01*
X148142857Y-43592614D02*
X148071429Y-43735471D01*
X148071429Y-43735471D02*
X148000000Y-43806900D01*
X148000000Y-43806900D02*
X147857143Y-43878328D01*
X147857143Y-43878328D02*
X147714286Y-43878328D01*
X147714286Y-43878328D02*
X147571429Y-43806900D01*
X147571429Y-43806900D02*
X147500000Y-43735471D01*
X147500000Y-43735471D02*
X147428571Y-43592614D01*
X147428571Y-43592614D02*
X147357143Y-43306900D01*
X147357143Y-43306900D02*
X147357143Y-42949757D01*
X147357143Y-42949757D02*
X147428571Y-42664042D01*
X147428571Y-42664042D02*
X147500000Y-42521185D01*
X147500000Y-42521185D02*
X147571429Y-42449757D01*
X147571429Y-42449757D02*
X147714286Y-42378328D01*
X149142857Y-42378328D02*
X149285714Y-42378328D01*
X149285714Y-42378328D02*
X149428571Y-42449757D01*
X149428571Y-42449757D02*
X149500000Y-42521185D01*
X149500000Y-42521185D02*
X149571428Y-42664042D01*
X149571428Y-42664042D02*
X149642857Y-42949757D01*
X149642857Y-42949757D02*
X149642857Y-43306900D01*
X149642857Y-43306900D02*
X149571428Y-43592614D01*
X149571428Y-43592614D02*
X149500000Y-43735471D01*
X149500000Y-43735471D02*
X149428571Y-43806900D01*
X149428571Y-43806900D02*
X149285714Y-43878328D01*
X149285714Y-43878328D02*
X149142857Y-43878328D01*
X149142857Y-43878328D02*
X149000000Y-43806900D01*
X149000000Y-43806900D02*
X148928571Y-43735471D01*
X148928571Y-43735471D02*
X148857142Y-43592614D01*
X148857142Y-43592614D02*
X148785714Y-43306900D01*
X148785714Y-43306900D02*
X148785714Y-42949757D01*
X148785714Y-42949757D02*
X148857142Y-42664042D01*
X148857142Y-42664042D02*
X148928571Y-42521185D01*
X148928571Y-42521185D02*
X149000000Y-42449757D01*
X149000000Y-42449757D02*
X149142857Y-42378328D01*
X150571428Y-42378328D02*
X150714285Y-42378328D01*
X150714285Y-42378328D02*
X150857142Y-42449757D01*
X150857142Y-42449757D02*
X150928571Y-42521185D01*
X150928571Y-42521185D02*
X150999999Y-42664042D01*
X150999999Y-42664042D02*
X151071428Y-42949757D01*
X151071428Y-42949757D02*
X151071428Y-43306900D01*
X151071428Y-43306900D02*
X150999999Y-43592614D01*
X150999999Y-43592614D02*
X150928571Y-43735471D01*
X150928571Y-43735471D02*
X150857142Y-43806900D01*
X150857142Y-43806900D02*
X150714285Y-43878328D01*
X150714285Y-43878328D02*
X150571428Y-43878328D01*
X150571428Y-43878328D02*
X150428571Y-43806900D01*
X150428571Y-43806900D02*
X150357142Y-43735471D01*
X150357142Y-43735471D02*
X150285713Y-43592614D01*
X150285713Y-43592614D02*
X150214285Y-43306900D01*
X150214285Y-43306900D02*
X150214285Y-42949757D01*
X150214285Y-42949757D02*
X150285713Y-42664042D01*
X150285713Y-42664042D02*
X150357142Y-42521185D01*
X150357142Y-42521185D02*
X150428571Y-42449757D01*
X150428571Y-42449757D02*
X150571428Y-42378328D01*
X151999999Y-42378328D02*
X152142856Y-42378328D01*
X152142856Y-42378328D02*
X152285713Y-42449757D01*
X152285713Y-42449757D02*
X152357142Y-42521185D01*
X152357142Y-42521185D02*
X152428570Y-42664042D01*
X152428570Y-42664042D02*
X152499999Y-42949757D01*
X152499999Y-42949757D02*
X152499999Y-43306900D01*
X152499999Y-43306900D02*
X152428570Y-43592614D01*
X152428570Y-43592614D02*
X152357142Y-43735471D01*
X152357142Y-43735471D02*
X152285713Y-43806900D01*
X152285713Y-43806900D02*
X152142856Y-43878328D01*
X152142856Y-43878328D02*
X151999999Y-43878328D01*
X151999999Y-43878328D02*
X151857142Y-43806900D01*
X151857142Y-43806900D02*
X151785713Y-43735471D01*
X151785713Y-43735471D02*
X151714284Y-43592614D01*
X151714284Y-43592614D02*
X151642856Y-43306900D01*
X151642856Y-43306900D02*
X151642856Y-42949757D01*
X151642856Y-42949757D02*
X151714284Y-42664042D01*
X151714284Y-42664042D02*
X151785713Y-42521185D01*
X151785713Y-42521185D02*
X151857142Y-42449757D01*
X151857142Y-42449757D02*
X151999999Y-42378328D01*
X154285712Y-43878328D02*
X154285712Y-42878328D01*
X154285712Y-43021185D02*
X154357141Y-42949757D01*
X154357141Y-42949757D02*
X154499998Y-42878328D01*
X154499998Y-42878328D02*
X154714284Y-42878328D01*
X154714284Y-42878328D02*
X154857141Y-42949757D01*
X154857141Y-42949757D02*
X154928570Y-43092614D01*
X154928570Y-43092614D02*
X154928570Y-43878328D01*
X154928570Y-43092614D02*
X154999998Y-42949757D01*
X154999998Y-42949757D02*
X155142855Y-42878328D01*
X155142855Y-42878328D02*
X155357141Y-42878328D01*
X155357141Y-42878328D02*
X155499998Y-42949757D01*
X155499998Y-42949757D02*
X155571427Y-43092614D01*
X155571427Y-43092614D02*
X155571427Y-43878328D01*
X156285712Y-43878328D02*
X156285712Y-42878328D01*
X156285712Y-43021185D02*
X156357141Y-42949757D01*
X156357141Y-42949757D02*
X156499998Y-42878328D01*
X156499998Y-42878328D02*
X156714284Y-42878328D01*
X156714284Y-42878328D02*
X156857141Y-42949757D01*
X156857141Y-42949757D02*
X156928570Y-43092614D01*
X156928570Y-43092614D02*
X156928570Y-43878328D01*
X156928570Y-43092614D02*
X156999998Y-42949757D01*
X156999998Y-42949757D02*
X157142855Y-42878328D01*
X157142855Y-42878328D02*
X157357141Y-42878328D01*
X157357141Y-42878328D02*
X157499998Y-42949757D01*
X157499998Y-42949757D02*
X157571427Y-43092614D01*
X157571427Y-43092614D02*
X157571427Y-43878328D01*
D12*
X100000000Y-49500000D02*
X100000000Y-44413580D01*
X200000000Y-49500000D02*
X200000000Y-44413580D01*
X100000000Y-45000000D02*
X200000000Y-45000000D01*
X100000000Y-45000000D02*
X200000000Y-45000000D01*
X100000000Y-45000000D02*
X101126504Y-44413579D01*
X100000000Y-45000000D02*
X101126504Y-45586421D01*
X200000000Y-45000000D02*
X198873496Y-45586421D01*
X200000000Y-45000000D02*
X198873496Y-44413579D01*
D13*
%TO.P,R7,1*%
%TO.N,Net-(D7-K)*%
X188960000Y-75000000D03*
D14*
%TO.P,R7,2*%
%TO.N,Net-(J3-Pin_1)*%
X194040000Y-75000000D03*
%TD*%
D13*
%TO.P,R1,1*%
%TO.N,Net-(D1-K)*%
X130040000Y-92500000D03*
D14*
%TO.P,R1,2*%
%TO.N,Net-(J3-Pin_1)*%
X124960000Y-92500000D03*
%TD*%
D13*
%TO.P,R5,1*%
%TO.N,Net-(Q2-E)*%
X172500000Y-85540000D03*
D14*
%TO.P,R5,2*%
%TO.N,Net-(J3-Pin_2)*%
X172500000Y-80460000D03*
%TD*%
D15*
%TO.P,Q2,1,C*%
%TO.N,Net-(Q1-E)*%
X160360000Y-76270000D03*
D16*
%TO.P,Q2,2,B*%
%TO.N,Net-(Q2-B)*%
X159090000Y-75000000D03*
%TO.P,Q2,3,E*%
%TO.N,Net-(Q2-E)*%
X160360000Y-73730000D03*
%TD*%
D17*
%TO.P,D1,1,K*%
%TO.N,Net-(D1-K)*%
X128775000Y-82500000D03*
D18*
%TO.P,D1,2,A*%
%TO.N,Net-(D1-A)*%
X126235000Y-82500000D03*
%TD*%
D15*
%TO.P,Q3,1,C*%
%TO.N,Net-(J3-Pin_1)*%
X160360000Y-63540000D03*
D16*
%TO.P,Q3,2,B*%
%TO.N,Net-(Q2-E)*%
X159090000Y-62270000D03*
%TO.P,Q3,3,E*%
%TO.N,Net-(D7-A)*%
X160360000Y-61000000D03*
%TD*%
D19*
%TO.P,J2,1*%
%TO.N,Net-(J3-Pin_2)*%
X120025000Y-67525000D03*
D20*
%TO.P,J2,2*%
%TO.N,Net-(D2-A)*%
X117485000Y-67525000D03*
%TO.P,J2,3*%
%TO.N,Net-(J3-Pin_1)*%
X114945000Y-67525000D03*
%TD*%
D19*
%TO.P,J1,1*%
%TO.N,Net-(J3-Pin_2)*%
X120025000Y-83025000D03*
D20*
%TO.P,J1,2*%
%TO.N,Net-(D1-A)*%
X117485000Y-83025000D03*
%TO.P,J1,3*%
%TO.N,Net-(J3-Pin_1)*%
X114945000Y-83025000D03*
%TD*%
D13*
%TO.P,R2,1*%
%TO.N,Net-(D2-K)*%
X130080000Y-57500000D03*
D14*
%TO.P,R2,2*%
%TO.N,Net-(J3-Pin_1)*%
X125000000Y-57500000D03*
%TD*%
D13*
%TO.P,R6,1*%
%TO.N,Net-(D7-A)*%
X172500000Y-66960000D03*
D14*
%TO.P,R6,2*%
%TO.N,Net-(J3-Pin_2)*%
X172500000Y-72040000D03*
%TD*%
D17*
%TO.P,D7,1,K*%
%TO.N,Net-(D7-K)*%
X181500000Y-75000000D03*
D18*
%TO.P,D7,2,A*%
%TO.N,Net-(D7-A)*%
X178960000Y-75000000D03*
%TD*%
D13*
%TO.P,R4,1*%
%TO.N,Net-(D2-A)*%
X141000000Y-66000000D03*
D14*
%TO.P,R4,2*%
%TO.N,Net-(Q2-B)*%
X146080000Y-66000000D03*
%TD*%
D19*
%TO.P,J3,1,Pin_1*%
%TO.N,Net-(J3-Pin_1)*%
X105000000Y-73750000D03*
D20*
%TO.P,J3,2,Pin_2*%
%TO.N,Net-(J3-Pin_2)*%
X105000000Y-76290000D03*
%TD*%
D15*
%TO.P,Q1,1,C*%
%TO.N,Net-(J3-Pin_1)*%
X160360000Y-86270000D03*
D16*
%TO.P,Q1,2,B*%
%TO.N,Net-(Q1-B)*%
X159090000Y-85000000D03*
%TO.P,Q1,3,E*%
%TO.N,Net-(Q1-E)*%
X160360000Y-83730000D03*
%TD*%
D13*
%TO.P,R3,1*%
%TO.N,Net-(D1-A)*%
X140960000Y-84000000D03*
D14*
%TO.P,R3,2*%
%TO.N,Net-(Q1-B)*%
X146040000Y-84000000D03*
%TD*%
D17*
%TO.P,D2,1,K*%
%TO.N,Net-(D2-K)*%
X128775000Y-67500000D03*
D18*
%TO.P,D2,2,A*%
%TO.N,Net-(D2-A)*%
X126235000Y-67500000D03*
%TD*%
D21*
%TO.N,Net-(J3-Pin_1)*%
X123500000Y-54000000D03*
%TD*%
D22*
%TO.N,Net-(D1-K)*%
X130040000Y-83765000D02*
X130040000Y-92500000D01*
X128775000Y-82500000D02*
X130040000Y-83765000D01*
%TO.N,Net-(D1-A)*%
X117485000Y-84485000D02*
X118500000Y-85500000D01*
X125500000Y-85500000D02*
X126235000Y-84765000D01*
X126235000Y-84765000D02*
X126235000Y-82500000D01*
X118500000Y-85500000D02*
X125500000Y-85500000D01*
X117485000Y-83025000D02*
X117485000Y-84485000D01*
%TO.N,Net-(D2-K)*%
X128775000Y-67500000D02*
X130080000Y-66195000D01*
X130080000Y-66195000D02*
X130080000Y-57500000D01*
%TO.N,Net-(D2-A)*%
X117485000Y-65515000D02*
X117485000Y-67525000D01*
X126235000Y-65235000D02*
X125500000Y-64500000D01*
X126235000Y-67500000D02*
X126235000Y-65235000D01*
X118500000Y-64500000D02*
X117485000Y-65515000D01*
X125500000Y-64500000D02*
X118500000Y-64500000D01*
%TO.N,Net-(D7-K)*%
X181500000Y-75000000D02*
X188960000Y-75000000D01*
%TO.N,Net-(D7-A)*%
X171000000Y-61000000D02*
X172500000Y-62500000D01*
X172500000Y-62500000D02*
X172500000Y-66960000D01*
X172500000Y-66960000D02*
X177460000Y-66960000D01*
X177460000Y-66960000D02*
X179000000Y-68500000D01*
X178960000Y-68540000D02*
X178960000Y-75000000D01*
X160360000Y-61000000D02*
X171000000Y-61000000D01*
X179000000Y-68500000D02*
X178960000Y-68540000D01*
%TO.N,Net-(J3-Pin_2)*%
X172500000Y-80460000D02*
X172500000Y-72040000D01*
X120000000Y-67550000D02*
X120000000Y-75500000D01*
X120025000Y-67525000D02*
X120000000Y-67550000D01*
X120000000Y-75500000D02*
X105000000Y-75500000D01*
X120000000Y-83000000D02*
X120000000Y-75500000D01*
X120025000Y-83025000D02*
X120000000Y-83000000D01*
%TO.N,Net-(J3-Pin_1)*%
X102525000Y-83025000D02*
X102000000Y-82500000D01*
X193000000Y-95000000D02*
X159500000Y-95000000D01*
X114945000Y-83025000D02*
X102525000Y-83025000D01*
X105000000Y-58500000D02*
X105000000Y-59000000D01*
X160360000Y-86270000D02*
X160360000Y-94140000D01*
X125000000Y-57500000D02*
X106000000Y-57500000D01*
X114920000Y-67500000D02*
X105500000Y-67500000D01*
X106500000Y-54000000D02*
X105000000Y-55500000D01*
X160360000Y-94140000D02*
X159500000Y-95000000D01*
X103000000Y-95000000D02*
X102000000Y-94000000D01*
X114945000Y-67525000D02*
X114920000Y-67500000D01*
X124960000Y-92500000D02*
X104500000Y-92500000D01*
X123500000Y-54000000D02*
X106500000Y-54000000D01*
X105500000Y-67500000D02*
X105000000Y-68000000D01*
X105000000Y-59000000D02*
X105000000Y-68000000D01*
X102000000Y-90000000D02*
X102000000Y-82500000D01*
X104500000Y-92500000D02*
X102000000Y-90000000D01*
X105000000Y-68000000D02*
X105000000Y-74500000D01*
X105000000Y-55500000D02*
X105000000Y-59000000D01*
X106000000Y-57500000D02*
X105000000Y-58500000D01*
X194040000Y-75000000D02*
X194040000Y-93960000D01*
X102000000Y-75000000D02*
X102500000Y-74500000D01*
X102000000Y-94000000D02*
X102000000Y-90000000D01*
X194040000Y-93960000D02*
X193000000Y-95000000D01*
X159500000Y-95000000D02*
X103000000Y-95000000D01*
X102500000Y-74500000D02*
X105000000Y-74500000D01*
X102000000Y-82500000D02*
X102000000Y-75000000D01*
%TO.N,Net-(Q1-B)*%
X150500000Y-84000000D02*
X151500000Y-85000000D01*
X151500000Y-85000000D02*
X159090000Y-85000000D01*
X146040000Y-84000000D02*
X150500000Y-84000000D01*
%TO.N,Net-(Q1-E)*%
X160360000Y-83730000D02*
X160360000Y-76270000D01*
%TO.N,Net-(Q2-B)*%
X146080000Y-66000000D02*
X150000000Y-66000000D01*
X152000000Y-68000000D02*
X152000000Y-72000000D01*
X152000000Y-72000000D02*
X155000000Y-75000000D01*
X155000000Y-75000000D02*
X159090000Y-75000000D01*
X150000000Y-66000000D02*
X152000000Y-68000000D01*
%TO.N,Net-(Q2-E)*%
X160360000Y-73730000D02*
X160360000Y-70860000D01*
X160360000Y-73730000D02*
X165730000Y-73730000D01*
X167500000Y-75500000D02*
X167500000Y-84000000D01*
X156000000Y-69000000D02*
X156000000Y-63000000D01*
X160360000Y-70860000D02*
X159500000Y-70000000D01*
X156730000Y-62270000D02*
X159090000Y-62270000D01*
X157000000Y-70000000D02*
X156000000Y-69000000D01*
X169040000Y-85540000D02*
X172500000Y-85540000D01*
X156000000Y-63000000D02*
X156730000Y-62270000D01*
X165730000Y-73730000D02*
X167500000Y-75500000D01*
X167500000Y-84000000D02*
X169040000Y-85540000D01*
X159500000Y-70000000D02*
X157000000Y-70000000D01*
%TD*%
%TA.AperFunction,NonConductor*%
G36*
X199690782Y-50020185D02*
G01*
X199696099Y-50023924D01*
X199697157Y-50024534D01*
X199697159Y-50024536D01*
X199697160Y-50024536D01*
X199697163Y-50024538D01*
X199770198Y-50054789D01*
X199843238Y-50085044D01*
X199891685Y-50091422D01*
X199955580Y-50119686D01*
X199994052Y-50178010D01*
X199999500Y-50214360D01*
X199999500Y-99876000D01*
X199979815Y-99943039D01*
X199927011Y-99988794D01*
X199875500Y-100000000D01*
X100124500Y-100000000D01*
X100057461Y-99980315D01*
X100011706Y-99927511D01*
X100000500Y-99876000D01*
X100000500Y-74980195D01*
X101369840Y-74980195D01*
X101374225Y-75026583D01*
X101374500Y-75032421D01*
X101374500Y-82417255D01*
X101372775Y-82432872D01*
X101373061Y-82432899D01*
X101372326Y-82440665D01*
X101374500Y-82509814D01*
X101374500Y-89917255D01*
X101372775Y-89932872D01*
X101373061Y-89932899D01*
X101372326Y-89940665D01*
X101374500Y-90009814D01*
X101374500Y-93917255D01*
X101372775Y-93932872D01*
X101373061Y-93932899D01*
X101372326Y-93940665D01*
X101374500Y-94009814D01*
X101374500Y-94039343D01*
X101374501Y-94039360D01*
X101375368Y-94046231D01*
X101375826Y-94052050D01*
X101377290Y-94098624D01*
X101377291Y-94098627D01*
X101382880Y-94117867D01*
X101386824Y-94136911D01*
X101389018Y-94154272D01*
X101389336Y-94156791D01*
X101406490Y-94200119D01*
X101408382Y-94205647D01*
X101421381Y-94250388D01*
X101431580Y-94267634D01*
X101440136Y-94285100D01*
X101447514Y-94303732D01*
X101472542Y-94338181D01*
X101474898Y-94341423D01*
X101478106Y-94346307D01*
X101501827Y-94386416D01*
X101501833Y-94386424D01*
X101515990Y-94400580D01*
X101528627Y-94415375D01*
X101540406Y-94431587D01*
X101557567Y-94445784D01*
X101576309Y-94461288D01*
X101580620Y-94465210D01*
X102499194Y-95383783D01*
X102499194Y-95383784D01*
X102509019Y-95396048D01*
X102509240Y-95395866D01*
X102514210Y-95401873D01*
X102514213Y-95401876D01*
X102514214Y-95401877D01*
X102564651Y-95449241D01*
X102585530Y-95470120D01*
X102591004Y-95474366D01*
X102595442Y-95478156D01*
X102629418Y-95510062D01*
X102629422Y-95510064D01*
X102646973Y-95519713D01*
X102663231Y-95530392D01*
X102679064Y-95542674D01*
X102701015Y-95552172D01*
X102721837Y-95561183D01*
X102727081Y-95563752D01*
X102767908Y-95586197D01*
X102787312Y-95591179D01*
X102805710Y-95597478D01*
X102824105Y-95605438D01*
X102870129Y-95612726D01*
X102875832Y-95613907D01*
X102920981Y-95625500D01*
X102941016Y-95625500D01*
X102960413Y-95627026D01*
X102980196Y-95630160D01*
X103026583Y-95625775D01*
X103032422Y-95625500D01*
X159417257Y-95625500D01*
X159432877Y-95627224D01*
X159432904Y-95626939D01*
X159440660Y-95627671D01*
X159440667Y-95627673D01*
X159509814Y-95625500D01*
X192917257Y-95625500D01*
X192932877Y-95627224D01*
X192932904Y-95626939D01*
X192940660Y-95627671D01*
X192940667Y-95627673D01*
X193009814Y-95625500D01*
X193039350Y-95625500D01*
X193046228Y-95624630D01*
X193052041Y-95624172D01*
X193098627Y-95622709D01*
X193117869Y-95617117D01*
X193136912Y-95613174D01*
X193156792Y-95610664D01*
X193200122Y-95593507D01*
X193205646Y-95591617D01*
X193209396Y-95590527D01*
X193250390Y-95578618D01*
X193267629Y-95568422D01*
X193285103Y-95559862D01*
X193303727Y-95552488D01*
X193303727Y-95552487D01*
X193303732Y-95552486D01*
X193341449Y-95525082D01*
X193346305Y-95521892D01*
X193386420Y-95498170D01*
X193400589Y-95483999D01*
X193415379Y-95471368D01*
X193431587Y-95459594D01*
X193461299Y-95423676D01*
X193465212Y-95419376D01*
X194423787Y-94460802D01*
X194436042Y-94450986D01*
X194435859Y-94450764D01*
X194441866Y-94445792D01*
X194441877Y-94445786D01*
X194477845Y-94407484D01*
X194489227Y-94395364D01*
X194499671Y-94384918D01*
X194510120Y-94374471D01*
X194514379Y-94368978D01*
X194518152Y-94364561D01*
X194550062Y-94330582D01*
X194559713Y-94313024D01*
X194570396Y-94296761D01*
X194582673Y-94280936D01*
X194601185Y-94238153D01*
X194603738Y-94232941D01*
X194626197Y-94192092D01*
X194631180Y-94172680D01*
X194637481Y-94154280D01*
X194645437Y-94135896D01*
X194652729Y-94089852D01*
X194653906Y-94084171D01*
X194665500Y-94039019D01*
X194665500Y-94018982D01*
X194667027Y-93999582D01*
X194670160Y-93979804D01*
X194665775Y-93933415D01*
X194665500Y-93927577D01*
X194665500Y-76093765D01*
X194685185Y-76026726D01*
X194724220Y-75988340D01*
X194766562Y-75962124D01*
X194930981Y-75812236D01*
X195065058Y-75634689D01*
X195164229Y-75435528D01*
X195225115Y-75221536D01*
X195245643Y-75000000D01*
X195225115Y-74778464D01*
X195164229Y-74564472D01*
X195153886Y-74543700D01*
X195065061Y-74365316D01*
X195065056Y-74365308D01*
X194930979Y-74187761D01*
X194766562Y-74037876D01*
X194766560Y-74037874D01*
X194577404Y-73920754D01*
X194577398Y-73920752D01*
X194369940Y-73840382D01*
X194151243Y-73799500D01*
X193928757Y-73799500D01*
X193710060Y-73840382D01*
X193618804Y-73875735D01*
X193502601Y-73920752D01*
X193502595Y-73920754D01*
X193313439Y-74037874D01*
X193313437Y-74037876D01*
X193149020Y-74187761D01*
X193014943Y-74365308D01*
X193014938Y-74365316D01*
X192915775Y-74564461D01*
X192915769Y-74564476D01*
X192854885Y-74778462D01*
X192854884Y-74778464D01*
X192834356Y-74999999D01*
X192834356Y-75000000D01*
X192854884Y-75221535D01*
X192854885Y-75221537D01*
X192915769Y-75435523D01*
X192915775Y-75435538D01*
X193014938Y-75634683D01*
X193014943Y-75634691D01*
X193149020Y-75812238D01*
X193313436Y-75962123D01*
X193322919Y-75967994D01*
X193355776Y-75988338D01*
X193402411Y-76040364D01*
X193414499Y-76093765D01*
X193414499Y-93649547D01*
X193394814Y-93716586D01*
X193378180Y-93737228D01*
X192777228Y-94338181D01*
X192715905Y-94371666D01*
X192689547Y-94374500D01*
X161105439Y-94374500D01*
X161038400Y-94354815D01*
X160992645Y-94302011D01*
X160982701Y-94232853D01*
X160985335Y-94219661D01*
X160985500Y-94219019D01*
X160985500Y-94198982D01*
X160987027Y-94179582D01*
X160988119Y-94172689D01*
X160990160Y-94159804D01*
X160985775Y-94113415D01*
X160985500Y-94107577D01*
X160985500Y-87539663D01*
X161005185Y-87472624D01*
X161057989Y-87426869D01*
X161096248Y-87416373D01*
X161117483Y-87414091D01*
X161252331Y-87363796D01*
X161367546Y-87277546D01*
X161453796Y-87162331D01*
X161504091Y-87027483D01*
X161510500Y-86967873D01*
X161510499Y-85572128D01*
X161504091Y-85512517D01*
X161503175Y-85510062D01*
X161453797Y-85377671D01*
X161453793Y-85377664D01*
X161367547Y-85262455D01*
X161367544Y-85262452D01*
X161252335Y-85176206D01*
X161252328Y-85176202D01*
X161117482Y-85125908D01*
X161117483Y-85125908D01*
X161057883Y-85119501D01*
X161057881Y-85119500D01*
X161057873Y-85119500D01*
X161057865Y-85119500D01*
X160526245Y-85119500D01*
X160459206Y-85099815D01*
X160413451Y-85047011D01*
X160403507Y-84977853D01*
X160432532Y-84914297D01*
X160491310Y-84876523D01*
X160503450Y-84873613D01*
X160676198Y-84841321D01*
X160875019Y-84764298D01*
X161056302Y-84652052D01*
X161213872Y-84508407D01*
X161342366Y-84338255D01*
X161395002Y-84232547D01*
X161437403Y-84147394D01*
X161437403Y-84147393D01*
X161437405Y-84147389D01*
X161495756Y-83942310D01*
X161515429Y-83730000D01*
X161495756Y-83517690D01*
X161437405Y-83312611D01*
X161437403Y-83312606D01*
X161437403Y-83312605D01*
X161342367Y-83121746D01*
X161213872Y-82951593D01*
X161091880Y-82840382D01*
X161056302Y-82807948D01*
X161056300Y-82807946D01*
X161056297Y-82807944D01*
X161044220Y-82800466D01*
X160997586Y-82748438D01*
X160985500Y-82695041D01*
X160985500Y-77539663D01*
X161005185Y-77472624D01*
X161057989Y-77426869D01*
X161096248Y-77416373D01*
X161117483Y-77414091D01*
X161252331Y-77363796D01*
X161367546Y-77277546D01*
X161453796Y-77162331D01*
X161504091Y-77027483D01*
X161510500Y-76967873D01*
X161510499Y-75572128D01*
X161504091Y-75512517D01*
X161503175Y-75510062D01*
X161453797Y-75377671D01*
X161453793Y-75377664D01*
X161367547Y-75262455D01*
X161367544Y-75262452D01*
X161252335Y-75176206D01*
X161252328Y-75176202D01*
X161117482Y-75125908D01*
X161117483Y-75125908D01*
X161057883Y-75119501D01*
X161057881Y-75119500D01*
X161057873Y-75119500D01*
X161057865Y-75119500D01*
X160526245Y-75119500D01*
X160459206Y-75099815D01*
X160413451Y-75047011D01*
X160403507Y-74977853D01*
X160432532Y-74914297D01*
X160491310Y-74876523D01*
X160503450Y-74873613D01*
X160676198Y-74841321D01*
X160875019Y-74764298D01*
X161056302Y-74652052D01*
X161213872Y-74508407D01*
X161292133Y-74404772D01*
X161348242Y-74363137D01*
X161391087Y-74355500D01*
X165419548Y-74355500D01*
X165486587Y-74375185D01*
X165507229Y-74391819D01*
X166838181Y-75722771D01*
X166871666Y-75784094D01*
X166874500Y-75810452D01*
X166874500Y-83917255D01*
X166872775Y-83932872D01*
X166873061Y-83932899D01*
X166872326Y-83940665D01*
X166874500Y-84009814D01*
X166874500Y-84039343D01*
X166874501Y-84039360D01*
X166875368Y-84046231D01*
X166875826Y-84052050D01*
X166877290Y-84098624D01*
X166877291Y-84098627D01*
X166882880Y-84117867D01*
X166886824Y-84136911D01*
X166888149Y-84147392D01*
X166889336Y-84156791D01*
X166906490Y-84200119D01*
X166908382Y-84205647D01*
X166916197Y-84232547D01*
X166921382Y-84250390D01*
X166923060Y-84253228D01*
X166931580Y-84267634D01*
X166940136Y-84285100D01*
X166947514Y-84303732D01*
X166972542Y-84338181D01*
X166974898Y-84341423D01*
X166978106Y-84346307D01*
X167001827Y-84386416D01*
X167001833Y-84386424D01*
X167015990Y-84400580D01*
X167028628Y-84415376D01*
X167040405Y-84431586D01*
X167040406Y-84431587D01*
X167076309Y-84461288D01*
X167080620Y-84465210D01*
X168176592Y-85561183D01*
X168539197Y-85923788D01*
X168549022Y-85936051D01*
X168549243Y-85935869D01*
X168554214Y-85941878D01*
X168580217Y-85966295D01*
X168604635Y-85989226D01*
X168625529Y-86010120D01*
X168631011Y-86014373D01*
X168635443Y-86018157D01*
X168669418Y-86050062D01*
X168686976Y-86059714D01*
X168703233Y-86070393D01*
X168719064Y-86082673D01*
X168738713Y-86091176D01*
X168761833Y-86101182D01*
X168767077Y-86103750D01*
X168807908Y-86126197D01*
X168820523Y-86129435D01*
X168827305Y-86131177D01*
X168845719Y-86137481D01*
X168864104Y-86145438D01*
X168910157Y-86152732D01*
X168915826Y-86153906D01*
X168960981Y-86165500D01*
X168981016Y-86165500D01*
X169000413Y-86167026D01*
X169020196Y-86170160D01*
X169066583Y-86165775D01*
X169072422Y-86165500D01*
X171406258Y-86165500D01*
X171473297Y-86185185D01*
X171505212Y-86214773D01*
X171609020Y-86352238D01*
X171773437Y-86502123D01*
X171773439Y-86502125D01*
X171962595Y-86619245D01*
X171962596Y-86619245D01*
X171962599Y-86619247D01*
X172170060Y-86699618D01*
X172388757Y-86740500D01*
X172388759Y-86740500D01*
X172611241Y-86740500D01*
X172611243Y-86740500D01*
X172829940Y-86699618D01*
X173037401Y-86619247D01*
X173226562Y-86502124D01*
X173390981Y-86352236D01*
X173525058Y-86174689D01*
X173624229Y-85975528D01*
X173685115Y-85761536D01*
X173705643Y-85540000D01*
X173685115Y-85318464D01*
X173624229Y-85104472D01*
X173624224Y-85104461D01*
X173525061Y-84905316D01*
X173525056Y-84905308D01*
X173390979Y-84727761D01*
X173226562Y-84577876D01*
X173226560Y-84577874D01*
X173037404Y-84460754D01*
X173037398Y-84460752D01*
X172829940Y-84380382D01*
X172611243Y-84339500D01*
X172388757Y-84339500D01*
X172170060Y-84380382D01*
X172073218Y-84417899D01*
X171962601Y-84460752D01*
X171962595Y-84460754D01*
X171773439Y-84577874D01*
X171773437Y-84577876D01*
X171609020Y-84727761D01*
X171505212Y-84865227D01*
X171449103Y-84906863D01*
X171406258Y-84914500D01*
X169350452Y-84914500D01*
X169283413Y-84894815D01*
X169262771Y-84878181D01*
X168161819Y-83777228D01*
X168128334Y-83715905D01*
X168125500Y-83689547D01*
X168125500Y-80460000D01*
X171294356Y-80460000D01*
X171314884Y-80681535D01*
X171314885Y-80681537D01*
X171375769Y-80895523D01*
X171375775Y-80895538D01*
X171474938Y-81094683D01*
X171474943Y-81094691D01*
X171609020Y-81272238D01*
X171773437Y-81422123D01*
X171773439Y-81422125D01*
X171962595Y-81539245D01*
X171962596Y-81539245D01*
X171962599Y-81539247D01*
X172170060Y-81619618D01*
X172388757Y-81660500D01*
X172388759Y-81660500D01*
X172611241Y-81660500D01*
X172611243Y-81660500D01*
X172829940Y-81619618D01*
X173037401Y-81539247D01*
X173226562Y-81422124D01*
X173390981Y-81272236D01*
X173525058Y-81094689D01*
X173624229Y-80895528D01*
X173685115Y-80681536D01*
X173705643Y-80460000D01*
X173685115Y-80238464D01*
X173624229Y-80024472D01*
X173624224Y-80024461D01*
X173525061Y-79825316D01*
X173525056Y-79825308D01*
X173390979Y-79647761D01*
X173226563Y-79497877D01*
X173226562Y-79497876D01*
X173184222Y-79471660D01*
X173137587Y-79419631D01*
X173125500Y-79366233D01*
X173125500Y-73133765D01*
X173145185Y-73066726D01*
X173184220Y-73028340D01*
X173226562Y-73002124D01*
X173390981Y-72852236D01*
X173525058Y-72674689D01*
X173533536Y-72657664D01*
X173624224Y-72475538D01*
X173624223Y-72475538D01*
X173624229Y-72475528D01*
X173685115Y-72261536D01*
X173705643Y-72040000D01*
X173685115Y-71818464D01*
X173624229Y-71604472D01*
X173624224Y-71604461D01*
X173525061Y-71405316D01*
X173525056Y-71405308D01*
X173390979Y-71227761D01*
X173226562Y-71077876D01*
X173226560Y-71077874D01*
X173037404Y-70960754D01*
X173037398Y-70960752D01*
X172829940Y-70880382D01*
X172611243Y-70839500D01*
X172388757Y-70839500D01*
X172170060Y-70880382D01*
X172044423Y-70929054D01*
X171962601Y-70960752D01*
X171962595Y-70960754D01*
X171773439Y-71077874D01*
X171773437Y-71077876D01*
X171609020Y-71227761D01*
X171474943Y-71405308D01*
X171474938Y-71405316D01*
X171375775Y-71604461D01*
X171375769Y-71604476D01*
X171314885Y-71818462D01*
X171314884Y-71818464D01*
X171294356Y-72039999D01*
X171294356Y-72040000D01*
X171314884Y-72261535D01*
X171314885Y-72261537D01*
X171375769Y-72475523D01*
X171375775Y-72475538D01*
X171474938Y-72674683D01*
X171474943Y-72674691D01*
X171609020Y-72852238D01*
X171773433Y-73002120D01*
X171773435Y-73002122D01*
X171773437Y-73002123D01*
X171773438Y-73002124D01*
X171815778Y-73028339D01*
X171862412Y-73080364D01*
X171874500Y-73133765D01*
X171874500Y-79366233D01*
X171854815Y-79433272D01*
X171815778Y-79471660D01*
X171773436Y-79497877D01*
X171609020Y-79647761D01*
X171474943Y-79825308D01*
X171474938Y-79825316D01*
X171375775Y-80024461D01*
X171375769Y-80024476D01*
X171314885Y-80238462D01*
X171314884Y-80238464D01*
X171294356Y-80459999D01*
X171294356Y-80460000D01*
X168125500Y-80460000D01*
X168125500Y-75582742D01*
X168127224Y-75567122D01*
X168126939Y-75567096D01*
X168127671Y-75559340D01*
X168127673Y-75559333D01*
X168125500Y-75490185D01*
X168125500Y-75460650D01*
X168124631Y-75453772D01*
X168124172Y-75447943D01*
X168122709Y-75401372D01*
X168117122Y-75382144D01*
X168113174Y-75363084D01*
X168110663Y-75343204D01*
X168093512Y-75299887D01*
X168091619Y-75294358D01*
X168078618Y-75249609D01*
X168078616Y-75249606D01*
X168068423Y-75232371D01*
X168059861Y-75214894D01*
X168052487Y-75196270D01*
X168052486Y-75196268D01*
X168025079Y-75158545D01*
X168021888Y-75153686D01*
X167998172Y-75113583D01*
X167998165Y-75113574D01*
X167984006Y-75099415D01*
X167971368Y-75084619D01*
X167959594Y-75068413D01*
X167933723Y-75047011D01*
X167923688Y-75038709D01*
X167919376Y-75034786D01*
X166230803Y-73346212D01*
X166220980Y-73333950D01*
X166220759Y-73334134D01*
X166215786Y-73328123D01*
X166165364Y-73280773D01*
X166154919Y-73270328D01*
X166144475Y-73259883D01*
X166138986Y-73255625D01*
X166134561Y-73251847D01*
X166100582Y-73219938D01*
X166100580Y-73219936D01*
X166100577Y-73219935D01*
X166083029Y-73210288D01*
X166066763Y-73199604D01*
X166050933Y-73187325D01*
X166008168Y-73168818D01*
X166002922Y-73166248D01*
X165962093Y-73143803D01*
X165962092Y-73143802D01*
X165942693Y-73138822D01*
X165924281Y-73132518D01*
X165905898Y-73124562D01*
X165905892Y-73124560D01*
X165859874Y-73117272D01*
X165854152Y-73116087D01*
X165809021Y-73104500D01*
X165809019Y-73104500D01*
X165788984Y-73104500D01*
X165769586Y-73102973D01*
X165762162Y-73101797D01*
X165749805Y-73099840D01*
X165749804Y-73099840D01*
X165703416Y-73104225D01*
X165697578Y-73104500D01*
X161391087Y-73104500D01*
X161324048Y-73084815D01*
X161292133Y-73055227D01*
X161252031Y-73002124D01*
X161213872Y-72951593D01*
X161056302Y-72807948D01*
X161056300Y-72807946D01*
X161056297Y-72807944D01*
X161044220Y-72800466D01*
X160997586Y-72748438D01*
X160985500Y-72695041D01*
X160985500Y-70942742D01*
X160987224Y-70927122D01*
X160986939Y-70927095D01*
X160987673Y-70919333D01*
X160985500Y-70850172D01*
X160985500Y-70820656D01*
X160985500Y-70820650D01*
X160984631Y-70813779D01*
X160984173Y-70807952D01*
X160982710Y-70761373D01*
X160977119Y-70742130D01*
X160973173Y-70723078D01*
X160970664Y-70703208D01*
X160953504Y-70659867D01*
X160951624Y-70654379D01*
X160938618Y-70609610D01*
X160928422Y-70592370D01*
X160919861Y-70574894D01*
X160912487Y-70556270D01*
X160912486Y-70556268D01*
X160885079Y-70518545D01*
X160881888Y-70513686D01*
X160879742Y-70510058D01*
X160859695Y-70476159D01*
X160858172Y-70473583D01*
X160858165Y-70473574D01*
X160844006Y-70459415D01*
X160831368Y-70444619D01*
X160819594Y-70428413D01*
X160787517Y-70401877D01*
X160783688Y-70398709D01*
X160779376Y-70394786D01*
X160000803Y-69616212D01*
X159990980Y-69603950D01*
X159990759Y-69604134D01*
X159985786Y-69598123D01*
X159935364Y-69550773D01*
X159924919Y-69540328D01*
X159914475Y-69529883D01*
X159908986Y-69525625D01*
X159904561Y-69521847D01*
X159870582Y-69489938D01*
X159870580Y-69489936D01*
X159870577Y-69489935D01*
X159853029Y-69480288D01*
X159836763Y-69469604D01*
X159820936Y-69457327D01*
X159820935Y-69457326D01*
X159820933Y-69457325D01*
X159778168Y-69438818D01*
X159772922Y-69436248D01*
X159732093Y-69413803D01*
X159732092Y-69413802D01*
X159712693Y-69408822D01*
X159694281Y-69402518D01*
X159675898Y-69394562D01*
X159675892Y-69394560D01*
X159629874Y-69387272D01*
X159624152Y-69386087D01*
X159579021Y-69374500D01*
X159579019Y-69374500D01*
X159558984Y-69374500D01*
X159539586Y-69372973D01*
X159532162Y-69371797D01*
X159519805Y-69369840D01*
X159519804Y-69369840D01*
X159473416Y-69374225D01*
X159467578Y-69374500D01*
X157310452Y-69374500D01*
X157243413Y-69354815D01*
X157222771Y-69338181D01*
X156661819Y-68777228D01*
X156628334Y-68715905D01*
X156625500Y-68689547D01*
X156625500Y-63310452D01*
X156645185Y-63243413D01*
X156661819Y-63222771D01*
X156952772Y-62931819D01*
X157014095Y-62898334D01*
X157040453Y-62895500D01*
X158058913Y-62895500D01*
X158125952Y-62915185D01*
X158157865Y-62944771D01*
X158236128Y-63048407D01*
X158393698Y-63192052D01*
X158574981Y-63304298D01*
X158773802Y-63381321D01*
X158983390Y-63420500D01*
X158983392Y-63420500D01*
X159085500Y-63420500D01*
X159152539Y-63440185D01*
X159198294Y-63492989D01*
X159209500Y-63544500D01*
X159209500Y-64237870D01*
X159209501Y-64237876D01*
X159215908Y-64297483D01*
X159266202Y-64432328D01*
X159266206Y-64432335D01*
X159352452Y-64547544D01*
X159352455Y-64547547D01*
X159467664Y-64633793D01*
X159467671Y-64633797D01*
X159602517Y-64684091D01*
X159602516Y-64684091D01*
X159609444Y-64684835D01*
X159662127Y-64690500D01*
X161057872Y-64690499D01*
X161117483Y-64684091D01*
X161252331Y-64633796D01*
X161367546Y-64547546D01*
X161453796Y-64432331D01*
X161504091Y-64297483D01*
X161510500Y-64237873D01*
X161510499Y-62842128D01*
X161504091Y-62782517D01*
X161498642Y-62767908D01*
X161453797Y-62647671D01*
X161453793Y-62647664D01*
X161367547Y-62532455D01*
X161367544Y-62532452D01*
X161252335Y-62446206D01*
X161252328Y-62446202D01*
X161117482Y-62395908D01*
X161117483Y-62395908D01*
X161057883Y-62389501D01*
X161057881Y-62389500D01*
X161057873Y-62389500D01*
X161057865Y-62389500D01*
X160526245Y-62389500D01*
X160459206Y-62369815D01*
X160413451Y-62317011D01*
X160403507Y-62247853D01*
X160432532Y-62184297D01*
X160491310Y-62146523D01*
X160503450Y-62143613D01*
X160676198Y-62111321D01*
X160875019Y-62034298D01*
X161056302Y-61922052D01*
X161213872Y-61778407D01*
X161292133Y-61674772D01*
X161348242Y-61633137D01*
X161391087Y-61625500D01*
X170689548Y-61625500D01*
X170756587Y-61645185D01*
X170777229Y-61661819D01*
X171838181Y-62722771D01*
X171871666Y-62784094D01*
X171874500Y-62810452D01*
X171874500Y-65866233D01*
X171854815Y-65933272D01*
X171815778Y-65971660D01*
X171773436Y-65997877D01*
X171609020Y-66147761D01*
X171474943Y-66325308D01*
X171474938Y-66325316D01*
X171375775Y-66524461D01*
X171375769Y-66524476D01*
X171314885Y-66738462D01*
X171314884Y-66738464D01*
X171294356Y-66959999D01*
X171294356Y-66960000D01*
X171314884Y-67181535D01*
X171314885Y-67181537D01*
X171375769Y-67395523D01*
X171375775Y-67395538D01*
X171474938Y-67594683D01*
X171474943Y-67594691D01*
X171609020Y-67772238D01*
X171773437Y-67922123D01*
X171773439Y-67922125D01*
X171962595Y-68039245D01*
X171962596Y-68039245D01*
X171962599Y-68039247D01*
X172170060Y-68119618D01*
X172388757Y-68160500D01*
X172388759Y-68160500D01*
X172611241Y-68160500D01*
X172611243Y-68160500D01*
X172829940Y-68119618D01*
X173037401Y-68039247D01*
X173226562Y-67922124D01*
X173390981Y-67772236D01*
X173494788Y-67634772D01*
X173550897Y-67593137D01*
X173593742Y-67585500D01*
X177149548Y-67585500D01*
X177216587Y-67605185D01*
X177237229Y-67621819D01*
X178298182Y-68682772D01*
X178331666Y-68744093D01*
X178334500Y-68770451D01*
X178334500Y-73672185D01*
X178314815Y-73739224D01*
X178269518Y-73781239D01*
X178191380Y-73823525D01*
X178191365Y-73823535D01*
X178008222Y-73966081D01*
X178008219Y-73966084D01*
X178008216Y-73966086D01*
X178008216Y-73966087D01*
X177975313Y-74001829D01*
X177851016Y-74136852D01*
X177724075Y-74331151D01*
X177630842Y-74543699D01*
X177573866Y-74768691D01*
X177573864Y-74768702D01*
X177554700Y-74999993D01*
X177554700Y-75000006D01*
X177573864Y-75231297D01*
X177573866Y-75231308D01*
X177630842Y-75456300D01*
X177724075Y-75668848D01*
X177851016Y-75863147D01*
X177851019Y-75863151D01*
X177851021Y-75863153D01*
X178008216Y-76033913D01*
X178008219Y-76033915D01*
X178008222Y-76033918D01*
X178191365Y-76176464D01*
X178191371Y-76176468D01*
X178191374Y-76176470D01*
X178395497Y-76286936D01*
X178509487Y-76326068D01*
X178615015Y-76362297D01*
X178615017Y-76362297D01*
X178615019Y-76362298D01*
X178843951Y-76400500D01*
X178843952Y-76400500D01*
X179076048Y-76400500D01*
X179076049Y-76400500D01*
X179304981Y-76362298D01*
X179524503Y-76286936D01*
X179728626Y-76176470D01*
X179761993Y-76150500D01*
X179834886Y-76093765D01*
X179911784Y-76033913D01*
X179920130Y-76024846D01*
X179980010Y-75988854D01*
X180049849Y-75990949D01*
X180107468Y-76030469D01*
X180127544Y-76065491D01*
X180156203Y-76142330D01*
X180156206Y-76142335D01*
X180242452Y-76257544D01*
X180242455Y-76257547D01*
X180357664Y-76343793D01*
X180357671Y-76343797D01*
X180492517Y-76394091D01*
X180492516Y-76394091D01*
X180499444Y-76394835D01*
X180552127Y-76400500D01*
X182447872Y-76400499D01*
X182507483Y-76394091D01*
X182642331Y-76343796D01*
X182757546Y-76257546D01*
X182843796Y-76142331D01*
X182894091Y-76007483D01*
X182900500Y-75947873D01*
X182900499Y-75749499D01*
X182920185Y-75682461D01*
X182972989Y-75636706D01*
X183024500Y-75625500D01*
X187866258Y-75625500D01*
X187933297Y-75645185D01*
X187965212Y-75674773D01*
X188069020Y-75812238D01*
X188233437Y-75962123D01*
X188233439Y-75962125D01*
X188422595Y-76079245D01*
X188422596Y-76079245D01*
X188422599Y-76079247D01*
X188630060Y-76159618D01*
X188848757Y-76200500D01*
X188848759Y-76200500D01*
X189071241Y-76200500D01*
X189071243Y-76200500D01*
X189289940Y-76159618D01*
X189497401Y-76079247D01*
X189686562Y-75962124D01*
X189850981Y-75812236D01*
X189985058Y-75634689D01*
X190084229Y-75435528D01*
X190145115Y-75221536D01*
X190165643Y-75000000D01*
X190145115Y-74778464D01*
X190084229Y-74564472D01*
X190073886Y-74543700D01*
X189985061Y-74365316D01*
X189985056Y-74365308D01*
X189850979Y-74187761D01*
X189686562Y-74037876D01*
X189686560Y-74037874D01*
X189497404Y-73920754D01*
X189497398Y-73920752D01*
X189289940Y-73840382D01*
X189071243Y-73799500D01*
X188848757Y-73799500D01*
X188630060Y-73840382D01*
X188538804Y-73875735D01*
X188422601Y-73920752D01*
X188422595Y-73920754D01*
X188233439Y-74037874D01*
X188233437Y-74037876D01*
X188069020Y-74187761D01*
X187965212Y-74325227D01*
X187909103Y-74366863D01*
X187866258Y-74374500D01*
X183024499Y-74374500D01*
X182957460Y-74354815D01*
X182911705Y-74302011D01*
X182900499Y-74250500D01*
X182900499Y-74052129D01*
X182900498Y-74052123D01*
X182899238Y-74040404D01*
X182894091Y-73992517D01*
X182888717Y-73978109D01*
X182843797Y-73857671D01*
X182843793Y-73857664D01*
X182757547Y-73742455D01*
X182757544Y-73742452D01*
X182642335Y-73656206D01*
X182642328Y-73656202D01*
X182507482Y-73605908D01*
X182507483Y-73605908D01*
X182447883Y-73599501D01*
X182447881Y-73599500D01*
X182447873Y-73599500D01*
X182447864Y-73599500D01*
X180552129Y-73599500D01*
X180552123Y-73599501D01*
X180492516Y-73605908D01*
X180357671Y-73656202D01*
X180357664Y-73656206D01*
X180242455Y-73742452D01*
X180242452Y-73742455D01*
X180156206Y-73857664D01*
X180156203Y-73857670D01*
X180127544Y-73934508D01*
X180085672Y-73990441D01*
X180020208Y-74014858D01*
X179951935Y-74000006D01*
X179920135Y-73975158D01*
X179911784Y-73966087D01*
X179911778Y-73966082D01*
X179911777Y-73966081D01*
X179728634Y-73823535D01*
X179728619Y-73823525D01*
X179650482Y-73781239D01*
X179600891Y-73732020D01*
X179585500Y-73672185D01*
X179585500Y-68756587D01*
X179591673Y-68721220D01*
X179591496Y-68721181D01*
X179592336Y-68717420D01*
X179592833Y-68714576D01*
X179593193Y-68713573D01*
X179593198Y-68713565D01*
X179594979Y-68705593D01*
X179602192Y-68683395D01*
X179605438Y-68675895D01*
X179614425Y-68619146D01*
X179615143Y-68615383D01*
X179627673Y-68559333D01*
X179627416Y-68551163D01*
X179628883Y-68527866D01*
X179629361Y-68524849D01*
X179630160Y-68519804D01*
X179624755Y-68462642D01*
X179624512Y-68458772D01*
X179622709Y-68401373D01*
X179620428Y-68393523D01*
X179616055Y-68370601D01*
X179615287Y-68362467D01*
X179602290Y-68326367D01*
X179595841Y-68308453D01*
X179594637Y-68304748D01*
X179578618Y-68249611D01*
X179578618Y-68249610D01*
X179574460Y-68242580D01*
X179564523Y-68221464D01*
X179561754Y-68213771D01*
X179554319Y-68202831D01*
X179529473Y-68166271D01*
X179527385Y-68162981D01*
X179526697Y-68161818D01*
X179498170Y-68113580D01*
X179492397Y-68107807D01*
X179477521Y-68089826D01*
X179472924Y-68083062D01*
X179472556Y-68082738D01*
X179429840Y-68045078D01*
X179427001Y-68042411D01*
X177960803Y-66576212D01*
X177950980Y-66563950D01*
X177950759Y-66564134D01*
X177945786Y-66558123D01*
X177925930Y-66539477D01*
X177895364Y-66510773D01*
X177884597Y-66500006D01*
X177874475Y-66489883D01*
X177868986Y-66485625D01*
X177864561Y-66481847D01*
X177830582Y-66449938D01*
X177830580Y-66449936D01*
X177830577Y-66449935D01*
X177813029Y-66440288D01*
X177796763Y-66429604D01*
X177780936Y-66417327D01*
X177780935Y-66417326D01*
X177780933Y-66417325D01*
X177738168Y-66398818D01*
X177732922Y-66396248D01*
X177692093Y-66373803D01*
X177692092Y-66373802D01*
X177672693Y-66368822D01*
X177654281Y-66362518D01*
X177635898Y-66354562D01*
X177635892Y-66354560D01*
X177589874Y-66347272D01*
X177584152Y-66346087D01*
X177539021Y-66334500D01*
X177539019Y-66334500D01*
X177518984Y-66334500D01*
X177499586Y-66332973D01*
X177492162Y-66331797D01*
X177479805Y-66329840D01*
X177479804Y-66329840D01*
X177433416Y-66334225D01*
X177427578Y-66334500D01*
X173593742Y-66334500D01*
X173526703Y-66314815D01*
X173494788Y-66285227D01*
X173390979Y-66147761D01*
X173226566Y-65997879D01*
X173226564Y-65997878D01*
X173226562Y-65997876D01*
X173184220Y-65971659D01*
X173137586Y-65919631D01*
X173125499Y-65866233D01*
X173125499Y-64297482D01*
X173125499Y-62582727D01*
X173127225Y-62567123D01*
X173126938Y-62567096D01*
X173127672Y-62559333D01*
X173126827Y-62532454D01*
X173125500Y-62490203D01*
X173125500Y-62460650D01*
X173124629Y-62453759D01*
X173124172Y-62447945D01*
X173122709Y-62401373D01*
X173117121Y-62382139D01*
X173113174Y-62363081D01*
X173110664Y-62343208D01*
X173105059Y-62329052D01*
X173093507Y-62299875D01*
X173091614Y-62294346D01*
X173078618Y-62249614D01*
X173078617Y-62249610D01*
X173068420Y-62232368D01*
X173059863Y-62214902D01*
X173052486Y-62196268D01*
X173025083Y-62158550D01*
X173021900Y-62153705D01*
X172998170Y-62113579D01*
X172998165Y-62113573D01*
X172984005Y-62099413D01*
X172971370Y-62084620D01*
X172959593Y-62068412D01*
X172923693Y-62038713D01*
X172919381Y-62034790D01*
X171500802Y-60616211D01*
X171490980Y-60603950D01*
X171490759Y-60604134D01*
X171485786Y-60598123D01*
X171435364Y-60550773D01*
X171424919Y-60540328D01*
X171414475Y-60529883D01*
X171408986Y-60525625D01*
X171404561Y-60521847D01*
X171370582Y-60489938D01*
X171370580Y-60489936D01*
X171370577Y-60489935D01*
X171353029Y-60480288D01*
X171336763Y-60469604D01*
X171320933Y-60457325D01*
X171278168Y-60438818D01*
X171272922Y-60436248D01*
X171232093Y-60413803D01*
X171232092Y-60413802D01*
X171212693Y-60408822D01*
X171194281Y-60402518D01*
X171175898Y-60394562D01*
X171175892Y-60394560D01*
X171129874Y-60387272D01*
X171124152Y-60386087D01*
X171079021Y-60374500D01*
X171079019Y-60374500D01*
X171058984Y-60374500D01*
X171039586Y-60372973D01*
X171032162Y-60371797D01*
X171019805Y-60369840D01*
X171019804Y-60369840D01*
X170973416Y-60374225D01*
X170967578Y-60374500D01*
X161391087Y-60374500D01*
X161324048Y-60354815D01*
X161292133Y-60325227D01*
X161213872Y-60221593D01*
X161056302Y-60077948D01*
X160875019Y-59965702D01*
X160875017Y-59965701D01*
X160775608Y-59927190D01*
X160676198Y-59888679D01*
X160466610Y-59849500D01*
X160253390Y-59849500D01*
X160043802Y-59888679D01*
X160043799Y-59888679D01*
X160043799Y-59888680D01*
X159844982Y-59965701D01*
X159844980Y-59965702D01*
X159663699Y-60077947D01*
X159506127Y-60221593D01*
X159377632Y-60391746D01*
X159282596Y-60582605D01*
X159282596Y-60582607D01*
X159224244Y-60787689D01*
X159204042Y-61005708D01*
X159201638Y-61005485D01*
X159184886Y-61062539D01*
X159132082Y-61108294D01*
X159080571Y-61119500D01*
X158983390Y-61119500D01*
X158773802Y-61158679D01*
X158773799Y-61158679D01*
X158773799Y-61158680D01*
X158574982Y-61235701D01*
X158574980Y-61235702D01*
X158393699Y-61347947D01*
X158236127Y-61491593D01*
X158157867Y-61595227D01*
X158101758Y-61636863D01*
X158058913Y-61644500D01*
X156812743Y-61644500D01*
X156797122Y-61642775D01*
X156797096Y-61643061D01*
X156789334Y-61642327D01*
X156789333Y-61642327D01*
X156720186Y-61644500D01*
X156690649Y-61644500D01*
X156683766Y-61645369D01*
X156677949Y-61645826D01*
X156631373Y-61647290D01*
X156612129Y-61652881D01*
X156593079Y-61656825D01*
X156573211Y-61659334D01*
X156529884Y-61676488D01*
X156524358Y-61678379D01*
X156479614Y-61691379D01*
X156479610Y-61691381D01*
X156462366Y-61701579D01*
X156444905Y-61710133D01*
X156426274Y-61717510D01*
X156426262Y-61717517D01*
X156388570Y-61744902D01*
X156383687Y-61748109D01*
X156343580Y-61771829D01*
X156329414Y-61785995D01*
X156314624Y-61798627D01*
X156298414Y-61810404D01*
X156298411Y-61810407D01*
X156268710Y-61846309D01*
X156264777Y-61850631D01*
X155616208Y-62499199D01*
X155603951Y-62509020D01*
X155604134Y-62509241D01*
X155598123Y-62514213D01*
X155550772Y-62564636D01*
X155529889Y-62585519D01*
X155529877Y-62585532D01*
X155525621Y-62591017D01*
X155521837Y-62595447D01*
X155489937Y-62629418D01*
X155489936Y-62629420D01*
X155480284Y-62646976D01*
X155469610Y-62663226D01*
X155457329Y-62679061D01*
X155457324Y-62679068D01*
X155438815Y-62721838D01*
X155436245Y-62727084D01*
X155413803Y-62767906D01*
X155408822Y-62787307D01*
X155402521Y-62805710D01*
X155394562Y-62824102D01*
X155394561Y-62824105D01*
X155387271Y-62870127D01*
X155386087Y-62875846D01*
X155374501Y-62920972D01*
X155374500Y-62920982D01*
X155374500Y-62941016D01*
X155372973Y-62960415D01*
X155369840Y-62980194D01*
X155369840Y-62980195D01*
X155374225Y-63026583D01*
X155374500Y-63032421D01*
X155374500Y-68917255D01*
X155372775Y-68932872D01*
X155373061Y-68932899D01*
X155372326Y-68940665D01*
X155374500Y-69009814D01*
X155374500Y-69039343D01*
X155374501Y-69039360D01*
X155375368Y-69046231D01*
X155375826Y-69052050D01*
X155377290Y-69098624D01*
X155377291Y-69098627D01*
X155382880Y-69117867D01*
X155386824Y-69136911D01*
X155389336Y-69156791D01*
X155406490Y-69200119D01*
X155408382Y-69205647D01*
X155421381Y-69250388D01*
X155431580Y-69267634D01*
X155440136Y-69285100D01*
X155447514Y-69303732D01*
X155472542Y-69338181D01*
X155474898Y-69341423D01*
X155478106Y-69346307D01*
X155501827Y-69386416D01*
X155501833Y-69386424D01*
X155515990Y-69400580D01*
X155528628Y-69415376D01*
X155540405Y-69431586D01*
X155540406Y-69431587D01*
X155576309Y-69461288D01*
X155580620Y-69465210D01*
X156499193Y-70383783D01*
X156499194Y-70383784D01*
X156509019Y-70396048D01*
X156509240Y-70395866D01*
X156514210Y-70401873D01*
X156514213Y-70401876D01*
X156514214Y-70401877D01*
X156564651Y-70449241D01*
X156585530Y-70470120D01*
X156591004Y-70474366D01*
X156595442Y-70478156D01*
X156629418Y-70510062D01*
X156644899Y-70518573D01*
X156646973Y-70519713D01*
X156663231Y-70530392D01*
X156679064Y-70542674D01*
X156701015Y-70552172D01*
X156721837Y-70561183D01*
X156727081Y-70563752D01*
X156767908Y-70586197D01*
X156787312Y-70591179D01*
X156805710Y-70597478D01*
X156824105Y-70605438D01*
X156870129Y-70612726D01*
X156875832Y-70613907D01*
X156920981Y-70625500D01*
X156941016Y-70625500D01*
X156960413Y-70627026D01*
X156980196Y-70630160D01*
X157026583Y-70625775D01*
X157032422Y-70625500D01*
X159189548Y-70625500D01*
X159256587Y-70645185D01*
X159277229Y-70661819D01*
X159698181Y-71082771D01*
X159731666Y-71144094D01*
X159734500Y-71170452D01*
X159734500Y-72695041D01*
X159714815Y-72762080D01*
X159675780Y-72800466D01*
X159663702Y-72807944D01*
X159506127Y-72951593D01*
X159377632Y-73121746D01*
X159282596Y-73312605D01*
X159282596Y-73312607D01*
X159224244Y-73517689D01*
X159204042Y-73735708D01*
X159201638Y-73735485D01*
X159184886Y-73792539D01*
X159132082Y-73838294D01*
X159080571Y-73849500D01*
X158983390Y-73849500D01*
X158773802Y-73888679D01*
X158773799Y-73888679D01*
X158773799Y-73888680D01*
X158574982Y-73965701D01*
X158574980Y-73965702D01*
X158393699Y-74077947D01*
X158236127Y-74221593D01*
X158157867Y-74325227D01*
X158101758Y-74366863D01*
X158058913Y-74374500D01*
X155310452Y-74374500D01*
X155243413Y-74354815D01*
X155222771Y-74338181D01*
X152661819Y-71777228D01*
X152628334Y-71715905D01*
X152625500Y-71689547D01*
X152625500Y-68082738D01*
X152627224Y-68067124D01*
X152626938Y-68067097D01*
X152627672Y-68059334D01*
X152625500Y-67990203D01*
X152625500Y-67960651D01*
X152625500Y-67960650D01*
X152624629Y-67953759D01*
X152624172Y-67947945D01*
X152623954Y-67941016D01*
X152622709Y-67901373D01*
X152617122Y-67882144D01*
X152613174Y-67863084D01*
X152610664Y-67843208D01*
X152593507Y-67799875D01*
X152591619Y-67794359D01*
X152578619Y-67749612D01*
X152568418Y-67732363D01*
X152559860Y-67714894D01*
X152552486Y-67696268D01*
X152552483Y-67696264D01*
X152552483Y-67696263D01*
X152525098Y-67658571D01*
X152521890Y-67653687D01*
X152498172Y-67613582D01*
X152498163Y-67613571D01*
X152484005Y-67599413D01*
X152471370Y-67584620D01*
X152459593Y-67568412D01*
X152423693Y-67538713D01*
X152419381Y-67534790D01*
X150500802Y-65616212D01*
X150490980Y-65603950D01*
X150490759Y-65604134D01*
X150485786Y-65598123D01*
X150435364Y-65550773D01*
X150424919Y-65540328D01*
X150414475Y-65529883D01*
X150408986Y-65525625D01*
X150404561Y-65521847D01*
X150370582Y-65489938D01*
X150370580Y-65489936D01*
X150370577Y-65489935D01*
X150353029Y-65480288D01*
X150336763Y-65469604D01*
X150320933Y-65457325D01*
X150278168Y-65438818D01*
X150272922Y-65436248D01*
X150232093Y-65413803D01*
X150232092Y-65413802D01*
X150212693Y-65408822D01*
X150194281Y-65402518D01*
X150175898Y-65394562D01*
X150175892Y-65394560D01*
X150129874Y-65387272D01*
X150124152Y-65386087D01*
X150079021Y-65374500D01*
X150079019Y-65374500D01*
X150058984Y-65374500D01*
X150039586Y-65372973D01*
X150032162Y-65371797D01*
X150019805Y-65369840D01*
X150019804Y-65369840D01*
X149973416Y-65374225D01*
X149967578Y-65374500D01*
X147173742Y-65374500D01*
X147106703Y-65354815D01*
X147074788Y-65325227D01*
X146970979Y-65187761D01*
X146806562Y-65037876D01*
X146806560Y-65037874D01*
X146617404Y-64920754D01*
X146617398Y-64920752D01*
X146409940Y-64840382D01*
X146191243Y-64799500D01*
X145968757Y-64799500D01*
X145750060Y-64840382D01*
X145625373Y-64888686D01*
X145542601Y-64920752D01*
X145542595Y-64920754D01*
X145353439Y-65037874D01*
X145353437Y-65037876D01*
X145189020Y-65187761D01*
X145054943Y-65365308D01*
X145054938Y-65365316D01*
X144955775Y-65564461D01*
X144955769Y-65564476D01*
X144894885Y-65778462D01*
X144894884Y-65778464D01*
X144874357Y-65999999D01*
X144874357Y-66000000D01*
X144894884Y-66221535D01*
X144894885Y-66221537D01*
X144955769Y-66435523D01*
X144955775Y-66435538D01*
X145054938Y-66634683D01*
X145054943Y-66634691D01*
X145189020Y-66812238D01*
X145353437Y-66962123D01*
X145353439Y-66962125D01*
X145542595Y-67079245D01*
X145542596Y-67079245D01*
X145542599Y-67079247D01*
X145750060Y-67159618D01*
X145968757Y-67200500D01*
X145968759Y-67200500D01*
X146191241Y-67200500D01*
X146191243Y-67200500D01*
X146409940Y-67159618D01*
X146617401Y-67079247D01*
X146806562Y-66962124D01*
X146970981Y-66812236D01*
X147074788Y-66674772D01*
X147130897Y-66633137D01*
X147173742Y-66625500D01*
X149689548Y-66625500D01*
X149756587Y-66645185D01*
X149777229Y-66661819D01*
X151338181Y-68222771D01*
X151371666Y-68284094D01*
X151374500Y-68310452D01*
X151374500Y-71917255D01*
X151372775Y-71932872D01*
X151373061Y-71932899D01*
X151372326Y-71940665D01*
X151374500Y-72009814D01*
X151374500Y-72039343D01*
X151374501Y-72039360D01*
X151375368Y-72046231D01*
X151375826Y-72052050D01*
X151377290Y-72098624D01*
X151377291Y-72098627D01*
X151382880Y-72117867D01*
X151386824Y-72136911D01*
X151389336Y-72156791D01*
X151406490Y-72200119D01*
X151408382Y-72205647D01*
X151421382Y-72250390D01*
X151427973Y-72261536D01*
X151431580Y-72267634D01*
X151440138Y-72285103D01*
X151447514Y-72303732D01*
X151474898Y-72341423D01*
X151478106Y-72346307D01*
X151501827Y-72386416D01*
X151501833Y-72386424D01*
X151515990Y-72400580D01*
X151528628Y-72415376D01*
X151540405Y-72431586D01*
X151540406Y-72431587D01*
X151576309Y-72461288D01*
X151580620Y-72465210D01*
X153046989Y-73931579D01*
X154499194Y-75383784D01*
X154509019Y-75396048D01*
X154509240Y-75395866D01*
X154514210Y-75401873D01*
X154514213Y-75401876D01*
X154514214Y-75401877D01*
X154564651Y-75449241D01*
X154585530Y-75470120D01*
X154591004Y-75474366D01*
X154595442Y-75478156D01*
X154629418Y-75510062D01*
X154629422Y-75510064D01*
X154646973Y-75519713D01*
X154663231Y-75530392D01*
X154679064Y-75542674D01*
X154690446Y-75547599D01*
X154721837Y-75561183D01*
X154727081Y-75563752D01*
X154767908Y-75586197D01*
X154787312Y-75591179D01*
X154805710Y-75597478D01*
X154824105Y-75605438D01*
X154870129Y-75612726D01*
X154875832Y-75613907D01*
X154920981Y-75625500D01*
X154941016Y-75625500D01*
X154960413Y-75627026D01*
X154980196Y-75630160D01*
X155026583Y-75625775D01*
X155032422Y-75625500D01*
X158058913Y-75625500D01*
X158125952Y-75645185D01*
X158157865Y-75674771D01*
X158236128Y-75778407D01*
X158393698Y-75922052D01*
X158574981Y-76034298D01*
X158773802Y-76111321D01*
X158983390Y-76150500D01*
X158983392Y-76150500D01*
X159085500Y-76150500D01*
X159152539Y-76170185D01*
X159198294Y-76222989D01*
X159209500Y-76274500D01*
X159209500Y-76967870D01*
X159209501Y-76967876D01*
X159215908Y-77027483D01*
X159266202Y-77162328D01*
X159266206Y-77162335D01*
X159352452Y-77277544D01*
X159352455Y-77277547D01*
X159467664Y-77363793D01*
X159467671Y-77363797D01*
X159512618Y-77380561D01*
X159602517Y-77414091D01*
X159623756Y-77416374D01*
X159688304Y-77443110D01*
X159728154Y-77500502D01*
X159734500Y-77539663D01*
X159734500Y-82695041D01*
X159714815Y-82762080D01*
X159675780Y-82800466D01*
X159663702Y-82807944D01*
X159506127Y-82951593D01*
X159377632Y-83121746D01*
X159282596Y-83312605D01*
X159282596Y-83312607D01*
X159224244Y-83517689D01*
X159204042Y-83735708D01*
X159201638Y-83735485D01*
X159184886Y-83792539D01*
X159132082Y-83838294D01*
X159080571Y-83849500D01*
X158983390Y-83849500D01*
X158773802Y-83888679D01*
X158773799Y-83888679D01*
X158773799Y-83888680D01*
X158574982Y-83965701D01*
X158574980Y-83965702D01*
X158393699Y-84077947D01*
X158236127Y-84221593D01*
X158195017Y-84276032D01*
X158162723Y-84318797D01*
X158157867Y-84325227D01*
X158101758Y-84366863D01*
X158058913Y-84374500D01*
X151810452Y-84374500D01*
X151743413Y-84354815D01*
X151722771Y-84338181D01*
X151372361Y-83987771D01*
X151000803Y-83616212D01*
X150990980Y-83603950D01*
X150990759Y-83604134D01*
X150985786Y-83598123D01*
X150985786Y-83598122D01*
X150935364Y-83550773D01*
X150924919Y-83540328D01*
X150914475Y-83529883D01*
X150908986Y-83525625D01*
X150904561Y-83521847D01*
X150870582Y-83489938D01*
X150870580Y-83489936D01*
X150870577Y-83489935D01*
X150853029Y-83480288D01*
X150836763Y-83469604D01*
X150820936Y-83457327D01*
X150820935Y-83457326D01*
X150820933Y-83457325D01*
X150778168Y-83438818D01*
X150772922Y-83436248D01*
X150732093Y-83413803D01*
X150732092Y-83413802D01*
X150712693Y-83408822D01*
X150694281Y-83402518D01*
X150675898Y-83394562D01*
X150675892Y-83394560D01*
X150629874Y-83387272D01*
X150624152Y-83386087D01*
X150579021Y-83374500D01*
X150579019Y-83374500D01*
X150558984Y-83374500D01*
X150539586Y-83372973D01*
X150532162Y-83371797D01*
X150519805Y-83369840D01*
X150519804Y-83369840D01*
X150473416Y-83374225D01*
X150467578Y-83374500D01*
X147133742Y-83374500D01*
X147066703Y-83354815D01*
X147034788Y-83325227D01*
X146930979Y-83187761D01*
X146766562Y-83037876D01*
X146766560Y-83037874D01*
X146577404Y-82920754D01*
X146577398Y-82920752D01*
X146369940Y-82840382D01*
X146151243Y-82799500D01*
X145928757Y-82799500D01*
X145710060Y-82840382D01*
X145578864Y-82891207D01*
X145502601Y-82920752D01*
X145502595Y-82920754D01*
X145313439Y-83037874D01*
X145313437Y-83037876D01*
X145149020Y-83187761D01*
X145014943Y-83365308D01*
X145014938Y-83365316D01*
X144915775Y-83564461D01*
X144915769Y-83564476D01*
X144854885Y-83778462D01*
X144854884Y-83778464D01*
X144834357Y-83999999D01*
X144834357Y-84000000D01*
X144854884Y-84221535D01*
X144854885Y-84221537D01*
X144915769Y-84435523D01*
X144915775Y-84435538D01*
X145014938Y-84634683D01*
X145014943Y-84634691D01*
X145149020Y-84812238D01*
X145313437Y-84962123D01*
X145313439Y-84962125D01*
X145502595Y-85079245D01*
X145502596Y-85079245D01*
X145502599Y-85079247D01*
X145710060Y-85159618D01*
X145928757Y-85200500D01*
X145928759Y-85200500D01*
X146151241Y-85200500D01*
X146151243Y-85200500D01*
X146369940Y-85159618D01*
X146577401Y-85079247D01*
X146766562Y-84962124D01*
X146930981Y-84812236D01*
X147034788Y-84674772D01*
X147090897Y-84633137D01*
X147133742Y-84625500D01*
X150189548Y-84625500D01*
X150256587Y-84645185D01*
X150277229Y-84661819D01*
X150999194Y-85383784D01*
X151009019Y-85396048D01*
X151009240Y-85395866D01*
X151014210Y-85401873D01*
X151014213Y-85401876D01*
X151014214Y-85401877D01*
X151064651Y-85449241D01*
X151085530Y-85470120D01*
X151091004Y-85474366D01*
X151095442Y-85478156D01*
X151129418Y-85510062D01*
X151129422Y-85510064D01*
X151146973Y-85519713D01*
X151163231Y-85530392D01*
X151179064Y-85542674D01*
X151201015Y-85552172D01*
X151221837Y-85561183D01*
X151227081Y-85563752D01*
X151267908Y-85586197D01*
X151287312Y-85591179D01*
X151305710Y-85597478D01*
X151324105Y-85605438D01*
X151370129Y-85612726D01*
X151375832Y-85613907D01*
X151420981Y-85625500D01*
X151441016Y-85625500D01*
X151460413Y-85627026D01*
X151480196Y-85630160D01*
X151526583Y-85625775D01*
X151532422Y-85625500D01*
X158058913Y-85625500D01*
X158125952Y-85645185D01*
X158157867Y-85674773D01*
X158223387Y-85761536D01*
X158236128Y-85778407D01*
X158393698Y-85922052D01*
X158574981Y-86034298D01*
X158773802Y-86111321D01*
X158983390Y-86150500D01*
X158983392Y-86150500D01*
X159085500Y-86150500D01*
X159152539Y-86170185D01*
X159198294Y-86222989D01*
X159209500Y-86274500D01*
X159209500Y-86967870D01*
X159209501Y-86967876D01*
X159215908Y-87027483D01*
X159266202Y-87162328D01*
X159266206Y-87162335D01*
X159352452Y-87277544D01*
X159352455Y-87277547D01*
X159467664Y-87363793D01*
X159467671Y-87363797D01*
X159512618Y-87380561D01*
X159602517Y-87414091D01*
X159623755Y-87416374D01*
X159688304Y-87443110D01*
X159728153Y-87500502D01*
X159734499Y-87539663D01*
X159734499Y-93829547D01*
X159714814Y-93896586D01*
X159698180Y-93917228D01*
X159277228Y-94338181D01*
X159215905Y-94371666D01*
X159189547Y-94374500D01*
X103310452Y-94374500D01*
X103243413Y-94354815D01*
X103222771Y-94338181D01*
X102661819Y-93777228D01*
X102628334Y-93715905D01*
X102625500Y-93689547D01*
X102625500Y-91809452D01*
X102645185Y-91742413D01*
X102697989Y-91696658D01*
X102767147Y-91686714D01*
X102830703Y-91715739D01*
X102837178Y-91721768D01*
X103615408Y-92499999D01*
X103999197Y-92883788D01*
X104009022Y-92896051D01*
X104009243Y-92895869D01*
X104014214Y-92901878D01*
X104040217Y-92926295D01*
X104064635Y-92949226D01*
X104085529Y-92970120D01*
X104091011Y-92974373D01*
X104095443Y-92978157D01*
X104129418Y-93010062D01*
X104146976Y-93019714D01*
X104163233Y-93030393D01*
X104179064Y-93042673D01*
X104198737Y-93051186D01*
X104221833Y-93061182D01*
X104227077Y-93063750D01*
X104267908Y-93086197D01*
X104280523Y-93089435D01*
X104287305Y-93091177D01*
X104305719Y-93097481D01*
X104324104Y-93105438D01*
X104370157Y-93112732D01*
X104375826Y-93113906D01*
X104420981Y-93125500D01*
X104441016Y-93125500D01*
X104460413Y-93127026D01*
X104480196Y-93130160D01*
X104526583Y-93125775D01*
X104532422Y-93125500D01*
X123866258Y-93125500D01*
X123933297Y-93145185D01*
X123965212Y-93174773D01*
X124069020Y-93312238D01*
X124233437Y-93462123D01*
X124233439Y-93462125D01*
X124422595Y-93579245D01*
X124422596Y-93579245D01*
X124422599Y-93579247D01*
X124630060Y-93659618D01*
X124848757Y-93700500D01*
X124848759Y-93700500D01*
X125071241Y-93700500D01*
X125071243Y-93700500D01*
X125289940Y-93659618D01*
X125497401Y-93579247D01*
X125686562Y-93462124D01*
X125850981Y-93312236D01*
X125985058Y-93134689D01*
X126084229Y-92935528D01*
X126145115Y-92721536D01*
X126165643Y-92500000D01*
X126145115Y-92278464D01*
X126084229Y-92064472D01*
X125985831Y-91866863D01*
X125985061Y-91865316D01*
X125985056Y-91865308D01*
X125850979Y-91687761D01*
X125686562Y-91537876D01*
X125686560Y-91537874D01*
X125497404Y-91420754D01*
X125497398Y-91420752D01*
X125289940Y-91340382D01*
X125071243Y-91299500D01*
X124848757Y-91299500D01*
X124630060Y-91340382D01*
X124498864Y-91391207D01*
X124422601Y-91420752D01*
X124422595Y-91420754D01*
X124233439Y-91537874D01*
X124233437Y-91537876D01*
X124069020Y-91687761D01*
X123965212Y-91825227D01*
X123909103Y-91866863D01*
X123866258Y-91874500D01*
X104810452Y-91874500D01*
X104743413Y-91854815D01*
X104722771Y-91838181D01*
X102661819Y-89777228D01*
X102628334Y-89715905D01*
X102625500Y-89689547D01*
X102625500Y-83774500D01*
X102645185Y-83707461D01*
X102697989Y-83661706D01*
X102749500Y-83650500D01*
X113669773Y-83650500D01*
X113736812Y-83670185D01*
X113771348Y-83703377D01*
X113904887Y-83894091D01*
X113906505Y-83896401D01*
X114073599Y-84063495D01*
X114151237Y-84117858D01*
X114267165Y-84199032D01*
X114267167Y-84199033D01*
X114267170Y-84199035D01*
X114481337Y-84298903D01*
X114481343Y-84298904D01*
X114481344Y-84298905D01*
X114499359Y-84303732D01*
X114709592Y-84360063D01*
X114886034Y-84375500D01*
X114944999Y-84380659D01*
X114945000Y-84380659D01*
X114945001Y-84380659D01*
X115003966Y-84375500D01*
X115180408Y-84360063D01*
X115408663Y-84298903D01*
X115622830Y-84199035D01*
X115816401Y-84063495D01*
X115983495Y-83896401D01*
X116113424Y-83710842D01*
X116168002Y-83667217D01*
X116237500Y-83660023D01*
X116299855Y-83691546D01*
X116316575Y-83710842D01*
X116446501Y-83896396D01*
X116446506Y-83896402D01*
X116613597Y-84063493D01*
X116613603Y-84063498D01*
X116634240Y-84077948D01*
X116806624Y-84198653D01*
X116850248Y-84253228D01*
X116859500Y-84300226D01*
X116859500Y-84402255D01*
X116857775Y-84417872D01*
X116858061Y-84417899D01*
X116857326Y-84425665D01*
X116859500Y-84494814D01*
X116859500Y-84524343D01*
X116859501Y-84524360D01*
X116860368Y-84531231D01*
X116860826Y-84537050D01*
X116862290Y-84583624D01*
X116862291Y-84583627D01*
X116867880Y-84602867D01*
X116871824Y-84621911D01*
X116874336Y-84641792D01*
X116878398Y-84652052D01*
X116891490Y-84685119D01*
X116893382Y-84690647D01*
X116906381Y-84735388D01*
X116916580Y-84752634D01*
X116925138Y-84770103D01*
X116932514Y-84788732D01*
X116959898Y-84826423D01*
X116963106Y-84831307D01*
X116986827Y-84871416D01*
X116986833Y-84871424D01*
X117000990Y-84885580D01*
X117013628Y-84900376D01*
X117025405Y-84916586D01*
X117025406Y-84916587D01*
X117061309Y-84946288D01*
X117065620Y-84950210D01*
X117564650Y-85449240D01*
X117999194Y-85883784D01*
X118009019Y-85896048D01*
X118009240Y-85895866D01*
X118014210Y-85901873D01*
X118014213Y-85901876D01*
X118014214Y-85901877D01*
X118064651Y-85949241D01*
X118085530Y-85970120D01*
X118091004Y-85974366D01*
X118095442Y-85978156D01*
X118129418Y-86010062D01*
X118129524Y-86010120D01*
X118146973Y-86019713D01*
X118163231Y-86030392D01*
X118179064Y-86042674D01*
X118196131Y-86050059D01*
X118221837Y-86061183D01*
X118227081Y-86063752D01*
X118267908Y-86086197D01*
X118287312Y-86091179D01*
X118305710Y-86097478D01*
X118324105Y-86105438D01*
X118370129Y-86112726D01*
X118375832Y-86113907D01*
X118420981Y-86125500D01*
X118441016Y-86125500D01*
X118460413Y-86127026D01*
X118480196Y-86130160D01*
X118526583Y-86125775D01*
X118532422Y-86125500D01*
X125417257Y-86125500D01*
X125432877Y-86127224D01*
X125432904Y-86126939D01*
X125440660Y-86127671D01*
X125440667Y-86127673D01*
X125509814Y-86125500D01*
X125539350Y-86125500D01*
X125546228Y-86124630D01*
X125552041Y-86124172D01*
X125598627Y-86122709D01*
X125617869Y-86117117D01*
X125636912Y-86113174D01*
X125656792Y-86110664D01*
X125700122Y-86093507D01*
X125705646Y-86091617D01*
X125709396Y-86090527D01*
X125750390Y-86078618D01*
X125767629Y-86068422D01*
X125785103Y-86059862D01*
X125803727Y-86052488D01*
X125803727Y-86052487D01*
X125803732Y-86052486D01*
X125841449Y-86025082D01*
X125846305Y-86021892D01*
X125886420Y-85998170D01*
X125900589Y-85983999D01*
X125915379Y-85971368D01*
X125931587Y-85959594D01*
X125961299Y-85923676D01*
X125965212Y-85919376D01*
X126618787Y-85265802D01*
X126631042Y-85255986D01*
X126630859Y-85255764D01*
X126636866Y-85250792D01*
X126636877Y-85250786D01*
X126667775Y-85217882D01*
X126684227Y-85200364D01*
X126694671Y-85189918D01*
X126705120Y-85179471D01*
X126709379Y-85173978D01*
X126713152Y-85169561D01*
X126745062Y-85135582D01*
X126754715Y-85118020D01*
X126765389Y-85101770D01*
X126777673Y-85085936D01*
X126796180Y-85043167D01*
X126798749Y-85037924D01*
X126821196Y-84997093D01*
X126821197Y-84997092D01*
X126826177Y-84977691D01*
X126832478Y-84959288D01*
X126840438Y-84940896D01*
X126847730Y-84894849D01*
X126848911Y-84889152D01*
X126860500Y-84844019D01*
X126860500Y-84823983D01*
X126862027Y-84804582D01*
X126865160Y-84784804D01*
X126860775Y-84738415D01*
X126860500Y-84732577D01*
X126860500Y-83827814D01*
X126880185Y-83760775D01*
X126925483Y-83718759D01*
X126954917Y-83702830D01*
X127003626Y-83676470D01*
X127015515Y-83667217D01*
X127096800Y-83603950D01*
X127186784Y-83533913D01*
X127195130Y-83524846D01*
X127255010Y-83488854D01*
X127324849Y-83490949D01*
X127382468Y-83530469D01*
X127402544Y-83565491D01*
X127431203Y-83642330D01*
X127431206Y-83642335D01*
X127517452Y-83757544D01*
X127517455Y-83757547D01*
X127632664Y-83843793D01*
X127632671Y-83843797D01*
X127767517Y-83894091D01*
X127767516Y-83894091D01*
X127774444Y-83894835D01*
X127827127Y-83900500D01*
X129239546Y-83900499D01*
X129306585Y-83920184D01*
X129327227Y-83936818D01*
X129378180Y-83987771D01*
X129411665Y-84049094D01*
X129414499Y-84075452D01*
X129414499Y-91406233D01*
X129394814Y-91473272D01*
X129355778Y-91511659D01*
X129313438Y-91537875D01*
X129313437Y-91537876D01*
X129149020Y-91687761D01*
X129014943Y-91865308D01*
X129014938Y-91865316D01*
X128915775Y-92064461D01*
X128915769Y-92064476D01*
X128854885Y-92278462D01*
X128854884Y-92278464D01*
X128834357Y-92499999D01*
X128834357Y-92500000D01*
X128854884Y-92721535D01*
X128854885Y-92721537D01*
X128915769Y-92935523D01*
X128915775Y-92935538D01*
X129014938Y-93134683D01*
X129014943Y-93134691D01*
X129149020Y-93312238D01*
X129313437Y-93462123D01*
X129313439Y-93462125D01*
X129502595Y-93579245D01*
X129502596Y-93579245D01*
X129502599Y-93579247D01*
X129710060Y-93659618D01*
X129928757Y-93700500D01*
X129928759Y-93700500D01*
X130151241Y-93700500D01*
X130151243Y-93700500D01*
X130369940Y-93659618D01*
X130577401Y-93579247D01*
X130766562Y-93462124D01*
X130930981Y-93312236D01*
X131065058Y-93134689D01*
X131164229Y-92935528D01*
X131225115Y-92721536D01*
X131245643Y-92500000D01*
X131225115Y-92278464D01*
X131164229Y-92064472D01*
X131065831Y-91866863D01*
X131065061Y-91865316D01*
X131065056Y-91865308D01*
X130930979Y-91687761D01*
X130766562Y-91537876D01*
X130766560Y-91537874D01*
X130724222Y-91511660D01*
X130677586Y-91459633D01*
X130665499Y-91406237D01*
X130665499Y-84000000D01*
X139754357Y-84000000D01*
X139774884Y-84221535D01*
X139774885Y-84221537D01*
X139835769Y-84435523D01*
X139835775Y-84435538D01*
X139934938Y-84634683D01*
X139934943Y-84634691D01*
X140069020Y-84812238D01*
X140233437Y-84962123D01*
X140233439Y-84962125D01*
X140422595Y-85079245D01*
X140422596Y-85079245D01*
X140422599Y-85079247D01*
X140630060Y-85159618D01*
X140848757Y-85200500D01*
X140848759Y-85200500D01*
X141071241Y-85200500D01*
X141071243Y-85200500D01*
X141289940Y-85159618D01*
X141497401Y-85079247D01*
X141686562Y-84962124D01*
X141850981Y-84812236D01*
X141985058Y-84634689D01*
X142084229Y-84435528D01*
X142145115Y-84221536D01*
X142165643Y-84000000D01*
X142145115Y-83778464D01*
X142084229Y-83564472D01*
X142069015Y-83533918D01*
X141985061Y-83365316D01*
X141985056Y-83365308D01*
X141850979Y-83187761D01*
X141686562Y-83037876D01*
X141686560Y-83037874D01*
X141497404Y-82920754D01*
X141497398Y-82920752D01*
X141289940Y-82840382D01*
X141071243Y-82799500D01*
X140848757Y-82799500D01*
X140630060Y-82840382D01*
X140498864Y-82891207D01*
X140422601Y-82920752D01*
X140422595Y-82920754D01*
X140233439Y-83037874D01*
X140233437Y-83037876D01*
X140069020Y-83187761D01*
X139934943Y-83365308D01*
X139934938Y-83365316D01*
X139835775Y-83564461D01*
X139835769Y-83564476D01*
X139774885Y-83778462D01*
X139774884Y-83778464D01*
X139754357Y-83999999D01*
X139754357Y-84000000D01*
X130665499Y-84000000D01*
X130665499Y-83847744D01*
X130667224Y-83832129D01*
X130666937Y-83832102D01*
X130667670Y-83824341D01*
X130667672Y-83824333D01*
X130665500Y-83755203D01*
X130665500Y-83725650D01*
X130664629Y-83718759D01*
X130664172Y-83712945D01*
X130663871Y-83703377D01*
X130662709Y-83666373D01*
X130657122Y-83647144D01*
X130653174Y-83628084D01*
X130650664Y-83608208D01*
X130633507Y-83564875D01*
X130631619Y-83559359D01*
X130618619Y-83514612D01*
X130608418Y-83497363D01*
X130599860Y-83479894D01*
X130592486Y-83461268D01*
X130592483Y-83461264D01*
X130592483Y-83461263D01*
X130565098Y-83423571D01*
X130561890Y-83418687D01*
X130538172Y-83378582D01*
X130538163Y-83378571D01*
X130524005Y-83364413D01*
X130511370Y-83349620D01*
X130499593Y-83333412D01*
X130463693Y-83303713D01*
X130459381Y-83299790D01*
X130211818Y-83052227D01*
X130178333Y-82990904D01*
X130175499Y-82964546D01*
X130175499Y-81552129D01*
X130175498Y-81552123D01*
X130171492Y-81514858D01*
X130169091Y-81492517D01*
X130159233Y-81466087D01*
X130118797Y-81357671D01*
X130118793Y-81357664D01*
X130032547Y-81242455D01*
X130032544Y-81242452D01*
X129917335Y-81156206D01*
X129917328Y-81156202D01*
X129782482Y-81105908D01*
X129782483Y-81105908D01*
X129722883Y-81099501D01*
X129722881Y-81099500D01*
X129722873Y-81099500D01*
X129722864Y-81099500D01*
X127827129Y-81099500D01*
X127827123Y-81099501D01*
X127767516Y-81105908D01*
X127632671Y-81156202D01*
X127632664Y-81156206D01*
X127517455Y-81242452D01*
X127517452Y-81242455D01*
X127431206Y-81357664D01*
X127431203Y-81357670D01*
X127402544Y-81434508D01*
X127360672Y-81490441D01*
X127295208Y-81514858D01*
X127226935Y-81500006D01*
X127195135Y-81475158D01*
X127186784Y-81466087D01*
X127186778Y-81466082D01*
X127186777Y-81466081D01*
X127003634Y-81323535D01*
X127003628Y-81323531D01*
X126799504Y-81213064D01*
X126799495Y-81213061D01*
X126579984Y-81137702D01*
X126389450Y-81105908D01*
X126351049Y-81099500D01*
X126118951Y-81099500D01*
X126080550Y-81105908D01*
X125890015Y-81137702D01*
X125670504Y-81213061D01*
X125670495Y-81213064D01*
X125466371Y-81323531D01*
X125466365Y-81323535D01*
X125283222Y-81466081D01*
X125283219Y-81466084D01*
X125283216Y-81466086D01*
X125283216Y-81466087D01*
X125238319Y-81514858D01*
X125126016Y-81636852D01*
X124999075Y-81831151D01*
X124905842Y-82043699D01*
X124848866Y-82268691D01*
X124848864Y-82268702D01*
X124829700Y-82499993D01*
X124829700Y-82500006D01*
X124848864Y-82731297D01*
X124848866Y-82731308D01*
X124905842Y-82956300D01*
X124999075Y-83168848D01*
X125126016Y-83363147D01*
X125126019Y-83363151D01*
X125126021Y-83363153D01*
X125283216Y-83533913D01*
X125283219Y-83533915D01*
X125283222Y-83533918D01*
X125466365Y-83676464D01*
X125466371Y-83676468D01*
X125466374Y-83676470D01*
X125539171Y-83715866D01*
X125544517Y-83718759D01*
X125594107Y-83767979D01*
X125609499Y-83827814D01*
X125609499Y-84454547D01*
X125589814Y-84521586D01*
X125573180Y-84542228D01*
X125277228Y-84838181D01*
X125215905Y-84871666D01*
X125189547Y-84874500D01*
X118810452Y-84874500D01*
X118743413Y-84854815D01*
X118722771Y-84838181D01*
X118220739Y-84336148D01*
X118187254Y-84274825D01*
X118192238Y-84205133D01*
X118234110Y-84149200D01*
X118237272Y-84146910D01*
X118356401Y-84063495D01*
X118478329Y-83941566D01*
X118539648Y-83908084D01*
X118609340Y-83913068D01*
X118665274Y-83954939D01*
X118682189Y-83985917D01*
X118731202Y-84117328D01*
X118731206Y-84117335D01*
X118817452Y-84232544D01*
X118817455Y-84232547D01*
X118932664Y-84318793D01*
X118932671Y-84318797D01*
X119067517Y-84369091D01*
X119067516Y-84369091D01*
X119074444Y-84369835D01*
X119127127Y-84375500D01*
X120922872Y-84375499D01*
X120982483Y-84369091D01*
X121117331Y-84318796D01*
X121232546Y-84232546D01*
X121318796Y-84117331D01*
X121369091Y-83982483D01*
X121375500Y-83922873D01*
X121375499Y-82127128D01*
X121369091Y-82067517D01*
X121367810Y-82064083D01*
X121318797Y-81932671D01*
X121318793Y-81932664D01*
X121232547Y-81817455D01*
X121232544Y-81817452D01*
X121117335Y-81731206D01*
X121117328Y-81731202D01*
X120982482Y-81680908D01*
X120982483Y-81680908D01*
X120922883Y-81674501D01*
X120922881Y-81674500D01*
X120922873Y-81674500D01*
X120922865Y-81674500D01*
X120749499Y-81674500D01*
X120682460Y-81654815D01*
X120636705Y-81602011D01*
X120625499Y-81550500D01*
X120625499Y-79366233D01*
X120625499Y-75570833D01*
X120627695Y-75547617D01*
X120629227Y-75539588D01*
X120625621Y-75482278D01*
X120625500Y-75478400D01*
X120625500Y-68999499D01*
X120645185Y-68932460D01*
X120697989Y-68886705D01*
X120749500Y-68875499D01*
X120922871Y-68875499D01*
X120922872Y-68875499D01*
X120982483Y-68869091D01*
X121117331Y-68818796D01*
X121232546Y-68732546D01*
X121318796Y-68617331D01*
X121369091Y-68482483D01*
X121375500Y-68422873D01*
X121375499Y-66627128D01*
X121369091Y-66567517D01*
X121368369Y-66565582D01*
X121318797Y-66432671D01*
X121318793Y-66432664D01*
X121232547Y-66317455D01*
X121232544Y-66317452D01*
X121117335Y-66231206D01*
X121117328Y-66231202D01*
X120982482Y-66180908D01*
X120982483Y-66180908D01*
X120922883Y-66174501D01*
X120922881Y-66174500D01*
X120922873Y-66174500D01*
X120922864Y-66174500D01*
X119127129Y-66174500D01*
X119127123Y-66174501D01*
X119067516Y-66180908D01*
X118932671Y-66231202D01*
X118932664Y-66231206D01*
X118817455Y-66317452D01*
X118817452Y-66317455D01*
X118731206Y-66432664D01*
X118731203Y-66432669D01*
X118682189Y-66564083D01*
X118640317Y-66620016D01*
X118574853Y-66644433D01*
X118506580Y-66629581D01*
X118478326Y-66608430D01*
X118356402Y-66486506D01*
X118356401Y-66486505D01*
X118191290Y-66370893D01*
X118163376Y-66351347D01*
X118119751Y-66296770D01*
X118110500Y-66249772D01*
X118110500Y-65825451D01*
X118130185Y-65758412D01*
X118146814Y-65737775D01*
X118722771Y-65161819D01*
X118784094Y-65128334D01*
X118810452Y-65125500D01*
X125189548Y-65125500D01*
X125256587Y-65145185D01*
X125277229Y-65161819D01*
X125573180Y-65457770D01*
X125606665Y-65519093D01*
X125609499Y-65545451D01*
X125609499Y-66172186D01*
X125589814Y-66239225D01*
X125544517Y-66281240D01*
X125466381Y-66323525D01*
X125466376Y-66323528D01*
X125466374Y-66323530D01*
X125369644Y-66398818D01*
X125283217Y-66466086D01*
X125126016Y-66636852D01*
X124999075Y-66831151D01*
X124905842Y-67043699D01*
X124848866Y-67268691D01*
X124848864Y-67268702D01*
X124829700Y-67499993D01*
X124829700Y-67500006D01*
X124848864Y-67731297D01*
X124848866Y-67731308D01*
X124905842Y-67956300D01*
X124999075Y-68168848D01*
X125126016Y-68363147D01*
X125126019Y-68363151D01*
X125126021Y-68363153D01*
X125283216Y-68533913D01*
X125283219Y-68533915D01*
X125283222Y-68533918D01*
X125466365Y-68676464D01*
X125466371Y-68676468D01*
X125466374Y-68676470D01*
X125670497Y-68786936D01*
X125705356Y-68798903D01*
X125890015Y-68862297D01*
X125890017Y-68862297D01*
X125890019Y-68862298D01*
X126118951Y-68900500D01*
X126118952Y-68900500D01*
X126351048Y-68900500D01*
X126351049Y-68900500D01*
X126579981Y-68862298D01*
X126799503Y-68786936D01*
X127003626Y-68676470D01*
X127186784Y-68533913D01*
X127195130Y-68524846D01*
X127255010Y-68488854D01*
X127324849Y-68490949D01*
X127382468Y-68530469D01*
X127402544Y-68565491D01*
X127431203Y-68642330D01*
X127431206Y-68642335D01*
X127517452Y-68757544D01*
X127517455Y-68757547D01*
X127632664Y-68843793D01*
X127632671Y-68843797D01*
X127767517Y-68894091D01*
X127767516Y-68894091D01*
X127774444Y-68894835D01*
X127827127Y-68900500D01*
X129722872Y-68900499D01*
X129782483Y-68894091D01*
X129917331Y-68843796D01*
X130032546Y-68757546D01*
X130118796Y-68642331D01*
X130169091Y-68507483D01*
X130175500Y-68447873D01*
X130175499Y-67035450D01*
X130195184Y-66968412D01*
X130211813Y-66947775D01*
X130463786Y-66695802D01*
X130476048Y-66685980D01*
X130475865Y-66685759D01*
X130481867Y-66680792D01*
X130481877Y-66680786D01*
X130529241Y-66630348D01*
X130550120Y-66609470D01*
X130554373Y-66603986D01*
X130558150Y-66599563D01*
X130590062Y-66565582D01*
X130599714Y-66548023D01*
X130610389Y-66531772D01*
X130622674Y-66515936D01*
X130641186Y-66473152D01*
X130643742Y-66467935D01*
X130666197Y-66427092D01*
X130671180Y-66407680D01*
X130677477Y-66389291D01*
X130685438Y-66370895D01*
X130692729Y-66324853D01*
X130693906Y-66319166D01*
X130705500Y-66274019D01*
X130705499Y-66253986D01*
X130707027Y-66234583D01*
X130709093Y-66221537D01*
X130710160Y-66214804D01*
X130706131Y-66172185D01*
X130705775Y-66168415D01*
X130705500Y-66162577D01*
X130705500Y-66000000D01*
X139794357Y-66000000D01*
X139814884Y-66221535D01*
X139814885Y-66221537D01*
X139875769Y-66435523D01*
X139875775Y-66435538D01*
X139974938Y-66634683D01*
X139974943Y-66634691D01*
X140109020Y-66812238D01*
X140273437Y-66962123D01*
X140273439Y-66962125D01*
X140462595Y-67079245D01*
X140462596Y-67079245D01*
X140462599Y-67079247D01*
X140670060Y-67159618D01*
X140888757Y-67200500D01*
X140888759Y-67200500D01*
X141111241Y-67200500D01*
X141111243Y-67200500D01*
X141329940Y-67159618D01*
X141537401Y-67079247D01*
X141726562Y-66962124D01*
X141890981Y-66812236D01*
X142025058Y-66634689D01*
X142027602Y-66629581D01*
X142098847Y-66486501D01*
X142124229Y-66435528D01*
X142185115Y-66221536D01*
X142205643Y-66000000D01*
X142205446Y-65997879D01*
X142185115Y-65778464D01*
X142185114Y-65778462D01*
X142179409Y-65758412D01*
X142124229Y-65564472D01*
X142114758Y-65545451D01*
X142025061Y-65365316D01*
X142025056Y-65365308D01*
X141890979Y-65187761D01*
X141726562Y-65037876D01*
X141726560Y-65037874D01*
X141537404Y-64920754D01*
X141537398Y-64920752D01*
X141329940Y-64840382D01*
X141111243Y-64799500D01*
X140888757Y-64799500D01*
X140670060Y-64840382D01*
X140545373Y-64888686D01*
X140462601Y-64920752D01*
X140462595Y-64920754D01*
X140273439Y-65037874D01*
X140273437Y-65037876D01*
X140109020Y-65187761D01*
X139974943Y-65365308D01*
X139974938Y-65365316D01*
X139875775Y-65564461D01*
X139875769Y-65564476D01*
X139814885Y-65778462D01*
X139814884Y-65778464D01*
X139794357Y-65999999D01*
X139794357Y-66000000D01*
X130705500Y-66000000D01*
X130705500Y-58593765D01*
X130725185Y-58526726D01*
X130764220Y-58488340D01*
X130806562Y-58462124D01*
X130970981Y-58312236D01*
X131105058Y-58134689D01*
X131204229Y-57935528D01*
X131265115Y-57721536D01*
X131285643Y-57500000D01*
X131265115Y-57278464D01*
X131204229Y-57064472D01*
X131204224Y-57064461D01*
X131105061Y-56865316D01*
X131105056Y-56865308D01*
X130970979Y-56687761D01*
X130806562Y-56537876D01*
X130806560Y-56537874D01*
X130617404Y-56420754D01*
X130617398Y-56420752D01*
X130409940Y-56340382D01*
X130191243Y-56299500D01*
X129968757Y-56299500D01*
X129750060Y-56340382D01*
X129618864Y-56391207D01*
X129542601Y-56420752D01*
X129542595Y-56420754D01*
X129353439Y-56537874D01*
X129353437Y-56537876D01*
X129189020Y-56687761D01*
X129054943Y-56865308D01*
X129054938Y-56865316D01*
X128955775Y-57064461D01*
X128955769Y-57064476D01*
X128894885Y-57278462D01*
X128894884Y-57278464D01*
X128874357Y-57499999D01*
X128874357Y-57500000D01*
X128894884Y-57721535D01*
X128894885Y-57721537D01*
X128955769Y-57935523D01*
X128955775Y-57935538D01*
X129054938Y-58134683D01*
X129054943Y-58134691D01*
X129189020Y-58312238D01*
X129353433Y-58462120D01*
X129353435Y-58462122D01*
X129353437Y-58462123D01*
X129353438Y-58462124D01*
X129395778Y-58488339D01*
X129442412Y-58540364D01*
X129454500Y-58593765D01*
X129454500Y-65884546D01*
X129434815Y-65951585D01*
X129418181Y-65972227D01*
X129327227Y-66063181D01*
X129265904Y-66096666D01*
X129239546Y-66099500D01*
X127827129Y-66099500D01*
X127827123Y-66099501D01*
X127767516Y-66105908D01*
X127632671Y-66156202D01*
X127632664Y-66156206D01*
X127517455Y-66242452D01*
X127517452Y-66242455D01*
X127431206Y-66357664D01*
X127431203Y-66357670D01*
X127402544Y-66434508D01*
X127360672Y-66490441D01*
X127295208Y-66514858D01*
X127226935Y-66500006D01*
X127195135Y-66475158D01*
X127186784Y-66466087D01*
X127186778Y-66466082D01*
X127186777Y-66466081D01*
X127003634Y-66323535D01*
X127003619Y-66323525D01*
X126925482Y-66281239D01*
X126875891Y-66232020D01*
X126860500Y-66172185D01*
X126860500Y-65317742D01*
X126862224Y-65302122D01*
X126861939Y-65302096D01*
X126862671Y-65294340D01*
X126862673Y-65294333D01*
X126860500Y-65225185D01*
X126860500Y-65195650D01*
X126859631Y-65188772D01*
X126859172Y-65182943D01*
X126857709Y-65136372D01*
X126852122Y-65117144D01*
X126848174Y-65098084D01*
X126845663Y-65078204D01*
X126828512Y-65034887D01*
X126826619Y-65029358D01*
X126813618Y-64984609D01*
X126813616Y-64984606D01*
X126803423Y-64967371D01*
X126794861Y-64949894D01*
X126787487Y-64931270D01*
X126787486Y-64931268D01*
X126760079Y-64893545D01*
X126756888Y-64888686D01*
X126733172Y-64848583D01*
X126733165Y-64848574D01*
X126719006Y-64834415D01*
X126706368Y-64819619D01*
X126694594Y-64803413D01*
X126658688Y-64773709D01*
X126654376Y-64769786D01*
X126000803Y-64116212D01*
X125990980Y-64103950D01*
X125990759Y-64104134D01*
X125985786Y-64098123D01*
X125967159Y-64080631D01*
X125935364Y-64050773D01*
X125924919Y-64040328D01*
X125914475Y-64029883D01*
X125908986Y-64025625D01*
X125904561Y-64021847D01*
X125870582Y-63989938D01*
X125870580Y-63989936D01*
X125870577Y-63989935D01*
X125853029Y-63980288D01*
X125836763Y-63969604D01*
X125820933Y-63957325D01*
X125778168Y-63938818D01*
X125772922Y-63936248D01*
X125732093Y-63913803D01*
X125732092Y-63913802D01*
X125712693Y-63908822D01*
X125694281Y-63902518D01*
X125675898Y-63894562D01*
X125675892Y-63894560D01*
X125629874Y-63887272D01*
X125624152Y-63886087D01*
X125579021Y-63874500D01*
X125579019Y-63874500D01*
X125558984Y-63874500D01*
X125539586Y-63872973D01*
X125532162Y-63871797D01*
X125519805Y-63869840D01*
X125519804Y-63869840D01*
X125473416Y-63874225D01*
X125467578Y-63874500D01*
X118582743Y-63874500D01*
X118567122Y-63872775D01*
X118567095Y-63873061D01*
X118559333Y-63872326D01*
X118490172Y-63874500D01*
X118460649Y-63874500D01*
X118453778Y-63875367D01*
X118447959Y-63875825D01*
X118401374Y-63877289D01*
X118401368Y-63877290D01*
X118382126Y-63882880D01*
X118363087Y-63886823D01*
X118343217Y-63889334D01*
X118343203Y-63889337D01*
X118299883Y-63906488D01*
X118294358Y-63908380D01*
X118249613Y-63921380D01*
X118249610Y-63921381D01*
X118232366Y-63931579D01*
X118214905Y-63940133D01*
X118196274Y-63947510D01*
X118196262Y-63947517D01*
X118158570Y-63974902D01*
X118153687Y-63978109D01*
X118113580Y-64001829D01*
X118099414Y-64015995D01*
X118084624Y-64028627D01*
X118068414Y-64040404D01*
X118068411Y-64040407D01*
X118038710Y-64076309D01*
X118034777Y-64080631D01*
X117101208Y-65014199D01*
X117088951Y-65024020D01*
X117089134Y-65024241D01*
X117083123Y-65029213D01*
X117035772Y-65079636D01*
X117014889Y-65100519D01*
X117014877Y-65100532D01*
X117010621Y-65106017D01*
X117006837Y-65110447D01*
X116974937Y-65144418D01*
X116974936Y-65144420D01*
X116965284Y-65161976D01*
X116954610Y-65178226D01*
X116942329Y-65194061D01*
X116942324Y-65194068D01*
X116923815Y-65236838D01*
X116921245Y-65242084D01*
X116898803Y-65282906D01*
X116893822Y-65302307D01*
X116887521Y-65320710D01*
X116879562Y-65339102D01*
X116879561Y-65339105D01*
X116872271Y-65385127D01*
X116871087Y-65390846D01*
X116859501Y-65435972D01*
X116859500Y-65435982D01*
X116859500Y-65456016D01*
X116857973Y-65475413D01*
X116854840Y-65495196D01*
X116858119Y-65529880D01*
X116859225Y-65541583D01*
X116859500Y-65547421D01*
X116859500Y-66249773D01*
X116839815Y-66316812D01*
X116806623Y-66351348D01*
X116613597Y-66486505D01*
X116446505Y-66653597D01*
X116316575Y-66839158D01*
X116261998Y-66882783D01*
X116192500Y-66889977D01*
X116130145Y-66858454D01*
X116113425Y-66839158D01*
X115983494Y-66653597D01*
X115816402Y-66486506D01*
X115816395Y-66486501D01*
X115787232Y-66466081D01*
X115764174Y-66449935D01*
X115622834Y-66350967D01*
X115622830Y-66350965D01*
X115570500Y-66326563D01*
X115408663Y-66251097D01*
X115408659Y-66251096D01*
X115408655Y-66251094D01*
X115180413Y-66189938D01*
X115180403Y-66189936D01*
X114945001Y-66169341D01*
X114944999Y-66169341D01*
X114709596Y-66189936D01*
X114709586Y-66189938D01*
X114481344Y-66251094D01*
X114481335Y-66251098D01*
X114267171Y-66350964D01*
X114267169Y-66350965D01*
X114073597Y-66486505D01*
X113906506Y-66653596D01*
X113788854Y-66821623D01*
X113734277Y-66865248D01*
X113687279Y-66874500D01*
X105749500Y-66874500D01*
X105682461Y-66854815D01*
X105636706Y-66802011D01*
X105625500Y-66750500D01*
X105625500Y-58810452D01*
X105645185Y-58743413D01*
X105661819Y-58722771D01*
X106222771Y-58161819D01*
X106284094Y-58128334D01*
X106310452Y-58125500D01*
X123906258Y-58125500D01*
X123973297Y-58145185D01*
X124005212Y-58174773D01*
X124109020Y-58312238D01*
X124273437Y-58462123D01*
X124273439Y-58462125D01*
X124462595Y-58579245D01*
X124462596Y-58579245D01*
X124462599Y-58579247D01*
X124670060Y-58659618D01*
X124888757Y-58700500D01*
X124888759Y-58700500D01*
X125111241Y-58700500D01*
X125111243Y-58700500D01*
X125329940Y-58659618D01*
X125537401Y-58579247D01*
X125726562Y-58462124D01*
X125890981Y-58312236D01*
X126025058Y-58134689D01*
X126124229Y-57935528D01*
X126185115Y-57721536D01*
X126205643Y-57500000D01*
X126185115Y-57278464D01*
X126124229Y-57064472D01*
X126124224Y-57064461D01*
X126025061Y-56865316D01*
X126025056Y-56865308D01*
X125890979Y-56687761D01*
X125726562Y-56537876D01*
X125726560Y-56537874D01*
X125537404Y-56420754D01*
X125537398Y-56420752D01*
X125329940Y-56340382D01*
X125111243Y-56299500D01*
X124888757Y-56299500D01*
X124670060Y-56340382D01*
X124538864Y-56391207D01*
X124462601Y-56420752D01*
X124462595Y-56420754D01*
X124273439Y-56537874D01*
X124273437Y-56537876D01*
X124109020Y-56687761D01*
X124005212Y-56825227D01*
X123949103Y-56866863D01*
X123906258Y-56874500D01*
X106082743Y-56874500D01*
X106067122Y-56872775D01*
X106067095Y-56873061D01*
X106059333Y-56872326D01*
X105990172Y-56874500D01*
X105960649Y-56874500D01*
X105953778Y-56875367D01*
X105947959Y-56875825D01*
X105901374Y-56877289D01*
X105901368Y-56877290D01*
X105882126Y-56882880D01*
X105863087Y-56886823D01*
X105843217Y-56889334D01*
X105843203Y-56889337D01*
X105799883Y-56906488D01*
X105794356Y-56908380D01*
X105784097Y-56911361D01*
X105714227Y-56911162D01*
X105655557Y-56873221D01*
X105626713Y-56809583D01*
X105625500Y-56792285D01*
X105625500Y-55810452D01*
X105645185Y-55743413D01*
X105661819Y-55722771D01*
X106722772Y-54661819D01*
X106784095Y-54628334D01*
X106810453Y-54625500D01*
X122796252Y-54625500D01*
X122863291Y-54645185D01*
X122888400Y-54666526D01*
X122894126Y-54672885D01*
X122894130Y-54672889D01*
X123047265Y-54784148D01*
X123047270Y-54784151D01*
X123220192Y-54861142D01*
X123220197Y-54861144D01*
X123405354Y-54900500D01*
X123405355Y-54900500D01*
X123594644Y-54900500D01*
X123594646Y-54900500D01*
X123779803Y-54861144D01*
X123952730Y-54784151D01*
X124105871Y-54672888D01*
X124232533Y-54532216D01*
X124327179Y-54368284D01*
X124385674Y-54188256D01*
X124405460Y-54000000D01*
X124385674Y-53811744D01*
X124327179Y-53631716D01*
X124232533Y-53467784D01*
X124105871Y-53327112D01*
X124105870Y-53327111D01*
X123952734Y-53215851D01*
X123952729Y-53215848D01*
X123779807Y-53138857D01*
X123779802Y-53138855D01*
X123634000Y-53107865D01*
X123594646Y-53099500D01*
X123405354Y-53099500D01*
X123372897Y-53106398D01*
X123220197Y-53138855D01*
X123220192Y-53138857D01*
X123047270Y-53215848D01*
X123047265Y-53215851D01*
X122894130Y-53327110D01*
X122894126Y-53327114D01*
X122888400Y-53333474D01*
X122828913Y-53370121D01*
X122796252Y-53374500D01*
X106582737Y-53374500D01*
X106567120Y-53372776D01*
X106567093Y-53373062D01*
X106559331Y-53372327D01*
X106490203Y-53374500D01*
X106460650Y-53374500D01*
X106459929Y-53374590D01*
X106453757Y-53375369D01*
X106447945Y-53375826D01*
X106401378Y-53377290D01*
X106401367Y-53377292D01*
X106382134Y-53382879D01*
X106363094Y-53386822D01*
X106343217Y-53389334D01*
X106343210Y-53389335D01*
X106343208Y-53389336D01*
X106343206Y-53389336D01*
X106343205Y-53389337D01*
X106299868Y-53406494D01*
X106294342Y-53408386D01*
X106249611Y-53421382D01*
X106249608Y-53421383D01*
X106232363Y-53431581D01*
X106214901Y-53440135D01*
X106196272Y-53447511D01*
X106196267Y-53447513D01*
X106158564Y-53474906D01*
X106153682Y-53478112D01*
X106113580Y-53501828D01*
X106099408Y-53516000D01*
X106084623Y-53528628D01*
X106068412Y-53540407D01*
X106038709Y-53576310D01*
X106034777Y-53580631D01*
X104616208Y-54999199D01*
X104603951Y-55009020D01*
X104604134Y-55009241D01*
X104598123Y-55014213D01*
X104550772Y-55064636D01*
X104529889Y-55085519D01*
X104529877Y-55085532D01*
X104525621Y-55091017D01*
X104521837Y-55095447D01*
X104489937Y-55129418D01*
X104489936Y-55129420D01*
X104480284Y-55146976D01*
X104469610Y-55163226D01*
X104457329Y-55179061D01*
X104457324Y-55179068D01*
X104438815Y-55221838D01*
X104436245Y-55227084D01*
X104413803Y-55267906D01*
X104408822Y-55287307D01*
X104402521Y-55305710D01*
X104394562Y-55324102D01*
X104394561Y-55324105D01*
X104387271Y-55370127D01*
X104386087Y-55375846D01*
X104374501Y-55420972D01*
X104374500Y-55420982D01*
X104374500Y-55441016D01*
X104372973Y-55460415D01*
X104369840Y-55480194D01*
X104369840Y-55480195D01*
X104374225Y-55526583D01*
X104374500Y-55532421D01*
X104374500Y-58441016D01*
X104372973Y-58460415D01*
X104369840Y-58480194D01*
X104369840Y-58480195D01*
X104374225Y-58526583D01*
X104374500Y-58532421D01*
X104374500Y-67941016D01*
X104372973Y-67960415D01*
X104369840Y-67980194D01*
X104369839Y-67980197D01*
X104374224Y-68026585D01*
X104374499Y-68032421D01*
X104374499Y-72275500D01*
X104354814Y-72342539D01*
X104302010Y-72388294D01*
X104250500Y-72399500D01*
X104102130Y-72399500D01*
X104102123Y-72399501D01*
X104042516Y-72405908D01*
X103907671Y-72456202D01*
X103907664Y-72456206D01*
X103792455Y-72542452D01*
X103792452Y-72542455D01*
X103706206Y-72657664D01*
X103706202Y-72657671D01*
X103655908Y-72792517D01*
X103649501Y-72852116D01*
X103649500Y-72852127D01*
X103649500Y-73346212D01*
X103649501Y-73750500D01*
X103629817Y-73817539D01*
X103577013Y-73863294D01*
X103525501Y-73874500D01*
X102582743Y-73874500D01*
X102567122Y-73872775D01*
X102567096Y-73873061D01*
X102559334Y-73872327D01*
X102559333Y-73872327D01*
X102490186Y-73874500D01*
X102460649Y-73874500D01*
X102453766Y-73875369D01*
X102447949Y-73875826D01*
X102401373Y-73877290D01*
X102382129Y-73882881D01*
X102363079Y-73886825D01*
X102343211Y-73889334D01*
X102299884Y-73906488D01*
X102294358Y-73908379D01*
X102249614Y-73921379D01*
X102249610Y-73921381D01*
X102232366Y-73931579D01*
X102214905Y-73940133D01*
X102196274Y-73947510D01*
X102196262Y-73947517D01*
X102158570Y-73974902D01*
X102153687Y-73978109D01*
X102113580Y-74001829D01*
X102099414Y-74015995D01*
X102084624Y-74028627D01*
X102068414Y-74040404D01*
X102068411Y-74040407D01*
X102038710Y-74076309D01*
X102034777Y-74080631D01*
X101616211Y-74499197D01*
X101603948Y-74509022D01*
X101604131Y-74509244D01*
X101598121Y-74514215D01*
X101550772Y-74564636D01*
X101529889Y-74585519D01*
X101529877Y-74585532D01*
X101525621Y-74591017D01*
X101521837Y-74595447D01*
X101489937Y-74629418D01*
X101489936Y-74629420D01*
X101480284Y-74646976D01*
X101469610Y-74663226D01*
X101457329Y-74679061D01*
X101457324Y-74679068D01*
X101438815Y-74721838D01*
X101436245Y-74727084D01*
X101413803Y-74767906D01*
X101408822Y-74787307D01*
X101402521Y-74805710D01*
X101394562Y-74824102D01*
X101394561Y-74824105D01*
X101387271Y-74870127D01*
X101386087Y-74875846D01*
X101374501Y-74920972D01*
X101374500Y-74920982D01*
X101374500Y-74941016D01*
X101372973Y-74960415D01*
X101369840Y-74980194D01*
X101369840Y-74980195D01*
X100000500Y-74980195D01*
X100000500Y-50376257D01*
X100020185Y-50309218D01*
X100023924Y-50303900D01*
X100024532Y-50302845D01*
X100024536Y-50302841D01*
X100085044Y-50156762D01*
X100085043Y-50156762D01*
X100086394Y-50153503D01*
X100130235Y-50099099D01*
X100153503Y-50086394D01*
X100302836Y-50024538D01*
X100302835Y-50024538D01*
X100302841Y-50024536D01*
X100302845Y-50024532D01*
X100309876Y-50020474D01*
X100310882Y-50022216D01*
X100365932Y-50000931D01*
X100376257Y-50000500D01*
X199623743Y-50000500D01*
X199690782Y-50020185D01*
G37*
%TD.AperFunction*%
%TA.AperFunction,NonConductor*%
G36*
X113722948Y-68145185D02*
G01*
X113768292Y-68197097D01*
X113770965Y-68202830D01*
X113906505Y-68396401D01*
X114073599Y-68563495D01*
X114153117Y-68619174D01*
X114267165Y-68699032D01*
X114267167Y-68699033D01*
X114267170Y-68699035D01*
X114481337Y-68798903D01*
X114709592Y-68860063D01*
X114886034Y-68875500D01*
X114944999Y-68880659D01*
X114945000Y-68880659D01*
X114945001Y-68880659D01*
X115003966Y-68875500D01*
X115180408Y-68860063D01*
X115408663Y-68798903D01*
X115622830Y-68699035D01*
X115816401Y-68563495D01*
X115983495Y-68396401D01*
X116113424Y-68210842D01*
X116168002Y-68167217D01*
X116237500Y-68160023D01*
X116299855Y-68191546D01*
X116316575Y-68210842D01*
X116446500Y-68396395D01*
X116446505Y-68396401D01*
X116613599Y-68563495D01*
X116693117Y-68619174D01*
X116807165Y-68699032D01*
X116807167Y-68699033D01*
X116807170Y-68699035D01*
X117021337Y-68798903D01*
X117249592Y-68860063D01*
X117426034Y-68875500D01*
X117484999Y-68880659D01*
X117485000Y-68880659D01*
X117485001Y-68880659D01*
X117543966Y-68875500D01*
X117720408Y-68860063D01*
X117948663Y-68798903D01*
X118162830Y-68699035D01*
X118356401Y-68563495D01*
X118478329Y-68441566D01*
X118539648Y-68408084D01*
X118609340Y-68413068D01*
X118665274Y-68454939D01*
X118682189Y-68485917D01*
X118731202Y-68617328D01*
X118731206Y-68617335D01*
X118817452Y-68732544D01*
X118817455Y-68732547D01*
X118932664Y-68818793D01*
X118932671Y-68818797D01*
X118977618Y-68835560D01*
X119067517Y-68869091D01*
X119127127Y-68875500D01*
X119250499Y-68875499D01*
X119317538Y-68895183D01*
X119363293Y-68947987D01*
X119374499Y-68999499D01*
X119374500Y-74750500D01*
X119354815Y-74817539D01*
X119302011Y-74863294D01*
X119250500Y-74874500D01*
X106460391Y-74874500D01*
X106393352Y-74854815D01*
X106347597Y-74802011D01*
X106337653Y-74732853D01*
X106343633Y-74709422D01*
X106344091Y-74707483D01*
X106347146Y-74679064D01*
X106350500Y-74647873D01*
X106350499Y-72852128D01*
X106345299Y-72803757D01*
X106344091Y-72792516D01*
X106293797Y-72657671D01*
X106293793Y-72657664D01*
X106207547Y-72542455D01*
X106207544Y-72542452D01*
X106092335Y-72456206D01*
X106092328Y-72456202D01*
X105957482Y-72405908D01*
X105957483Y-72405908D01*
X105897883Y-72399501D01*
X105897881Y-72399500D01*
X105897873Y-72399500D01*
X105897865Y-72399500D01*
X105749500Y-72399500D01*
X105682461Y-72379815D01*
X105636706Y-72327011D01*
X105625500Y-72275500D01*
X105625500Y-68310451D01*
X105645185Y-68243412D01*
X105661810Y-68222779D01*
X105722773Y-68161816D01*
X105784095Y-68128334D01*
X105810452Y-68125500D01*
X113655909Y-68125500D01*
X113722948Y-68145185D01*
G37*
%TD.AperFunction*%
%TA.AperFunction,NonConductor*%
G36*
X104022280Y-75145185D02*
G01*
X104068035Y-75197989D01*
X104077979Y-75267147D01*
X104048954Y-75330703D01*
X104042922Y-75337181D01*
X103961505Y-75418597D01*
X103825965Y-75612169D01*
X103825964Y-75612171D01*
X103726098Y-75826335D01*
X103726094Y-75826344D01*
X103664938Y-76054586D01*
X103664936Y-76054596D01*
X103644341Y-76289999D01*
X103644341Y-76290000D01*
X103664936Y-76525403D01*
X103664938Y-76525413D01*
X103726094Y-76753655D01*
X103726096Y-76753659D01*
X103726097Y-76753663D01*
X103825964Y-76967830D01*
X103825965Y-76967830D01*
X103825967Y-76967834D01*
X103934281Y-77122521D01*
X103961505Y-77161401D01*
X104128599Y-77328495D01*
X104225384Y-77396265D01*
X104322165Y-77464032D01*
X104322167Y-77464033D01*
X104322170Y-77464035D01*
X104536337Y-77563903D01*
X104764592Y-77625063D01*
X104952918Y-77641539D01*
X104999999Y-77645659D01*
X105000000Y-77645659D01*
X105000001Y-77645659D01*
X105039234Y-77642226D01*
X105235408Y-77625063D01*
X105463663Y-77563903D01*
X105677830Y-77464035D01*
X105871401Y-77328495D01*
X106038495Y-77161401D01*
X106174035Y-76967830D01*
X106273903Y-76753663D01*
X106335063Y-76525408D01*
X106355659Y-76290000D01*
X106353061Y-76260307D01*
X106366827Y-76191808D01*
X106415442Y-76141625D01*
X106476589Y-76125500D01*
X119250500Y-76125500D01*
X119317539Y-76145185D01*
X119363294Y-76197989D01*
X119374500Y-76249500D01*
X119374500Y-81550500D01*
X119354815Y-81617539D01*
X119302011Y-81663294D01*
X119250501Y-81674500D01*
X119127130Y-81674500D01*
X119127123Y-81674501D01*
X119067516Y-81680908D01*
X118932671Y-81731202D01*
X118932664Y-81731206D01*
X118817455Y-81817452D01*
X118817452Y-81817455D01*
X118731206Y-81932664D01*
X118731203Y-81932669D01*
X118682189Y-82064083D01*
X118640317Y-82120016D01*
X118574853Y-82144433D01*
X118506580Y-82129581D01*
X118478326Y-82108430D01*
X118356402Y-81986506D01*
X118356395Y-81986501D01*
X118162834Y-81850967D01*
X118162830Y-81850965D01*
X118120339Y-81831151D01*
X117948663Y-81751097D01*
X117948659Y-81751096D01*
X117948655Y-81751094D01*
X117720413Y-81689938D01*
X117720403Y-81689936D01*
X117485001Y-81669341D01*
X117484999Y-81669341D01*
X117249596Y-81689936D01*
X117249586Y-81689938D01*
X117021344Y-81751094D01*
X117021335Y-81751098D01*
X116807171Y-81850964D01*
X116807169Y-81850965D01*
X116613597Y-81986505D01*
X116446505Y-82153597D01*
X116316575Y-82339158D01*
X116261998Y-82382783D01*
X116192500Y-82389977D01*
X116130145Y-82358454D01*
X116113425Y-82339158D01*
X115983494Y-82153597D01*
X115816402Y-81986506D01*
X115816395Y-81986501D01*
X115622834Y-81850967D01*
X115622830Y-81850965D01*
X115580339Y-81831151D01*
X115408663Y-81751097D01*
X115408659Y-81751096D01*
X115408655Y-81751094D01*
X115180413Y-81689938D01*
X115180403Y-81689936D01*
X114945001Y-81669341D01*
X114944999Y-81669341D01*
X114709596Y-81689936D01*
X114709586Y-81689938D01*
X114481344Y-81751094D01*
X114481335Y-81751098D01*
X114267171Y-81850964D01*
X114267169Y-81850965D01*
X114073597Y-81986505D01*
X113906505Y-82153597D01*
X113771348Y-82346623D01*
X113716771Y-82390248D01*
X113669773Y-82399500D01*
X102835453Y-82399500D01*
X102768414Y-82379815D01*
X102747772Y-82363181D01*
X102661819Y-82277228D01*
X102628334Y-82215905D01*
X102625500Y-82189547D01*
X102625500Y-75310452D01*
X102645185Y-75243413D01*
X102661819Y-75222771D01*
X102722771Y-75161819D01*
X102784094Y-75128334D01*
X102810452Y-75125500D01*
X103955241Y-75125500D01*
X104022280Y-75145185D01*
G37*
%TD.AperFunction*%
M02*
