%TF.GenerationSoftware,KiCad,Pcbnew,7.0.7*%
%TF.CreationDate,2023-11-13T12:36:41-05:00*%
%TF.ProjectId,TEJ4M-Unit-1-04,54454a34-4d2d-4556-9e69-742d312d3034,rev?*%
%TF.SameCoordinates,Original*%
%TF.FileFunction,Legend,Top*%
%TF.FilePolarity,Positive*%
%FSLAX46Y46*%
G04 Gerber Fmt 4.6, Leading zero omitted, Abs format (unit mm)*
G04 Created by KiCad (PCBNEW 7.0.7) date 2023-11-13 12:36:41*
%MOMM*%
%LPD*%
G01*
G04 APERTURE LIST*
%ADD10C,0.150000*%
%ADD11C,0.500000*%
%ADD12C,0.120000*%
%ADD13C,0.010000*%
G04 APERTURE END LIST*
D10*
X101360588Y-73417438D02*
X101265350Y-73369819D01*
X101265350Y-73369819D02*
X101122493Y-73369819D01*
X101122493Y-73369819D02*
X100979636Y-73417438D01*
X100979636Y-73417438D02*
X100884398Y-73512676D01*
X100884398Y-73512676D02*
X100836779Y-73607914D01*
X100836779Y-73607914D02*
X100789160Y-73798390D01*
X100789160Y-73798390D02*
X100789160Y-73941247D01*
X100789160Y-73941247D02*
X100836779Y-74131723D01*
X100836779Y-74131723D02*
X100884398Y-74226961D01*
X100884398Y-74226961D02*
X100979636Y-74322200D01*
X100979636Y-74322200D02*
X101122493Y-74369819D01*
X101122493Y-74369819D02*
X101217731Y-74369819D01*
X101217731Y-74369819D02*
X101360588Y-74322200D01*
X101360588Y-74322200D02*
X101408207Y-74274580D01*
X101408207Y-74274580D02*
X101408207Y-73941247D01*
X101408207Y-73941247D02*
X101217731Y-73941247D01*
X101836779Y-74369819D02*
X101836779Y-73369819D01*
X101836779Y-73369819D02*
X102408207Y-74369819D01*
X102408207Y-74369819D02*
X102408207Y-73369819D01*
X102884398Y-74369819D02*
X102884398Y-73369819D01*
X102884398Y-73369819D02*
X103122493Y-73369819D01*
X103122493Y-73369819D02*
X103265350Y-73417438D01*
X103265350Y-73417438D02*
X103360588Y-73512676D01*
X103360588Y-73512676D02*
X103408207Y-73607914D01*
X103408207Y-73607914D02*
X103455826Y-73798390D01*
X103455826Y-73798390D02*
X103455826Y-73941247D01*
X103455826Y-73941247D02*
X103408207Y-74131723D01*
X103408207Y-74131723D02*
X103360588Y-74226961D01*
X103360588Y-74226961D02*
X103265350Y-74322200D01*
X103265350Y-74322200D02*
X103122493Y-74369819D01*
X103122493Y-74369819D02*
X102884398Y-74369819D01*
X125789160Y-54965057D02*
X125836779Y-54917438D01*
X125836779Y-54917438D02*
X125932017Y-54869819D01*
X125932017Y-54869819D02*
X126170112Y-54869819D01*
X126170112Y-54869819D02*
X126265350Y-54917438D01*
X126265350Y-54917438D02*
X126312969Y-54965057D01*
X126312969Y-54965057D02*
X126360588Y-55060295D01*
X126360588Y-55060295D02*
X126360588Y-55155533D01*
X126360588Y-55155533D02*
X126312969Y-55298390D01*
X126312969Y-55298390D02*
X125741541Y-55869819D01*
X125741541Y-55869819D02*
X126360588Y-55869819D01*
X126741541Y-54965057D02*
X126789160Y-54917438D01*
X126789160Y-54917438D02*
X126884398Y-54869819D01*
X126884398Y-54869819D02*
X127122493Y-54869819D01*
X127122493Y-54869819D02*
X127217731Y-54917438D01*
X127217731Y-54917438D02*
X127265350Y-54965057D01*
X127265350Y-54965057D02*
X127312969Y-55060295D01*
X127312969Y-55060295D02*
X127312969Y-55155533D01*
X127312969Y-55155533D02*
X127265350Y-55298390D01*
X127265350Y-55298390D02*
X126693922Y-55869819D01*
X126693922Y-55869819D02*
X127312969Y-55869819D01*
X127932017Y-54869819D02*
X128027255Y-54869819D01*
X128027255Y-54869819D02*
X128122493Y-54917438D01*
X128122493Y-54917438D02*
X128170112Y-54965057D01*
X128170112Y-54965057D02*
X128217731Y-55060295D01*
X128217731Y-55060295D02*
X128265350Y-55250771D01*
X128265350Y-55250771D02*
X128265350Y-55488866D01*
X128265350Y-55488866D02*
X128217731Y-55679342D01*
X128217731Y-55679342D02*
X128170112Y-55774580D01*
X128170112Y-55774580D02*
X128122493Y-55822200D01*
X128122493Y-55822200D02*
X128027255Y-55869819D01*
X128027255Y-55869819D02*
X127932017Y-55869819D01*
X127932017Y-55869819D02*
X127836779Y-55822200D01*
X127836779Y-55822200D02*
X127789160Y-55774580D01*
X127789160Y-55774580D02*
X127741541Y-55679342D01*
X127741541Y-55679342D02*
X127693922Y-55488866D01*
X127693922Y-55488866D02*
X127693922Y-55250771D01*
X127693922Y-55250771D02*
X127741541Y-55060295D01*
X127741541Y-55060295D02*
X127789160Y-54965057D01*
X127789160Y-54965057D02*
X127836779Y-54917438D01*
X127836779Y-54917438D02*
X127932017Y-54869819D01*
X129408208Y-55869819D02*
X129646303Y-55869819D01*
X129646303Y-55869819D02*
X129646303Y-55679342D01*
X129646303Y-55679342D02*
X129551065Y-55631723D01*
X129551065Y-55631723D02*
X129455827Y-55536485D01*
X129455827Y-55536485D02*
X129408208Y-55393628D01*
X129408208Y-55393628D02*
X129408208Y-55155533D01*
X129408208Y-55155533D02*
X129455827Y-55012676D01*
X129455827Y-55012676D02*
X129551065Y-54917438D01*
X129551065Y-54917438D02*
X129693922Y-54869819D01*
X129693922Y-54869819D02*
X129884398Y-54869819D01*
X129884398Y-54869819D02*
X130027255Y-54917438D01*
X130027255Y-54917438D02*
X130122493Y-55012676D01*
X130122493Y-55012676D02*
X130170112Y-55155533D01*
X130170112Y-55155533D02*
X130170112Y-55393628D01*
X130170112Y-55393628D02*
X130122493Y-55536485D01*
X130122493Y-55536485D02*
X130027255Y-55631723D01*
X130027255Y-55631723D02*
X129932017Y-55679342D01*
X129932017Y-55679342D02*
X129932017Y-55869819D01*
X129932017Y-55869819D02*
X130170112Y-55869819D01*
D11*
X102281327Y-138383523D02*
X104662280Y-138383523D01*
X101805137Y-139812095D02*
X103471804Y-134812095D01*
X103471804Y-134812095D02*
X105138470Y-139812095D01*
X106805137Y-139812095D02*
X106805137Y-134812095D01*
X106805137Y-134812095D02*
X109662280Y-139812095D01*
X109662280Y-139812095D02*
X109662280Y-134812095D01*
X112043232Y-139812095D02*
X112043232Y-134812095D01*
X112043232Y-134812095D02*
X113233708Y-134812095D01*
X113233708Y-134812095D02*
X113947994Y-135050190D01*
X113947994Y-135050190D02*
X114424184Y-135526380D01*
X114424184Y-135526380D02*
X114662279Y-136002571D01*
X114662279Y-136002571D02*
X114900375Y-136954952D01*
X114900375Y-136954952D02*
X114900375Y-137669238D01*
X114900375Y-137669238D02*
X114662279Y-138621619D01*
X114662279Y-138621619D02*
X114424184Y-139097809D01*
X114424184Y-139097809D02*
X113947994Y-139574000D01*
X113947994Y-139574000D02*
X113233708Y-139812095D01*
X113233708Y-139812095D02*
X112043232Y-139812095D01*
X123471803Y-135050190D02*
X122995613Y-134812095D01*
X122995613Y-134812095D02*
X122281327Y-134812095D01*
X122281327Y-134812095D02*
X121567041Y-135050190D01*
X121567041Y-135050190D02*
X121090851Y-135526380D01*
X121090851Y-135526380D02*
X120852756Y-136002571D01*
X120852756Y-136002571D02*
X120614660Y-136954952D01*
X120614660Y-136954952D02*
X120614660Y-137669238D01*
X120614660Y-137669238D02*
X120852756Y-138621619D01*
X120852756Y-138621619D02*
X121090851Y-139097809D01*
X121090851Y-139097809D02*
X121567041Y-139574000D01*
X121567041Y-139574000D02*
X122281327Y-139812095D01*
X122281327Y-139812095D02*
X122757518Y-139812095D01*
X122757518Y-139812095D02*
X123471803Y-139574000D01*
X123471803Y-139574000D02*
X123709899Y-139335904D01*
X123709899Y-139335904D02*
X123709899Y-137669238D01*
X123709899Y-137669238D02*
X122757518Y-137669238D01*
X127995613Y-139812095D02*
X127995613Y-137193047D01*
X127995613Y-137193047D02*
X127757518Y-136716857D01*
X127757518Y-136716857D02*
X127281327Y-136478761D01*
X127281327Y-136478761D02*
X126328946Y-136478761D01*
X126328946Y-136478761D02*
X125852756Y-136716857D01*
X127995613Y-139574000D02*
X127519422Y-139812095D01*
X127519422Y-139812095D02*
X126328946Y-139812095D01*
X126328946Y-139812095D02*
X125852756Y-139574000D01*
X125852756Y-139574000D02*
X125614660Y-139097809D01*
X125614660Y-139097809D02*
X125614660Y-138621619D01*
X125614660Y-138621619D02*
X125852756Y-138145428D01*
X125852756Y-138145428D02*
X126328946Y-137907333D01*
X126328946Y-137907333D02*
X127519422Y-137907333D01*
X127519422Y-137907333D02*
X127995613Y-137669238D01*
X129662280Y-136478761D02*
X131567042Y-136478761D01*
X130376566Y-134812095D02*
X130376566Y-139097809D01*
X130376566Y-139097809D02*
X130614661Y-139574000D01*
X130614661Y-139574000D02*
X131090851Y-139812095D01*
X131090851Y-139812095D02*
X131567042Y-139812095D01*
X135138471Y-139574000D02*
X134662280Y-139812095D01*
X134662280Y-139812095D02*
X133709899Y-139812095D01*
X133709899Y-139812095D02*
X133233709Y-139574000D01*
X133233709Y-139574000D02*
X132995613Y-139097809D01*
X132995613Y-139097809D02*
X132995613Y-137193047D01*
X132995613Y-137193047D02*
X133233709Y-136716857D01*
X133233709Y-136716857D02*
X133709899Y-136478761D01*
X133709899Y-136478761D02*
X134662280Y-136478761D01*
X134662280Y-136478761D02*
X135138471Y-136716857D01*
X135138471Y-136716857D02*
X135376566Y-137193047D01*
X135376566Y-137193047D02*
X135376566Y-137669238D01*
X135376566Y-137669238D02*
X132995613Y-138145428D01*
X102043232Y-142862095D02*
X103233708Y-147862095D01*
X103233708Y-147862095D02*
X104186089Y-144290666D01*
X104186089Y-144290666D02*
X105138470Y-147862095D01*
X105138470Y-147862095D02*
X106328947Y-142862095D01*
X108233709Y-147862095D02*
X108233709Y-144528761D01*
X108233709Y-142862095D02*
X107995613Y-143100190D01*
X107995613Y-143100190D02*
X108233709Y-143338285D01*
X108233709Y-143338285D02*
X108471804Y-143100190D01*
X108471804Y-143100190D02*
X108233709Y-142862095D01*
X108233709Y-142862095D02*
X108233709Y-143338285D01*
X109900375Y-144528761D02*
X111805137Y-144528761D01*
X110614661Y-142862095D02*
X110614661Y-147147809D01*
X110614661Y-147147809D02*
X110852756Y-147624000D01*
X110852756Y-147624000D02*
X111328946Y-147862095D01*
X111328946Y-147862095D02*
X111805137Y-147862095D01*
X113471804Y-147862095D02*
X113471804Y-142862095D01*
X115614661Y-147862095D02*
X115614661Y-145243047D01*
X115614661Y-145243047D02*
X115376566Y-144766857D01*
X115376566Y-144766857D02*
X114900375Y-144528761D01*
X114900375Y-144528761D02*
X114186089Y-144528761D01*
X114186089Y-144528761D02*
X113709899Y-144766857D01*
X113709899Y-144766857D02*
X113471804Y-145004952D01*
X121090852Y-142862095D02*
X123947995Y-142862095D01*
X122519423Y-147862095D02*
X122519423Y-142862095D01*
X125614662Y-147862095D02*
X125614662Y-144528761D01*
X125614662Y-145481142D02*
X125852757Y-145004952D01*
X125852757Y-145004952D02*
X126090852Y-144766857D01*
X126090852Y-144766857D02*
X126567043Y-144528761D01*
X126567043Y-144528761D02*
X127043233Y-144528761D01*
X130852757Y-147862095D02*
X130852757Y-145243047D01*
X130852757Y-145243047D02*
X130614662Y-144766857D01*
X130614662Y-144766857D02*
X130138471Y-144528761D01*
X130138471Y-144528761D02*
X129186090Y-144528761D01*
X129186090Y-144528761D02*
X128709900Y-144766857D01*
X130852757Y-147624000D02*
X130376566Y-147862095D01*
X130376566Y-147862095D02*
X129186090Y-147862095D01*
X129186090Y-147862095D02*
X128709900Y-147624000D01*
X128709900Y-147624000D02*
X128471804Y-147147809D01*
X128471804Y-147147809D02*
X128471804Y-146671619D01*
X128471804Y-146671619D02*
X128709900Y-146195428D01*
X128709900Y-146195428D02*
X129186090Y-145957333D01*
X129186090Y-145957333D02*
X130376566Y-145957333D01*
X130376566Y-145957333D02*
X130852757Y-145719238D01*
X133233710Y-144528761D02*
X133233710Y-147862095D01*
X133233710Y-145004952D02*
X133471805Y-144766857D01*
X133471805Y-144766857D02*
X133947995Y-144528761D01*
X133947995Y-144528761D02*
X134662281Y-144528761D01*
X134662281Y-144528761D02*
X135138472Y-144766857D01*
X135138472Y-144766857D02*
X135376567Y-145243047D01*
X135376567Y-145243047D02*
X135376567Y-147862095D01*
X137519424Y-147624000D02*
X137995615Y-147862095D01*
X137995615Y-147862095D02*
X138947996Y-147862095D01*
X138947996Y-147862095D02*
X139424186Y-147624000D01*
X139424186Y-147624000D02*
X139662282Y-147147809D01*
X139662282Y-147147809D02*
X139662282Y-146909714D01*
X139662282Y-146909714D02*
X139424186Y-146433523D01*
X139424186Y-146433523D02*
X138947996Y-146195428D01*
X138947996Y-146195428D02*
X138233710Y-146195428D01*
X138233710Y-146195428D02*
X137757520Y-145957333D01*
X137757520Y-145957333D02*
X137519424Y-145481142D01*
X137519424Y-145481142D02*
X137519424Y-145243047D01*
X137519424Y-145243047D02*
X137757520Y-144766857D01*
X137757520Y-144766857D02*
X138233710Y-144528761D01*
X138233710Y-144528761D02*
X138947996Y-144528761D01*
X138947996Y-144528761D02*
X139424186Y-144766857D01*
X141805139Y-147862095D02*
X141805139Y-144528761D01*
X141805139Y-142862095D02*
X141567043Y-143100190D01*
X141567043Y-143100190D02*
X141805139Y-143338285D01*
X141805139Y-143338285D02*
X142043234Y-143100190D01*
X142043234Y-143100190D02*
X141805139Y-142862095D01*
X141805139Y-142862095D02*
X141805139Y-143338285D01*
X143947995Y-147624000D02*
X144424186Y-147862095D01*
X144424186Y-147862095D02*
X145376567Y-147862095D01*
X145376567Y-147862095D02*
X145852757Y-147624000D01*
X145852757Y-147624000D02*
X146090853Y-147147809D01*
X146090853Y-147147809D02*
X146090853Y-146909714D01*
X146090853Y-146909714D02*
X145852757Y-146433523D01*
X145852757Y-146433523D02*
X145376567Y-146195428D01*
X145376567Y-146195428D02*
X144662281Y-146195428D01*
X144662281Y-146195428D02*
X144186091Y-145957333D01*
X144186091Y-145957333D02*
X143947995Y-145481142D01*
X143947995Y-145481142D02*
X143947995Y-145243047D01*
X143947995Y-145243047D02*
X144186091Y-144766857D01*
X144186091Y-144766857D02*
X144662281Y-144528761D01*
X144662281Y-144528761D02*
X145376567Y-144528761D01*
X145376567Y-144528761D02*
X145852757Y-144766857D01*
X147519424Y-144528761D02*
X149424186Y-144528761D01*
X148233710Y-142862095D02*
X148233710Y-147147809D01*
X148233710Y-147147809D02*
X148471805Y-147624000D01*
X148471805Y-147624000D02*
X148947995Y-147862095D01*
X148947995Y-147862095D02*
X149424186Y-147862095D01*
X151805138Y-147862095D02*
X151328948Y-147624000D01*
X151328948Y-147624000D02*
X151090853Y-147385904D01*
X151090853Y-147385904D02*
X150852757Y-146909714D01*
X150852757Y-146909714D02*
X150852757Y-145481142D01*
X150852757Y-145481142D02*
X151090853Y-145004952D01*
X151090853Y-145004952D02*
X151328948Y-144766857D01*
X151328948Y-144766857D02*
X151805138Y-144528761D01*
X151805138Y-144528761D02*
X152519424Y-144528761D01*
X152519424Y-144528761D02*
X152995615Y-144766857D01*
X152995615Y-144766857D02*
X153233710Y-145004952D01*
X153233710Y-145004952D02*
X153471805Y-145481142D01*
X153471805Y-145481142D02*
X153471805Y-146909714D01*
X153471805Y-146909714D02*
X153233710Y-147385904D01*
X153233710Y-147385904D02*
X152995615Y-147624000D01*
X152995615Y-147624000D02*
X152519424Y-147862095D01*
X152519424Y-147862095D02*
X151805138Y-147862095D01*
X155614663Y-147862095D02*
X155614663Y-144528761D01*
X155614663Y-145481142D02*
X155852758Y-145004952D01*
X155852758Y-145004952D02*
X156090853Y-144766857D01*
X156090853Y-144766857D02*
X156567044Y-144528761D01*
X156567044Y-144528761D02*
X157043234Y-144528761D01*
X158471805Y-147624000D02*
X158947996Y-147862095D01*
X158947996Y-147862095D02*
X159900377Y-147862095D01*
X159900377Y-147862095D02*
X160376567Y-147624000D01*
X160376567Y-147624000D02*
X160614663Y-147147809D01*
X160614663Y-147147809D02*
X160614663Y-146909714D01*
X160614663Y-146909714D02*
X160376567Y-146433523D01*
X160376567Y-146433523D02*
X159900377Y-146195428D01*
X159900377Y-146195428D02*
X159186091Y-146195428D01*
X159186091Y-146195428D02*
X158709901Y-145957333D01*
X158709901Y-145957333D02*
X158471805Y-145481142D01*
X158471805Y-145481142D02*
X158471805Y-145243047D01*
X158471805Y-145243047D02*
X158709901Y-144766857D01*
X158709901Y-144766857D02*
X159186091Y-144528761D01*
X159186091Y-144528761D02*
X159900377Y-144528761D01*
X159900377Y-144528761D02*
X160376567Y-144766857D01*
D10*
X102312969Y-75869819D02*
X101836779Y-75869819D01*
X101836779Y-75869819D02*
X101789160Y-76346009D01*
X101789160Y-76346009D02*
X101836779Y-76298390D01*
X101836779Y-76298390D02*
X101932017Y-76250771D01*
X101932017Y-76250771D02*
X102170112Y-76250771D01*
X102170112Y-76250771D02*
X102265350Y-76298390D01*
X102265350Y-76298390D02*
X102312969Y-76346009D01*
X102312969Y-76346009D02*
X102360588Y-76441247D01*
X102360588Y-76441247D02*
X102360588Y-76679342D01*
X102360588Y-76679342D02*
X102312969Y-76774580D01*
X102312969Y-76774580D02*
X102265350Y-76822200D01*
X102265350Y-76822200D02*
X102170112Y-76869819D01*
X102170112Y-76869819D02*
X101932017Y-76869819D01*
X101932017Y-76869819D02*
X101836779Y-76822200D01*
X101836779Y-76822200D02*
X101789160Y-76774580D01*
X102646303Y-75869819D02*
X102979636Y-76869819D01*
X102979636Y-76869819D02*
X103312969Y-75869819D01*
X141789160Y-67965057D02*
X141836779Y-67917438D01*
X141836779Y-67917438D02*
X141932017Y-67869819D01*
X141932017Y-67869819D02*
X142170112Y-67869819D01*
X142170112Y-67869819D02*
X142265350Y-67917438D01*
X142265350Y-67917438D02*
X142312969Y-67965057D01*
X142312969Y-67965057D02*
X142360588Y-68060295D01*
X142360588Y-68060295D02*
X142360588Y-68155533D01*
X142360588Y-68155533D02*
X142312969Y-68298390D01*
X142312969Y-68298390D02*
X141741541Y-68869819D01*
X141741541Y-68869819D02*
X142360588Y-68869819D01*
X142741541Y-67965057D02*
X142789160Y-67917438D01*
X142789160Y-67917438D02*
X142884398Y-67869819D01*
X142884398Y-67869819D02*
X143122493Y-67869819D01*
X143122493Y-67869819D02*
X143217731Y-67917438D01*
X143217731Y-67917438D02*
X143265350Y-67965057D01*
X143265350Y-67965057D02*
X143312969Y-68060295D01*
X143312969Y-68060295D02*
X143312969Y-68155533D01*
X143312969Y-68155533D02*
X143265350Y-68298390D01*
X143265350Y-68298390D02*
X142693922Y-68869819D01*
X142693922Y-68869819D02*
X143312969Y-68869819D01*
X143932017Y-67869819D02*
X144027255Y-67869819D01*
X144027255Y-67869819D02*
X144122493Y-67917438D01*
X144122493Y-67917438D02*
X144170112Y-67965057D01*
X144170112Y-67965057D02*
X144217731Y-68060295D01*
X144217731Y-68060295D02*
X144265350Y-68250771D01*
X144265350Y-68250771D02*
X144265350Y-68488866D01*
X144265350Y-68488866D02*
X144217731Y-68679342D01*
X144217731Y-68679342D02*
X144170112Y-68774580D01*
X144170112Y-68774580D02*
X144122493Y-68822200D01*
X144122493Y-68822200D02*
X144027255Y-68869819D01*
X144027255Y-68869819D02*
X143932017Y-68869819D01*
X143932017Y-68869819D02*
X143836779Y-68822200D01*
X143836779Y-68822200D02*
X143789160Y-68774580D01*
X143789160Y-68774580D02*
X143741541Y-68679342D01*
X143741541Y-68679342D02*
X143693922Y-68488866D01*
X143693922Y-68488866D02*
X143693922Y-68250771D01*
X143693922Y-68250771D02*
X143741541Y-68060295D01*
X143741541Y-68060295D02*
X143789160Y-67965057D01*
X143789160Y-67965057D02*
X143836779Y-67917438D01*
X143836779Y-67917438D02*
X143932017Y-67869819D01*
X145408208Y-68869819D02*
X145646303Y-68869819D01*
X145646303Y-68869819D02*
X145646303Y-68679342D01*
X145646303Y-68679342D02*
X145551065Y-68631723D01*
X145551065Y-68631723D02*
X145455827Y-68536485D01*
X145455827Y-68536485D02*
X145408208Y-68393628D01*
X145408208Y-68393628D02*
X145408208Y-68155533D01*
X145408208Y-68155533D02*
X145455827Y-68012676D01*
X145455827Y-68012676D02*
X145551065Y-67917438D01*
X145551065Y-67917438D02*
X145693922Y-67869819D01*
X145693922Y-67869819D02*
X145884398Y-67869819D01*
X145884398Y-67869819D02*
X146027255Y-67917438D01*
X146027255Y-67917438D02*
X146122493Y-68012676D01*
X146122493Y-68012676D02*
X146170112Y-68155533D01*
X146170112Y-68155533D02*
X146170112Y-68393628D01*
X146170112Y-68393628D02*
X146122493Y-68536485D01*
X146122493Y-68536485D02*
X146027255Y-68631723D01*
X146027255Y-68631723D02*
X145932017Y-68679342D01*
X145932017Y-68679342D02*
X145932017Y-68869819D01*
X145932017Y-68869819D02*
X146170112Y-68869819D01*
X141289160Y-85465057D02*
X141336779Y-85417438D01*
X141336779Y-85417438D02*
X141432017Y-85369819D01*
X141432017Y-85369819D02*
X141670112Y-85369819D01*
X141670112Y-85369819D02*
X141765350Y-85417438D01*
X141765350Y-85417438D02*
X141812969Y-85465057D01*
X141812969Y-85465057D02*
X141860588Y-85560295D01*
X141860588Y-85560295D02*
X141860588Y-85655533D01*
X141860588Y-85655533D02*
X141812969Y-85798390D01*
X141812969Y-85798390D02*
X141241541Y-86369819D01*
X141241541Y-86369819D02*
X141860588Y-86369819D01*
X142241541Y-85465057D02*
X142289160Y-85417438D01*
X142289160Y-85417438D02*
X142384398Y-85369819D01*
X142384398Y-85369819D02*
X142622493Y-85369819D01*
X142622493Y-85369819D02*
X142717731Y-85417438D01*
X142717731Y-85417438D02*
X142765350Y-85465057D01*
X142765350Y-85465057D02*
X142812969Y-85560295D01*
X142812969Y-85560295D02*
X142812969Y-85655533D01*
X142812969Y-85655533D02*
X142765350Y-85798390D01*
X142765350Y-85798390D02*
X142193922Y-86369819D01*
X142193922Y-86369819D02*
X142812969Y-86369819D01*
X143432017Y-85369819D02*
X143527255Y-85369819D01*
X143527255Y-85369819D02*
X143622493Y-85417438D01*
X143622493Y-85417438D02*
X143670112Y-85465057D01*
X143670112Y-85465057D02*
X143717731Y-85560295D01*
X143717731Y-85560295D02*
X143765350Y-85750771D01*
X143765350Y-85750771D02*
X143765350Y-85988866D01*
X143765350Y-85988866D02*
X143717731Y-86179342D01*
X143717731Y-86179342D02*
X143670112Y-86274580D01*
X143670112Y-86274580D02*
X143622493Y-86322200D01*
X143622493Y-86322200D02*
X143527255Y-86369819D01*
X143527255Y-86369819D02*
X143432017Y-86369819D01*
X143432017Y-86369819D02*
X143336779Y-86322200D01*
X143336779Y-86322200D02*
X143289160Y-86274580D01*
X143289160Y-86274580D02*
X143241541Y-86179342D01*
X143241541Y-86179342D02*
X143193922Y-85988866D01*
X143193922Y-85988866D02*
X143193922Y-85750771D01*
X143193922Y-85750771D02*
X143241541Y-85560295D01*
X143241541Y-85560295D02*
X143289160Y-85465057D01*
X143289160Y-85465057D02*
X143336779Y-85417438D01*
X143336779Y-85417438D02*
X143432017Y-85369819D01*
X144908208Y-86369819D02*
X145146303Y-86369819D01*
X145146303Y-86369819D02*
X145146303Y-86179342D01*
X145146303Y-86179342D02*
X145051065Y-86131723D01*
X145051065Y-86131723D02*
X144955827Y-86036485D01*
X144955827Y-86036485D02*
X144908208Y-85893628D01*
X144908208Y-85893628D02*
X144908208Y-85655533D01*
X144908208Y-85655533D02*
X144955827Y-85512676D01*
X144955827Y-85512676D02*
X145051065Y-85417438D01*
X145051065Y-85417438D02*
X145193922Y-85369819D01*
X145193922Y-85369819D02*
X145384398Y-85369819D01*
X145384398Y-85369819D02*
X145527255Y-85417438D01*
X145527255Y-85417438D02*
X145622493Y-85512676D01*
X145622493Y-85512676D02*
X145670112Y-85655533D01*
X145670112Y-85655533D02*
X145670112Y-85893628D01*
X145670112Y-85893628D02*
X145622493Y-86036485D01*
X145622493Y-86036485D02*
X145527255Y-86131723D01*
X145527255Y-86131723D02*
X145432017Y-86179342D01*
X145432017Y-86179342D02*
X145432017Y-86369819D01*
X145432017Y-86369819D02*
X145670112Y-86369819D01*
X189289160Y-76465057D02*
X189336779Y-76417438D01*
X189336779Y-76417438D02*
X189432017Y-76369819D01*
X189432017Y-76369819D02*
X189670112Y-76369819D01*
X189670112Y-76369819D02*
X189765350Y-76417438D01*
X189765350Y-76417438D02*
X189812969Y-76465057D01*
X189812969Y-76465057D02*
X189860588Y-76560295D01*
X189860588Y-76560295D02*
X189860588Y-76655533D01*
X189860588Y-76655533D02*
X189812969Y-76798390D01*
X189812969Y-76798390D02*
X189241541Y-77369819D01*
X189241541Y-77369819D02*
X189860588Y-77369819D01*
X190241541Y-76465057D02*
X190289160Y-76417438D01*
X190289160Y-76417438D02*
X190384398Y-76369819D01*
X190384398Y-76369819D02*
X190622493Y-76369819D01*
X190622493Y-76369819D02*
X190717731Y-76417438D01*
X190717731Y-76417438D02*
X190765350Y-76465057D01*
X190765350Y-76465057D02*
X190812969Y-76560295D01*
X190812969Y-76560295D02*
X190812969Y-76655533D01*
X190812969Y-76655533D02*
X190765350Y-76798390D01*
X190765350Y-76798390D02*
X190193922Y-77369819D01*
X190193922Y-77369819D02*
X190812969Y-77369819D01*
X191432017Y-76369819D02*
X191527255Y-76369819D01*
X191527255Y-76369819D02*
X191622493Y-76417438D01*
X191622493Y-76417438D02*
X191670112Y-76465057D01*
X191670112Y-76465057D02*
X191717731Y-76560295D01*
X191717731Y-76560295D02*
X191765350Y-76750771D01*
X191765350Y-76750771D02*
X191765350Y-76988866D01*
X191765350Y-76988866D02*
X191717731Y-77179342D01*
X191717731Y-77179342D02*
X191670112Y-77274580D01*
X191670112Y-77274580D02*
X191622493Y-77322200D01*
X191622493Y-77322200D02*
X191527255Y-77369819D01*
X191527255Y-77369819D02*
X191432017Y-77369819D01*
X191432017Y-77369819D02*
X191336779Y-77322200D01*
X191336779Y-77322200D02*
X191289160Y-77274580D01*
X191289160Y-77274580D02*
X191241541Y-77179342D01*
X191241541Y-77179342D02*
X191193922Y-76988866D01*
X191193922Y-76988866D02*
X191193922Y-76750771D01*
X191193922Y-76750771D02*
X191241541Y-76560295D01*
X191241541Y-76560295D02*
X191289160Y-76465057D01*
X191289160Y-76465057D02*
X191336779Y-76417438D01*
X191336779Y-76417438D02*
X191432017Y-76369819D01*
X192908208Y-77369819D02*
X193146303Y-77369819D01*
X193146303Y-77369819D02*
X193146303Y-77179342D01*
X193146303Y-77179342D02*
X193051065Y-77131723D01*
X193051065Y-77131723D02*
X192955827Y-77036485D01*
X192955827Y-77036485D02*
X192908208Y-76893628D01*
X192908208Y-76893628D02*
X192908208Y-76655533D01*
X192908208Y-76655533D02*
X192955827Y-76512676D01*
X192955827Y-76512676D02*
X193051065Y-76417438D01*
X193051065Y-76417438D02*
X193193922Y-76369819D01*
X193193922Y-76369819D02*
X193384398Y-76369819D01*
X193384398Y-76369819D02*
X193527255Y-76417438D01*
X193527255Y-76417438D02*
X193622493Y-76512676D01*
X193622493Y-76512676D02*
X193670112Y-76655533D01*
X193670112Y-76655533D02*
X193670112Y-76893628D01*
X193670112Y-76893628D02*
X193622493Y-77036485D01*
X193622493Y-77036485D02*
X193527255Y-77131723D01*
X193527255Y-77131723D02*
X193432017Y-77179342D01*
X193432017Y-77179342D02*
X193432017Y-77369819D01*
X193432017Y-77369819D02*
X193670112Y-77369819D01*
X170203152Y-71234649D02*
X170869819Y-71234649D01*
X169822200Y-71472744D02*
X170536485Y-71710839D01*
X170536485Y-71710839D02*
X170536485Y-71091792D01*
X170774580Y-70710839D02*
X170822200Y-70663220D01*
X170822200Y-70663220D02*
X170869819Y-70710839D01*
X170869819Y-70710839D02*
X170822200Y-70758458D01*
X170822200Y-70758458D02*
X170774580Y-70710839D01*
X170774580Y-70710839D02*
X170869819Y-70710839D01*
X169869819Y-70329887D02*
X169869819Y-69663221D01*
X169869819Y-69663221D02*
X170869819Y-70091792D01*
X170869819Y-68520363D02*
X169869819Y-68520363D01*
X170869819Y-67948935D02*
X170298390Y-68377506D01*
X169869819Y-67948935D02*
X170441247Y-68520363D01*
X170869819Y-67567982D02*
X170869819Y-67329887D01*
X170869819Y-67329887D02*
X170679342Y-67329887D01*
X170679342Y-67329887D02*
X170631723Y-67425125D01*
X170631723Y-67425125D02*
X170536485Y-67520363D01*
X170536485Y-67520363D02*
X170393628Y-67567982D01*
X170393628Y-67567982D02*
X170155533Y-67567982D01*
X170155533Y-67567982D02*
X170012676Y-67520363D01*
X170012676Y-67520363D02*
X169917438Y-67425125D01*
X169917438Y-67425125D02*
X169869819Y-67282268D01*
X169869819Y-67282268D02*
X169869819Y-67091792D01*
X169869819Y-67091792D02*
X169917438Y-66948935D01*
X169917438Y-66948935D02*
X170012676Y-66853697D01*
X170012676Y-66853697D02*
X170155533Y-66806078D01*
X170155533Y-66806078D02*
X170393628Y-66806078D01*
X170393628Y-66806078D02*
X170536485Y-66853697D01*
X170536485Y-66853697D02*
X170631723Y-66948935D01*
X170631723Y-66948935D02*
X170679342Y-67044173D01*
X170679342Y-67044173D02*
X170869819Y-67044173D01*
X170869819Y-67044173D02*
X170869819Y-66806078D01*
D11*
X104876566Y-105785904D02*
X104638470Y-106024000D01*
X104638470Y-106024000D02*
X103924185Y-106262095D01*
X103924185Y-106262095D02*
X103447994Y-106262095D01*
X103447994Y-106262095D02*
X102733708Y-106024000D01*
X102733708Y-106024000D02*
X102257518Y-105547809D01*
X102257518Y-105547809D02*
X102019423Y-105071619D01*
X102019423Y-105071619D02*
X101781327Y-104119238D01*
X101781327Y-104119238D02*
X101781327Y-103404952D01*
X101781327Y-103404952D02*
X102019423Y-102452571D01*
X102019423Y-102452571D02*
X102257518Y-101976380D01*
X102257518Y-101976380D02*
X102733708Y-101500190D01*
X102733708Y-101500190D02*
X103447994Y-101262095D01*
X103447994Y-101262095D02*
X103924185Y-101262095D01*
X103924185Y-101262095D02*
X104638470Y-101500190D01*
X104638470Y-101500190D02*
X104876566Y-101738285D01*
X109162280Y-102928761D02*
X109162280Y-106262095D01*
X107019423Y-102928761D02*
X107019423Y-105547809D01*
X107019423Y-105547809D02*
X107257518Y-106024000D01*
X107257518Y-106024000D02*
X107733708Y-106262095D01*
X107733708Y-106262095D02*
X108447994Y-106262095D01*
X108447994Y-106262095D02*
X108924185Y-106024000D01*
X108924185Y-106024000D02*
X109162280Y-105785904D01*
X111543233Y-106262095D02*
X111543233Y-102928761D01*
X111543233Y-103881142D02*
X111781328Y-103404952D01*
X111781328Y-103404952D02*
X112019423Y-103166857D01*
X112019423Y-103166857D02*
X112495614Y-102928761D01*
X112495614Y-102928761D02*
X112971804Y-102928761D01*
X113924185Y-102928761D02*
X115828947Y-102928761D01*
X114638471Y-101262095D02*
X114638471Y-105547809D01*
X114638471Y-105547809D02*
X114876566Y-106024000D01*
X114876566Y-106024000D02*
X115352756Y-106262095D01*
X115352756Y-106262095D02*
X115828947Y-106262095D01*
X117495614Y-106262095D02*
X117495614Y-102928761D01*
X117495614Y-101262095D02*
X117257518Y-101500190D01*
X117257518Y-101500190D02*
X117495614Y-101738285D01*
X117495614Y-101738285D02*
X117733709Y-101500190D01*
X117733709Y-101500190D02*
X117495614Y-101262095D01*
X117495614Y-101262095D02*
X117495614Y-101738285D01*
X119638470Y-106024000D02*
X120114661Y-106262095D01*
X120114661Y-106262095D02*
X121067042Y-106262095D01*
X121067042Y-106262095D02*
X121543232Y-106024000D01*
X121543232Y-106024000D02*
X121781328Y-105547809D01*
X121781328Y-105547809D02*
X121781328Y-105309714D01*
X121781328Y-105309714D02*
X121543232Y-104833523D01*
X121543232Y-104833523D02*
X121067042Y-104595428D01*
X121067042Y-104595428D02*
X120352756Y-104595428D01*
X120352756Y-104595428D02*
X119876566Y-104357333D01*
X119876566Y-104357333D02*
X119638470Y-103881142D01*
X119638470Y-103881142D02*
X119638470Y-103643047D01*
X119638470Y-103643047D02*
X119876566Y-103166857D01*
X119876566Y-103166857D02*
X120352756Y-102928761D01*
X120352756Y-102928761D02*
X121067042Y-102928761D01*
X121067042Y-102928761D02*
X121543232Y-103166857D01*
X127733709Y-103643047D02*
X129400375Y-103643047D01*
X130114661Y-106262095D02*
X127733709Y-106262095D01*
X127733709Y-106262095D02*
X127733709Y-101262095D01*
X127733709Y-101262095D02*
X130114661Y-101262095D01*
X134400376Y-106262095D02*
X134400376Y-101262095D01*
X134400376Y-106024000D02*
X133924185Y-106262095D01*
X133924185Y-106262095D02*
X132971804Y-106262095D01*
X132971804Y-106262095D02*
X132495614Y-106024000D01*
X132495614Y-106024000D02*
X132257519Y-105785904D01*
X132257519Y-105785904D02*
X132019423Y-105309714D01*
X132019423Y-105309714D02*
X132019423Y-103881142D01*
X132019423Y-103881142D02*
X132257519Y-103404952D01*
X132257519Y-103404952D02*
X132495614Y-103166857D01*
X132495614Y-103166857D02*
X132971804Y-102928761D01*
X132971804Y-102928761D02*
X133924185Y-102928761D01*
X133924185Y-102928761D02*
X134400376Y-103166857D01*
X136305138Y-102928761D02*
X137257519Y-106262095D01*
X137257519Y-106262095D02*
X138209900Y-103881142D01*
X138209900Y-103881142D02*
X139162281Y-106262095D01*
X139162281Y-106262095D02*
X140114662Y-102928761D01*
X144162281Y-106262095D02*
X144162281Y-103643047D01*
X144162281Y-103643047D02*
X143924186Y-103166857D01*
X143924186Y-103166857D02*
X143447995Y-102928761D01*
X143447995Y-102928761D02*
X142495614Y-102928761D01*
X142495614Y-102928761D02*
X142019424Y-103166857D01*
X144162281Y-106024000D02*
X143686090Y-106262095D01*
X143686090Y-106262095D02*
X142495614Y-106262095D01*
X142495614Y-106262095D02*
X142019424Y-106024000D01*
X142019424Y-106024000D02*
X141781328Y-105547809D01*
X141781328Y-105547809D02*
X141781328Y-105071619D01*
X141781328Y-105071619D02*
X142019424Y-104595428D01*
X142019424Y-104595428D02*
X142495614Y-104357333D01*
X142495614Y-104357333D02*
X143686090Y-104357333D01*
X143686090Y-104357333D02*
X144162281Y-104119238D01*
X146543234Y-106262095D02*
X146543234Y-102928761D01*
X146543234Y-103881142D02*
X146781329Y-103404952D01*
X146781329Y-103404952D02*
X147019424Y-103166857D01*
X147019424Y-103166857D02*
X147495615Y-102928761D01*
X147495615Y-102928761D02*
X147971805Y-102928761D01*
X151781329Y-106262095D02*
X151781329Y-101262095D01*
X151781329Y-106024000D02*
X151305138Y-106262095D01*
X151305138Y-106262095D02*
X150352757Y-106262095D01*
X150352757Y-106262095D02*
X149876567Y-106024000D01*
X149876567Y-106024000D02*
X149638472Y-105785904D01*
X149638472Y-105785904D02*
X149400376Y-105309714D01*
X149400376Y-105309714D02*
X149400376Y-103881142D01*
X149400376Y-103881142D02*
X149638472Y-103404952D01*
X149638472Y-103404952D02*
X149876567Y-103166857D01*
X149876567Y-103166857D02*
X150352757Y-102928761D01*
X150352757Y-102928761D02*
X151305138Y-102928761D01*
X151305138Y-102928761D02*
X151781329Y-103166857D01*
X153924186Y-106024000D02*
X154400377Y-106262095D01*
X154400377Y-106262095D02*
X155352758Y-106262095D01*
X155352758Y-106262095D02*
X155828948Y-106024000D01*
X155828948Y-106024000D02*
X156067044Y-105547809D01*
X156067044Y-105547809D02*
X156067044Y-105309714D01*
X156067044Y-105309714D02*
X155828948Y-104833523D01*
X155828948Y-104833523D02*
X155352758Y-104595428D01*
X155352758Y-104595428D02*
X154638472Y-104595428D01*
X154638472Y-104595428D02*
X154162282Y-104357333D01*
X154162282Y-104357333D02*
X153924186Y-103881142D01*
X153924186Y-103881142D02*
X153924186Y-103643047D01*
X153924186Y-103643047D02*
X154162282Y-103166857D01*
X154162282Y-103166857D02*
X154638472Y-102928761D01*
X154638472Y-102928761D02*
X155352758Y-102928761D01*
X155352758Y-102928761D02*
X155828948Y-103166857D01*
X101305137Y-109312095D02*
X104162280Y-109312095D01*
X102733708Y-114312095D02*
X102733708Y-109312095D01*
X105828947Y-111693047D02*
X107495613Y-111693047D01*
X108209899Y-114312095D02*
X105828947Y-114312095D01*
X105828947Y-114312095D02*
X105828947Y-109312095D01*
X105828947Y-109312095D02*
X108209899Y-109312095D01*
X111781328Y-109312095D02*
X111781328Y-112883523D01*
X111781328Y-112883523D02*
X111543233Y-113597809D01*
X111543233Y-113597809D02*
X111067042Y-114074000D01*
X111067042Y-114074000D02*
X110352757Y-114312095D01*
X110352757Y-114312095D02*
X109876566Y-114312095D01*
X116305138Y-110978761D02*
X116305138Y-114312095D01*
X115114662Y-109074000D02*
X113924185Y-112645428D01*
X113924185Y-112645428D02*
X117019424Y-112645428D01*
X118924186Y-114312095D02*
X118924186Y-109312095D01*
X118924186Y-109312095D02*
X120590852Y-112883523D01*
X120590852Y-112883523D02*
X122257519Y-109312095D01*
X122257519Y-109312095D02*
X122257519Y-114312095D01*
X102019423Y-117362095D02*
X102019423Y-121409714D01*
X102019423Y-121409714D02*
X102257518Y-121885904D01*
X102257518Y-121885904D02*
X102495613Y-122124000D01*
X102495613Y-122124000D02*
X102971804Y-122362095D01*
X102971804Y-122362095D02*
X103924185Y-122362095D01*
X103924185Y-122362095D02*
X104400375Y-122124000D01*
X104400375Y-122124000D02*
X104638470Y-121885904D01*
X104638470Y-121885904D02*
X104876566Y-121409714D01*
X104876566Y-121409714D02*
X104876566Y-117362095D01*
X107257518Y-119028761D02*
X107257518Y-122362095D01*
X107257518Y-119504952D02*
X107495613Y-119266857D01*
X107495613Y-119266857D02*
X107971803Y-119028761D01*
X107971803Y-119028761D02*
X108686089Y-119028761D01*
X108686089Y-119028761D02*
X109162280Y-119266857D01*
X109162280Y-119266857D02*
X109400375Y-119743047D01*
X109400375Y-119743047D02*
X109400375Y-122362095D01*
X111781328Y-122362095D02*
X111781328Y-119028761D01*
X111781328Y-117362095D02*
X111543232Y-117600190D01*
X111543232Y-117600190D02*
X111781328Y-117838285D01*
X111781328Y-117838285D02*
X112019423Y-117600190D01*
X112019423Y-117600190D02*
X111781328Y-117362095D01*
X111781328Y-117362095D02*
X111781328Y-117838285D01*
X113447994Y-119028761D02*
X115352756Y-119028761D01*
X114162280Y-117362095D02*
X114162280Y-121647809D01*
X114162280Y-121647809D02*
X114400375Y-122124000D01*
X114400375Y-122124000D02*
X114876565Y-122362095D01*
X114876565Y-122362095D02*
X115352756Y-122362095D01*
X117019423Y-120457333D02*
X120828947Y-120457333D01*
X125828946Y-122362095D02*
X122971803Y-122362095D01*
X124400375Y-122362095D02*
X124400375Y-117362095D01*
X124400375Y-117362095D02*
X123924184Y-118076380D01*
X123924184Y-118076380D02*
X123447994Y-118552571D01*
X123447994Y-118552571D02*
X122971803Y-118790666D01*
X127971804Y-120457333D02*
X131781328Y-120457333D01*
X135114661Y-117362095D02*
X135590851Y-117362095D01*
X135590851Y-117362095D02*
X136067042Y-117600190D01*
X136067042Y-117600190D02*
X136305137Y-117838285D01*
X136305137Y-117838285D02*
X136543232Y-118314476D01*
X136543232Y-118314476D02*
X136781327Y-119266857D01*
X136781327Y-119266857D02*
X136781327Y-120457333D01*
X136781327Y-120457333D02*
X136543232Y-121409714D01*
X136543232Y-121409714D02*
X136305137Y-121885904D01*
X136305137Y-121885904D02*
X136067042Y-122124000D01*
X136067042Y-122124000D02*
X135590851Y-122362095D01*
X135590851Y-122362095D02*
X135114661Y-122362095D01*
X135114661Y-122362095D02*
X134638470Y-122124000D01*
X134638470Y-122124000D02*
X134400375Y-121885904D01*
X134400375Y-121885904D02*
X134162280Y-121409714D01*
X134162280Y-121409714D02*
X133924184Y-120457333D01*
X133924184Y-120457333D02*
X133924184Y-119266857D01*
X133924184Y-119266857D02*
X134162280Y-118314476D01*
X134162280Y-118314476D02*
X134400375Y-117838285D01*
X134400375Y-117838285D02*
X134638470Y-117600190D01*
X134638470Y-117600190D02*
X135114661Y-117362095D01*
X141067042Y-119028761D02*
X141067042Y-122362095D01*
X139876566Y-117124000D02*
X138686089Y-120695428D01*
X138686089Y-120695428D02*
X141781328Y-120695428D01*
D10*
X125789160Y-89965057D02*
X125836779Y-89917438D01*
X125836779Y-89917438D02*
X125932017Y-89869819D01*
X125932017Y-89869819D02*
X126170112Y-89869819D01*
X126170112Y-89869819D02*
X126265350Y-89917438D01*
X126265350Y-89917438D02*
X126312969Y-89965057D01*
X126312969Y-89965057D02*
X126360588Y-90060295D01*
X126360588Y-90060295D02*
X126360588Y-90155533D01*
X126360588Y-90155533D02*
X126312969Y-90298390D01*
X126312969Y-90298390D02*
X125741541Y-90869819D01*
X125741541Y-90869819D02*
X126360588Y-90869819D01*
X126741541Y-89965057D02*
X126789160Y-89917438D01*
X126789160Y-89917438D02*
X126884398Y-89869819D01*
X126884398Y-89869819D02*
X127122493Y-89869819D01*
X127122493Y-89869819D02*
X127217731Y-89917438D01*
X127217731Y-89917438D02*
X127265350Y-89965057D01*
X127265350Y-89965057D02*
X127312969Y-90060295D01*
X127312969Y-90060295D02*
X127312969Y-90155533D01*
X127312969Y-90155533D02*
X127265350Y-90298390D01*
X127265350Y-90298390D02*
X126693922Y-90869819D01*
X126693922Y-90869819D02*
X127312969Y-90869819D01*
X127932017Y-89869819D02*
X128027255Y-89869819D01*
X128027255Y-89869819D02*
X128122493Y-89917438D01*
X128122493Y-89917438D02*
X128170112Y-89965057D01*
X128170112Y-89965057D02*
X128217731Y-90060295D01*
X128217731Y-90060295D02*
X128265350Y-90250771D01*
X128265350Y-90250771D02*
X128265350Y-90488866D01*
X128265350Y-90488866D02*
X128217731Y-90679342D01*
X128217731Y-90679342D02*
X128170112Y-90774580D01*
X128170112Y-90774580D02*
X128122493Y-90822200D01*
X128122493Y-90822200D02*
X128027255Y-90869819D01*
X128027255Y-90869819D02*
X127932017Y-90869819D01*
X127932017Y-90869819D02*
X127836779Y-90822200D01*
X127836779Y-90822200D02*
X127789160Y-90774580D01*
X127789160Y-90774580D02*
X127741541Y-90679342D01*
X127741541Y-90679342D02*
X127693922Y-90488866D01*
X127693922Y-90488866D02*
X127693922Y-90250771D01*
X127693922Y-90250771D02*
X127741541Y-90060295D01*
X127741541Y-90060295D02*
X127789160Y-89965057D01*
X127789160Y-89965057D02*
X127836779Y-89917438D01*
X127836779Y-89917438D02*
X127932017Y-89869819D01*
X129408208Y-90869819D02*
X129646303Y-90869819D01*
X129646303Y-90869819D02*
X129646303Y-90679342D01*
X129646303Y-90679342D02*
X129551065Y-90631723D01*
X129551065Y-90631723D02*
X129455827Y-90536485D01*
X129455827Y-90536485D02*
X129408208Y-90393628D01*
X129408208Y-90393628D02*
X129408208Y-90155533D01*
X129408208Y-90155533D02*
X129455827Y-90012676D01*
X129455827Y-90012676D02*
X129551065Y-89917438D01*
X129551065Y-89917438D02*
X129693922Y-89869819D01*
X129693922Y-89869819D02*
X129884398Y-89869819D01*
X129884398Y-89869819D02*
X130027255Y-89917438D01*
X130027255Y-89917438D02*
X130122493Y-90012676D01*
X130122493Y-90012676D02*
X130170112Y-90155533D01*
X130170112Y-90155533D02*
X130170112Y-90393628D01*
X130170112Y-90393628D02*
X130122493Y-90536485D01*
X130122493Y-90536485D02*
X130027255Y-90631723D01*
X130027255Y-90631723D02*
X129932017Y-90679342D01*
X129932017Y-90679342D02*
X129932017Y-90869819D01*
X129932017Y-90869819D02*
X130170112Y-90869819D01*
X174465057Y-85210839D02*
X174417438Y-85163220D01*
X174417438Y-85163220D02*
X174369819Y-85067982D01*
X174369819Y-85067982D02*
X174369819Y-84829887D01*
X174369819Y-84829887D02*
X174417438Y-84734649D01*
X174417438Y-84734649D02*
X174465057Y-84687030D01*
X174465057Y-84687030D02*
X174560295Y-84639411D01*
X174560295Y-84639411D02*
X174655533Y-84639411D01*
X174655533Y-84639411D02*
X174798390Y-84687030D01*
X174798390Y-84687030D02*
X175369819Y-85258458D01*
X175369819Y-85258458D02*
X175369819Y-84639411D01*
X174465057Y-84258458D02*
X174417438Y-84210839D01*
X174417438Y-84210839D02*
X174369819Y-84115601D01*
X174369819Y-84115601D02*
X174369819Y-83877506D01*
X174369819Y-83877506D02*
X174417438Y-83782268D01*
X174417438Y-83782268D02*
X174465057Y-83734649D01*
X174465057Y-83734649D02*
X174560295Y-83687030D01*
X174560295Y-83687030D02*
X174655533Y-83687030D01*
X174655533Y-83687030D02*
X174798390Y-83734649D01*
X174798390Y-83734649D02*
X175369819Y-84306077D01*
X175369819Y-84306077D02*
X175369819Y-83687030D01*
X174369819Y-83067982D02*
X174369819Y-82972744D01*
X174369819Y-82972744D02*
X174417438Y-82877506D01*
X174417438Y-82877506D02*
X174465057Y-82829887D01*
X174465057Y-82829887D02*
X174560295Y-82782268D01*
X174560295Y-82782268D02*
X174750771Y-82734649D01*
X174750771Y-82734649D02*
X174988866Y-82734649D01*
X174988866Y-82734649D02*
X175179342Y-82782268D01*
X175179342Y-82782268D02*
X175274580Y-82829887D01*
X175274580Y-82829887D02*
X175322200Y-82877506D01*
X175322200Y-82877506D02*
X175369819Y-82972744D01*
X175369819Y-82972744D02*
X175369819Y-83067982D01*
X175369819Y-83067982D02*
X175322200Y-83163220D01*
X175322200Y-83163220D02*
X175274580Y-83210839D01*
X175274580Y-83210839D02*
X175179342Y-83258458D01*
X175179342Y-83258458D02*
X174988866Y-83306077D01*
X174988866Y-83306077D02*
X174750771Y-83306077D01*
X174750771Y-83306077D02*
X174560295Y-83258458D01*
X174560295Y-83258458D02*
X174465057Y-83210839D01*
X174465057Y-83210839D02*
X174417438Y-83163220D01*
X174417438Y-83163220D02*
X174369819Y-83067982D01*
X175369819Y-81591791D02*
X175369819Y-81353696D01*
X175369819Y-81353696D02*
X175179342Y-81353696D01*
X175179342Y-81353696D02*
X175131723Y-81448934D01*
X175131723Y-81448934D02*
X175036485Y-81544172D01*
X175036485Y-81544172D02*
X174893628Y-81591791D01*
X174893628Y-81591791D02*
X174655533Y-81591791D01*
X174655533Y-81591791D02*
X174512676Y-81544172D01*
X174512676Y-81544172D02*
X174417438Y-81448934D01*
X174417438Y-81448934D02*
X174369819Y-81306077D01*
X174369819Y-81306077D02*
X174369819Y-81115601D01*
X174369819Y-81115601D02*
X174417438Y-80972744D01*
X174417438Y-80972744D02*
X174512676Y-80877506D01*
X174512676Y-80877506D02*
X174655533Y-80829887D01*
X174655533Y-80829887D02*
X174893628Y-80829887D01*
X174893628Y-80829887D02*
X175036485Y-80877506D01*
X175036485Y-80877506D02*
X175131723Y-80972744D01*
X175131723Y-80972744D02*
X175179342Y-81067982D01*
X175179342Y-81067982D02*
X175369819Y-81067982D01*
X175369819Y-81067982D02*
X175369819Y-80829887D01*
X191333333Y-73534819D02*
X191000000Y-73058628D01*
X190761905Y-73534819D02*
X190761905Y-72534819D01*
X190761905Y-72534819D02*
X191142857Y-72534819D01*
X191142857Y-72534819D02*
X191238095Y-72582438D01*
X191238095Y-72582438D02*
X191285714Y-72630057D01*
X191285714Y-72630057D02*
X191333333Y-72725295D01*
X191333333Y-72725295D02*
X191333333Y-72868152D01*
X191333333Y-72868152D02*
X191285714Y-72963390D01*
X191285714Y-72963390D02*
X191238095Y-73011009D01*
X191238095Y-73011009D02*
X191142857Y-73058628D01*
X191142857Y-73058628D02*
X190761905Y-73058628D01*
X191666667Y-72534819D02*
X192333333Y-72534819D01*
X192333333Y-72534819D02*
X191904762Y-73534819D01*
X127333333Y-94874819D02*
X127000000Y-94398628D01*
X126761905Y-94874819D02*
X126761905Y-93874819D01*
X126761905Y-93874819D02*
X127142857Y-93874819D01*
X127142857Y-93874819D02*
X127238095Y-93922438D01*
X127238095Y-93922438D02*
X127285714Y-93970057D01*
X127285714Y-93970057D02*
X127333333Y-94065295D01*
X127333333Y-94065295D02*
X127333333Y-94208152D01*
X127333333Y-94208152D02*
X127285714Y-94303390D01*
X127285714Y-94303390D02*
X127238095Y-94351009D01*
X127238095Y-94351009D02*
X127142857Y-94398628D01*
X127142857Y-94398628D02*
X126761905Y-94398628D01*
X128285714Y-94874819D02*
X127714286Y-94874819D01*
X128000000Y-94874819D02*
X128000000Y-93874819D01*
X128000000Y-93874819D02*
X127904762Y-94017676D01*
X127904762Y-94017676D02*
X127809524Y-94112914D01*
X127809524Y-94112914D02*
X127714286Y-94160533D01*
X171034819Y-83166666D02*
X170558628Y-83499999D01*
X171034819Y-83738094D02*
X170034819Y-83738094D01*
X170034819Y-83738094D02*
X170034819Y-83357142D01*
X170034819Y-83357142D02*
X170082438Y-83261904D01*
X170082438Y-83261904D02*
X170130057Y-83214285D01*
X170130057Y-83214285D02*
X170225295Y-83166666D01*
X170225295Y-83166666D02*
X170368152Y-83166666D01*
X170368152Y-83166666D02*
X170463390Y-83214285D01*
X170463390Y-83214285D02*
X170511009Y-83261904D01*
X170511009Y-83261904D02*
X170558628Y-83357142D01*
X170558628Y-83357142D02*
X170558628Y-83738094D01*
X170034819Y-82261904D02*
X170034819Y-82738094D01*
X170034819Y-82738094D02*
X170511009Y-82785713D01*
X170511009Y-82785713D02*
X170463390Y-82738094D01*
X170463390Y-82738094D02*
X170415771Y-82642856D01*
X170415771Y-82642856D02*
X170415771Y-82404761D01*
X170415771Y-82404761D02*
X170463390Y-82309523D01*
X170463390Y-82309523D02*
X170511009Y-82261904D01*
X170511009Y-82261904D02*
X170606247Y-82214285D01*
X170606247Y-82214285D02*
X170844342Y-82214285D01*
X170844342Y-82214285D02*
X170939580Y-82261904D01*
X170939580Y-82261904D02*
X170987200Y-82309523D01*
X170987200Y-82309523D02*
X171034819Y-82404761D01*
X171034819Y-82404761D02*
X171034819Y-82642856D01*
X171034819Y-82642856D02*
X170987200Y-82738094D01*
X170987200Y-82738094D02*
X170939580Y-82785713D01*
X157350057Y-75095238D02*
X157302438Y-75190476D01*
X157302438Y-75190476D02*
X157207200Y-75285714D01*
X157207200Y-75285714D02*
X157064342Y-75428571D01*
X157064342Y-75428571D02*
X157016723Y-75523809D01*
X157016723Y-75523809D02*
X157016723Y-75619047D01*
X157254819Y-75571428D02*
X157207200Y-75666666D01*
X157207200Y-75666666D02*
X157111961Y-75761904D01*
X157111961Y-75761904D02*
X156921485Y-75809523D01*
X156921485Y-75809523D02*
X156588152Y-75809523D01*
X156588152Y-75809523D02*
X156397676Y-75761904D01*
X156397676Y-75761904D02*
X156302438Y-75666666D01*
X156302438Y-75666666D02*
X156254819Y-75571428D01*
X156254819Y-75571428D02*
X156254819Y-75380952D01*
X156254819Y-75380952D02*
X156302438Y-75285714D01*
X156302438Y-75285714D02*
X156397676Y-75190476D01*
X156397676Y-75190476D02*
X156588152Y-75142857D01*
X156588152Y-75142857D02*
X156921485Y-75142857D01*
X156921485Y-75142857D02*
X157111961Y-75190476D01*
X157111961Y-75190476D02*
X157207200Y-75285714D01*
X157207200Y-75285714D02*
X157254819Y-75380952D01*
X157254819Y-75380952D02*
X157254819Y-75571428D01*
X156350057Y-74761904D02*
X156302438Y-74714285D01*
X156302438Y-74714285D02*
X156254819Y-74619047D01*
X156254819Y-74619047D02*
X156254819Y-74380952D01*
X156254819Y-74380952D02*
X156302438Y-74285714D01*
X156302438Y-74285714D02*
X156350057Y-74238095D01*
X156350057Y-74238095D02*
X156445295Y-74190476D01*
X156445295Y-74190476D02*
X156540533Y-74190476D01*
X156540533Y-74190476D02*
X156683390Y-74238095D01*
X156683390Y-74238095D02*
X157254819Y-74809523D01*
X157254819Y-74809523D02*
X157254819Y-74190476D01*
X126766905Y-85914819D02*
X126766905Y-84914819D01*
X126766905Y-84914819D02*
X127005000Y-84914819D01*
X127005000Y-84914819D02*
X127147857Y-84962438D01*
X127147857Y-84962438D02*
X127243095Y-85057676D01*
X127243095Y-85057676D02*
X127290714Y-85152914D01*
X127290714Y-85152914D02*
X127338333Y-85343390D01*
X127338333Y-85343390D02*
X127338333Y-85486247D01*
X127338333Y-85486247D02*
X127290714Y-85676723D01*
X127290714Y-85676723D02*
X127243095Y-85771961D01*
X127243095Y-85771961D02*
X127147857Y-85867200D01*
X127147857Y-85867200D02*
X127005000Y-85914819D01*
X127005000Y-85914819D02*
X126766905Y-85914819D01*
X128290714Y-85914819D02*
X127719286Y-85914819D01*
X128005000Y-85914819D02*
X128005000Y-84914819D01*
X128005000Y-84914819D02*
X127909762Y-85057676D01*
X127909762Y-85057676D02*
X127814524Y-85152914D01*
X127814524Y-85152914D02*
X127719286Y-85200533D01*
X157350057Y-62365238D02*
X157302438Y-62460476D01*
X157302438Y-62460476D02*
X157207200Y-62555714D01*
X157207200Y-62555714D02*
X157064342Y-62698571D01*
X157064342Y-62698571D02*
X157016723Y-62793809D01*
X157016723Y-62793809D02*
X157016723Y-62889047D01*
X157254819Y-62841428D02*
X157207200Y-62936666D01*
X157207200Y-62936666D02*
X157111961Y-63031904D01*
X157111961Y-63031904D02*
X156921485Y-63079523D01*
X156921485Y-63079523D02*
X156588152Y-63079523D01*
X156588152Y-63079523D02*
X156397676Y-63031904D01*
X156397676Y-63031904D02*
X156302438Y-62936666D01*
X156302438Y-62936666D02*
X156254819Y-62841428D01*
X156254819Y-62841428D02*
X156254819Y-62650952D01*
X156254819Y-62650952D02*
X156302438Y-62555714D01*
X156302438Y-62555714D02*
X156397676Y-62460476D01*
X156397676Y-62460476D02*
X156588152Y-62412857D01*
X156588152Y-62412857D02*
X156921485Y-62412857D01*
X156921485Y-62412857D02*
X157111961Y-62460476D01*
X157111961Y-62460476D02*
X157207200Y-62555714D01*
X157207200Y-62555714D02*
X157254819Y-62650952D01*
X157254819Y-62650952D02*
X157254819Y-62841428D01*
X156254819Y-62079523D02*
X156254819Y-61460476D01*
X156254819Y-61460476D02*
X156635771Y-61793809D01*
X156635771Y-61793809D02*
X156635771Y-61650952D01*
X156635771Y-61650952D02*
X156683390Y-61555714D01*
X156683390Y-61555714D02*
X156731009Y-61508095D01*
X156731009Y-61508095D02*
X156826247Y-61460476D01*
X156826247Y-61460476D02*
X157064342Y-61460476D01*
X157064342Y-61460476D02*
X157159580Y-61508095D01*
X157159580Y-61508095D02*
X157207200Y-61555714D01*
X157207200Y-61555714D02*
X157254819Y-61650952D01*
X157254819Y-61650952D02*
X157254819Y-61936666D01*
X157254819Y-61936666D02*
X157207200Y-62031904D01*
X157207200Y-62031904D02*
X157159580Y-62079523D01*
X122249819Y-67858333D02*
X122964104Y-67858333D01*
X122964104Y-67858333D02*
X123106961Y-67905952D01*
X123106961Y-67905952D02*
X123202200Y-68001190D01*
X123202200Y-68001190D02*
X123249819Y-68144047D01*
X123249819Y-68144047D02*
X123249819Y-68239285D01*
X122345057Y-67429761D02*
X122297438Y-67382142D01*
X122297438Y-67382142D02*
X122249819Y-67286904D01*
X122249819Y-67286904D02*
X122249819Y-67048809D01*
X122249819Y-67048809D02*
X122297438Y-66953571D01*
X122297438Y-66953571D02*
X122345057Y-66905952D01*
X122345057Y-66905952D02*
X122440295Y-66858333D01*
X122440295Y-66858333D02*
X122535533Y-66858333D01*
X122535533Y-66858333D02*
X122678390Y-66905952D01*
X122678390Y-66905952D02*
X123249819Y-67477380D01*
X123249819Y-67477380D02*
X123249819Y-66858333D01*
X122249819Y-83358333D02*
X122964104Y-83358333D01*
X122964104Y-83358333D02*
X123106961Y-83405952D01*
X123106961Y-83405952D02*
X123202200Y-83501190D01*
X123202200Y-83501190D02*
X123249819Y-83644047D01*
X123249819Y-83644047D02*
X123249819Y-83739285D01*
X123249819Y-82358333D02*
X123249819Y-82929761D01*
X123249819Y-82644047D02*
X122249819Y-82644047D01*
X122249819Y-82644047D02*
X122392676Y-82739285D01*
X122392676Y-82739285D02*
X122487914Y-82834523D01*
X122487914Y-82834523D02*
X122535533Y-82929761D01*
X127373333Y-59874819D02*
X127040000Y-59398628D01*
X126801905Y-59874819D02*
X126801905Y-58874819D01*
X126801905Y-58874819D02*
X127182857Y-58874819D01*
X127182857Y-58874819D02*
X127278095Y-58922438D01*
X127278095Y-58922438D02*
X127325714Y-58970057D01*
X127325714Y-58970057D02*
X127373333Y-59065295D01*
X127373333Y-59065295D02*
X127373333Y-59208152D01*
X127373333Y-59208152D02*
X127325714Y-59303390D01*
X127325714Y-59303390D02*
X127278095Y-59351009D01*
X127278095Y-59351009D02*
X127182857Y-59398628D01*
X127182857Y-59398628D02*
X126801905Y-59398628D01*
X127754286Y-58970057D02*
X127801905Y-58922438D01*
X127801905Y-58922438D02*
X127897143Y-58874819D01*
X127897143Y-58874819D02*
X128135238Y-58874819D01*
X128135238Y-58874819D02*
X128230476Y-58922438D01*
X128230476Y-58922438D02*
X128278095Y-58970057D01*
X128278095Y-58970057D02*
X128325714Y-59065295D01*
X128325714Y-59065295D02*
X128325714Y-59160533D01*
X128325714Y-59160533D02*
X128278095Y-59303390D01*
X128278095Y-59303390D02*
X127706667Y-59874819D01*
X127706667Y-59874819D02*
X128325714Y-59874819D01*
X174874819Y-69666666D02*
X174398628Y-69999999D01*
X174874819Y-70238094D02*
X173874819Y-70238094D01*
X173874819Y-70238094D02*
X173874819Y-69857142D01*
X173874819Y-69857142D02*
X173922438Y-69761904D01*
X173922438Y-69761904D02*
X173970057Y-69714285D01*
X173970057Y-69714285D02*
X174065295Y-69666666D01*
X174065295Y-69666666D02*
X174208152Y-69666666D01*
X174208152Y-69666666D02*
X174303390Y-69714285D01*
X174303390Y-69714285D02*
X174351009Y-69761904D01*
X174351009Y-69761904D02*
X174398628Y-69857142D01*
X174398628Y-69857142D02*
X174398628Y-70238094D01*
X173874819Y-68809523D02*
X173874819Y-68999999D01*
X173874819Y-68999999D02*
X173922438Y-69095237D01*
X173922438Y-69095237D02*
X173970057Y-69142856D01*
X173970057Y-69142856D02*
X174112914Y-69238094D01*
X174112914Y-69238094D02*
X174303390Y-69285713D01*
X174303390Y-69285713D02*
X174684342Y-69285713D01*
X174684342Y-69285713D02*
X174779580Y-69238094D01*
X174779580Y-69238094D02*
X174827200Y-69190475D01*
X174827200Y-69190475D02*
X174874819Y-69095237D01*
X174874819Y-69095237D02*
X174874819Y-68904761D01*
X174874819Y-68904761D02*
X174827200Y-68809523D01*
X174827200Y-68809523D02*
X174779580Y-68761904D01*
X174779580Y-68761904D02*
X174684342Y-68714285D01*
X174684342Y-68714285D02*
X174446247Y-68714285D01*
X174446247Y-68714285D02*
X174351009Y-68761904D01*
X174351009Y-68761904D02*
X174303390Y-68809523D01*
X174303390Y-68809523D02*
X174255771Y-68904761D01*
X174255771Y-68904761D02*
X174255771Y-69095237D01*
X174255771Y-69095237D02*
X174303390Y-69190475D01*
X174303390Y-69190475D02*
X174351009Y-69238094D01*
X174351009Y-69238094D02*
X174446247Y-69285713D01*
X179491905Y-78414819D02*
X179491905Y-77414819D01*
X179491905Y-77414819D02*
X179730000Y-77414819D01*
X179730000Y-77414819D02*
X179872857Y-77462438D01*
X179872857Y-77462438D02*
X179968095Y-77557676D01*
X179968095Y-77557676D02*
X180015714Y-77652914D01*
X180015714Y-77652914D02*
X180063333Y-77843390D01*
X180063333Y-77843390D02*
X180063333Y-77986247D01*
X180063333Y-77986247D02*
X180015714Y-78176723D01*
X180015714Y-78176723D02*
X179968095Y-78271961D01*
X179968095Y-78271961D02*
X179872857Y-78367200D01*
X179872857Y-78367200D02*
X179730000Y-78414819D01*
X179730000Y-78414819D02*
X179491905Y-78414819D01*
X180396667Y-77414819D02*
X181063333Y-77414819D01*
X181063333Y-77414819D02*
X180634762Y-78414819D01*
X143373333Y-64534819D02*
X143040000Y-64058628D01*
X142801905Y-64534819D02*
X142801905Y-63534819D01*
X142801905Y-63534819D02*
X143182857Y-63534819D01*
X143182857Y-63534819D02*
X143278095Y-63582438D01*
X143278095Y-63582438D02*
X143325714Y-63630057D01*
X143325714Y-63630057D02*
X143373333Y-63725295D01*
X143373333Y-63725295D02*
X143373333Y-63868152D01*
X143373333Y-63868152D02*
X143325714Y-63963390D01*
X143325714Y-63963390D02*
X143278095Y-64011009D01*
X143278095Y-64011009D02*
X143182857Y-64058628D01*
X143182857Y-64058628D02*
X142801905Y-64058628D01*
X144230476Y-63868152D02*
X144230476Y-64534819D01*
X143992381Y-63487200D02*
X143754286Y-64201485D01*
X143754286Y-64201485D02*
X144373333Y-64201485D01*
X104666666Y-70434819D02*
X104666666Y-71149104D01*
X104666666Y-71149104D02*
X104619047Y-71291961D01*
X104619047Y-71291961D02*
X104523809Y-71387200D01*
X104523809Y-71387200D02*
X104380952Y-71434819D01*
X104380952Y-71434819D02*
X104285714Y-71434819D01*
X105047619Y-70434819D02*
X105666666Y-70434819D01*
X105666666Y-70434819D02*
X105333333Y-70815771D01*
X105333333Y-70815771D02*
X105476190Y-70815771D01*
X105476190Y-70815771D02*
X105571428Y-70863390D01*
X105571428Y-70863390D02*
X105619047Y-70911009D01*
X105619047Y-70911009D02*
X105666666Y-71006247D01*
X105666666Y-71006247D02*
X105666666Y-71244342D01*
X105666666Y-71244342D02*
X105619047Y-71339580D01*
X105619047Y-71339580D02*
X105571428Y-71387200D01*
X105571428Y-71387200D02*
X105476190Y-71434819D01*
X105476190Y-71434819D02*
X105190476Y-71434819D01*
X105190476Y-71434819D02*
X105095238Y-71387200D01*
X105095238Y-71387200D02*
X105047619Y-71339580D01*
X157350057Y-85095238D02*
X157302438Y-85190476D01*
X157302438Y-85190476D02*
X157207200Y-85285714D01*
X157207200Y-85285714D02*
X157064342Y-85428571D01*
X157064342Y-85428571D02*
X157016723Y-85523809D01*
X157016723Y-85523809D02*
X157016723Y-85619047D01*
X157254819Y-85571428D02*
X157207200Y-85666666D01*
X157207200Y-85666666D02*
X157111961Y-85761904D01*
X157111961Y-85761904D02*
X156921485Y-85809523D01*
X156921485Y-85809523D02*
X156588152Y-85809523D01*
X156588152Y-85809523D02*
X156397676Y-85761904D01*
X156397676Y-85761904D02*
X156302438Y-85666666D01*
X156302438Y-85666666D02*
X156254819Y-85571428D01*
X156254819Y-85571428D02*
X156254819Y-85380952D01*
X156254819Y-85380952D02*
X156302438Y-85285714D01*
X156302438Y-85285714D02*
X156397676Y-85190476D01*
X156397676Y-85190476D02*
X156588152Y-85142857D01*
X156588152Y-85142857D02*
X156921485Y-85142857D01*
X156921485Y-85142857D02*
X157111961Y-85190476D01*
X157111961Y-85190476D02*
X157207200Y-85285714D01*
X157207200Y-85285714D02*
X157254819Y-85380952D01*
X157254819Y-85380952D02*
X157254819Y-85571428D01*
X157254819Y-84190476D02*
X157254819Y-84761904D01*
X157254819Y-84476190D02*
X156254819Y-84476190D01*
X156254819Y-84476190D02*
X156397676Y-84571428D01*
X156397676Y-84571428D02*
X156492914Y-84666666D01*
X156492914Y-84666666D02*
X156540533Y-84761904D01*
X143333333Y-82534819D02*
X143000000Y-82058628D01*
X142761905Y-82534819D02*
X142761905Y-81534819D01*
X142761905Y-81534819D02*
X143142857Y-81534819D01*
X143142857Y-81534819D02*
X143238095Y-81582438D01*
X143238095Y-81582438D02*
X143285714Y-81630057D01*
X143285714Y-81630057D02*
X143333333Y-81725295D01*
X143333333Y-81725295D02*
X143333333Y-81868152D01*
X143333333Y-81868152D02*
X143285714Y-81963390D01*
X143285714Y-81963390D02*
X143238095Y-82011009D01*
X143238095Y-82011009D02*
X143142857Y-82058628D01*
X143142857Y-82058628D02*
X142761905Y-82058628D01*
X143666667Y-81534819D02*
X144285714Y-81534819D01*
X144285714Y-81534819D02*
X143952381Y-81915771D01*
X143952381Y-81915771D02*
X144095238Y-81915771D01*
X144095238Y-81915771D02*
X144190476Y-81963390D01*
X144190476Y-81963390D02*
X144238095Y-82011009D01*
X144238095Y-82011009D02*
X144285714Y-82106247D01*
X144285714Y-82106247D02*
X144285714Y-82344342D01*
X144285714Y-82344342D02*
X144238095Y-82439580D01*
X144238095Y-82439580D02*
X144190476Y-82487200D01*
X144190476Y-82487200D02*
X144095238Y-82534819D01*
X144095238Y-82534819D02*
X143809524Y-82534819D01*
X143809524Y-82534819D02*
X143714286Y-82487200D01*
X143714286Y-82487200D02*
X143666667Y-82439580D01*
X126766905Y-70914819D02*
X126766905Y-69914819D01*
X126766905Y-69914819D02*
X127005000Y-69914819D01*
X127005000Y-69914819D02*
X127147857Y-69962438D01*
X127147857Y-69962438D02*
X127243095Y-70057676D01*
X127243095Y-70057676D02*
X127290714Y-70152914D01*
X127290714Y-70152914D02*
X127338333Y-70343390D01*
X127338333Y-70343390D02*
X127338333Y-70486247D01*
X127338333Y-70486247D02*
X127290714Y-70676723D01*
X127290714Y-70676723D02*
X127243095Y-70771961D01*
X127243095Y-70771961D02*
X127147857Y-70867200D01*
X127147857Y-70867200D02*
X127005000Y-70914819D01*
X127005000Y-70914819D02*
X126766905Y-70914819D01*
X127719286Y-70010057D02*
X127766905Y-69962438D01*
X127766905Y-69962438D02*
X127862143Y-69914819D01*
X127862143Y-69914819D02*
X128100238Y-69914819D01*
X128100238Y-69914819D02*
X128195476Y-69962438D01*
X128195476Y-69962438D02*
X128243095Y-70010057D01*
X128243095Y-70010057D02*
X128290714Y-70105295D01*
X128290714Y-70105295D02*
X128290714Y-70200533D01*
X128290714Y-70200533D02*
X128243095Y-70343390D01*
X128243095Y-70343390D02*
X127671667Y-70914819D01*
X127671667Y-70914819D02*
X128290714Y-70914819D01*
D12*
%TO.C,R7*%
X189580000Y-74080000D02*
X193420000Y-74080000D01*
X189580000Y-75920000D02*
X193420000Y-75920000D01*
%TO.C,R1*%
X129420000Y-93420000D02*
X125580000Y-93420000D01*
X129420000Y-91580000D02*
X125580000Y-91580000D01*
%TO.C,R5*%
X171580000Y-84920000D02*
X171580000Y-81080000D01*
X173420000Y-84920000D02*
X173420000Y-81080000D01*
%TO.C,Q2*%
X162210000Y-76800000D02*
X162210000Y-73200000D01*
X157760000Y-75000000D02*
G75*
G03*
X162198478Y-76838478I2600000J0D01*
G01*
X162198478Y-73161522D02*
G75*
G03*
X157760000Y-75000000I-1838478J-1838478D01*
G01*
%TO.C,D1*%
X129065000Y-83736000D02*
X129065000Y-83580000D01*
X129065000Y-81420000D02*
X129065000Y-81264000D01*
X125832666Y-83578608D02*
G75*
G03*
X129064999Y-83735515I1672334J1078608D01*
G01*
X126463871Y-83579836D02*
G75*
G03*
X128545960Y-83579999I1041129J1079836D01*
G01*
X128545960Y-81420001D02*
G75*
G03*
X126463871Y-81420164I-1040960J-1079999D01*
G01*
X129064999Y-81264485D02*
G75*
G03*
X125832666Y-81421392I-1559999J-1235515D01*
G01*
%TO.C,Q3*%
X162210000Y-64070000D02*
X162210000Y-60470000D01*
X157760000Y-62270000D02*
G75*
G03*
X162198478Y-64108478I2600000J0D01*
G01*
X162198478Y-60431522D02*
G75*
G03*
X157760000Y-62270000I-1838478J-1838478D01*
G01*
%TO.C,J2*%
X118755000Y-66195000D02*
X113615000Y-66195000D01*
X118755000Y-66195000D02*
X118755000Y-68855000D01*
X113615000Y-66195000D02*
X113615000Y-68855000D01*
X121355000Y-67525000D02*
X121355000Y-68855000D01*
X121355000Y-68855000D02*
X120025000Y-68855000D01*
X118755000Y-68855000D02*
X113615000Y-68855000D01*
%TO.C,J1*%
X118755000Y-81695000D02*
X113615000Y-81695000D01*
X118755000Y-81695000D02*
X118755000Y-84355000D01*
X113615000Y-81695000D02*
X113615000Y-84355000D01*
X121355000Y-83025000D02*
X121355000Y-84355000D01*
X121355000Y-84355000D02*
X120025000Y-84355000D01*
X118755000Y-84355000D02*
X113615000Y-84355000D01*
%TO.C,R2*%
X129460000Y-58420000D02*
X125620000Y-58420000D01*
X129460000Y-56580000D02*
X125620000Y-56580000D01*
%TO.C,R6*%
X173420000Y-67580000D02*
X173420000Y-71420000D01*
X171580000Y-67580000D02*
X171580000Y-71420000D01*
%TO.C,D7*%
X181790000Y-76236000D02*
X181790000Y-76080000D01*
X181790000Y-73920000D02*
X181790000Y-73764000D01*
X178557666Y-76078608D02*
G75*
G03*
X181789999Y-76235515I1672334J1078608D01*
G01*
X179188871Y-76079836D02*
G75*
G03*
X181270960Y-76079999I1041129J1079836D01*
G01*
X181270960Y-73920001D02*
G75*
G03*
X179188871Y-73920164I-1040960J-1079999D01*
G01*
X181789999Y-73764485D02*
G75*
G03*
X178557666Y-73921392I-1559999J-1235515D01*
G01*
%TO.C,R4*%
X141620000Y-65080000D02*
X145460000Y-65080000D01*
X141620000Y-66920000D02*
X145460000Y-66920000D01*
%TO.C,J3*%
X103670000Y-75020000D02*
X103670000Y-77620000D01*
X103670000Y-75020000D02*
X106330000Y-75020000D01*
X103670000Y-77620000D02*
X106330000Y-77620000D01*
X105000000Y-72420000D02*
X106330000Y-72420000D01*
X106330000Y-72420000D02*
X106330000Y-73750000D01*
X106330000Y-75020000D02*
X106330000Y-77620000D01*
%TO.C,Q1*%
X162210000Y-86800000D02*
X162210000Y-83200000D01*
X157760000Y-85000000D02*
G75*
G03*
X162198478Y-86838478I2600000J0D01*
G01*
X162198478Y-83161522D02*
G75*
G03*
X157760000Y-85000000I-1838478J-1838478D01*
G01*
%TO.C,R3*%
X141580000Y-83080000D02*
X145420000Y-83080000D01*
X141580000Y-84920000D02*
X145420000Y-84920000D01*
%TO.C,REF\u002A\u002A*%
D13*
X186674693Y-141477887D02*
X169200492Y-141477887D01*
X169200492Y-137171745D01*
X186674693Y-137171745D01*
X186674693Y-141477887D01*
G36*
X186674693Y-141477887D02*
G01*
X169200492Y-141477887D01*
X169200492Y-137171745D01*
X186674693Y-137171745D01*
X186674693Y-141477887D01*
G37*
X188543856Y-111932415D02*
X188540782Y-112364620D01*
X184056832Y-116920394D01*
X184055197Y-117965725D01*
X184053563Y-119011057D01*
X182688238Y-119011057D01*
X182653057Y-119276290D01*
X182639736Y-119397184D01*
X182617281Y-119624846D01*
X182586894Y-119945696D01*
X182549776Y-120346152D01*
X182507128Y-120812636D01*
X182460150Y-121331566D01*
X182410044Y-121889362D01*
X182358011Y-122472443D01*
X182305252Y-123067229D01*
X182252967Y-123660140D01*
X182202359Y-124237595D01*
X182154628Y-124786014D01*
X182110975Y-125291816D01*
X182072600Y-125741421D01*
X182040706Y-126121248D01*
X182016494Y-126417717D01*
X182001163Y-126617248D01*
X181995916Y-126706260D01*
X181995920Y-126706684D01*
X182034179Y-126778107D01*
X182149095Y-126925581D01*
X182342231Y-127150823D01*
X182615150Y-127455550D01*
X182969418Y-127841478D01*
X183406596Y-128310324D01*
X183928250Y-128863805D01*
X184535941Y-129503636D01*
X184706751Y-129682801D01*
X187415765Y-132522359D01*
X187196753Y-132740787D01*
X186977740Y-132959214D01*
X186623391Y-132573688D01*
X186493758Y-132434360D01*
X186291262Y-132218901D01*
X186029263Y-131941425D01*
X185721121Y-131616047D01*
X185380198Y-131256883D01*
X185019853Y-130878048D01*
X184804277Y-130651787D01*
X184399559Y-130227911D01*
X184072428Y-129888388D01*
X183814542Y-129627045D01*
X183617562Y-129437708D01*
X183473144Y-129314203D01*
X183372948Y-129250356D01*
X183308632Y-129239994D01*
X183271855Y-129276942D01*
X183254275Y-129355028D01*
X183247551Y-129468076D01*
X183246647Y-129498926D01*
X183199903Y-129711455D01*
X183084729Y-129968337D01*
X182924117Y-130228949D01*
X182741056Y-130452665D01*
X182667805Y-130521772D01*
X182291965Y-130763575D01*
X181852931Y-130898866D01*
X181464773Y-130930959D01*
X181024880Y-130870427D01*
X180618615Y-130692930D01*
X180259049Y-130404614D01*
X180192705Y-130332848D01*
X179950112Y-130057249D01*
X175753317Y-130057249D01*
X175753317Y-130930959D01*
X174629976Y-130930959D01*
X174629976Y-130522781D01*
X174615880Y-130244128D01*
X174568518Y-130050714D01*
X174510957Y-129945508D01*
X174469830Y-129870233D01*
X174434614Y-129761091D01*
X174402974Y-129601902D01*
X174372578Y-129376486D01*
X174341092Y-129068664D01*
X174306183Y-128662255D01*
X174282280Y-128359918D01*
X174172620Y-126943422D01*
X171480587Y-129670483D01*
X170993841Y-130163933D01*
X170526576Y-130638345D01*
X170087332Y-131085003D01*
X169684647Y-131495193D01*
X169327057Y-131860198D01*
X169023102Y-132171305D01*
X168781320Y-132419798D01*
X168610247Y-132596962D01*
X168518516Y-132693981D01*
X168367811Y-132847584D01*
X168242105Y-132954718D01*
X168174490Y-132990418D01*
X168088127Y-132948600D01*
X167962239Y-132844113D01*
X167919566Y-132801562D01*
X167738631Y-132612706D01*
X168734795Y-131600412D01*
X168988935Y-131342534D01*
X169316635Y-131010607D01*
X169703520Y-130619159D01*
X170135214Y-130182721D01*
X170597341Y-129715823D01*
X171075527Y-129232994D01*
X171555396Y-128748765D01*
X171899632Y-128401603D01*
X172422901Y-127872559D01*
X172862504Y-127424666D01*
X173224064Y-127051863D01*
X173513203Y-126748087D01*
X173735546Y-126507275D01*
X173845744Y-126381526D01*
X174730660Y-126381526D01*
X174841452Y-127798134D01*
X174874864Y-128213370D01*
X174907184Y-128593092D01*
X174936582Y-128917452D01*
X174961226Y-129166604D01*
X174979287Y-129320700D01*
X174985099Y-129355160D01*
X175017954Y-129495578D01*
X179730332Y-129495578D01*
X179761789Y-129103693D01*
X179856762Y-128640678D01*
X180055508Y-128231099D01*
X180345497Y-127889870D01*
X180714201Y-127631909D01*
X181128033Y-127477060D01*
X181262287Y-127404425D01*
X181329500Y-127248536D01*
X181330907Y-127241659D01*
X181338971Y-127175848D01*
X181329002Y-127108458D01*
X181291269Y-127026990D01*
X181216042Y-126918943D01*
X181093590Y-126771818D01*
X180914182Y-126573114D01*
X180668089Y-126310332D01*
X180345580Y-125970972D01*
X180324742Y-125949114D01*
X179977848Y-125584849D01*
X179609052Y-125196859D01*
X179243695Y-124811856D01*
X178907119Y-124456548D01*
X178624665Y-124157646D01*
X178561671Y-124090824D01*
X178320191Y-123838860D01*
X178105674Y-123623237D01*
X177933519Y-123458787D01*
X177819127Y-123360340D01*
X177780719Y-123338703D01*
X177723444Y-123383987D01*
X177589498Y-123508215D01*
X177389430Y-123701044D01*
X177133789Y-123952132D01*
X176833121Y-124251138D01*
X176497977Y-124587718D01*
X176224059Y-124864965D01*
X174730660Y-126381526D01*
X173845744Y-126381526D01*
X173896714Y-126323364D01*
X174002331Y-126190292D01*
X174058021Y-126101996D01*
X174070412Y-126061107D01*
X174065718Y-125971870D01*
X174051458Y-125769882D01*
X174028555Y-125466768D01*
X173997931Y-125074150D01*
X173960509Y-124603653D01*
X173917212Y-124066901D01*
X173868963Y-123475516D01*
X173816684Y-122841123D01*
X173774552Y-122334111D01*
X173536165Y-119475531D01*
X174149568Y-119475531D01*
X174152210Y-119537221D01*
X174164636Y-119710962D01*
X174185846Y-119984459D01*
X174214844Y-120345415D01*
X174250630Y-120781532D01*
X174292206Y-121280514D01*
X174338575Y-121830063D01*
X174383072Y-122351825D01*
X174433477Y-122943823D01*
X174480426Y-123502654D01*
X174522844Y-124014979D01*
X174559655Y-124467456D01*
X174589784Y-124846748D01*
X174612155Y-125139514D01*
X174625693Y-125332415D01*
X174629451Y-125407331D01*
X174635311Y-125453957D01*
X174658533Y-125472459D01*
X174708067Y-125455115D01*
X174792865Y-125394207D01*
X174921879Y-125282013D01*
X175104058Y-125110815D01*
X175348356Y-124872891D01*
X175663722Y-124560521D01*
X175998338Y-124226721D01*
X177366700Y-122859419D01*
X177357110Y-122849141D01*
X178261610Y-122849141D01*
X178302832Y-122905593D01*
X178418233Y-123038518D01*
X178596247Y-123235701D01*
X178825309Y-123484924D01*
X179093851Y-123773971D01*
X179390309Y-124090625D01*
X179703115Y-124422669D01*
X180020704Y-124757887D01*
X180331510Y-125084062D01*
X180623966Y-125388978D01*
X180886506Y-125660418D01*
X181107565Y-125886165D01*
X181275576Y-126054003D01*
X181378973Y-126151714D01*
X181407169Y-126171620D01*
X181416464Y-126107368D01*
X181435760Y-125929900D01*
X181463995Y-125650327D01*
X181500107Y-125279759D01*
X181543037Y-124829303D01*
X181591722Y-124310071D01*
X181645103Y-123733172D01*
X181702116Y-123109716D01*
X181747638Y-122606996D01*
X181805868Y-121955142D01*
X181859668Y-121341067D01*
X181908131Y-120775910D01*
X181950354Y-120270812D01*
X181985432Y-119836913D01*
X182012459Y-119485351D01*
X182030532Y-119227268D01*
X182038746Y-119073802D01*
X182037806Y-119033957D01*
X181988713Y-119069449D01*
X181863692Y-119183535D01*
X181673674Y-119365174D01*
X181429587Y-119603322D01*
X181142362Y-119886937D01*
X180822928Y-120204977D01*
X180482215Y-120546399D01*
X180131152Y-120900161D01*
X179780670Y-121255219D01*
X179441697Y-121600533D01*
X179125164Y-121925058D01*
X178842000Y-122217754D01*
X178603135Y-122467576D01*
X178419498Y-122663483D01*
X178302019Y-122794432D01*
X178261610Y-122849141D01*
X177357110Y-122849141D01*
X176856446Y-122312568D01*
X176596581Y-122035039D01*
X176304916Y-121725195D01*
X175992981Y-121395124D01*
X175672311Y-121056910D01*
X175354435Y-120722640D01*
X175050886Y-120404402D01*
X174773196Y-120114280D01*
X174532897Y-119864362D01*
X174341520Y-119666733D01*
X174210597Y-119533481D01*
X174151661Y-119476691D01*
X174149568Y-119475531D01*
X173536165Y-119475531D01*
X173476585Y-118761097D01*
X170496032Y-115626531D01*
X167515480Y-112491966D01*
X167517673Y-112053846D01*
X167519867Y-111615725D01*
X168001334Y-112130038D01*
X168270791Y-112416894D01*
X168588924Y-112753912D01*
X168947147Y-113132125D01*
X169336874Y-113542564D01*
X169749522Y-113976261D01*
X170176503Y-114424246D01*
X170609234Y-114877552D01*
X171039128Y-115327211D01*
X171457601Y-115764253D01*
X171856067Y-116179710D01*
X172225941Y-116564614D01*
X172558637Y-116909996D01*
X172845571Y-117206887D01*
X173078157Y-117446321D01*
X173247810Y-117619327D01*
X173345944Y-117716937D01*
X173367452Y-117735661D01*
X173368930Y-117670523D01*
X173360795Y-117503749D01*
X173344458Y-117258029D01*
X173321333Y-116956056D01*
X173311408Y-116835425D01*
X173237480Y-115953072D01*
X173816296Y-115953072D01*
X173846179Y-116093489D01*
X173861420Y-116204540D01*
X173882835Y-116413486D01*
X173907950Y-116693707D01*
X173934287Y-117018582D01*
X173943403Y-117138821D01*
X173970290Y-117484053D01*
X173997427Y-117804656D01*
X174022099Y-118070337D01*
X174041592Y-118250805D01*
X174045989Y-118283555D01*
X174062572Y-118350793D01*
X174098468Y-118429499D01*
X174161309Y-118528496D01*
X174258728Y-118656607D01*
X174398357Y-118822655D01*
X174587829Y-119035461D01*
X174834776Y-119303850D01*
X175146831Y-119636644D01*
X175531626Y-120042666D01*
X175924163Y-120454642D01*
X176314696Y-120862335D01*
X176679248Y-121239904D01*
X177008743Y-121578170D01*
X177294107Y-121867953D01*
X177526264Y-122100075D01*
X177696140Y-122265355D01*
X177794660Y-122354614D01*
X177815670Y-122367893D01*
X177870944Y-122319745D01*
X178000145Y-122194180D01*
X178190734Y-122003796D01*
X178430168Y-121761188D01*
X178705910Y-121478953D01*
X178905320Y-121273342D01*
X179946395Y-120196806D01*
X176876659Y-120196806D01*
X176876659Y-119011057D01*
X180621131Y-119011057D01*
X180621131Y-119539395D01*
X181307617Y-118855037D01*
X181794590Y-118369574D01*
X182742998Y-118369574D01*
X182752070Y-118446154D01*
X182797987Y-118488823D01*
X182908801Y-118507414D01*
X183112561Y-118511762D01*
X183148649Y-118511794D01*
X183554300Y-118511794D01*
X183554300Y-117423262D01*
X183148649Y-117825308D01*
X182919820Y-118069741D01*
X182782957Y-118257004D01*
X182742998Y-118369574D01*
X181794590Y-118369574D01*
X181994104Y-118170679D01*
X181994104Y-117561139D01*
X181996015Y-117280711D01*
X182004763Y-117102310D01*
X182024866Y-117003170D01*
X182060843Y-116960523D01*
X182115095Y-116951598D01*
X182175434Y-116938492D01*
X182220031Y-116885949D01*
X182254280Y-116774128D01*
X182283571Y-116583186D01*
X182313296Y-116293283D01*
X182322835Y-116187101D01*
X182343488Y-115953072D01*
X173816296Y-115953072D01*
X173237480Y-115953072D01*
X172445701Y-115953072D01*
X172445701Y-115391401D01*
X172782178Y-115391401D01*
X172978978Y-115386010D01*
X173085913Y-115359993D01*
X173098996Y-115344507D01*
X173788195Y-115344507D01*
X173824468Y-115379883D01*
X173950109Y-115390802D01*
X174034905Y-115391401D01*
X174317937Y-115391401D01*
X175373402Y-115391401D01*
X182393882Y-115391401D01*
X182156428Y-115148226D01*
X181787623Y-114848144D01*
X181331183Y-114616699D01*
X180779371Y-114450718D01*
X180231081Y-114358918D01*
X179872236Y-114316086D01*
X179872236Y-114767322D01*
X177001475Y-114767322D01*
X177001475Y-114255392D01*
X176580222Y-114298085D01*
X176285891Y-114334118D01*
X175972303Y-114381882D01*
X175784521Y-114415994D01*
X175410074Y-114491210D01*
X175391738Y-114941305D01*
X175373402Y-115391401D01*
X174317937Y-115391401D01*
X174317937Y-115141770D01*
X174309685Y-114985386D01*
X174289072Y-114898465D01*
X174280765Y-114892138D01*
X174188373Y-114932167D01*
X174053392Y-115029278D01*
X173918073Y-115149009D01*
X173824672Y-115256896D01*
X173816351Y-115270925D01*
X173788195Y-115344507D01*
X173098996Y-115344507D01*
X173137796Y-115298585D01*
X173158740Y-115231693D01*
X173244224Y-115058096D01*
X173408406Y-114849408D01*
X173623039Y-114634888D01*
X173859875Y-114443797D01*
X174015442Y-114344268D01*
X174192657Y-114235328D01*
X174283502Y-114143809D01*
X174315421Y-114035896D01*
X174317873Y-113971622D01*
X174317877Y-113956020D01*
X177500737Y-113956020D01*
X177500737Y-114268059D01*
X179372973Y-114268059D01*
X179372973Y-113956020D01*
X177500737Y-113956020D01*
X174317877Y-113956020D01*
X174317937Y-113768797D01*
X174843203Y-113768797D01*
X175084873Y-113774638D01*
X175273226Y-113790206D01*
X175377931Y-113812567D01*
X175389271Y-113821621D01*
X175455689Y-113835519D01*
X175617327Y-113829826D01*
X175846415Y-113806226D01*
X176002949Y-113784434D01*
X176286782Y-113741628D01*
X176546364Y-113702983D01*
X176741437Y-113674472D01*
X176798649Y-113666374D01*
X176948127Y-113620081D01*
X177001475Y-113547541D01*
X177017694Y-113517998D01*
X177075715Y-113495459D01*
X177189579Y-113479038D01*
X177373328Y-113467847D01*
X177641005Y-113460996D01*
X178006652Y-113457598D01*
X178436855Y-113456757D01*
X178895994Y-113457234D01*
X179245282Y-113459486D01*
X179499686Y-113464744D01*
X179674170Y-113474241D01*
X179783699Y-113489208D01*
X179843238Y-113510877D01*
X179867752Y-113540478D01*
X179872236Y-113574896D01*
X179910420Y-113684141D01*
X180035493Y-113746308D01*
X180263238Y-113768481D01*
X180304213Y-113768797D01*
X180689893Y-113808583D01*
X181127941Y-113918109D01*
X181578852Y-114082626D01*
X182003123Y-114287384D01*
X182361248Y-114517634D01*
X182407632Y-114554116D01*
X182558815Y-114672813D01*
X182648344Y-114720353D01*
X182710867Y-114704984D01*
X182775045Y-114641575D01*
X182964599Y-114517368D01*
X183211295Y-114469687D01*
X183476953Y-114494484D01*
X183723393Y-114587710D01*
X183912433Y-114745317D01*
X183926123Y-114763636D01*
X184067573Y-115057841D01*
X184093891Y-115362376D01*
X184007978Y-115652682D01*
X183812737Y-115904200D01*
X183788864Y-115924969D01*
X183650245Y-116023628D01*
X183509599Y-116067076D01*
X183311873Y-116070213D01*
X183262478Y-116067429D01*
X183069020Y-116060331D01*
X182969369Y-116076596D01*
X182933295Y-116125675D01*
X182929594Y-116171499D01*
X182922032Y-116304431D01*
X182903268Y-116504349D01*
X182889782Y-116623956D01*
X182870222Y-116813932D01*
X182878358Y-116911184D01*
X182925529Y-116946730D01*
X183009557Y-116951598D01*
X183059391Y-116935525D01*
X183139783Y-116883507D01*
X183256690Y-116789842D01*
X183416070Y-116648829D01*
X183623880Y-116454767D01*
X183886078Y-116201954D01*
X184208621Y-115884690D01*
X184597466Y-115497273D01*
X185058572Y-115034003D01*
X185597895Y-114489178D01*
X185857807Y-114225904D01*
X188546929Y-111500212D01*
X188543856Y-111932415D01*
G36*
X188543856Y-111932415D02*
G01*
X188540782Y-112364620D01*
X184056832Y-116920394D01*
X184055197Y-117965725D01*
X184053563Y-119011057D01*
X182688238Y-119011057D01*
X182653057Y-119276290D01*
X182639736Y-119397184D01*
X182617281Y-119624846D01*
X182586894Y-119945696D01*
X182549776Y-120346152D01*
X182507128Y-120812636D01*
X182460150Y-121331566D01*
X182410044Y-121889362D01*
X182358011Y-122472443D01*
X182305252Y-123067229D01*
X182252967Y-123660140D01*
X182202359Y-124237595D01*
X182154628Y-124786014D01*
X182110975Y-125291816D01*
X182072600Y-125741421D01*
X182040706Y-126121248D01*
X182016494Y-126417717D01*
X182001163Y-126617248D01*
X181995916Y-126706260D01*
X181995920Y-126706684D01*
X182034179Y-126778107D01*
X182149095Y-126925581D01*
X182342231Y-127150823D01*
X182615150Y-127455550D01*
X182969418Y-127841478D01*
X183406596Y-128310324D01*
X183928250Y-128863805D01*
X184535941Y-129503636D01*
X184706751Y-129682801D01*
X187415765Y-132522359D01*
X187196753Y-132740787D01*
X186977740Y-132959214D01*
X186623391Y-132573688D01*
X186493758Y-132434360D01*
X186291262Y-132218901D01*
X186029263Y-131941425D01*
X185721121Y-131616047D01*
X185380198Y-131256883D01*
X185019853Y-130878048D01*
X184804277Y-130651787D01*
X184399559Y-130227911D01*
X184072428Y-129888388D01*
X183814542Y-129627045D01*
X183617562Y-129437708D01*
X183473144Y-129314203D01*
X183372948Y-129250356D01*
X183308632Y-129239994D01*
X183271855Y-129276942D01*
X183254275Y-129355028D01*
X183247551Y-129468076D01*
X183246647Y-129498926D01*
X183199903Y-129711455D01*
X183084729Y-129968337D01*
X182924117Y-130228949D01*
X182741056Y-130452665D01*
X182667805Y-130521772D01*
X182291965Y-130763575D01*
X181852931Y-130898866D01*
X181464773Y-130930959D01*
X181024880Y-130870427D01*
X180618615Y-130692930D01*
X180259049Y-130404614D01*
X180192705Y-130332848D01*
X179950112Y-130057249D01*
X175753317Y-130057249D01*
X175753317Y-130930959D01*
X174629976Y-130930959D01*
X174629976Y-130522781D01*
X174615880Y-130244128D01*
X174568518Y-130050714D01*
X174510957Y-129945508D01*
X174469830Y-129870233D01*
X174434614Y-129761091D01*
X174402974Y-129601902D01*
X174372578Y-129376486D01*
X174341092Y-129068664D01*
X174306183Y-128662255D01*
X174282280Y-128359918D01*
X174172620Y-126943422D01*
X171480587Y-129670483D01*
X170993841Y-130163933D01*
X170526576Y-130638345D01*
X170087332Y-131085003D01*
X169684647Y-131495193D01*
X169327057Y-131860198D01*
X169023102Y-132171305D01*
X168781320Y-132419798D01*
X168610247Y-132596962D01*
X168518516Y-132693981D01*
X168367811Y-132847584D01*
X168242105Y-132954718D01*
X168174490Y-132990418D01*
X168088127Y-132948600D01*
X167962239Y-132844113D01*
X167919566Y-132801562D01*
X167738631Y-132612706D01*
X168734795Y-131600412D01*
X168988935Y-131342534D01*
X169316635Y-131010607D01*
X169703520Y-130619159D01*
X170135214Y-130182721D01*
X170597341Y-129715823D01*
X171075527Y-129232994D01*
X171555396Y-128748765D01*
X171899632Y-128401603D01*
X172422901Y-127872559D01*
X172862504Y-127424666D01*
X173224064Y-127051863D01*
X173513203Y-126748087D01*
X173735546Y-126507275D01*
X173845744Y-126381526D01*
X174730660Y-126381526D01*
X174841452Y-127798134D01*
X174874864Y-128213370D01*
X174907184Y-128593092D01*
X174936582Y-128917452D01*
X174961226Y-129166604D01*
X174979287Y-129320700D01*
X174985099Y-129355160D01*
X175017954Y-129495578D01*
X179730332Y-129495578D01*
X179761789Y-129103693D01*
X179856762Y-128640678D01*
X180055508Y-128231099D01*
X180345497Y-127889870D01*
X180714201Y-127631909D01*
X181128033Y-127477060D01*
X181262287Y-127404425D01*
X181329500Y-127248536D01*
X181330907Y-127241659D01*
X181338971Y-127175848D01*
X181329002Y-127108458D01*
X181291269Y-127026990D01*
X181216042Y-126918943D01*
X181093590Y-126771818D01*
X180914182Y-126573114D01*
X180668089Y-126310332D01*
X180345580Y-125970972D01*
X180324742Y-125949114D01*
X179977848Y-125584849D01*
X179609052Y-125196859D01*
X179243695Y-124811856D01*
X178907119Y-124456548D01*
X178624665Y-124157646D01*
X178561671Y-124090824D01*
X178320191Y-123838860D01*
X178105674Y-123623237D01*
X177933519Y-123458787D01*
X177819127Y-123360340D01*
X177780719Y-123338703D01*
X177723444Y-123383987D01*
X177589498Y-123508215D01*
X177389430Y-123701044D01*
X177133789Y-123952132D01*
X176833121Y-124251138D01*
X176497977Y-124587718D01*
X176224059Y-124864965D01*
X174730660Y-126381526D01*
X173845744Y-126381526D01*
X173896714Y-126323364D01*
X174002331Y-126190292D01*
X174058021Y-126101996D01*
X174070412Y-126061107D01*
X174065718Y-125971870D01*
X174051458Y-125769882D01*
X174028555Y-125466768D01*
X173997931Y-125074150D01*
X173960509Y-124603653D01*
X173917212Y-124066901D01*
X173868963Y-123475516D01*
X173816684Y-122841123D01*
X173774552Y-122334111D01*
X173536165Y-119475531D01*
X174149568Y-119475531D01*
X174152210Y-119537221D01*
X174164636Y-119710962D01*
X174185846Y-119984459D01*
X174214844Y-120345415D01*
X174250630Y-120781532D01*
X174292206Y-121280514D01*
X174338575Y-121830063D01*
X174383072Y-122351825D01*
X174433477Y-122943823D01*
X174480426Y-123502654D01*
X174522844Y-124014979D01*
X174559655Y-124467456D01*
X174589784Y-124846748D01*
X174612155Y-125139514D01*
X174625693Y-125332415D01*
X174629451Y-125407331D01*
X174635311Y-125453957D01*
X174658533Y-125472459D01*
X174708067Y-125455115D01*
X174792865Y-125394207D01*
X174921879Y-125282013D01*
X175104058Y-125110815D01*
X175348356Y-124872891D01*
X175663722Y-124560521D01*
X175998338Y-124226721D01*
X177366700Y-122859419D01*
X177357110Y-122849141D01*
X178261610Y-122849141D01*
X178302832Y-122905593D01*
X178418233Y-123038518D01*
X178596247Y-123235701D01*
X178825309Y-123484924D01*
X179093851Y-123773971D01*
X179390309Y-124090625D01*
X179703115Y-124422669D01*
X180020704Y-124757887D01*
X180331510Y-125084062D01*
X180623966Y-125388978D01*
X180886506Y-125660418D01*
X181107565Y-125886165D01*
X181275576Y-126054003D01*
X181378973Y-126151714D01*
X181407169Y-126171620D01*
X181416464Y-126107368D01*
X181435760Y-125929900D01*
X181463995Y-125650327D01*
X181500107Y-125279759D01*
X181543037Y-124829303D01*
X181591722Y-124310071D01*
X181645103Y-123733172D01*
X181702116Y-123109716D01*
X181747638Y-122606996D01*
X181805868Y-121955142D01*
X181859668Y-121341067D01*
X181908131Y-120775910D01*
X181950354Y-120270812D01*
X181985432Y-119836913D01*
X182012459Y-119485351D01*
X182030532Y-119227268D01*
X182038746Y-119073802D01*
X182037806Y-119033957D01*
X181988713Y-119069449D01*
X181863692Y-119183535D01*
X181673674Y-119365174D01*
X181429587Y-119603322D01*
X181142362Y-119886937D01*
X180822928Y-120204977D01*
X180482215Y-120546399D01*
X180131152Y-120900161D01*
X179780670Y-121255219D01*
X179441697Y-121600533D01*
X179125164Y-121925058D01*
X178842000Y-122217754D01*
X178603135Y-122467576D01*
X178419498Y-122663483D01*
X178302019Y-122794432D01*
X178261610Y-122849141D01*
X177357110Y-122849141D01*
X176856446Y-122312568D01*
X176596581Y-122035039D01*
X176304916Y-121725195D01*
X175992981Y-121395124D01*
X175672311Y-121056910D01*
X175354435Y-120722640D01*
X175050886Y-120404402D01*
X174773196Y-120114280D01*
X174532897Y-119864362D01*
X174341520Y-119666733D01*
X174210597Y-119533481D01*
X174151661Y-119476691D01*
X174149568Y-119475531D01*
X173536165Y-119475531D01*
X173476585Y-118761097D01*
X170496032Y-115626531D01*
X167515480Y-112491966D01*
X167517673Y-112053846D01*
X167519867Y-111615725D01*
X168001334Y-112130038D01*
X168270791Y-112416894D01*
X168588924Y-112753912D01*
X168947147Y-113132125D01*
X169336874Y-113542564D01*
X169749522Y-113976261D01*
X170176503Y-114424246D01*
X170609234Y-114877552D01*
X171039128Y-115327211D01*
X171457601Y-115764253D01*
X171856067Y-116179710D01*
X172225941Y-116564614D01*
X172558637Y-116909996D01*
X172845571Y-117206887D01*
X173078157Y-117446321D01*
X173247810Y-117619327D01*
X173345944Y-117716937D01*
X173367452Y-117735661D01*
X173368930Y-117670523D01*
X173360795Y-117503749D01*
X173344458Y-117258029D01*
X173321333Y-116956056D01*
X173311408Y-116835425D01*
X173237480Y-115953072D01*
X173816296Y-115953072D01*
X173846179Y-116093489D01*
X173861420Y-116204540D01*
X173882835Y-116413486D01*
X173907950Y-116693707D01*
X173934287Y-117018582D01*
X173943403Y-117138821D01*
X173970290Y-117484053D01*
X173997427Y-117804656D01*
X174022099Y-118070337D01*
X174041592Y-118250805D01*
X174045989Y-118283555D01*
X174062572Y-118350793D01*
X174098468Y-118429499D01*
X174161309Y-118528496D01*
X174258728Y-118656607D01*
X174398357Y-118822655D01*
X174587829Y-119035461D01*
X174834776Y-119303850D01*
X175146831Y-119636644D01*
X175531626Y-120042666D01*
X175924163Y-120454642D01*
X176314696Y-120862335D01*
X176679248Y-121239904D01*
X177008743Y-121578170D01*
X177294107Y-121867953D01*
X177526264Y-122100075D01*
X177696140Y-122265355D01*
X177794660Y-122354614D01*
X177815670Y-122367893D01*
X177870944Y-122319745D01*
X178000145Y-122194180D01*
X178190734Y-122003796D01*
X178430168Y-121761188D01*
X178705910Y-121478953D01*
X178905320Y-121273342D01*
X179946395Y-120196806D01*
X176876659Y-120196806D01*
X176876659Y-119011057D01*
X180621131Y-119011057D01*
X180621131Y-119539395D01*
X181307617Y-118855037D01*
X181794590Y-118369574D01*
X182742998Y-118369574D01*
X182752070Y-118446154D01*
X182797987Y-118488823D01*
X182908801Y-118507414D01*
X183112561Y-118511762D01*
X183148649Y-118511794D01*
X183554300Y-118511794D01*
X183554300Y-117423262D01*
X183148649Y-117825308D01*
X182919820Y-118069741D01*
X182782957Y-118257004D01*
X182742998Y-118369574D01*
X181794590Y-118369574D01*
X181994104Y-118170679D01*
X181994104Y-117561139D01*
X181996015Y-117280711D01*
X182004763Y-117102310D01*
X182024866Y-117003170D01*
X182060843Y-116960523D01*
X182115095Y-116951598D01*
X182175434Y-116938492D01*
X182220031Y-116885949D01*
X182254280Y-116774128D01*
X182283571Y-116583186D01*
X182313296Y-116293283D01*
X182322835Y-116187101D01*
X182343488Y-115953072D01*
X173816296Y-115953072D01*
X173237480Y-115953072D01*
X172445701Y-115953072D01*
X172445701Y-115391401D01*
X172782178Y-115391401D01*
X172978978Y-115386010D01*
X173085913Y-115359993D01*
X173098996Y-115344507D01*
X173788195Y-115344507D01*
X173824468Y-115379883D01*
X173950109Y-115390802D01*
X174034905Y-115391401D01*
X174317937Y-115391401D01*
X175373402Y-115391401D01*
X182393882Y-115391401D01*
X182156428Y-115148226D01*
X181787623Y-114848144D01*
X181331183Y-114616699D01*
X180779371Y-114450718D01*
X180231081Y-114358918D01*
X179872236Y-114316086D01*
X179872236Y-114767322D01*
X177001475Y-114767322D01*
X177001475Y-114255392D01*
X176580222Y-114298085D01*
X176285891Y-114334118D01*
X175972303Y-114381882D01*
X175784521Y-114415994D01*
X175410074Y-114491210D01*
X175391738Y-114941305D01*
X175373402Y-115391401D01*
X174317937Y-115391401D01*
X174317937Y-115141770D01*
X174309685Y-114985386D01*
X174289072Y-114898465D01*
X174280765Y-114892138D01*
X174188373Y-114932167D01*
X174053392Y-115029278D01*
X173918073Y-115149009D01*
X173824672Y-115256896D01*
X173816351Y-115270925D01*
X173788195Y-115344507D01*
X173098996Y-115344507D01*
X173137796Y-115298585D01*
X173158740Y-115231693D01*
X173244224Y-115058096D01*
X173408406Y-114849408D01*
X173623039Y-114634888D01*
X173859875Y-114443797D01*
X174015442Y-114344268D01*
X174192657Y-114235328D01*
X174283502Y-114143809D01*
X174315421Y-114035896D01*
X174317873Y-113971622D01*
X174317877Y-113956020D01*
X177500737Y-113956020D01*
X177500737Y-114268059D01*
X179372973Y-114268059D01*
X179372973Y-113956020D01*
X177500737Y-113956020D01*
X174317877Y-113956020D01*
X174317937Y-113768797D01*
X174843203Y-113768797D01*
X175084873Y-113774638D01*
X175273226Y-113790206D01*
X175377931Y-113812567D01*
X175389271Y-113821621D01*
X175455689Y-113835519D01*
X175617327Y-113829826D01*
X175846415Y-113806226D01*
X176002949Y-113784434D01*
X176286782Y-113741628D01*
X176546364Y-113702983D01*
X176741437Y-113674472D01*
X176798649Y-113666374D01*
X176948127Y-113620081D01*
X177001475Y-113547541D01*
X177017694Y-113517998D01*
X177075715Y-113495459D01*
X177189579Y-113479038D01*
X177373328Y-113467847D01*
X177641005Y-113460996D01*
X178006652Y-113457598D01*
X178436855Y-113456757D01*
X178895994Y-113457234D01*
X179245282Y-113459486D01*
X179499686Y-113464744D01*
X179674170Y-113474241D01*
X179783699Y-113489208D01*
X179843238Y-113510877D01*
X179867752Y-113540478D01*
X179872236Y-113574896D01*
X179910420Y-113684141D01*
X180035493Y-113746308D01*
X180263238Y-113768481D01*
X180304213Y-113768797D01*
X180689893Y-113808583D01*
X181127941Y-113918109D01*
X181578852Y-114082626D01*
X182003123Y-114287384D01*
X182361248Y-114517634D01*
X182407632Y-114554116D01*
X182558815Y-114672813D01*
X182648344Y-114720353D01*
X182710867Y-114704984D01*
X182775045Y-114641575D01*
X182964599Y-114517368D01*
X183211295Y-114469687D01*
X183476953Y-114494484D01*
X183723393Y-114587710D01*
X183912433Y-114745317D01*
X183926123Y-114763636D01*
X184067573Y-115057841D01*
X184093891Y-115362376D01*
X184007978Y-115652682D01*
X183812737Y-115904200D01*
X183788864Y-115924969D01*
X183650245Y-116023628D01*
X183509599Y-116067076D01*
X183311873Y-116070213D01*
X183262478Y-116067429D01*
X183069020Y-116060331D01*
X182969369Y-116076596D01*
X182933295Y-116125675D01*
X182929594Y-116171499D01*
X182922032Y-116304431D01*
X182903268Y-116504349D01*
X182889782Y-116623956D01*
X182870222Y-116813932D01*
X182878358Y-116911184D01*
X182925529Y-116946730D01*
X183009557Y-116951598D01*
X183059391Y-116935525D01*
X183139783Y-116883507D01*
X183256690Y-116789842D01*
X183416070Y-116648829D01*
X183623880Y-116454767D01*
X183886078Y-116201954D01*
X184208621Y-115884690D01*
X184597466Y-115497273D01*
X185058572Y-115034003D01*
X185597895Y-114489178D01*
X185857807Y-114225904D01*
X188546929Y-111500212D01*
X188543856Y-111932415D01*
G37*
D12*
%TO.C,D2*%
X129065000Y-68736000D02*
X129065000Y-68580000D01*
X129065000Y-66420000D02*
X129065000Y-66264000D01*
X125832666Y-68578608D02*
G75*
G03*
X129064999Y-68735515I1672334J1078608D01*
G01*
X126463871Y-68579836D02*
G75*
G03*
X128545960Y-68579999I1041129J1079836D01*
G01*
X128545960Y-66420001D02*
G75*
G03*
X126463871Y-66420164I-1040960J-1079999D01*
G01*
X129064999Y-66264485D02*
G75*
G03*
X125832666Y-66421392I-1559999J-1235515D01*
G01*
%TD*%
M02*
