%TF.GenerationSoftware,KiCad,Pcbnew,7.0.7*%
%TF.CreationDate,2023-11-14T16:40:55-05:00*%
%TF.ProjectId,TEJ4M-Unit-1-04,54454a34-4d2d-4556-9e69-742d312d3034,rev?*%
%TF.SameCoordinates,Original*%
%TF.FileFunction,Legend,Top*%
%TF.FilePolarity,Positive*%
%FSLAX46Y46*%
G04 Gerber Fmt 4.6, Leading zero omitted, Abs format (unit mm)*
G04 Created by KiCad (PCBNEW 7.0.7) date 2023-11-14 16:40:55*
%MOMM*%
%LPD*%
G01*
G04 APERTURE LIST*
%ADD10C,0.200000*%
%ADD11C,0.150000*%
%ADD12C,0.500000*%
%ADD13C,0.120000*%
%ADD14C,0.010000*%
G04 APERTURE END LIST*
D10*
X67488720Y-79480314D02*
X67703006Y-79551742D01*
X67703006Y-79551742D02*
X67774435Y-79623171D01*
X67774435Y-79623171D02*
X67845863Y-79766028D01*
X67845863Y-79766028D02*
X67845863Y-79980314D01*
X67845863Y-79980314D02*
X67774435Y-80123171D01*
X67774435Y-80123171D02*
X67703006Y-80194600D01*
X67703006Y-80194600D02*
X67560149Y-80266028D01*
X67560149Y-80266028D02*
X66988720Y-80266028D01*
X66988720Y-80266028D02*
X66988720Y-78766028D01*
X66988720Y-78766028D02*
X67488720Y-78766028D01*
X67488720Y-78766028D02*
X67631578Y-78837457D01*
X67631578Y-78837457D02*
X67703006Y-78908885D01*
X67703006Y-78908885D02*
X67774435Y-79051742D01*
X67774435Y-79051742D02*
X67774435Y-79194600D01*
X67774435Y-79194600D02*
X67703006Y-79337457D01*
X67703006Y-79337457D02*
X67631578Y-79408885D01*
X67631578Y-79408885D02*
X67488720Y-79480314D01*
X67488720Y-79480314D02*
X66988720Y-79480314D01*
D11*
X51360588Y-73377438D02*
X51265350Y-73329819D01*
X51265350Y-73329819D02*
X51122493Y-73329819D01*
X51122493Y-73329819D02*
X50979636Y-73377438D01*
X50979636Y-73377438D02*
X50884398Y-73472676D01*
X50884398Y-73472676D02*
X50836779Y-73567914D01*
X50836779Y-73567914D02*
X50789160Y-73758390D01*
X50789160Y-73758390D02*
X50789160Y-73901247D01*
X50789160Y-73901247D02*
X50836779Y-74091723D01*
X50836779Y-74091723D02*
X50884398Y-74186961D01*
X50884398Y-74186961D02*
X50979636Y-74282200D01*
X50979636Y-74282200D02*
X51122493Y-74329819D01*
X51122493Y-74329819D02*
X51217731Y-74329819D01*
X51217731Y-74329819D02*
X51360588Y-74282200D01*
X51360588Y-74282200D02*
X51408207Y-74234580D01*
X51408207Y-74234580D02*
X51408207Y-73901247D01*
X51408207Y-73901247D02*
X51217731Y-73901247D01*
X51836779Y-74329819D02*
X51836779Y-73329819D01*
X51836779Y-73329819D02*
X52408207Y-74329819D01*
X52408207Y-74329819D02*
X52408207Y-73329819D01*
X52884398Y-74329819D02*
X52884398Y-73329819D01*
X52884398Y-73329819D02*
X53122493Y-73329819D01*
X53122493Y-73329819D02*
X53265350Y-73377438D01*
X53265350Y-73377438D02*
X53360588Y-73472676D01*
X53360588Y-73472676D02*
X53408207Y-73567914D01*
X53408207Y-73567914D02*
X53455826Y-73758390D01*
X53455826Y-73758390D02*
X53455826Y-73901247D01*
X53455826Y-73901247D02*
X53408207Y-74091723D01*
X53408207Y-74091723D02*
X53360588Y-74186961D01*
X53360588Y-74186961D02*
X53265350Y-74282200D01*
X53265350Y-74282200D02*
X53122493Y-74329819D01*
X53122493Y-74329819D02*
X52884398Y-74329819D01*
D10*
X66917292Y-63837457D02*
X67631578Y-63837457D01*
X66774435Y-64266028D02*
X67274435Y-62766028D01*
X67274435Y-62766028D02*
X67774435Y-64266028D01*
D11*
X75789160Y-54925057D02*
X75836779Y-54877438D01*
X75836779Y-54877438D02*
X75932017Y-54829819D01*
X75932017Y-54829819D02*
X76170112Y-54829819D01*
X76170112Y-54829819D02*
X76265350Y-54877438D01*
X76265350Y-54877438D02*
X76312969Y-54925057D01*
X76312969Y-54925057D02*
X76360588Y-55020295D01*
X76360588Y-55020295D02*
X76360588Y-55115533D01*
X76360588Y-55115533D02*
X76312969Y-55258390D01*
X76312969Y-55258390D02*
X75741541Y-55829819D01*
X75741541Y-55829819D02*
X76360588Y-55829819D01*
X76741541Y-54925057D02*
X76789160Y-54877438D01*
X76789160Y-54877438D02*
X76884398Y-54829819D01*
X76884398Y-54829819D02*
X77122493Y-54829819D01*
X77122493Y-54829819D02*
X77217731Y-54877438D01*
X77217731Y-54877438D02*
X77265350Y-54925057D01*
X77265350Y-54925057D02*
X77312969Y-55020295D01*
X77312969Y-55020295D02*
X77312969Y-55115533D01*
X77312969Y-55115533D02*
X77265350Y-55258390D01*
X77265350Y-55258390D02*
X76693922Y-55829819D01*
X76693922Y-55829819D02*
X77312969Y-55829819D01*
X77932017Y-54829819D02*
X78027255Y-54829819D01*
X78027255Y-54829819D02*
X78122493Y-54877438D01*
X78122493Y-54877438D02*
X78170112Y-54925057D01*
X78170112Y-54925057D02*
X78217731Y-55020295D01*
X78217731Y-55020295D02*
X78265350Y-55210771D01*
X78265350Y-55210771D02*
X78265350Y-55448866D01*
X78265350Y-55448866D02*
X78217731Y-55639342D01*
X78217731Y-55639342D02*
X78170112Y-55734580D01*
X78170112Y-55734580D02*
X78122493Y-55782200D01*
X78122493Y-55782200D02*
X78027255Y-55829819D01*
X78027255Y-55829819D02*
X77932017Y-55829819D01*
X77932017Y-55829819D02*
X77836779Y-55782200D01*
X77836779Y-55782200D02*
X77789160Y-55734580D01*
X77789160Y-55734580D02*
X77741541Y-55639342D01*
X77741541Y-55639342D02*
X77693922Y-55448866D01*
X77693922Y-55448866D02*
X77693922Y-55210771D01*
X77693922Y-55210771D02*
X77741541Y-55020295D01*
X77741541Y-55020295D02*
X77789160Y-54925057D01*
X77789160Y-54925057D02*
X77836779Y-54877438D01*
X77836779Y-54877438D02*
X77932017Y-54829819D01*
X79408208Y-55829819D02*
X79646303Y-55829819D01*
X79646303Y-55829819D02*
X79646303Y-55639342D01*
X79646303Y-55639342D02*
X79551065Y-55591723D01*
X79551065Y-55591723D02*
X79455827Y-55496485D01*
X79455827Y-55496485D02*
X79408208Y-55353628D01*
X79408208Y-55353628D02*
X79408208Y-55115533D01*
X79408208Y-55115533D02*
X79455827Y-54972676D01*
X79455827Y-54972676D02*
X79551065Y-54877438D01*
X79551065Y-54877438D02*
X79693922Y-54829819D01*
X79693922Y-54829819D02*
X79884398Y-54829819D01*
X79884398Y-54829819D02*
X80027255Y-54877438D01*
X80027255Y-54877438D02*
X80122493Y-54972676D01*
X80122493Y-54972676D02*
X80170112Y-55115533D01*
X80170112Y-55115533D02*
X80170112Y-55353628D01*
X80170112Y-55353628D02*
X80122493Y-55496485D01*
X80122493Y-55496485D02*
X80027255Y-55591723D01*
X80027255Y-55591723D02*
X79932017Y-55639342D01*
X79932017Y-55639342D02*
X79932017Y-55829819D01*
X79932017Y-55829819D02*
X80170112Y-55829819D01*
D12*
X52281327Y-138343523D02*
X54662280Y-138343523D01*
X51805137Y-139772095D02*
X53471804Y-134772095D01*
X53471804Y-134772095D02*
X55138470Y-139772095D01*
X56805137Y-139772095D02*
X56805137Y-134772095D01*
X56805137Y-134772095D02*
X59662280Y-139772095D01*
X59662280Y-139772095D02*
X59662280Y-134772095D01*
X62043232Y-139772095D02*
X62043232Y-134772095D01*
X62043232Y-134772095D02*
X63233708Y-134772095D01*
X63233708Y-134772095D02*
X63947994Y-135010190D01*
X63947994Y-135010190D02*
X64424184Y-135486380D01*
X64424184Y-135486380D02*
X64662279Y-135962571D01*
X64662279Y-135962571D02*
X64900375Y-136914952D01*
X64900375Y-136914952D02*
X64900375Y-137629238D01*
X64900375Y-137629238D02*
X64662279Y-138581619D01*
X64662279Y-138581619D02*
X64424184Y-139057809D01*
X64424184Y-139057809D02*
X63947994Y-139534000D01*
X63947994Y-139534000D02*
X63233708Y-139772095D01*
X63233708Y-139772095D02*
X62043232Y-139772095D01*
X73471803Y-135010190D02*
X72995613Y-134772095D01*
X72995613Y-134772095D02*
X72281327Y-134772095D01*
X72281327Y-134772095D02*
X71567041Y-135010190D01*
X71567041Y-135010190D02*
X71090851Y-135486380D01*
X71090851Y-135486380D02*
X70852756Y-135962571D01*
X70852756Y-135962571D02*
X70614660Y-136914952D01*
X70614660Y-136914952D02*
X70614660Y-137629238D01*
X70614660Y-137629238D02*
X70852756Y-138581619D01*
X70852756Y-138581619D02*
X71090851Y-139057809D01*
X71090851Y-139057809D02*
X71567041Y-139534000D01*
X71567041Y-139534000D02*
X72281327Y-139772095D01*
X72281327Y-139772095D02*
X72757518Y-139772095D01*
X72757518Y-139772095D02*
X73471803Y-139534000D01*
X73471803Y-139534000D02*
X73709899Y-139295904D01*
X73709899Y-139295904D02*
X73709899Y-137629238D01*
X73709899Y-137629238D02*
X72757518Y-137629238D01*
X77995613Y-139772095D02*
X77995613Y-137153047D01*
X77995613Y-137153047D02*
X77757518Y-136676857D01*
X77757518Y-136676857D02*
X77281327Y-136438761D01*
X77281327Y-136438761D02*
X76328946Y-136438761D01*
X76328946Y-136438761D02*
X75852756Y-136676857D01*
X77995613Y-139534000D02*
X77519422Y-139772095D01*
X77519422Y-139772095D02*
X76328946Y-139772095D01*
X76328946Y-139772095D02*
X75852756Y-139534000D01*
X75852756Y-139534000D02*
X75614660Y-139057809D01*
X75614660Y-139057809D02*
X75614660Y-138581619D01*
X75614660Y-138581619D02*
X75852756Y-138105428D01*
X75852756Y-138105428D02*
X76328946Y-137867333D01*
X76328946Y-137867333D02*
X77519422Y-137867333D01*
X77519422Y-137867333D02*
X77995613Y-137629238D01*
X79662280Y-136438761D02*
X81567042Y-136438761D01*
X80376566Y-134772095D02*
X80376566Y-139057809D01*
X80376566Y-139057809D02*
X80614661Y-139534000D01*
X80614661Y-139534000D02*
X81090851Y-139772095D01*
X81090851Y-139772095D02*
X81567042Y-139772095D01*
X85138471Y-139534000D02*
X84662280Y-139772095D01*
X84662280Y-139772095D02*
X83709899Y-139772095D01*
X83709899Y-139772095D02*
X83233709Y-139534000D01*
X83233709Y-139534000D02*
X82995613Y-139057809D01*
X82995613Y-139057809D02*
X82995613Y-137153047D01*
X82995613Y-137153047D02*
X83233709Y-136676857D01*
X83233709Y-136676857D02*
X83709899Y-136438761D01*
X83709899Y-136438761D02*
X84662280Y-136438761D01*
X84662280Y-136438761D02*
X85138471Y-136676857D01*
X85138471Y-136676857D02*
X85376566Y-137153047D01*
X85376566Y-137153047D02*
X85376566Y-137629238D01*
X85376566Y-137629238D02*
X82995613Y-138105428D01*
X52043232Y-142822095D02*
X53233708Y-147822095D01*
X53233708Y-147822095D02*
X54186089Y-144250666D01*
X54186089Y-144250666D02*
X55138470Y-147822095D01*
X55138470Y-147822095D02*
X56328947Y-142822095D01*
X58233709Y-147822095D02*
X58233709Y-144488761D01*
X58233709Y-142822095D02*
X57995613Y-143060190D01*
X57995613Y-143060190D02*
X58233709Y-143298285D01*
X58233709Y-143298285D02*
X58471804Y-143060190D01*
X58471804Y-143060190D02*
X58233709Y-142822095D01*
X58233709Y-142822095D02*
X58233709Y-143298285D01*
X59900375Y-144488761D02*
X61805137Y-144488761D01*
X60614661Y-142822095D02*
X60614661Y-147107809D01*
X60614661Y-147107809D02*
X60852756Y-147584000D01*
X60852756Y-147584000D02*
X61328946Y-147822095D01*
X61328946Y-147822095D02*
X61805137Y-147822095D01*
X63471804Y-147822095D02*
X63471804Y-142822095D01*
X65614661Y-147822095D02*
X65614661Y-145203047D01*
X65614661Y-145203047D02*
X65376566Y-144726857D01*
X65376566Y-144726857D02*
X64900375Y-144488761D01*
X64900375Y-144488761D02*
X64186089Y-144488761D01*
X64186089Y-144488761D02*
X63709899Y-144726857D01*
X63709899Y-144726857D02*
X63471804Y-144964952D01*
X71090852Y-142822095D02*
X73947995Y-142822095D01*
X72519423Y-147822095D02*
X72519423Y-142822095D01*
X75614662Y-147822095D02*
X75614662Y-144488761D01*
X75614662Y-145441142D02*
X75852757Y-144964952D01*
X75852757Y-144964952D02*
X76090852Y-144726857D01*
X76090852Y-144726857D02*
X76567043Y-144488761D01*
X76567043Y-144488761D02*
X77043233Y-144488761D01*
X80852757Y-147822095D02*
X80852757Y-145203047D01*
X80852757Y-145203047D02*
X80614662Y-144726857D01*
X80614662Y-144726857D02*
X80138471Y-144488761D01*
X80138471Y-144488761D02*
X79186090Y-144488761D01*
X79186090Y-144488761D02*
X78709900Y-144726857D01*
X80852757Y-147584000D02*
X80376566Y-147822095D01*
X80376566Y-147822095D02*
X79186090Y-147822095D01*
X79186090Y-147822095D02*
X78709900Y-147584000D01*
X78709900Y-147584000D02*
X78471804Y-147107809D01*
X78471804Y-147107809D02*
X78471804Y-146631619D01*
X78471804Y-146631619D02*
X78709900Y-146155428D01*
X78709900Y-146155428D02*
X79186090Y-145917333D01*
X79186090Y-145917333D02*
X80376566Y-145917333D01*
X80376566Y-145917333D02*
X80852757Y-145679238D01*
X83233710Y-144488761D02*
X83233710Y-147822095D01*
X83233710Y-144964952D02*
X83471805Y-144726857D01*
X83471805Y-144726857D02*
X83947995Y-144488761D01*
X83947995Y-144488761D02*
X84662281Y-144488761D01*
X84662281Y-144488761D02*
X85138472Y-144726857D01*
X85138472Y-144726857D02*
X85376567Y-145203047D01*
X85376567Y-145203047D02*
X85376567Y-147822095D01*
X87519424Y-147584000D02*
X87995615Y-147822095D01*
X87995615Y-147822095D02*
X88947996Y-147822095D01*
X88947996Y-147822095D02*
X89424186Y-147584000D01*
X89424186Y-147584000D02*
X89662282Y-147107809D01*
X89662282Y-147107809D02*
X89662282Y-146869714D01*
X89662282Y-146869714D02*
X89424186Y-146393523D01*
X89424186Y-146393523D02*
X88947996Y-146155428D01*
X88947996Y-146155428D02*
X88233710Y-146155428D01*
X88233710Y-146155428D02*
X87757520Y-145917333D01*
X87757520Y-145917333D02*
X87519424Y-145441142D01*
X87519424Y-145441142D02*
X87519424Y-145203047D01*
X87519424Y-145203047D02*
X87757520Y-144726857D01*
X87757520Y-144726857D02*
X88233710Y-144488761D01*
X88233710Y-144488761D02*
X88947996Y-144488761D01*
X88947996Y-144488761D02*
X89424186Y-144726857D01*
X91805139Y-147822095D02*
X91805139Y-144488761D01*
X91805139Y-142822095D02*
X91567043Y-143060190D01*
X91567043Y-143060190D02*
X91805139Y-143298285D01*
X91805139Y-143298285D02*
X92043234Y-143060190D01*
X92043234Y-143060190D02*
X91805139Y-142822095D01*
X91805139Y-142822095D02*
X91805139Y-143298285D01*
X93947995Y-147584000D02*
X94424186Y-147822095D01*
X94424186Y-147822095D02*
X95376567Y-147822095D01*
X95376567Y-147822095D02*
X95852757Y-147584000D01*
X95852757Y-147584000D02*
X96090853Y-147107809D01*
X96090853Y-147107809D02*
X96090853Y-146869714D01*
X96090853Y-146869714D02*
X95852757Y-146393523D01*
X95852757Y-146393523D02*
X95376567Y-146155428D01*
X95376567Y-146155428D02*
X94662281Y-146155428D01*
X94662281Y-146155428D02*
X94186091Y-145917333D01*
X94186091Y-145917333D02*
X93947995Y-145441142D01*
X93947995Y-145441142D02*
X93947995Y-145203047D01*
X93947995Y-145203047D02*
X94186091Y-144726857D01*
X94186091Y-144726857D02*
X94662281Y-144488761D01*
X94662281Y-144488761D02*
X95376567Y-144488761D01*
X95376567Y-144488761D02*
X95852757Y-144726857D01*
X97519424Y-144488761D02*
X99424186Y-144488761D01*
X98233710Y-142822095D02*
X98233710Y-147107809D01*
X98233710Y-147107809D02*
X98471805Y-147584000D01*
X98471805Y-147584000D02*
X98947995Y-147822095D01*
X98947995Y-147822095D02*
X99424186Y-147822095D01*
X101805138Y-147822095D02*
X101328948Y-147584000D01*
X101328948Y-147584000D02*
X101090853Y-147345904D01*
X101090853Y-147345904D02*
X100852757Y-146869714D01*
X100852757Y-146869714D02*
X100852757Y-145441142D01*
X100852757Y-145441142D02*
X101090853Y-144964952D01*
X101090853Y-144964952D02*
X101328948Y-144726857D01*
X101328948Y-144726857D02*
X101805138Y-144488761D01*
X101805138Y-144488761D02*
X102519424Y-144488761D01*
X102519424Y-144488761D02*
X102995615Y-144726857D01*
X102995615Y-144726857D02*
X103233710Y-144964952D01*
X103233710Y-144964952D02*
X103471805Y-145441142D01*
X103471805Y-145441142D02*
X103471805Y-146869714D01*
X103471805Y-146869714D02*
X103233710Y-147345904D01*
X103233710Y-147345904D02*
X102995615Y-147584000D01*
X102995615Y-147584000D02*
X102519424Y-147822095D01*
X102519424Y-147822095D02*
X101805138Y-147822095D01*
X105614663Y-147822095D02*
X105614663Y-144488761D01*
X105614663Y-145441142D02*
X105852758Y-144964952D01*
X105852758Y-144964952D02*
X106090853Y-144726857D01*
X106090853Y-144726857D02*
X106567044Y-144488761D01*
X106567044Y-144488761D02*
X107043234Y-144488761D01*
X108471805Y-147584000D02*
X108947996Y-147822095D01*
X108947996Y-147822095D02*
X109900377Y-147822095D01*
X109900377Y-147822095D02*
X110376567Y-147584000D01*
X110376567Y-147584000D02*
X110614663Y-147107809D01*
X110614663Y-147107809D02*
X110614663Y-146869714D01*
X110614663Y-146869714D02*
X110376567Y-146393523D01*
X110376567Y-146393523D02*
X109900377Y-146155428D01*
X109900377Y-146155428D02*
X109186091Y-146155428D01*
X109186091Y-146155428D02*
X108709901Y-145917333D01*
X108709901Y-145917333D02*
X108471805Y-145441142D01*
X108471805Y-145441142D02*
X108471805Y-145203047D01*
X108471805Y-145203047D02*
X108709901Y-144726857D01*
X108709901Y-144726857D02*
X109186091Y-144488761D01*
X109186091Y-144488761D02*
X109900377Y-144488761D01*
X109900377Y-144488761D02*
X110376567Y-144726857D01*
D11*
X52312969Y-75829819D02*
X51836779Y-75829819D01*
X51836779Y-75829819D02*
X51789160Y-76306009D01*
X51789160Y-76306009D02*
X51836779Y-76258390D01*
X51836779Y-76258390D02*
X51932017Y-76210771D01*
X51932017Y-76210771D02*
X52170112Y-76210771D01*
X52170112Y-76210771D02*
X52265350Y-76258390D01*
X52265350Y-76258390D02*
X52312969Y-76306009D01*
X52312969Y-76306009D02*
X52360588Y-76401247D01*
X52360588Y-76401247D02*
X52360588Y-76639342D01*
X52360588Y-76639342D02*
X52312969Y-76734580D01*
X52312969Y-76734580D02*
X52265350Y-76782200D01*
X52265350Y-76782200D02*
X52170112Y-76829819D01*
X52170112Y-76829819D02*
X51932017Y-76829819D01*
X51932017Y-76829819D02*
X51836779Y-76782200D01*
X51836779Y-76782200D02*
X51789160Y-76734580D01*
X52646303Y-75829819D02*
X52979636Y-76829819D01*
X52979636Y-76829819D02*
X53312969Y-75829819D01*
D10*
X128774435Y-70266028D02*
X129060149Y-70266028D01*
X129060149Y-70266028D02*
X129203006Y-70337457D01*
X129203006Y-70337457D02*
X129345863Y-70480314D01*
X129345863Y-70480314D02*
X129417292Y-70766028D01*
X129417292Y-70766028D02*
X129417292Y-71266028D01*
X129417292Y-71266028D02*
X129345863Y-71551742D01*
X129345863Y-71551742D02*
X129203006Y-71694600D01*
X129203006Y-71694600D02*
X129060149Y-71766028D01*
X129060149Y-71766028D02*
X128774435Y-71766028D01*
X128774435Y-71766028D02*
X128631578Y-71694600D01*
X128631578Y-71694600D02*
X128488720Y-71551742D01*
X128488720Y-71551742D02*
X128417292Y-71266028D01*
X128417292Y-71266028D02*
X128417292Y-70766028D01*
X128417292Y-70766028D02*
X128488720Y-70480314D01*
X128488720Y-70480314D02*
X128631578Y-70337457D01*
X128631578Y-70337457D02*
X128774435Y-70266028D01*
X130060149Y-70266028D02*
X130060149Y-71480314D01*
X130060149Y-71480314D02*
X130131578Y-71623171D01*
X130131578Y-71623171D02*
X130203007Y-71694600D01*
X130203007Y-71694600D02*
X130345864Y-71766028D01*
X130345864Y-71766028D02*
X130631578Y-71766028D01*
X130631578Y-71766028D02*
X130774435Y-71694600D01*
X130774435Y-71694600D02*
X130845864Y-71623171D01*
X130845864Y-71623171D02*
X130917292Y-71480314D01*
X130917292Y-71480314D02*
X130917292Y-70266028D01*
X131417293Y-70266028D02*
X132274436Y-70266028D01*
X131845864Y-71766028D02*
X131845864Y-70266028D01*
D11*
X91789160Y-67925057D02*
X91836779Y-67877438D01*
X91836779Y-67877438D02*
X91932017Y-67829819D01*
X91932017Y-67829819D02*
X92170112Y-67829819D01*
X92170112Y-67829819D02*
X92265350Y-67877438D01*
X92265350Y-67877438D02*
X92312969Y-67925057D01*
X92312969Y-67925057D02*
X92360588Y-68020295D01*
X92360588Y-68020295D02*
X92360588Y-68115533D01*
X92360588Y-68115533D02*
X92312969Y-68258390D01*
X92312969Y-68258390D02*
X91741541Y-68829819D01*
X91741541Y-68829819D02*
X92360588Y-68829819D01*
X92741541Y-67925057D02*
X92789160Y-67877438D01*
X92789160Y-67877438D02*
X92884398Y-67829819D01*
X92884398Y-67829819D02*
X93122493Y-67829819D01*
X93122493Y-67829819D02*
X93217731Y-67877438D01*
X93217731Y-67877438D02*
X93265350Y-67925057D01*
X93265350Y-67925057D02*
X93312969Y-68020295D01*
X93312969Y-68020295D02*
X93312969Y-68115533D01*
X93312969Y-68115533D02*
X93265350Y-68258390D01*
X93265350Y-68258390D02*
X92693922Y-68829819D01*
X92693922Y-68829819D02*
X93312969Y-68829819D01*
X93932017Y-67829819D02*
X94027255Y-67829819D01*
X94027255Y-67829819D02*
X94122493Y-67877438D01*
X94122493Y-67877438D02*
X94170112Y-67925057D01*
X94170112Y-67925057D02*
X94217731Y-68020295D01*
X94217731Y-68020295D02*
X94265350Y-68210771D01*
X94265350Y-68210771D02*
X94265350Y-68448866D01*
X94265350Y-68448866D02*
X94217731Y-68639342D01*
X94217731Y-68639342D02*
X94170112Y-68734580D01*
X94170112Y-68734580D02*
X94122493Y-68782200D01*
X94122493Y-68782200D02*
X94027255Y-68829819D01*
X94027255Y-68829819D02*
X93932017Y-68829819D01*
X93932017Y-68829819D02*
X93836779Y-68782200D01*
X93836779Y-68782200D02*
X93789160Y-68734580D01*
X93789160Y-68734580D02*
X93741541Y-68639342D01*
X93741541Y-68639342D02*
X93693922Y-68448866D01*
X93693922Y-68448866D02*
X93693922Y-68210771D01*
X93693922Y-68210771D02*
X93741541Y-68020295D01*
X93741541Y-68020295D02*
X93789160Y-67925057D01*
X93789160Y-67925057D02*
X93836779Y-67877438D01*
X93836779Y-67877438D02*
X93932017Y-67829819D01*
X95408208Y-68829819D02*
X95646303Y-68829819D01*
X95646303Y-68829819D02*
X95646303Y-68639342D01*
X95646303Y-68639342D02*
X95551065Y-68591723D01*
X95551065Y-68591723D02*
X95455827Y-68496485D01*
X95455827Y-68496485D02*
X95408208Y-68353628D01*
X95408208Y-68353628D02*
X95408208Y-68115533D01*
X95408208Y-68115533D02*
X95455827Y-67972676D01*
X95455827Y-67972676D02*
X95551065Y-67877438D01*
X95551065Y-67877438D02*
X95693922Y-67829819D01*
X95693922Y-67829819D02*
X95884398Y-67829819D01*
X95884398Y-67829819D02*
X96027255Y-67877438D01*
X96027255Y-67877438D02*
X96122493Y-67972676D01*
X96122493Y-67972676D02*
X96170112Y-68115533D01*
X96170112Y-68115533D02*
X96170112Y-68353628D01*
X96170112Y-68353628D02*
X96122493Y-68496485D01*
X96122493Y-68496485D02*
X96027255Y-68591723D01*
X96027255Y-68591723D02*
X95932017Y-68639342D01*
X95932017Y-68639342D02*
X95932017Y-68829819D01*
X95932017Y-68829819D02*
X96170112Y-68829819D01*
X91289160Y-85425057D02*
X91336779Y-85377438D01*
X91336779Y-85377438D02*
X91432017Y-85329819D01*
X91432017Y-85329819D02*
X91670112Y-85329819D01*
X91670112Y-85329819D02*
X91765350Y-85377438D01*
X91765350Y-85377438D02*
X91812969Y-85425057D01*
X91812969Y-85425057D02*
X91860588Y-85520295D01*
X91860588Y-85520295D02*
X91860588Y-85615533D01*
X91860588Y-85615533D02*
X91812969Y-85758390D01*
X91812969Y-85758390D02*
X91241541Y-86329819D01*
X91241541Y-86329819D02*
X91860588Y-86329819D01*
X92241541Y-85425057D02*
X92289160Y-85377438D01*
X92289160Y-85377438D02*
X92384398Y-85329819D01*
X92384398Y-85329819D02*
X92622493Y-85329819D01*
X92622493Y-85329819D02*
X92717731Y-85377438D01*
X92717731Y-85377438D02*
X92765350Y-85425057D01*
X92765350Y-85425057D02*
X92812969Y-85520295D01*
X92812969Y-85520295D02*
X92812969Y-85615533D01*
X92812969Y-85615533D02*
X92765350Y-85758390D01*
X92765350Y-85758390D02*
X92193922Y-86329819D01*
X92193922Y-86329819D02*
X92812969Y-86329819D01*
X93432017Y-85329819D02*
X93527255Y-85329819D01*
X93527255Y-85329819D02*
X93622493Y-85377438D01*
X93622493Y-85377438D02*
X93670112Y-85425057D01*
X93670112Y-85425057D02*
X93717731Y-85520295D01*
X93717731Y-85520295D02*
X93765350Y-85710771D01*
X93765350Y-85710771D02*
X93765350Y-85948866D01*
X93765350Y-85948866D02*
X93717731Y-86139342D01*
X93717731Y-86139342D02*
X93670112Y-86234580D01*
X93670112Y-86234580D02*
X93622493Y-86282200D01*
X93622493Y-86282200D02*
X93527255Y-86329819D01*
X93527255Y-86329819D02*
X93432017Y-86329819D01*
X93432017Y-86329819D02*
X93336779Y-86282200D01*
X93336779Y-86282200D02*
X93289160Y-86234580D01*
X93289160Y-86234580D02*
X93241541Y-86139342D01*
X93241541Y-86139342D02*
X93193922Y-85948866D01*
X93193922Y-85948866D02*
X93193922Y-85710771D01*
X93193922Y-85710771D02*
X93241541Y-85520295D01*
X93241541Y-85520295D02*
X93289160Y-85425057D01*
X93289160Y-85425057D02*
X93336779Y-85377438D01*
X93336779Y-85377438D02*
X93432017Y-85329819D01*
X94908208Y-86329819D02*
X95146303Y-86329819D01*
X95146303Y-86329819D02*
X95146303Y-86139342D01*
X95146303Y-86139342D02*
X95051065Y-86091723D01*
X95051065Y-86091723D02*
X94955827Y-85996485D01*
X94955827Y-85996485D02*
X94908208Y-85853628D01*
X94908208Y-85853628D02*
X94908208Y-85615533D01*
X94908208Y-85615533D02*
X94955827Y-85472676D01*
X94955827Y-85472676D02*
X95051065Y-85377438D01*
X95051065Y-85377438D02*
X95193922Y-85329819D01*
X95193922Y-85329819D02*
X95384398Y-85329819D01*
X95384398Y-85329819D02*
X95527255Y-85377438D01*
X95527255Y-85377438D02*
X95622493Y-85472676D01*
X95622493Y-85472676D02*
X95670112Y-85615533D01*
X95670112Y-85615533D02*
X95670112Y-85853628D01*
X95670112Y-85853628D02*
X95622493Y-85996485D01*
X95622493Y-85996485D02*
X95527255Y-86091723D01*
X95527255Y-86091723D02*
X95432017Y-86139342D01*
X95432017Y-86139342D02*
X95432017Y-86329819D01*
X95432017Y-86329819D02*
X95670112Y-86329819D01*
D10*
X128845863Y-104191028D02*
X128845863Y-102048171D01*
X130988720Y-103262457D02*
X131703006Y-103262457D01*
X130845863Y-103691028D02*
X131345863Y-102191028D01*
X131345863Y-102191028D02*
X131845863Y-103691028D01*
X133845862Y-104191028D02*
X133845862Y-102048171D01*
X136560147Y-102905314D02*
X136774433Y-102976742D01*
X136774433Y-102976742D02*
X136845862Y-103048171D01*
X136845862Y-103048171D02*
X136917290Y-103191028D01*
X136917290Y-103191028D02*
X136917290Y-103405314D01*
X136917290Y-103405314D02*
X136845862Y-103548171D01*
X136845862Y-103548171D02*
X136774433Y-103619600D01*
X136774433Y-103619600D02*
X136631576Y-103691028D01*
X136631576Y-103691028D02*
X136060147Y-103691028D01*
X136060147Y-103691028D02*
X136060147Y-102191028D01*
X136060147Y-102191028D02*
X136560147Y-102191028D01*
X136560147Y-102191028D02*
X136703005Y-102262457D01*
X136703005Y-102262457D02*
X136774433Y-102333885D01*
X136774433Y-102333885D02*
X136845862Y-102476742D01*
X136845862Y-102476742D02*
X136845862Y-102619600D01*
X136845862Y-102619600D02*
X136774433Y-102762457D01*
X136774433Y-102762457D02*
X136703005Y-102833885D01*
X136703005Y-102833885D02*
X136560147Y-102905314D01*
X136560147Y-102905314D02*
X136060147Y-102905314D01*
X139060147Y-104191028D02*
X139060147Y-102048171D01*
X141560147Y-102191028D02*
X141845861Y-102191028D01*
X141845861Y-102191028D02*
X141988718Y-102262457D01*
X141988718Y-102262457D02*
X142131575Y-102405314D01*
X142131575Y-102405314D02*
X142203004Y-102691028D01*
X142203004Y-102691028D02*
X142203004Y-103191028D01*
X142203004Y-103191028D02*
X142131575Y-103476742D01*
X142131575Y-103476742D02*
X141988718Y-103619600D01*
X141988718Y-103619600D02*
X141845861Y-103691028D01*
X141845861Y-103691028D02*
X141560147Y-103691028D01*
X141560147Y-103691028D02*
X141417290Y-103619600D01*
X141417290Y-103619600D02*
X141274432Y-103476742D01*
X141274432Y-103476742D02*
X141203004Y-103191028D01*
X141203004Y-103191028D02*
X141203004Y-102691028D01*
X141203004Y-102691028D02*
X141274432Y-102405314D01*
X141274432Y-102405314D02*
X141417290Y-102262457D01*
X141417290Y-102262457D02*
X141560147Y-102191028D01*
X142845861Y-102191028D02*
X142845861Y-103405314D01*
X142845861Y-103405314D02*
X142917290Y-103548171D01*
X142917290Y-103548171D02*
X142988719Y-103619600D01*
X142988719Y-103619600D02*
X143131576Y-103691028D01*
X143131576Y-103691028D02*
X143417290Y-103691028D01*
X143417290Y-103691028D02*
X143560147Y-103619600D01*
X143560147Y-103619600D02*
X143631576Y-103548171D01*
X143631576Y-103548171D02*
X143703004Y-103405314D01*
X143703004Y-103405314D02*
X143703004Y-102191028D01*
X144203005Y-102191028D02*
X145060148Y-102191028D01*
X144631576Y-103691028D02*
X144631576Y-102191028D01*
X147060147Y-104191028D02*
X147060147Y-102048171D01*
X128488720Y-105534600D02*
X129631578Y-105534600D01*
X130345863Y-105534600D02*
X131488721Y-105534600D01*
X132203006Y-105534600D02*
X133345864Y-105534600D01*
X134060149Y-105534600D02*
X135203007Y-105534600D01*
X135917292Y-105534600D02*
X137060150Y-105534600D01*
X137774435Y-105534600D02*
X138917293Y-105534600D01*
X139631578Y-105534600D02*
X140774436Y-105534600D01*
X141488721Y-105534600D02*
X142631579Y-105534600D01*
X143345864Y-105534600D02*
X144488722Y-105534600D01*
X145203007Y-105534600D02*
X146345865Y-105534600D01*
X128845863Y-109021028D02*
X128845863Y-106878171D01*
X131345863Y-107021028D02*
X131488720Y-107021028D01*
X131488720Y-107021028D02*
X131631577Y-107092457D01*
X131631577Y-107092457D02*
X131703006Y-107163885D01*
X131703006Y-107163885D02*
X131774434Y-107306742D01*
X131774434Y-107306742D02*
X131845863Y-107592457D01*
X131845863Y-107592457D02*
X131845863Y-107949600D01*
X131845863Y-107949600D02*
X131774434Y-108235314D01*
X131774434Y-108235314D02*
X131703006Y-108378171D01*
X131703006Y-108378171D02*
X131631577Y-108449600D01*
X131631577Y-108449600D02*
X131488720Y-108521028D01*
X131488720Y-108521028D02*
X131345863Y-108521028D01*
X131345863Y-108521028D02*
X131203006Y-108449600D01*
X131203006Y-108449600D02*
X131131577Y-108378171D01*
X131131577Y-108378171D02*
X131060148Y-108235314D01*
X131060148Y-108235314D02*
X130988720Y-107949600D01*
X130988720Y-107949600D02*
X130988720Y-107592457D01*
X130988720Y-107592457D02*
X131060148Y-107306742D01*
X131060148Y-107306742D02*
X131131577Y-107163885D01*
X131131577Y-107163885D02*
X131203006Y-107092457D01*
X131203006Y-107092457D02*
X131345863Y-107021028D01*
X133988719Y-109021028D02*
X133988719Y-106878171D01*
X136488719Y-107021028D02*
X136631576Y-107021028D01*
X136631576Y-107021028D02*
X136774433Y-107092457D01*
X136774433Y-107092457D02*
X136845862Y-107163885D01*
X136845862Y-107163885D02*
X136917290Y-107306742D01*
X136917290Y-107306742D02*
X136988719Y-107592457D01*
X136988719Y-107592457D02*
X136988719Y-107949600D01*
X136988719Y-107949600D02*
X136917290Y-108235314D01*
X136917290Y-108235314D02*
X136845862Y-108378171D01*
X136845862Y-108378171D02*
X136774433Y-108449600D01*
X136774433Y-108449600D02*
X136631576Y-108521028D01*
X136631576Y-108521028D02*
X136488719Y-108521028D01*
X136488719Y-108521028D02*
X136345862Y-108449600D01*
X136345862Y-108449600D02*
X136274433Y-108378171D01*
X136274433Y-108378171D02*
X136203004Y-108235314D01*
X136203004Y-108235314D02*
X136131576Y-107949600D01*
X136131576Y-107949600D02*
X136131576Y-107592457D01*
X136131576Y-107592457D02*
X136203004Y-107306742D01*
X136203004Y-107306742D02*
X136274433Y-107163885D01*
X136274433Y-107163885D02*
X136345862Y-107092457D01*
X136345862Y-107092457D02*
X136488719Y-107021028D01*
X139131575Y-109021028D02*
X139131575Y-106878171D01*
X142774432Y-107021028D02*
X142917289Y-107021028D01*
X142917289Y-107021028D02*
X143060146Y-107092457D01*
X143060146Y-107092457D02*
X143131575Y-107163885D01*
X143131575Y-107163885D02*
X143203003Y-107306742D01*
X143203003Y-107306742D02*
X143274432Y-107592457D01*
X143274432Y-107592457D02*
X143274432Y-107949600D01*
X143274432Y-107949600D02*
X143203003Y-108235314D01*
X143203003Y-108235314D02*
X143131575Y-108378171D01*
X143131575Y-108378171D02*
X143060146Y-108449600D01*
X143060146Y-108449600D02*
X142917289Y-108521028D01*
X142917289Y-108521028D02*
X142774432Y-108521028D01*
X142774432Y-108521028D02*
X142631575Y-108449600D01*
X142631575Y-108449600D02*
X142560146Y-108378171D01*
X142560146Y-108378171D02*
X142488717Y-108235314D01*
X142488717Y-108235314D02*
X142417289Y-107949600D01*
X142417289Y-107949600D02*
X142417289Y-107592457D01*
X142417289Y-107592457D02*
X142488717Y-107306742D01*
X142488717Y-107306742D02*
X142560146Y-107163885D01*
X142560146Y-107163885D02*
X142631575Y-107092457D01*
X142631575Y-107092457D02*
X142774432Y-107021028D01*
X146560145Y-109021028D02*
X146560145Y-106878171D01*
X128845863Y-111436028D02*
X128845863Y-109293171D01*
X131845863Y-110936028D02*
X130988720Y-110936028D01*
X131417291Y-110936028D02*
X131417291Y-109436028D01*
X131417291Y-109436028D02*
X131274434Y-109650314D01*
X131274434Y-109650314D02*
X131131577Y-109793171D01*
X131131577Y-109793171D02*
X130988720Y-109864600D01*
X133988719Y-111436028D02*
X133988719Y-109293171D01*
X136488719Y-109436028D02*
X136631576Y-109436028D01*
X136631576Y-109436028D02*
X136774433Y-109507457D01*
X136774433Y-109507457D02*
X136845862Y-109578885D01*
X136845862Y-109578885D02*
X136917290Y-109721742D01*
X136917290Y-109721742D02*
X136988719Y-110007457D01*
X136988719Y-110007457D02*
X136988719Y-110364600D01*
X136988719Y-110364600D02*
X136917290Y-110650314D01*
X136917290Y-110650314D02*
X136845862Y-110793171D01*
X136845862Y-110793171D02*
X136774433Y-110864600D01*
X136774433Y-110864600D02*
X136631576Y-110936028D01*
X136631576Y-110936028D02*
X136488719Y-110936028D01*
X136488719Y-110936028D02*
X136345862Y-110864600D01*
X136345862Y-110864600D02*
X136274433Y-110793171D01*
X136274433Y-110793171D02*
X136203004Y-110650314D01*
X136203004Y-110650314D02*
X136131576Y-110364600D01*
X136131576Y-110364600D02*
X136131576Y-110007457D01*
X136131576Y-110007457D02*
X136203004Y-109721742D01*
X136203004Y-109721742D02*
X136274433Y-109578885D01*
X136274433Y-109578885D02*
X136345862Y-109507457D01*
X136345862Y-109507457D02*
X136488719Y-109436028D01*
X139131575Y-111436028D02*
X139131575Y-109293171D01*
X142774432Y-109436028D02*
X142917289Y-109436028D01*
X142917289Y-109436028D02*
X143060146Y-109507457D01*
X143060146Y-109507457D02*
X143131575Y-109578885D01*
X143131575Y-109578885D02*
X143203003Y-109721742D01*
X143203003Y-109721742D02*
X143274432Y-110007457D01*
X143274432Y-110007457D02*
X143274432Y-110364600D01*
X143274432Y-110364600D02*
X143203003Y-110650314D01*
X143203003Y-110650314D02*
X143131575Y-110793171D01*
X143131575Y-110793171D02*
X143060146Y-110864600D01*
X143060146Y-110864600D02*
X142917289Y-110936028D01*
X142917289Y-110936028D02*
X142774432Y-110936028D01*
X142774432Y-110936028D02*
X142631575Y-110864600D01*
X142631575Y-110864600D02*
X142560146Y-110793171D01*
X142560146Y-110793171D02*
X142488717Y-110650314D01*
X142488717Y-110650314D02*
X142417289Y-110364600D01*
X142417289Y-110364600D02*
X142417289Y-110007457D01*
X142417289Y-110007457D02*
X142488717Y-109721742D01*
X142488717Y-109721742D02*
X142560146Y-109578885D01*
X142560146Y-109578885D02*
X142631575Y-109507457D01*
X142631575Y-109507457D02*
X142774432Y-109436028D01*
X146560145Y-111436028D02*
X146560145Y-109293171D01*
X128845863Y-113851028D02*
X128845863Y-111708171D01*
X131345863Y-111851028D02*
X131488720Y-111851028D01*
X131488720Y-111851028D02*
X131631577Y-111922457D01*
X131631577Y-111922457D02*
X131703006Y-111993885D01*
X131703006Y-111993885D02*
X131774434Y-112136742D01*
X131774434Y-112136742D02*
X131845863Y-112422457D01*
X131845863Y-112422457D02*
X131845863Y-112779600D01*
X131845863Y-112779600D02*
X131774434Y-113065314D01*
X131774434Y-113065314D02*
X131703006Y-113208171D01*
X131703006Y-113208171D02*
X131631577Y-113279600D01*
X131631577Y-113279600D02*
X131488720Y-113351028D01*
X131488720Y-113351028D02*
X131345863Y-113351028D01*
X131345863Y-113351028D02*
X131203006Y-113279600D01*
X131203006Y-113279600D02*
X131131577Y-113208171D01*
X131131577Y-113208171D02*
X131060148Y-113065314D01*
X131060148Y-113065314D02*
X130988720Y-112779600D01*
X130988720Y-112779600D02*
X130988720Y-112422457D01*
X130988720Y-112422457D02*
X131060148Y-112136742D01*
X131060148Y-112136742D02*
X131131577Y-111993885D01*
X131131577Y-111993885D02*
X131203006Y-111922457D01*
X131203006Y-111922457D02*
X131345863Y-111851028D01*
X133988719Y-113851028D02*
X133988719Y-111708171D01*
X136988719Y-113351028D02*
X136131576Y-113351028D01*
X136560147Y-113351028D02*
X136560147Y-111851028D01*
X136560147Y-111851028D02*
X136417290Y-112065314D01*
X136417290Y-112065314D02*
X136274433Y-112208171D01*
X136274433Y-112208171D02*
X136131576Y-112279600D01*
X139131575Y-113851028D02*
X139131575Y-111708171D01*
X142774432Y-111851028D02*
X142917289Y-111851028D01*
X142917289Y-111851028D02*
X143060146Y-111922457D01*
X143060146Y-111922457D02*
X143131575Y-111993885D01*
X143131575Y-111993885D02*
X143203003Y-112136742D01*
X143203003Y-112136742D02*
X143274432Y-112422457D01*
X143274432Y-112422457D02*
X143274432Y-112779600D01*
X143274432Y-112779600D02*
X143203003Y-113065314D01*
X143203003Y-113065314D02*
X143131575Y-113208171D01*
X143131575Y-113208171D02*
X143060146Y-113279600D01*
X143060146Y-113279600D02*
X142917289Y-113351028D01*
X142917289Y-113351028D02*
X142774432Y-113351028D01*
X142774432Y-113351028D02*
X142631575Y-113279600D01*
X142631575Y-113279600D02*
X142560146Y-113208171D01*
X142560146Y-113208171D02*
X142488717Y-113065314D01*
X142488717Y-113065314D02*
X142417289Y-112779600D01*
X142417289Y-112779600D02*
X142417289Y-112422457D01*
X142417289Y-112422457D02*
X142488717Y-112136742D01*
X142488717Y-112136742D02*
X142560146Y-111993885D01*
X142560146Y-111993885D02*
X142631575Y-111922457D01*
X142631575Y-111922457D02*
X142774432Y-111851028D01*
X146560145Y-113851028D02*
X146560145Y-111708171D01*
X128845863Y-116266028D02*
X128845863Y-114123171D01*
X131845863Y-115766028D02*
X130988720Y-115766028D01*
X131417291Y-115766028D02*
X131417291Y-114266028D01*
X131417291Y-114266028D02*
X131274434Y-114480314D01*
X131274434Y-114480314D02*
X131131577Y-114623171D01*
X131131577Y-114623171D02*
X130988720Y-114694600D01*
X133988719Y-116266028D02*
X133988719Y-114123171D01*
X136988719Y-115766028D02*
X136131576Y-115766028D01*
X136560147Y-115766028D02*
X136560147Y-114266028D01*
X136560147Y-114266028D02*
X136417290Y-114480314D01*
X136417290Y-114480314D02*
X136274433Y-114623171D01*
X136274433Y-114623171D02*
X136131576Y-114694600D01*
X139131575Y-116266028D02*
X139131575Y-114123171D01*
X143274432Y-115766028D02*
X142417289Y-115766028D01*
X142845860Y-115766028D02*
X142845860Y-114266028D01*
X142845860Y-114266028D02*
X142703003Y-114480314D01*
X142703003Y-114480314D02*
X142560146Y-114623171D01*
X142560146Y-114623171D02*
X142417289Y-114694600D01*
X146560145Y-116266028D02*
X146560145Y-114123171D01*
D11*
X139289160Y-76425057D02*
X139336779Y-76377438D01*
X139336779Y-76377438D02*
X139432017Y-76329819D01*
X139432017Y-76329819D02*
X139670112Y-76329819D01*
X139670112Y-76329819D02*
X139765350Y-76377438D01*
X139765350Y-76377438D02*
X139812969Y-76425057D01*
X139812969Y-76425057D02*
X139860588Y-76520295D01*
X139860588Y-76520295D02*
X139860588Y-76615533D01*
X139860588Y-76615533D02*
X139812969Y-76758390D01*
X139812969Y-76758390D02*
X139241541Y-77329819D01*
X139241541Y-77329819D02*
X139860588Y-77329819D01*
X140241541Y-76425057D02*
X140289160Y-76377438D01*
X140289160Y-76377438D02*
X140384398Y-76329819D01*
X140384398Y-76329819D02*
X140622493Y-76329819D01*
X140622493Y-76329819D02*
X140717731Y-76377438D01*
X140717731Y-76377438D02*
X140765350Y-76425057D01*
X140765350Y-76425057D02*
X140812969Y-76520295D01*
X140812969Y-76520295D02*
X140812969Y-76615533D01*
X140812969Y-76615533D02*
X140765350Y-76758390D01*
X140765350Y-76758390D02*
X140193922Y-77329819D01*
X140193922Y-77329819D02*
X140812969Y-77329819D01*
X141432017Y-76329819D02*
X141527255Y-76329819D01*
X141527255Y-76329819D02*
X141622493Y-76377438D01*
X141622493Y-76377438D02*
X141670112Y-76425057D01*
X141670112Y-76425057D02*
X141717731Y-76520295D01*
X141717731Y-76520295D02*
X141765350Y-76710771D01*
X141765350Y-76710771D02*
X141765350Y-76948866D01*
X141765350Y-76948866D02*
X141717731Y-77139342D01*
X141717731Y-77139342D02*
X141670112Y-77234580D01*
X141670112Y-77234580D02*
X141622493Y-77282200D01*
X141622493Y-77282200D02*
X141527255Y-77329819D01*
X141527255Y-77329819D02*
X141432017Y-77329819D01*
X141432017Y-77329819D02*
X141336779Y-77282200D01*
X141336779Y-77282200D02*
X141289160Y-77234580D01*
X141289160Y-77234580D02*
X141241541Y-77139342D01*
X141241541Y-77139342D02*
X141193922Y-76948866D01*
X141193922Y-76948866D02*
X141193922Y-76710771D01*
X141193922Y-76710771D02*
X141241541Y-76520295D01*
X141241541Y-76520295D02*
X141289160Y-76425057D01*
X141289160Y-76425057D02*
X141336779Y-76377438D01*
X141336779Y-76377438D02*
X141432017Y-76329819D01*
X142908208Y-77329819D02*
X143146303Y-77329819D01*
X143146303Y-77329819D02*
X143146303Y-77139342D01*
X143146303Y-77139342D02*
X143051065Y-77091723D01*
X143051065Y-77091723D02*
X142955827Y-76996485D01*
X142955827Y-76996485D02*
X142908208Y-76853628D01*
X142908208Y-76853628D02*
X142908208Y-76615533D01*
X142908208Y-76615533D02*
X142955827Y-76472676D01*
X142955827Y-76472676D02*
X143051065Y-76377438D01*
X143051065Y-76377438D02*
X143193922Y-76329819D01*
X143193922Y-76329819D02*
X143384398Y-76329819D01*
X143384398Y-76329819D02*
X143527255Y-76377438D01*
X143527255Y-76377438D02*
X143622493Y-76472676D01*
X143622493Y-76472676D02*
X143670112Y-76615533D01*
X143670112Y-76615533D02*
X143670112Y-76853628D01*
X143670112Y-76853628D02*
X143622493Y-76996485D01*
X143622493Y-76996485D02*
X143527255Y-77091723D01*
X143527255Y-77091723D02*
X143432017Y-77139342D01*
X143432017Y-77139342D02*
X143432017Y-77329819D01*
X143432017Y-77329819D02*
X143670112Y-77329819D01*
X120203152Y-71194649D02*
X120869819Y-71194649D01*
X119822200Y-71432744D02*
X120536485Y-71670839D01*
X120536485Y-71670839D02*
X120536485Y-71051792D01*
X120774580Y-70670839D02*
X120822200Y-70623220D01*
X120822200Y-70623220D02*
X120869819Y-70670839D01*
X120869819Y-70670839D02*
X120822200Y-70718458D01*
X120822200Y-70718458D02*
X120774580Y-70670839D01*
X120774580Y-70670839D02*
X120869819Y-70670839D01*
X119869819Y-70289887D02*
X119869819Y-69623221D01*
X119869819Y-69623221D02*
X120869819Y-70051792D01*
X120869819Y-68480363D02*
X119869819Y-68480363D01*
X120869819Y-67908935D02*
X120298390Y-68337506D01*
X119869819Y-67908935D02*
X120441247Y-68480363D01*
X120869819Y-67527982D02*
X120869819Y-67289887D01*
X120869819Y-67289887D02*
X120679342Y-67289887D01*
X120679342Y-67289887D02*
X120631723Y-67385125D01*
X120631723Y-67385125D02*
X120536485Y-67480363D01*
X120536485Y-67480363D02*
X120393628Y-67527982D01*
X120393628Y-67527982D02*
X120155533Y-67527982D01*
X120155533Y-67527982D02*
X120012676Y-67480363D01*
X120012676Y-67480363D02*
X119917438Y-67385125D01*
X119917438Y-67385125D02*
X119869819Y-67242268D01*
X119869819Y-67242268D02*
X119869819Y-67051792D01*
X119869819Y-67051792D02*
X119917438Y-66908935D01*
X119917438Y-66908935D02*
X120012676Y-66813697D01*
X120012676Y-66813697D02*
X120155533Y-66766078D01*
X120155533Y-66766078D02*
X120393628Y-66766078D01*
X120393628Y-66766078D02*
X120536485Y-66813697D01*
X120536485Y-66813697D02*
X120631723Y-66908935D01*
X120631723Y-66908935D02*
X120679342Y-67004173D01*
X120679342Y-67004173D02*
X120869819Y-67004173D01*
X120869819Y-67004173D02*
X120869819Y-66766078D01*
D12*
X54876566Y-105745904D02*
X54638470Y-105984000D01*
X54638470Y-105984000D02*
X53924185Y-106222095D01*
X53924185Y-106222095D02*
X53447994Y-106222095D01*
X53447994Y-106222095D02*
X52733708Y-105984000D01*
X52733708Y-105984000D02*
X52257518Y-105507809D01*
X52257518Y-105507809D02*
X52019423Y-105031619D01*
X52019423Y-105031619D02*
X51781327Y-104079238D01*
X51781327Y-104079238D02*
X51781327Y-103364952D01*
X51781327Y-103364952D02*
X52019423Y-102412571D01*
X52019423Y-102412571D02*
X52257518Y-101936380D01*
X52257518Y-101936380D02*
X52733708Y-101460190D01*
X52733708Y-101460190D02*
X53447994Y-101222095D01*
X53447994Y-101222095D02*
X53924185Y-101222095D01*
X53924185Y-101222095D02*
X54638470Y-101460190D01*
X54638470Y-101460190D02*
X54876566Y-101698285D01*
X59162280Y-102888761D02*
X59162280Y-106222095D01*
X57019423Y-102888761D02*
X57019423Y-105507809D01*
X57019423Y-105507809D02*
X57257518Y-105984000D01*
X57257518Y-105984000D02*
X57733708Y-106222095D01*
X57733708Y-106222095D02*
X58447994Y-106222095D01*
X58447994Y-106222095D02*
X58924185Y-105984000D01*
X58924185Y-105984000D02*
X59162280Y-105745904D01*
X61543233Y-106222095D02*
X61543233Y-102888761D01*
X61543233Y-103841142D02*
X61781328Y-103364952D01*
X61781328Y-103364952D02*
X62019423Y-103126857D01*
X62019423Y-103126857D02*
X62495614Y-102888761D01*
X62495614Y-102888761D02*
X62971804Y-102888761D01*
X63924185Y-102888761D02*
X65828947Y-102888761D01*
X64638471Y-101222095D02*
X64638471Y-105507809D01*
X64638471Y-105507809D02*
X64876566Y-105984000D01*
X64876566Y-105984000D02*
X65352756Y-106222095D01*
X65352756Y-106222095D02*
X65828947Y-106222095D01*
X67495614Y-106222095D02*
X67495614Y-102888761D01*
X67495614Y-101222095D02*
X67257518Y-101460190D01*
X67257518Y-101460190D02*
X67495614Y-101698285D01*
X67495614Y-101698285D02*
X67733709Y-101460190D01*
X67733709Y-101460190D02*
X67495614Y-101222095D01*
X67495614Y-101222095D02*
X67495614Y-101698285D01*
X69638470Y-105984000D02*
X70114661Y-106222095D01*
X70114661Y-106222095D02*
X71067042Y-106222095D01*
X71067042Y-106222095D02*
X71543232Y-105984000D01*
X71543232Y-105984000D02*
X71781328Y-105507809D01*
X71781328Y-105507809D02*
X71781328Y-105269714D01*
X71781328Y-105269714D02*
X71543232Y-104793523D01*
X71543232Y-104793523D02*
X71067042Y-104555428D01*
X71067042Y-104555428D02*
X70352756Y-104555428D01*
X70352756Y-104555428D02*
X69876566Y-104317333D01*
X69876566Y-104317333D02*
X69638470Y-103841142D01*
X69638470Y-103841142D02*
X69638470Y-103603047D01*
X69638470Y-103603047D02*
X69876566Y-103126857D01*
X69876566Y-103126857D02*
X70352756Y-102888761D01*
X70352756Y-102888761D02*
X71067042Y-102888761D01*
X71067042Y-102888761D02*
X71543232Y-103126857D01*
X77733709Y-103603047D02*
X79400375Y-103603047D01*
X80114661Y-106222095D02*
X77733709Y-106222095D01*
X77733709Y-106222095D02*
X77733709Y-101222095D01*
X77733709Y-101222095D02*
X80114661Y-101222095D01*
X84400376Y-106222095D02*
X84400376Y-101222095D01*
X84400376Y-105984000D02*
X83924185Y-106222095D01*
X83924185Y-106222095D02*
X82971804Y-106222095D01*
X82971804Y-106222095D02*
X82495614Y-105984000D01*
X82495614Y-105984000D02*
X82257519Y-105745904D01*
X82257519Y-105745904D02*
X82019423Y-105269714D01*
X82019423Y-105269714D02*
X82019423Y-103841142D01*
X82019423Y-103841142D02*
X82257519Y-103364952D01*
X82257519Y-103364952D02*
X82495614Y-103126857D01*
X82495614Y-103126857D02*
X82971804Y-102888761D01*
X82971804Y-102888761D02*
X83924185Y-102888761D01*
X83924185Y-102888761D02*
X84400376Y-103126857D01*
X86305138Y-102888761D02*
X87257519Y-106222095D01*
X87257519Y-106222095D02*
X88209900Y-103841142D01*
X88209900Y-103841142D02*
X89162281Y-106222095D01*
X89162281Y-106222095D02*
X90114662Y-102888761D01*
X94162281Y-106222095D02*
X94162281Y-103603047D01*
X94162281Y-103603047D02*
X93924186Y-103126857D01*
X93924186Y-103126857D02*
X93447995Y-102888761D01*
X93447995Y-102888761D02*
X92495614Y-102888761D01*
X92495614Y-102888761D02*
X92019424Y-103126857D01*
X94162281Y-105984000D02*
X93686090Y-106222095D01*
X93686090Y-106222095D02*
X92495614Y-106222095D01*
X92495614Y-106222095D02*
X92019424Y-105984000D01*
X92019424Y-105984000D02*
X91781328Y-105507809D01*
X91781328Y-105507809D02*
X91781328Y-105031619D01*
X91781328Y-105031619D02*
X92019424Y-104555428D01*
X92019424Y-104555428D02*
X92495614Y-104317333D01*
X92495614Y-104317333D02*
X93686090Y-104317333D01*
X93686090Y-104317333D02*
X94162281Y-104079238D01*
X96543234Y-106222095D02*
X96543234Y-102888761D01*
X96543234Y-103841142D02*
X96781329Y-103364952D01*
X96781329Y-103364952D02*
X97019424Y-103126857D01*
X97019424Y-103126857D02*
X97495615Y-102888761D01*
X97495615Y-102888761D02*
X97971805Y-102888761D01*
X101781329Y-106222095D02*
X101781329Y-101222095D01*
X101781329Y-105984000D02*
X101305138Y-106222095D01*
X101305138Y-106222095D02*
X100352757Y-106222095D01*
X100352757Y-106222095D02*
X99876567Y-105984000D01*
X99876567Y-105984000D02*
X99638472Y-105745904D01*
X99638472Y-105745904D02*
X99400376Y-105269714D01*
X99400376Y-105269714D02*
X99400376Y-103841142D01*
X99400376Y-103841142D02*
X99638472Y-103364952D01*
X99638472Y-103364952D02*
X99876567Y-103126857D01*
X99876567Y-103126857D02*
X100352757Y-102888761D01*
X100352757Y-102888761D02*
X101305138Y-102888761D01*
X101305138Y-102888761D02*
X101781329Y-103126857D01*
X103924186Y-105984000D02*
X104400377Y-106222095D01*
X104400377Y-106222095D02*
X105352758Y-106222095D01*
X105352758Y-106222095D02*
X105828948Y-105984000D01*
X105828948Y-105984000D02*
X106067044Y-105507809D01*
X106067044Y-105507809D02*
X106067044Y-105269714D01*
X106067044Y-105269714D02*
X105828948Y-104793523D01*
X105828948Y-104793523D02*
X105352758Y-104555428D01*
X105352758Y-104555428D02*
X104638472Y-104555428D01*
X104638472Y-104555428D02*
X104162282Y-104317333D01*
X104162282Y-104317333D02*
X103924186Y-103841142D01*
X103924186Y-103841142D02*
X103924186Y-103603047D01*
X103924186Y-103603047D02*
X104162282Y-103126857D01*
X104162282Y-103126857D02*
X104638472Y-102888761D01*
X104638472Y-102888761D02*
X105352758Y-102888761D01*
X105352758Y-102888761D02*
X105828948Y-103126857D01*
X51305137Y-109272095D02*
X54162280Y-109272095D01*
X52733708Y-114272095D02*
X52733708Y-109272095D01*
X55828947Y-111653047D02*
X57495613Y-111653047D01*
X58209899Y-114272095D02*
X55828947Y-114272095D01*
X55828947Y-114272095D02*
X55828947Y-109272095D01*
X55828947Y-109272095D02*
X58209899Y-109272095D01*
X61781328Y-109272095D02*
X61781328Y-112843523D01*
X61781328Y-112843523D02*
X61543233Y-113557809D01*
X61543233Y-113557809D02*
X61067042Y-114034000D01*
X61067042Y-114034000D02*
X60352757Y-114272095D01*
X60352757Y-114272095D02*
X59876566Y-114272095D01*
X66305138Y-110938761D02*
X66305138Y-114272095D01*
X65114662Y-109034000D02*
X63924185Y-112605428D01*
X63924185Y-112605428D02*
X67019424Y-112605428D01*
X68924186Y-114272095D02*
X68924186Y-109272095D01*
X68924186Y-109272095D02*
X70590852Y-112843523D01*
X70590852Y-112843523D02*
X72257519Y-109272095D01*
X72257519Y-109272095D02*
X72257519Y-114272095D01*
X52019423Y-117322095D02*
X52019423Y-121369714D01*
X52019423Y-121369714D02*
X52257518Y-121845904D01*
X52257518Y-121845904D02*
X52495613Y-122084000D01*
X52495613Y-122084000D02*
X52971804Y-122322095D01*
X52971804Y-122322095D02*
X53924185Y-122322095D01*
X53924185Y-122322095D02*
X54400375Y-122084000D01*
X54400375Y-122084000D02*
X54638470Y-121845904D01*
X54638470Y-121845904D02*
X54876566Y-121369714D01*
X54876566Y-121369714D02*
X54876566Y-117322095D01*
X57257518Y-118988761D02*
X57257518Y-122322095D01*
X57257518Y-119464952D02*
X57495613Y-119226857D01*
X57495613Y-119226857D02*
X57971803Y-118988761D01*
X57971803Y-118988761D02*
X58686089Y-118988761D01*
X58686089Y-118988761D02*
X59162280Y-119226857D01*
X59162280Y-119226857D02*
X59400375Y-119703047D01*
X59400375Y-119703047D02*
X59400375Y-122322095D01*
X61781328Y-122322095D02*
X61781328Y-118988761D01*
X61781328Y-117322095D02*
X61543232Y-117560190D01*
X61543232Y-117560190D02*
X61781328Y-117798285D01*
X61781328Y-117798285D02*
X62019423Y-117560190D01*
X62019423Y-117560190D02*
X61781328Y-117322095D01*
X61781328Y-117322095D02*
X61781328Y-117798285D01*
X63447994Y-118988761D02*
X65352756Y-118988761D01*
X64162280Y-117322095D02*
X64162280Y-121607809D01*
X64162280Y-121607809D02*
X64400375Y-122084000D01*
X64400375Y-122084000D02*
X64876565Y-122322095D01*
X64876565Y-122322095D02*
X65352756Y-122322095D01*
X67019423Y-120417333D02*
X70828947Y-120417333D01*
X75828946Y-122322095D02*
X72971803Y-122322095D01*
X74400375Y-122322095D02*
X74400375Y-117322095D01*
X74400375Y-117322095D02*
X73924184Y-118036380D01*
X73924184Y-118036380D02*
X73447994Y-118512571D01*
X73447994Y-118512571D02*
X72971803Y-118750666D01*
X77971804Y-120417333D02*
X81781328Y-120417333D01*
X85114661Y-117322095D02*
X85590851Y-117322095D01*
X85590851Y-117322095D02*
X86067042Y-117560190D01*
X86067042Y-117560190D02*
X86305137Y-117798285D01*
X86305137Y-117798285D02*
X86543232Y-118274476D01*
X86543232Y-118274476D02*
X86781327Y-119226857D01*
X86781327Y-119226857D02*
X86781327Y-120417333D01*
X86781327Y-120417333D02*
X86543232Y-121369714D01*
X86543232Y-121369714D02*
X86305137Y-121845904D01*
X86305137Y-121845904D02*
X86067042Y-122084000D01*
X86067042Y-122084000D02*
X85590851Y-122322095D01*
X85590851Y-122322095D02*
X85114661Y-122322095D01*
X85114661Y-122322095D02*
X84638470Y-122084000D01*
X84638470Y-122084000D02*
X84400375Y-121845904D01*
X84400375Y-121845904D02*
X84162280Y-121369714D01*
X84162280Y-121369714D02*
X83924184Y-120417333D01*
X83924184Y-120417333D02*
X83924184Y-119226857D01*
X83924184Y-119226857D02*
X84162280Y-118274476D01*
X84162280Y-118274476D02*
X84400375Y-117798285D01*
X84400375Y-117798285D02*
X84638470Y-117560190D01*
X84638470Y-117560190D02*
X85114661Y-117322095D01*
X91067042Y-118988761D02*
X91067042Y-122322095D01*
X89876566Y-117084000D02*
X88686089Y-120655428D01*
X88686089Y-120655428D02*
X91781328Y-120655428D01*
D11*
X75789160Y-89925057D02*
X75836779Y-89877438D01*
X75836779Y-89877438D02*
X75932017Y-89829819D01*
X75932017Y-89829819D02*
X76170112Y-89829819D01*
X76170112Y-89829819D02*
X76265350Y-89877438D01*
X76265350Y-89877438D02*
X76312969Y-89925057D01*
X76312969Y-89925057D02*
X76360588Y-90020295D01*
X76360588Y-90020295D02*
X76360588Y-90115533D01*
X76360588Y-90115533D02*
X76312969Y-90258390D01*
X76312969Y-90258390D02*
X75741541Y-90829819D01*
X75741541Y-90829819D02*
X76360588Y-90829819D01*
X76741541Y-89925057D02*
X76789160Y-89877438D01*
X76789160Y-89877438D02*
X76884398Y-89829819D01*
X76884398Y-89829819D02*
X77122493Y-89829819D01*
X77122493Y-89829819D02*
X77217731Y-89877438D01*
X77217731Y-89877438D02*
X77265350Y-89925057D01*
X77265350Y-89925057D02*
X77312969Y-90020295D01*
X77312969Y-90020295D02*
X77312969Y-90115533D01*
X77312969Y-90115533D02*
X77265350Y-90258390D01*
X77265350Y-90258390D02*
X76693922Y-90829819D01*
X76693922Y-90829819D02*
X77312969Y-90829819D01*
X77932017Y-89829819D02*
X78027255Y-89829819D01*
X78027255Y-89829819D02*
X78122493Y-89877438D01*
X78122493Y-89877438D02*
X78170112Y-89925057D01*
X78170112Y-89925057D02*
X78217731Y-90020295D01*
X78217731Y-90020295D02*
X78265350Y-90210771D01*
X78265350Y-90210771D02*
X78265350Y-90448866D01*
X78265350Y-90448866D02*
X78217731Y-90639342D01*
X78217731Y-90639342D02*
X78170112Y-90734580D01*
X78170112Y-90734580D02*
X78122493Y-90782200D01*
X78122493Y-90782200D02*
X78027255Y-90829819D01*
X78027255Y-90829819D02*
X77932017Y-90829819D01*
X77932017Y-90829819D02*
X77836779Y-90782200D01*
X77836779Y-90782200D02*
X77789160Y-90734580D01*
X77789160Y-90734580D02*
X77741541Y-90639342D01*
X77741541Y-90639342D02*
X77693922Y-90448866D01*
X77693922Y-90448866D02*
X77693922Y-90210771D01*
X77693922Y-90210771D02*
X77741541Y-90020295D01*
X77741541Y-90020295D02*
X77789160Y-89925057D01*
X77789160Y-89925057D02*
X77836779Y-89877438D01*
X77836779Y-89877438D02*
X77932017Y-89829819D01*
X79408208Y-90829819D02*
X79646303Y-90829819D01*
X79646303Y-90829819D02*
X79646303Y-90639342D01*
X79646303Y-90639342D02*
X79551065Y-90591723D01*
X79551065Y-90591723D02*
X79455827Y-90496485D01*
X79455827Y-90496485D02*
X79408208Y-90353628D01*
X79408208Y-90353628D02*
X79408208Y-90115533D01*
X79408208Y-90115533D02*
X79455827Y-89972676D01*
X79455827Y-89972676D02*
X79551065Y-89877438D01*
X79551065Y-89877438D02*
X79693922Y-89829819D01*
X79693922Y-89829819D02*
X79884398Y-89829819D01*
X79884398Y-89829819D02*
X80027255Y-89877438D01*
X80027255Y-89877438D02*
X80122493Y-89972676D01*
X80122493Y-89972676D02*
X80170112Y-90115533D01*
X80170112Y-90115533D02*
X80170112Y-90353628D01*
X80170112Y-90353628D02*
X80122493Y-90496485D01*
X80122493Y-90496485D02*
X80027255Y-90591723D01*
X80027255Y-90591723D02*
X79932017Y-90639342D01*
X79932017Y-90639342D02*
X79932017Y-90829819D01*
X79932017Y-90829819D02*
X80170112Y-90829819D01*
X124465057Y-85170839D02*
X124417438Y-85123220D01*
X124417438Y-85123220D02*
X124369819Y-85027982D01*
X124369819Y-85027982D02*
X124369819Y-84789887D01*
X124369819Y-84789887D02*
X124417438Y-84694649D01*
X124417438Y-84694649D02*
X124465057Y-84647030D01*
X124465057Y-84647030D02*
X124560295Y-84599411D01*
X124560295Y-84599411D02*
X124655533Y-84599411D01*
X124655533Y-84599411D02*
X124798390Y-84647030D01*
X124798390Y-84647030D02*
X125369819Y-85218458D01*
X125369819Y-85218458D02*
X125369819Y-84599411D01*
X124465057Y-84218458D02*
X124417438Y-84170839D01*
X124417438Y-84170839D02*
X124369819Y-84075601D01*
X124369819Y-84075601D02*
X124369819Y-83837506D01*
X124369819Y-83837506D02*
X124417438Y-83742268D01*
X124417438Y-83742268D02*
X124465057Y-83694649D01*
X124465057Y-83694649D02*
X124560295Y-83647030D01*
X124560295Y-83647030D02*
X124655533Y-83647030D01*
X124655533Y-83647030D02*
X124798390Y-83694649D01*
X124798390Y-83694649D02*
X125369819Y-84266077D01*
X125369819Y-84266077D02*
X125369819Y-83647030D01*
X124369819Y-83027982D02*
X124369819Y-82932744D01*
X124369819Y-82932744D02*
X124417438Y-82837506D01*
X124417438Y-82837506D02*
X124465057Y-82789887D01*
X124465057Y-82789887D02*
X124560295Y-82742268D01*
X124560295Y-82742268D02*
X124750771Y-82694649D01*
X124750771Y-82694649D02*
X124988866Y-82694649D01*
X124988866Y-82694649D02*
X125179342Y-82742268D01*
X125179342Y-82742268D02*
X125274580Y-82789887D01*
X125274580Y-82789887D02*
X125322200Y-82837506D01*
X125322200Y-82837506D02*
X125369819Y-82932744D01*
X125369819Y-82932744D02*
X125369819Y-83027982D01*
X125369819Y-83027982D02*
X125322200Y-83123220D01*
X125322200Y-83123220D02*
X125274580Y-83170839D01*
X125274580Y-83170839D02*
X125179342Y-83218458D01*
X125179342Y-83218458D02*
X124988866Y-83266077D01*
X124988866Y-83266077D02*
X124750771Y-83266077D01*
X124750771Y-83266077D02*
X124560295Y-83218458D01*
X124560295Y-83218458D02*
X124465057Y-83170839D01*
X124465057Y-83170839D02*
X124417438Y-83123220D01*
X124417438Y-83123220D02*
X124369819Y-83027982D01*
X125369819Y-81551791D02*
X125369819Y-81313696D01*
X125369819Y-81313696D02*
X125179342Y-81313696D01*
X125179342Y-81313696D02*
X125131723Y-81408934D01*
X125131723Y-81408934D02*
X125036485Y-81504172D01*
X125036485Y-81504172D02*
X124893628Y-81551791D01*
X124893628Y-81551791D02*
X124655533Y-81551791D01*
X124655533Y-81551791D02*
X124512676Y-81504172D01*
X124512676Y-81504172D02*
X124417438Y-81408934D01*
X124417438Y-81408934D02*
X124369819Y-81266077D01*
X124369819Y-81266077D02*
X124369819Y-81075601D01*
X124369819Y-81075601D02*
X124417438Y-80932744D01*
X124417438Y-80932744D02*
X124512676Y-80837506D01*
X124512676Y-80837506D02*
X124655533Y-80789887D01*
X124655533Y-80789887D02*
X124893628Y-80789887D01*
X124893628Y-80789887D02*
X125036485Y-80837506D01*
X125036485Y-80837506D02*
X125131723Y-80932744D01*
X125131723Y-80932744D02*
X125179342Y-81027982D01*
X125179342Y-81027982D02*
X125369819Y-81027982D01*
X125369819Y-81027982D02*
X125369819Y-80789887D01*
X141333333Y-73494819D02*
X141000000Y-73018628D01*
X140761905Y-73494819D02*
X140761905Y-72494819D01*
X140761905Y-72494819D02*
X141142857Y-72494819D01*
X141142857Y-72494819D02*
X141238095Y-72542438D01*
X141238095Y-72542438D02*
X141285714Y-72590057D01*
X141285714Y-72590057D02*
X141333333Y-72685295D01*
X141333333Y-72685295D02*
X141333333Y-72828152D01*
X141333333Y-72828152D02*
X141285714Y-72923390D01*
X141285714Y-72923390D02*
X141238095Y-72971009D01*
X141238095Y-72971009D02*
X141142857Y-73018628D01*
X141142857Y-73018628D02*
X140761905Y-73018628D01*
X141666667Y-72494819D02*
X142333333Y-72494819D01*
X142333333Y-72494819D02*
X141904762Y-73494819D01*
X77333333Y-94834819D02*
X77000000Y-94358628D01*
X76761905Y-94834819D02*
X76761905Y-93834819D01*
X76761905Y-93834819D02*
X77142857Y-93834819D01*
X77142857Y-93834819D02*
X77238095Y-93882438D01*
X77238095Y-93882438D02*
X77285714Y-93930057D01*
X77285714Y-93930057D02*
X77333333Y-94025295D01*
X77333333Y-94025295D02*
X77333333Y-94168152D01*
X77333333Y-94168152D02*
X77285714Y-94263390D01*
X77285714Y-94263390D02*
X77238095Y-94311009D01*
X77238095Y-94311009D02*
X77142857Y-94358628D01*
X77142857Y-94358628D02*
X76761905Y-94358628D01*
X78285714Y-94834819D02*
X77714286Y-94834819D01*
X78000000Y-94834819D02*
X78000000Y-93834819D01*
X78000000Y-93834819D02*
X77904762Y-93977676D01*
X77904762Y-93977676D02*
X77809524Y-94072914D01*
X77809524Y-94072914D02*
X77714286Y-94120533D01*
X121034819Y-83126666D02*
X120558628Y-83459999D01*
X121034819Y-83698094D02*
X120034819Y-83698094D01*
X120034819Y-83698094D02*
X120034819Y-83317142D01*
X120034819Y-83317142D02*
X120082438Y-83221904D01*
X120082438Y-83221904D02*
X120130057Y-83174285D01*
X120130057Y-83174285D02*
X120225295Y-83126666D01*
X120225295Y-83126666D02*
X120368152Y-83126666D01*
X120368152Y-83126666D02*
X120463390Y-83174285D01*
X120463390Y-83174285D02*
X120511009Y-83221904D01*
X120511009Y-83221904D02*
X120558628Y-83317142D01*
X120558628Y-83317142D02*
X120558628Y-83698094D01*
X120034819Y-82221904D02*
X120034819Y-82698094D01*
X120034819Y-82698094D02*
X120511009Y-82745713D01*
X120511009Y-82745713D02*
X120463390Y-82698094D01*
X120463390Y-82698094D02*
X120415771Y-82602856D01*
X120415771Y-82602856D02*
X120415771Y-82364761D01*
X120415771Y-82364761D02*
X120463390Y-82269523D01*
X120463390Y-82269523D02*
X120511009Y-82221904D01*
X120511009Y-82221904D02*
X120606247Y-82174285D01*
X120606247Y-82174285D02*
X120844342Y-82174285D01*
X120844342Y-82174285D02*
X120939580Y-82221904D01*
X120939580Y-82221904D02*
X120987200Y-82269523D01*
X120987200Y-82269523D02*
X121034819Y-82364761D01*
X121034819Y-82364761D02*
X121034819Y-82602856D01*
X121034819Y-82602856D02*
X120987200Y-82698094D01*
X120987200Y-82698094D02*
X120939580Y-82745713D01*
X107350057Y-75055238D02*
X107302438Y-75150476D01*
X107302438Y-75150476D02*
X107207200Y-75245714D01*
X107207200Y-75245714D02*
X107064342Y-75388571D01*
X107064342Y-75388571D02*
X107016723Y-75483809D01*
X107016723Y-75483809D02*
X107016723Y-75579047D01*
X107254819Y-75531428D02*
X107207200Y-75626666D01*
X107207200Y-75626666D02*
X107111961Y-75721904D01*
X107111961Y-75721904D02*
X106921485Y-75769523D01*
X106921485Y-75769523D02*
X106588152Y-75769523D01*
X106588152Y-75769523D02*
X106397676Y-75721904D01*
X106397676Y-75721904D02*
X106302438Y-75626666D01*
X106302438Y-75626666D02*
X106254819Y-75531428D01*
X106254819Y-75531428D02*
X106254819Y-75340952D01*
X106254819Y-75340952D02*
X106302438Y-75245714D01*
X106302438Y-75245714D02*
X106397676Y-75150476D01*
X106397676Y-75150476D02*
X106588152Y-75102857D01*
X106588152Y-75102857D02*
X106921485Y-75102857D01*
X106921485Y-75102857D02*
X107111961Y-75150476D01*
X107111961Y-75150476D02*
X107207200Y-75245714D01*
X107207200Y-75245714D02*
X107254819Y-75340952D01*
X107254819Y-75340952D02*
X107254819Y-75531428D01*
X106350057Y-74721904D02*
X106302438Y-74674285D01*
X106302438Y-74674285D02*
X106254819Y-74579047D01*
X106254819Y-74579047D02*
X106254819Y-74340952D01*
X106254819Y-74340952D02*
X106302438Y-74245714D01*
X106302438Y-74245714D02*
X106350057Y-74198095D01*
X106350057Y-74198095D02*
X106445295Y-74150476D01*
X106445295Y-74150476D02*
X106540533Y-74150476D01*
X106540533Y-74150476D02*
X106683390Y-74198095D01*
X106683390Y-74198095D02*
X107254819Y-74769523D01*
X107254819Y-74769523D02*
X107254819Y-74150476D01*
X76766905Y-85874819D02*
X76766905Y-84874819D01*
X76766905Y-84874819D02*
X77005000Y-84874819D01*
X77005000Y-84874819D02*
X77147857Y-84922438D01*
X77147857Y-84922438D02*
X77243095Y-85017676D01*
X77243095Y-85017676D02*
X77290714Y-85112914D01*
X77290714Y-85112914D02*
X77338333Y-85303390D01*
X77338333Y-85303390D02*
X77338333Y-85446247D01*
X77338333Y-85446247D02*
X77290714Y-85636723D01*
X77290714Y-85636723D02*
X77243095Y-85731961D01*
X77243095Y-85731961D02*
X77147857Y-85827200D01*
X77147857Y-85827200D02*
X77005000Y-85874819D01*
X77005000Y-85874819D02*
X76766905Y-85874819D01*
X78290714Y-85874819D02*
X77719286Y-85874819D01*
X78005000Y-85874819D02*
X78005000Y-84874819D01*
X78005000Y-84874819D02*
X77909762Y-85017676D01*
X77909762Y-85017676D02*
X77814524Y-85112914D01*
X77814524Y-85112914D02*
X77719286Y-85160533D01*
X107350057Y-62325238D02*
X107302438Y-62420476D01*
X107302438Y-62420476D02*
X107207200Y-62515714D01*
X107207200Y-62515714D02*
X107064342Y-62658571D01*
X107064342Y-62658571D02*
X107016723Y-62753809D01*
X107016723Y-62753809D02*
X107016723Y-62849047D01*
X107254819Y-62801428D02*
X107207200Y-62896666D01*
X107207200Y-62896666D02*
X107111961Y-62991904D01*
X107111961Y-62991904D02*
X106921485Y-63039523D01*
X106921485Y-63039523D02*
X106588152Y-63039523D01*
X106588152Y-63039523D02*
X106397676Y-62991904D01*
X106397676Y-62991904D02*
X106302438Y-62896666D01*
X106302438Y-62896666D02*
X106254819Y-62801428D01*
X106254819Y-62801428D02*
X106254819Y-62610952D01*
X106254819Y-62610952D02*
X106302438Y-62515714D01*
X106302438Y-62515714D02*
X106397676Y-62420476D01*
X106397676Y-62420476D02*
X106588152Y-62372857D01*
X106588152Y-62372857D02*
X106921485Y-62372857D01*
X106921485Y-62372857D02*
X107111961Y-62420476D01*
X107111961Y-62420476D02*
X107207200Y-62515714D01*
X107207200Y-62515714D02*
X107254819Y-62610952D01*
X107254819Y-62610952D02*
X107254819Y-62801428D01*
X106254819Y-62039523D02*
X106254819Y-61420476D01*
X106254819Y-61420476D02*
X106635771Y-61753809D01*
X106635771Y-61753809D02*
X106635771Y-61610952D01*
X106635771Y-61610952D02*
X106683390Y-61515714D01*
X106683390Y-61515714D02*
X106731009Y-61468095D01*
X106731009Y-61468095D02*
X106826247Y-61420476D01*
X106826247Y-61420476D02*
X107064342Y-61420476D01*
X107064342Y-61420476D02*
X107159580Y-61468095D01*
X107159580Y-61468095D02*
X107207200Y-61515714D01*
X107207200Y-61515714D02*
X107254819Y-61610952D01*
X107254819Y-61610952D02*
X107254819Y-61896666D01*
X107254819Y-61896666D02*
X107207200Y-61991904D01*
X107207200Y-61991904D02*
X107159580Y-62039523D01*
X72249819Y-67818333D02*
X72964104Y-67818333D01*
X72964104Y-67818333D02*
X73106961Y-67865952D01*
X73106961Y-67865952D02*
X73202200Y-67961190D01*
X73202200Y-67961190D02*
X73249819Y-68104047D01*
X73249819Y-68104047D02*
X73249819Y-68199285D01*
X72345057Y-67389761D02*
X72297438Y-67342142D01*
X72297438Y-67342142D02*
X72249819Y-67246904D01*
X72249819Y-67246904D02*
X72249819Y-67008809D01*
X72249819Y-67008809D02*
X72297438Y-66913571D01*
X72297438Y-66913571D02*
X72345057Y-66865952D01*
X72345057Y-66865952D02*
X72440295Y-66818333D01*
X72440295Y-66818333D02*
X72535533Y-66818333D01*
X72535533Y-66818333D02*
X72678390Y-66865952D01*
X72678390Y-66865952D02*
X73249819Y-67437380D01*
X73249819Y-67437380D02*
X73249819Y-66818333D01*
X72249819Y-83318333D02*
X72964104Y-83318333D01*
X72964104Y-83318333D02*
X73106961Y-83365952D01*
X73106961Y-83365952D02*
X73202200Y-83461190D01*
X73202200Y-83461190D02*
X73249819Y-83604047D01*
X73249819Y-83604047D02*
X73249819Y-83699285D01*
X73249819Y-82318333D02*
X73249819Y-82889761D01*
X73249819Y-82604047D02*
X72249819Y-82604047D01*
X72249819Y-82604047D02*
X72392676Y-82699285D01*
X72392676Y-82699285D02*
X72487914Y-82794523D01*
X72487914Y-82794523D02*
X72535533Y-82889761D01*
X77373333Y-59834819D02*
X77040000Y-59358628D01*
X76801905Y-59834819D02*
X76801905Y-58834819D01*
X76801905Y-58834819D02*
X77182857Y-58834819D01*
X77182857Y-58834819D02*
X77278095Y-58882438D01*
X77278095Y-58882438D02*
X77325714Y-58930057D01*
X77325714Y-58930057D02*
X77373333Y-59025295D01*
X77373333Y-59025295D02*
X77373333Y-59168152D01*
X77373333Y-59168152D02*
X77325714Y-59263390D01*
X77325714Y-59263390D02*
X77278095Y-59311009D01*
X77278095Y-59311009D02*
X77182857Y-59358628D01*
X77182857Y-59358628D02*
X76801905Y-59358628D01*
X77754286Y-58930057D02*
X77801905Y-58882438D01*
X77801905Y-58882438D02*
X77897143Y-58834819D01*
X77897143Y-58834819D02*
X78135238Y-58834819D01*
X78135238Y-58834819D02*
X78230476Y-58882438D01*
X78230476Y-58882438D02*
X78278095Y-58930057D01*
X78278095Y-58930057D02*
X78325714Y-59025295D01*
X78325714Y-59025295D02*
X78325714Y-59120533D01*
X78325714Y-59120533D02*
X78278095Y-59263390D01*
X78278095Y-59263390D02*
X77706667Y-59834819D01*
X77706667Y-59834819D02*
X78325714Y-59834819D01*
X124874819Y-69626666D02*
X124398628Y-69959999D01*
X124874819Y-70198094D02*
X123874819Y-70198094D01*
X123874819Y-70198094D02*
X123874819Y-69817142D01*
X123874819Y-69817142D02*
X123922438Y-69721904D01*
X123922438Y-69721904D02*
X123970057Y-69674285D01*
X123970057Y-69674285D02*
X124065295Y-69626666D01*
X124065295Y-69626666D02*
X124208152Y-69626666D01*
X124208152Y-69626666D02*
X124303390Y-69674285D01*
X124303390Y-69674285D02*
X124351009Y-69721904D01*
X124351009Y-69721904D02*
X124398628Y-69817142D01*
X124398628Y-69817142D02*
X124398628Y-70198094D01*
X123874819Y-68769523D02*
X123874819Y-68959999D01*
X123874819Y-68959999D02*
X123922438Y-69055237D01*
X123922438Y-69055237D02*
X123970057Y-69102856D01*
X123970057Y-69102856D02*
X124112914Y-69198094D01*
X124112914Y-69198094D02*
X124303390Y-69245713D01*
X124303390Y-69245713D02*
X124684342Y-69245713D01*
X124684342Y-69245713D02*
X124779580Y-69198094D01*
X124779580Y-69198094D02*
X124827200Y-69150475D01*
X124827200Y-69150475D02*
X124874819Y-69055237D01*
X124874819Y-69055237D02*
X124874819Y-68864761D01*
X124874819Y-68864761D02*
X124827200Y-68769523D01*
X124827200Y-68769523D02*
X124779580Y-68721904D01*
X124779580Y-68721904D02*
X124684342Y-68674285D01*
X124684342Y-68674285D02*
X124446247Y-68674285D01*
X124446247Y-68674285D02*
X124351009Y-68721904D01*
X124351009Y-68721904D02*
X124303390Y-68769523D01*
X124303390Y-68769523D02*
X124255771Y-68864761D01*
X124255771Y-68864761D02*
X124255771Y-69055237D01*
X124255771Y-69055237D02*
X124303390Y-69150475D01*
X124303390Y-69150475D02*
X124351009Y-69198094D01*
X124351009Y-69198094D02*
X124446247Y-69245713D01*
X129491905Y-78374819D02*
X129491905Y-77374819D01*
X129491905Y-77374819D02*
X129730000Y-77374819D01*
X129730000Y-77374819D02*
X129872857Y-77422438D01*
X129872857Y-77422438D02*
X129968095Y-77517676D01*
X129968095Y-77517676D02*
X130015714Y-77612914D01*
X130015714Y-77612914D02*
X130063333Y-77803390D01*
X130063333Y-77803390D02*
X130063333Y-77946247D01*
X130063333Y-77946247D02*
X130015714Y-78136723D01*
X130015714Y-78136723D02*
X129968095Y-78231961D01*
X129968095Y-78231961D02*
X129872857Y-78327200D01*
X129872857Y-78327200D02*
X129730000Y-78374819D01*
X129730000Y-78374819D02*
X129491905Y-78374819D01*
X130396667Y-77374819D02*
X131063333Y-77374819D01*
X131063333Y-77374819D02*
X130634762Y-78374819D01*
X93373333Y-64494819D02*
X93040000Y-64018628D01*
X92801905Y-64494819D02*
X92801905Y-63494819D01*
X92801905Y-63494819D02*
X93182857Y-63494819D01*
X93182857Y-63494819D02*
X93278095Y-63542438D01*
X93278095Y-63542438D02*
X93325714Y-63590057D01*
X93325714Y-63590057D02*
X93373333Y-63685295D01*
X93373333Y-63685295D02*
X93373333Y-63828152D01*
X93373333Y-63828152D02*
X93325714Y-63923390D01*
X93325714Y-63923390D02*
X93278095Y-63971009D01*
X93278095Y-63971009D02*
X93182857Y-64018628D01*
X93182857Y-64018628D02*
X92801905Y-64018628D01*
X94230476Y-63828152D02*
X94230476Y-64494819D01*
X93992381Y-63447200D02*
X93754286Y-64161485D01*
X93754286Y-64161485D02*
X94373333Y-64161485D01*
X54666666Y-70394819D02*
X54666666Y-71109104D01*
X54666666Y-71109104D02*
X54619047Y-71251961D01*
X54619047Y-71251961D02*
X54523809Y-71347200D01*
X54523809Y-71347200D02*
X54380952Y-71394819D01*
X54380952Y-71394819D02*
X54285714Y-71394819D01*
X55047619Y-70394819D02*
X55666666Y-70394819D01*
X55666666Y-70394819D02*
X55333333Y-70775771D01*
X55333333Y-70775771D02*
X55476190Y-70775771D01*
X55476190Y-70775771D02*
X55571428Y-70823390D01*
X55571428Y-70823390D02*
X55619047Y-70871009D01*
X55619047Y-70871009D02*
X55666666Y-70966247D01*
X55666666Y-70966247D02*
X55666666Y-71204342D01*
X55666666Y-71204342D02*
X55619047Y-71299580D01*
X55619047Y-71299580D02*
X55571428Y-71347200D01*
X55571428Y-71347200D02*
X55476190Y-71394819D01*
X55476190Y-71394819D02*
X55190476Y-71394819D01*
X55190476Y-71394819D02*
X55095238Y-71347200D01*
X55095238Y-71347200D02*
X55047619Y-71299580D01*
X107350057Y-85055238D02*
X107302438Y-85150476D01*
X107302438Y-85150476D02*
X107207200Y-85245714D01*
X107207200Y-85245714D02*
X107064342Y-85388571D01*
X107064342Y-85388571D02*
X107016723Y-85483809D01*
X107016723Y-85483809D02*
X107016723Y-85579047D01*
X107254819Y-85531428D02*
X107207200Y-85626666D01*
X107207200Y-85626666D02*
X107111961Y-85721904D01*
X107111961Y-85721904D02*
X106921485Y-85769523D01*
X106921485Y-85769523D02*
X106588152Y-85769523D01*
X106588152Y-85769523D02*
X106397676Y-85721904D01*
X106397676Y-85721904D02*
X106302438Y-85626666D01*
X106302438Y-85626666D02*
X106254819Y-85531428D01*
X106254819Y-85531428D02*
X106254819Y-85340952D01*
X106254819Y-85340952D02*
X106302438Y-85245714D01*
X106302438Y-85245714D02*
X106397676Y-85150476D01*
X106397676Y-85150476D02*
X106588152Y-85102857D01*
X106588152Y-85102857D02*
X106921485Y-85102857D01*
X106921485Y-85102857D02*
X107111961Y-85150476D01*
X107111961Y-85150476D02*
X107207200Y-85245714D01*
X107207200Y-85245714D02*
X107254819Y-85340952D01*
X107254819Y-85340952D02*
X107254819Y-85531428D01*
X107254819Y-84150476D02*
X107254819Y-84721904D01*
X107254819Y-84436190D02*
X106254819Y-84436190D01*
X106254819Y-84436190D02*
X106397676Y-84531428D01*
X106397676Y-84531428D02*
X106492914Y-84626666D01*
X106492914Y-84626666D02*
X106540533Y-84721904D01*
X93333333Y-82494819D02*
X93000000Y-82018628D01*
X92761905Y-82494819D02*
X92761905Y-81494819D01*
X92761905Y-81494819D02*
X93142857Y-81494819D01*
X93142857Y-81494819D02*
X93238095Y-81542438D01*
X93238095Y-81542438D02*
X93285714Y-81590057D01*
X93285714Y-81590057D02*
X93333333Y-81685295D01*
X93333333Y-81685295D02*
X93333333Y-81828152D01*
X93333333Y-81828152D02*
X93285714Y-81923390D01*
X93285714Y-81923390D02*
X93238095Y-81971009D01*
X93238095Y-81971009D02*
X93142857Y-82018628D01*
X93142857Y-82018628D02*
X92761905Y-82018628D01*
X93666667Y-81494819D02*
X94285714Y-81494819D01*
X94285714Y-81494819D02*
X93952381Y-81875771D01*
X93952381Y-81875771D02*
X94095238Y-81875771D01*
X94095238Y-81875771D02*
X94190476Y-81923390D01*
X94190476Y-81923390D02*
X94238095Y-81971009D01*
X94238095Y-81971009D02*
X94285714Y-82066247D01*
X94285714Y-82066247D02*
X94285714Y-82304342D01*
X94285714Y-82304342D02*
X94238095Y-82399580D01*
X94238095Y-82399580D02*
X94190476Y-82447200D01*
X94190476Y-82447200D02*
X94095238Y-82494819D01*
X94095238Y-82494819D02*
X93809524Y-82494819D01*
X93809524Y-82494819D02*
X93714286Y-82447200D01*
X93714286Y-82447200D02*
X93666667Y-82399580D01*
X76766905Y-70874819D02*
X76766905Y-69874819D01*
X76766905Y-69874819D02*
X77005000Y-69874819D01*
X77005000Y-69874819D02*
X77147857Y-69922438D01*
X77147857Y-69922438D02*
X77243095Y-70017676D01*
X77243095Y-70017676D02*
X77290714Y-70112914D01*
X77290714Y-70112914D02*
X77338333Y-70303390D01*
X77338333Y-70303390D02*
X77338333Y-70446247D01*
X77338333Y-70446247D02*
X77290714Y-70636723D01*
X77290714Y-70636723D02*
X77243095Y-70731961D01*
X77243095Y-70731961D02*
X77147857Y-70827200D01*
X77147857Y-70827200D02*
X77005000Y-70874819D01*
X77005000Y-70874819D02*
X76766905Y-70874819D01*
X77719286Y-69970057D02*
X77766905Y-69922438D01*
X77766905Y-69922438D02*
X77862143Y-69874819D01*
X77862143Y-69874819D02*
X78100238Y-69874819D01*
X78100238Y-69874819D02*
X78195476Y-69922438D01*
X78195476Y-69922438D02*
X78243095Y-69970057D01*
X78243095Y-69970057D02*
X78290714Y-70065295D01*
X78290714Y-70065295D02*
X78290714Y-70160533D01*
X78290714Y-70160533D02*
X78243095Y-70303390D01*
X78243095Y-70303390D02*
X77671667Y-70874819D01*
X77671667Y-70874819D02*
X78290714Y-70874819D01*
D13*
%TO.C,R7*%
X139580000Y-74040000D02*
X143420000Y-74040000D01*
X139580000Y-75880000D02*
X143420000Y-75880000D01*
%TO.C,R1*%
X79420000Y-93380000D02*
X75580000Y-93380000D01*
X79420000Y-91540000D02*
X75580000Y-91540000D01*
%TO.C,R5*%
X121580000Y-84880000D02*
X121580000Y-81040000D01*
X123420000Y-84880000D02*
X123420000Y-81040000D01*
%TO.C,Q2*%
X112210000Y-76760000D02*
X112210000Y-73160000D01*
X107760000Y-74960000D02*
G75*
G03*
X112198478Y-76798478I2600000J0D01*
G01*
X112198478Y-73121522D02*
G75*
G03*
X107760000Y-74960000I-1838478J-1838478D01*
G01*
%TO.C,D1*%
X79065000Y-83696000D02*
X79065000Y-83540000D01*
X79065000Y-81380000D02*
X79065000Y-81224000D01*
X75832666Y-83538608D02*
G75*
G03*
X79064999Y-83695515I1672334J1078608D01*
G01*
X76463871Y-83539836D02*
G75*
G03*
X78545960Y-83539999I1041129J1079836D01*
G01*
X78545960Y-81380001D02*
G75*
G03*
X76463871Y-81380164I-1040960J-1079999D01*
G01*
X79064999Y-81224485D02*
G75*
G03*
X75832666Y-81381392I-1559999J-1235515D01*
G01*
%TO.C,Q3*%
X112210000Y-64030000D02*
X112210000Y-60430000D01*
X107760000Y-62230000D02*
G75*
G03*
X112198478Y-64068478I2600000J0D01*
G01*
X112198478Y-60391522D02*
G75*
G03*
X107760000Y-62230000I-1838478J-1838478D01*
G01*
%TO.C,J2*%
X68755000Y-66155000D02*
X63615000Y-66155000D01*
X68755000Y-66155000D02*
X68755000Y-68815000D01*
X63615000Y-66155000D02*
X63615000Y-68815000D01*
X71355000Y-67485000D02*
X71355000Y-68815000D01*
X71355000Y-68815000D02*
X70025000Y-68815000D01*
X68755000Y-68815000D02*
X63615000Y-68815000D01*
%TO.C,J1*%
X68755000Y-81655000D02*
X63615000Y-81655000D01*
X68755000Y-81655000D02*
X68755000Y-84315000D01*
X63615000Y-81655000D02*
X63615000Y-84315000D01*
X71355000Y-82985000D02*
X71355000Y-84315000D01*
X71355000Y-84315000D02*
X70025000Y-84315000D01*
X68755000Y-84315000D02*
X63615000Y-84315000D01*
%TO.C,R2*%
X79460000Y-58380000D02*
X75620000Y-58380000D01*
X79460000Y-56540000D02*
X75620000Y-56540000D01*
%TO.C,R6*%
X123420000Y-67540000D02*
X123420000Y-71380000D01*
X121580000Y-67540000D02*
X121580000Y-71380000D01*
%TO.C,D7*%
X131790000Y-76196000D02*
X131790000Y-76040000D01*
X131790000Y-73880000D02*
X131790000Y-73724000D01*
X128557666Y-76038608D02*
G75*
G03*
X131789999Y-76195515I1672334J1078608D01*
G01*
X129188871Y-76039836D02*
G75*
G03*
X131270960Y-76039999I1041129J1079836D01*
G01*
X131270960Y-73880001D02*
G75*
G03*
X129188871Y-73880164I-1040960J-1079999D01*
G01*
X131789999Y-73724485D02*
G75*
G03*
X128557666Y-73881392I-1559999J-1235515D01*
G01*
%TO.C,R4*%
X91620000Y-65040000D02*
X95460000Y-65040000D01*
X91620000Y-66880000D02*
X95460000Y-66880000D01*
%TO.C,J3*%
X53670000Y-74980000D02*
X53670000Y-77580000D01*
X53670000Y-74980000D02*
X56330000Y-74980000D01*
X53670000Y-77580000D02*
X56330000Y-77580000D01*
X55000000Y-72380000D02*
X56330000Y-72380000D01*
X56330000Y-72380000D02*
X56330000Y-73710000D01*
X56330000Y-74980000D02*
X56330000Y-77580000D01*
%TO.C,Q1*%
X112210000Y-86760000D02*
X112210000Y-83160000D01*
X107760000Y-84960000D02*
G75*
G03*
X112198478Y-86798478I2600000J0D01*
G01*
X112198478Y-83121522D02*
G75*
G03*
X107760000Y-84960000I-1838478J-1838478D01*
G01*
%TO.C,R3*%
X91580000Y-83040000D02*
X95420000Y-83040000D01*
X91580000Y-84880000D02*
X95420000Y-84880000D01*
%TO.C,REF\u002A\u002A*%
D14*
X146174693Y-148437887D02*
X128700492Y-148437887D01*
X128700492Y-144131745D01*
X146174693Y-144131745D01*
X146174693Y-148437887D01*
G36*
X146174693Y-148437887D02*
G01*
X128700492Y-148437887D01*
X128700492Y-144131745D01*
X146174693Y-144131745D01*
X146174693Y-148437887D01*
G37*
X148043856Y-118892415D02*
X148040782Y-119324620D01*
X143556832Y-123880394D01*
X143555197Y-124925725D01*
X143553563Y-125971057D01*
X142188238Y-125971057D01*
X142153057Y-126236290D01*
X142139736Y-126357184D01*
X142117281Y-126584846D01*
X142086894Y-126905696D01*
X142049776Y-127306152D01*
X142007128Y-127772636D01*
X141960150Y-128291566D01*
X141910044Y-128849362D01*
X141858011Y-129432443D01*
X141805252Y-130027229D01*
X141752967Y-130620140D01*
X141702359Y-131197595D01*
X141654628Y-131746014D01*
X141610975Y-132251816D01*
X141572600Y-132701421D01*
X141540706Y-133081248D01*
X141516494Y-133377717D01*
X141501163Y-133577248D01*
X141495916Y-133666260D01*
X141495920Y-133666684D01*
X141534179Y-133738107D01*
X141649095Y-133885581D01*
X141842231Y-134110823D01*
X142115150Y-134415550D01*
X142469418Y-134801478D01*
X142906596Y-135270324D01*
X143428250Y-135823805D01*
X144035941Y-136463636D01*
X144206751Y-136642801D01*
X146915765Y-139482359D01*
X146696753Y-139700787D01*
X146477740Y-139919214D01*
X146123391Y-139533688D01*
X145993758Y-139394360D01*
X145791262Y-139178901D01*
X145529263Y-138901425D01*
X145221121Y-138576047D01*
X144880198Y-138216883D01*
X144519853Y-137838048D01*
X144304277Y-137611787D01*
X143899559Y-137187911D01*
X143572428Y-136848388D01*
X143314542Y-136587045D01*
X143117562Y-136397708D01*
X142973144Y-136274203D01*
X142872948Y-136210356D01*
X142808632Y-136199994D01*
X142771855Y-136236942D01*
X142754275Y-136315028D01*
X142747551Y-136428076D01*
X142746647Y-136458926D01*
X142699903Y-136671455D01*
X142584729Y-136928337D01*
X142424117Y-137188949D01*
X142241056Y-137412665D01*
X142167805Y-137481772D01*
X141791965Y-137723575D01*
X141352931Y-137858866D01*
X140964773Y-137890959D01*
X140524880Y-137830427D01*
X140118615Y-137652930D01*
X139759049Y-137364614D01*
X139692705Y-137292848D01*
X139450112Y-137017249D01*
X135253317Y-137017249D01*
X135253317Y-137890959D01*
X134129976Y-137890959D01*
X134129976Y-137482781D01*
X134115880Y-137204128D01*
X134068518Y-137010714D01*
X134010957Y-136905508D01*
X133969830Y-136830233D01*
X133934614Y-136721091D01*
X133902974Y-136561902D01*
X133872578Y-136336486D01*
X133841092Y-136028664D01*
X133806183Y-135622255D01*
X133782280Y-135319918D01*
X133672620Y-133903422D01*
X130980587Y-136630483D01*
X130493841Y-137123933D01*
X130026576Y-137598345D01*
X129587332Y-138045003D01*
X129184647Y-138455193D01*
X128827057Y-138820198D01*
X128523102Y-139131305D01*
X128281320Y-139379798D01*
X128110247Y-139556962D01*
X128018516Y-139653981D01*
X127867811Y-139807584D01*
X127742105Y-139914718D01*
X127674490Y-139950418D01*
X127588127Y-139908600D01*
X127462239Y-139804113D01*
X127419566Y-139761562D01*
X127238631Y-139572706D01*
X128234795Y-138560412D01*
X128488935Y-138302534D01*
X128816635Y-137970607D01*
X129203520Y-137579159D01*
X129635214Y-137142721D01*
X130097341Y-136675823D01*
X130575527Y-136192994D01*
X131055396Y-135708765D01*
X131399632Y-135361603D01*
X131922901Y-134832559D01*
X132362504Y-134384666D01*
X132724064Y-134011863D01*
X133013203Y-133708087D01*
X133235546Y-133467275D01*
X133345744Y-133341526D01*
X134230660Y-133341526D01*
X134341452Y-134758134D01*
X134374864Y-135173370D01*
X134407184Y-135553092D01*
X134436582Y-135877452D01*
X134461226Y-136126604D01*
X134479287Y-136280700D01*
X134485099Y-136315160D01*
X134517954Y-136455578D01*
X139230332Y-136455578D01*
X139261789Y-136063693D01*
X139356762Y-135600678D01*
X139555508Y-135191099D01*
X139845497Y-134849870D01*
X140214201Y-134591909D01*
X140628033Y-134437060D01*
X140762287Y-134364425D01*
X140829500Y-134208536D01*
X140830907Y-134201659D01*
X140838971Y-134135848D01*
X140829002Y-134068458D01*
X140791269Y-133986990D01*
X140716042Y-133878943D01*
X140593590Y-133731818D01*
X140414182Y-133533114D01*
X140168089Y-133270332D01*
X139845580Y-132930972D01*
X139824742Y-132909114D01*
X139477848Y-132544849D01*
X139109052Y-132156859D01*
X138743695Y-131771856D01*
X138407119Y-131416548D01*
X138124665Y-131117646D01*
X138061671Y-131050824D01*
X137820191Y-130798860D01*
X137605674Y-130583237D01*
X137433519Y-130418787D01*
X137319127Y-130320340D01*
X137280719Y-130298703D01*
X137223444Y-130343987D01*
X137089498Y-130468215D01*
X136889430Y-130661044D01*
X136633789Y-130912132D01*
X136333121Y-131211138D01*
X135997977Y-131547718D01*
X135724059Y-131824965D01*
X134230660Y-133341526D01*
X133345744Y-133341526D01*
X133396714Y-133283364D01*
X133502331Y-133150292D01*
X133558021Y-133061996D01*
X133570412Y-133021107D01*
X133565718Y-132931870D01*
X133551458Y-132729882D01*
X133528555Y-132426768D01*
X133497931Y-132034150D01*
X133460509Y-131563653D01*
X133417212Y-131026901D01*
X133368963Y-130435516D01*
X133316684Y-129801123D01*
X133274552Y-129294111D01*
X133036165Y-126435531D01*
X133649568Y-126435531D01*
X133652210Y-126497221D01*
X133664636Y-126670962D01*
X133685846Y-126944459D01*
X133714844Y-127305415D01*
X133750630Y-127741532D01*
X133792206Y-128240514D01*
X133838575Y-128790063D01*
X133883072Y-129311825D01*
X133933477Y-129903823D01*
X133980426Y-130462654D01*
X134022844Y-130974979D01*
X134059655Y-131427456D01*
X134089784Y-131806748D01*
X134112155Y-132099514D01*
X134125693Y-132292415D01*
X134129451Y-132367331D01*
X134135311Y-132413957D01*
X134158533Y-132432459D01*
X134208067Y-132415115D01*
X134292865Y-132354207D01*
X134421879Y-132242013D01*
X134604058Y-132070815D01*
X134848356Y-131832891D01*
X135163722Y-131520521D01*
X135498338Y-131186721D01*
X136866700Y-129819419D01*
X136857110Y-129809141D01*
X137761610Y-129809141D01*
X137802832Y-129865593D01*
X137918233Y-129998518D01*
X138096247Y-130195701D01*
X138325309Y-130444924D01*
X138593851Y-130733971D01*
X138890309Y-131050625D01*
X139203115Y-131382669D01*
X139520704Y-131717887D01*
X139831510Y-132044062D01*
X140123966Y-132348978D01*
X140386506Y-132620418D01*
X140607565Y-132846165D01*
X140775576Y-133014003D01*
X140878973Y-133111714D01*
X140907169Y-133131620D01*
X140916464Y-133067368D01*
X140935760Y-132889900D01*
X140963995Y-132610327D01*
X141000107Y-132239759D01*
X141043037Y-131789303D01*
X141091722Y-131270071D01*
X141145103Y-130693172D01*
X141202116Y-130069716D01*
X141247638Y-129566996D01*
X141305868Y-128915142D01*
X141359668Y-128301067D01*
X141408131Y-127735910D01*
X141450354Y-127230812D01*
X141485432Y-126796913D01*
X141512459Y-126445351D01*
X141530532Y-126187268D01*
X141538746Y-126033802D01*
X141537806Y-125993957D01*
X141488713Y-126029449D01*
X141363692Y-126143535D01*
X141173674Y-126325174D01*
X140929587Y-126563322D01*
X140642362Y-126846937D01*
X140322928Y-127164977D01*
X139982215Y-127506399D01*
X139631152Y-127860161D01*
X139280670Y-128215219D01*
X138941697Y-128560533D01*
X138625164Y-128885058D01*
X138342000Y-129177754D01*
X138103135Y-129427576D01*
X137919498Y-129623483D01*
X137802019Y-129754432D01*
X137761610Y-129809141D01*
X136857110Y-129809141D01*
X136356446Y-129272568D01*
X136096581Y-128995039D01*
X135804916Y-128685195D01*
X135492981Y-128355124D01*
X135172311Y-128016910D01*
X134854435Y-127682640D01*
X134550886Y-127364402D01*
X134273196Y-127074280D01*
X134032897Y-126824362D01*
X133841520Y-126626733D01*
X133710597Y-126493481D01*
X133651661Y-126436691D01*
X133649568Y-126435531D01*
X133036165Y-126435531D01*
X132976585Y-125721097D01*
X129996032Y-122586531D01*
X127015480Y-119451966D01*
X127017673Y-119013846D01*
X127019867Y-118575725D01*
X127501334Y-119090038D01*
X127770791Y-119376894D01*
X128088924Y-119713912D01*
X128447147Y-120092125D01*
X128836874Y-120502564D01*
X129249522Y-120936261D01*
X129676503Y-121384246D01*
X130109234Y-121837552D01*
X130539128Y-122287211D01*
X130957601Y-122724253D01*
X131356067Y-123139710D01*
X131725941Y-123524614D01*
X132058637Y-123869996D01*
X132345571Y-124166887D01*
X132578157Y-124406321D01*
X132747810Y-124579327D01*
X132845944Y-124676937D01*
X132867452Y-124695661D01*
X132868930Y-124630523D01*
X132860795Y-124463749D01*
X132844458Y-124218029D01*
X132821333Y-123916056D01*
X132811408Y-123795425D01*
X132737480Y-122913072D01*
X133316296Y-122913072D01*
X133346179Y-123053489D01*
X133361420Y-123164540D01*
X133382835Y-123373486D01*
X133407950Y-123653707D01*
X133434287Y-123978582D01*
X133443403Y-124098821D01*
X133470290Y-124444053D01*
X133497427Y-124764656D01*
X133522099Y-125030337D01*
X133541592Y-125210805D01*
X133545989Y-125243555D01*
X133562572Y-125310793D01*
X133598468Y-125389499D01*
X133661309Y-125488496D01*
X133758728Y-125616607D01*
X133898357Y-125782655D01*
X134087829Y-125995461D01*
X134334776Y-126263850D01*
X134646831Y-126596644D01*
X135031626Y-127002666D01*
X135424163Y-127414642D01*
X135814696Y-127822335D01*
X136179248Y-128199904D01*
X136508743Y-128538170D01*
X136794107Y-128827953D01*
X137026264Y-129060075D01*
X137196140Y-129225355D01*
X137294660Y-129314614D01*
X137315670Y-129327893D01*
X137370944Y-129279745D01*
X137500145Y-129154180D01*
X137690734Y-128963796D01*
X137930168Y-128721188D01*
X138205910Y-128438953D01*
X138405320Y-128233342D01*
X139446395Y-127156806D01*
X136376659Y-127156806D01*
X136376659Y-125971057D01*
X140121131Y-125971057D01*
X140121131Y-126499395D01*
X140807617Y-125815037D01*
X141294590Y-125329574D01*
X142242998Y-125329574D01*
X142252070Y-125406154D01*
X142297987Y-125448823D01*
X142408801Y-125467414D01*
X142612561Y-125471762D01*
X142648649Y-125471794D01*
X143054300Y-125471794D01*
X143054300Y-124383262D01*
X142648649Y-124785308D01*
X142419820Y-125029741D01*
X142282957Y-125217004D01*
X142242998Y-125329574D01*
X141294590Y-125329574D01*
X141494104Y-125130679D01*
X141494104Y-124521139D01*
X141496015Y-124240711D01*
X141504763Y-124062310D01*
X141524866Y-123963170D01*
X141560843Y-123920523D01*
X141615095Y-123911598D01*
X141675434Y-123898492D01*
X141720031Y-123845949D01*
X141754280Y-123734128D01*
X141783571Y-123543186D01*
X141813296Y-123253283D01*
X141822835Y-123147101D01*
X141843488Y-122913072D01*
X133316296Y-122913072D01*
X132737480Y-122913072D01*
X131945701Y-122913072D01*
X131945701Y-122351401D01*
X132282178Y-122351401D01*
X132478978Y-122346010D01*
X132585913Y-122319993D01*
X132598996Y-122304507D01*
X133288195Y-122304507D01*
X133324468Y-122339883D01*
X133450109Y-122350802D01*
X133534905Y-122351401D01*
X133817937Y-122351401D01*
X134873402Y-122351401D01*
X141893882Y-122351401D01*
X141656428Y-122108226D01*
X141287623Y-121808144D01*
X140831183Y-121576699D01*
X140279371Y-121410718D01*
X139731081Y-121318918D01*
X139372236Y-121276086D01*
X139372236Y-121727322D01*
X136501475Y-121727322D01*
X136501475Y-121215392D01*
X136080222Y-121258085D01*
X135785891Y-121294118D01*
X135472303Y-121341882D01*
X135284521Y-121375994D01*
X134910074Y-121451210D01*
X134891738Y-121901305D01*
X134873402Y-122351401D01*
X133817937Y-122351401D01*
X133817937Y-122101770D01*
X133809685Y-121945386D01*
X133789072Y-121858465D01*
X133780765Y-121852138D01*
X133688373Y-121892167D01*
X133553392Y-121989278D01*
X133418073Y-122109009D01*
X133324672Y-122216896D01*
X133316351Y-122230925D01*
X133288195Y-122304507D01*
X132598996Y-122304507D01*
X132637796Y-122258585D01*
X132658740Y-122191693D01*
X132744224Y-122018096D01*
X132908406Y-121809408D01*
X133123039Y-121594888D01*
X133359875Y-121403797D01*
X133515442Y-121304268D01*
X133692657Y-121195328D01*
X133783502Y-121103809D01*
X133815421Y-120995896D01*
X133817873Y-120931622D01*
X133817877Y-120916020D01*
X137000737Y-120916020D01*
X137000737Y-121228059D01*
X138872973Y-121228059D01*
X138872973Y-120916020D01*
X137000737Y-120916020D01*
X133817877Y-120916020D01*
X133817937Y-120728797D01*
X134343203Y-120728797D01*
X134584873Y-120734638D01*
X134773226Y-120750206D01*
X134877931Y-120772567D01*
X134889271Y-120781621D01*
X134955689Y-120795519D01*
X135117327Y-120789826D01*
X135346415Y-120766226D01*
X135502949Y-120744434D01*
X135786782Y-120701628D01*
X136046364Y-120662983D01*
X136241437Y-120634472D01*
X136298649Y-120626374D01*
X136448127Y-120580081D01*
X136501475Y-120507541D01*
X136517694Y-120477998D01*
X136575715Y-120455459D01*
X136689579Y-120439038D01*
X136873328Y-120427847D01*
X137141005Y-120420996D01*
X137506652Y-120417598D01*
X137936855Y-120416757D01*
X138395994Y-120417234D01*
X138745282Y-120419486D01*
X138999686Y-120424744D01*
X139174170Y-120434241D01*
X139283699Y-120449208D01*
X139343238Y-120470877D01*
X139367752Y-120500478D01*
X139372236Y-120534896D01*
X139410420Y-120644141D01*
X139535493Y-120706308D01*
X139763238Y-120728481D01*
X139804213Y-120728797D01*
X140189893Y-120768583D01*
X140627941Y-120878109D01*
X141078852Y-121042626D01*
X141503123Y-121247384D01*
X141861248Y-121477634D01*
X141907632Y-121514116D01*
X142058815Y-121632813D01*
X142148344Y-121680353D01*
X142210867Y-121664984D01*
X142275045Y-121601575D01*
X142464599Y-121477368D01*
X142711295Y-121429687D01*
X142976953Y-121454484D01*
X143223393Y-121547710D01*
X143412433Y-121705317D01*
X143426123Y-121723636D01*
X143567573Y-122017841D01*
X143593891Y-122322376D01*
X143507978Y-122612682D01*
X143312737Y-122864200D01*
X143288864Y-122884969D01*
X143150245Y-122983628D01*
X143009599Y-123027076D01*
X142811873Y-123030213D01*
X142762478Y-123027429D01*
X142569020Y-123020331D01*
X142469369Y-123036596D01*
X142433295Y-123085675D01*
X142429594Y-123131499D01*
X142422032Y-123264431D01*
X142403268Y-123464349D01*
X142389782Y-123583956D01*
X142370222Y-123773932D01*
X142378358Y-123871184D01*
X142425529Y-123906730D01*
X142509557Y-123911598D01*
X142559391Y-123895525D01*
X142639783Y-123843507D01*
X142756690Y-123749842D01*
X142916070Y-123608829D01*
X143123880Y-123414767D01*
X143386078Y-123161954D01*
X143708621Y-122844690D01*
X144097466Y-122457273D01*
X144558572Y-121994003D01*
X145097895Y-121449178D01*
X145357807Y-121185904D01*
X148046929Y-118460212D01*
X148043856Y-118892415D01*
G36*
X148043856Y-118892415D02*
G01*
X148040782Y-119324620D01*
X143556832Y-123880394D01*
X143555197Y-124925725D01*
X143553563Y-125971057D01*
X142188238Y-125971057D01*
X142153057Y-126236290D01*
X142139736Y-126357184D01*
X142117281Y-126584846D01*
X142086894Y-126905696D01*
X142049776Y-127306152D01*
X142007128Y-127772636D01*
X141960150Y-128291566D01*
X141910044Y-128849362D01*
X141858011Y-129432443D01*
X141805252Y-130027229D01*
X141752967Y-130620140D01*
X141702359Y-131197595D01*
X141654628Y-131746014D01*
X141610975Y-132251816D01*
X141572600Y-132701421D01*
X141540706Y-133081248D01*
X141516494Y-133377717D01*
X141501163Y-133577248D01*
X141495916Y-133666260D01*
X141495920Y-133666684D01*
X141534179Y-133738107D01*
X141649095Y-133885581D01*
X141842231Y-134110823D01*
X142115150Y-134415550D01*
X142469418Y-134801478D01*
X142906596Y-135270324D01*
X143428250Y-135823805D01*
X144035941Y-136463636D01*
X144206751Y-136642801D01*
X146915765Y-139482359D01*
X146696753Y-139700787D01*
X146477740Y-139919214D01*
X146123391Y-139533688D01*
X145993758Y-139394360D01*
X145791262Y-139178901D01*
X145529263Y-138901425D01*
X145221121Y-138576047D01*
X144880198Y-138216883D01*
X144519853Y-137838048D01*
X144304277Y-137611787D01*
X143899559Y-137187911D01*
X143572428Y-136848388D01*
X143314542Y-136587045D01*
X143117562Y-136397708D01*
X142973144Y-136274203D01*
X142872948Y-136210356D01*
X142808632Y-136199994D01*
X142771855Y-136236942D01*
X142754275Y-136315028D01*
X142747551Y-136428076D01*
X142746647Y-136458926D01*
X142699903Y-136671455D01*
X142584729Y-136928337D01*
X142424117Y-137188949D01*
X142241056Y-137412665D01*
X142167805Y-137481772D01*
X141791965Y-137723575D01*
X141352931Y-137858866D01*
X140964773Y-137890959D01*
X140524880Y-137830427D01*
X140118615Y-137652930D01*
X139759049Y-137364614D01*
X139692705Y-137292848D01*
X139450112Y-137017249D01*
X135253317Y-137017249D01*
X135253317Y-137890959D01*
X134129976Y-137890959D01*
X134129976Y-137482781D01*
X134115880Y-137204128D01*
X134068518Y-137010714D01*
X134010957Y-136905508D01*
X133969830Y-136830233D01*
X133934614Y-136721091D01*
X133902974Y-136561902D01*
X133872578Y-136336486D01*
X133841092Y-136028664D01*
X133806183Y-135622255D01*
X133782280Y-135319918D01*
X133672620Y-133903422D01*
X130980587Y-136630483D01*
X130493841Y-137123933D01*
X130026576Y-137598345D01*
X129587332Y-138045003D01*
X129184647Y-138455193D01*
X128827057Y-138820198D01*
X128523102Y-139131305D01*
X128281320Y-139379798D01*
X128110247Y-139556962D01*
X128018516Y-139653981D01*
X127867811Y-139807584D01*
X127742105Y-139914718D01*
X127674490Y-139950418D01*
X127588127Y-139908600D01*
X127462239Y-139804113D01*
X127419566Y-139761562D01*
X127238631Y-139572706D01*
X128234795Y-138560412D01*
X128488935Y-138302534D01*
X128816635Y-137970607D01*
X129203520Y-137579159D01*
X129635214Y-137142721D01*
X130097341Y-136675823D01*
X130575527Y-136192994D01*
X131055396Y-135708765D01*
X131399632Y-135361603D01*
X131922901Y-134832559D01*
X132362504Y-134384666D01*
X132724064Y-134011863D01*
X133013203Y-133708087D01*
X133235546Y-133467275D01*
X133345744Y-133341526D01*
X134230660Y-133341526D01*
X134341452Y-134758134D01*
X134374864Y-135173370D01*
X134407184Y-135553092D01*
X134436582Y-135877452D01*
X134461226Y-136126604D01*
X134479287Y-136280700D01*
X134485099Y-136315160D01*
X134517954Y-136455578D01*
X139230332Y-136455578D01*
X139261789Y-136063693D01*
X139356762Y-135600678D01*
X139555508Y-135191099D01*
X139845497Y-134849870D01*
X140214201Y-134591909D01*
X140628033Y-134437060D01*
X140762287Y-134364425D01*
X140829500Y-134208536D01*
X140830907Y-134201659D01*
X140838971Y-134135848D01*
X140829002Y-134068458D01*
X140791269Y-133986990D01*
X140716042Y-133878943D01*
X140593590Y-133731818D01*
X140414182Y-133533114D01*
X140168089Y-133270332D01*
X139845580Y-132930972D01*
X139824742Y-132909114D01*
X139477848Y-132544849D01*
X139109052Y-132156859D01*
X138743695Y-131771856D01*
X138407119Y-131416548D01*
X138124665Y-131117646D01*
X138061671Y-131050824D01*
X137820191Y-130798860D01*
X137605674Y-130583237D01*
X137433519Y-130418787D01*
X137319127Y-130320340D01*
X137280719Y-130298703D01*
X137223444Y-130343987D01*
X137089498Y-130468215D01*
X136889430Y-130661044D01*
X136633789Y-130912132D01*
X136333121Y-131211138D01*
X135997977Y-131547718D01*
X135724059Y-131824965D01*
X134230660Y-133341526D01*
X133345744Y-133341526D01*
X133396714Y-133283364D01*
X133502331Y-133150292D01*
X133558021Y-133061996D01*
X133570412Y-133021107D01*
X133565718Y-132931870D01*
X133551458Y-132729882D01*
X133528555Y-132426768D01*
X133497931Y-132034150D01*
X133460509Y-131563653D01*
X133417212Y-131026901D01*
X133368963Y-130435516D01*
X133316684Y-129801123D01*
X133274552Y-129294111D01*
X133036165Y-126435531D01*
X133649568Y-126435531D01*
X133652210Y-126497221D01*
X133664636Y-126670962D01*
X133685846Y-126944459D01*
X133714844Y-127305415D01*
X133750630Y-127741532D01*
X133792206Y-128240514D01*
X133838575Y-128790063D01*
X133883072Y-129311825D01*
X133933477Y-129903823D01*
X133980426Y-130462654D01*
X134022844Y-130974979D01*
X134059655Y-131427456D01*
X134089784Y-131806748D01*
X134112155Y-132099514D01*
X134125693Y-132292415D01*
X134129451Y-132367331D01*
X134135311Y-132413957D01*
X134158533Y-132432459D01*
X134208067Y-132415115D01*
X134292865Y-132354207D01*
X134421879Y-132242013D01*
X134604058Y-132070815D01*
X134848356Y-131832891D01*
X135163722Y-131520521D01*
X135498338Y-131186721D01*
X136866700Y-129819419D01*
X136857110Y-129809141D01*
X137761610Y-129809141D01*
X137802832Y-129865593D01*
X137918233Y-129998518D01*
X138096247Y-130195701D01*
X138325309Y-130444924D01*
X138593851Y-130733971D01*
X138890309Y-131050625D01*
X139203115Y-131382669D01*
X139520704Y-131717887D01*
X139831510Y-132044062D01*
X140123966Y-132348978D01*
X140386506Y-132620418D01*
X140607565Y-132846165D01*
X140775576Y-133014003D01*
X140878973Y-133111714D01*
X140907169Y-133131620D01*
X140916464Y-133067368D01*
X140935760Y-132889900D01*
X140963995Y-132610327D01*
X141000107Y-132239759D01*
X141043037Y-131789303D01*
X141091722Y-131270071D01*
X141145103Y-130693172D01*
X141202116Y-130069716D01*
X141247638Y-129566996D01*
X141305868Y-128915142D01*
X141359668Y-128301067D01*
X141408131Y-127735910D01*
X141450354Y-127230812D01*
X141485432Y-126796913D01*
X141512459Y-126445351D01*
X141530532Y-126187268D01*
X141538746Y-126033802D01*
X141537806Y-125993957D01*
X141488713Y-126029449D01*
X141363692Y-126143535D01*
X141173674Y-126325174D01*
X140929587Y-126563322D01*
X140642362Y-126846937D01*
X140322928Y-127164977D01*
X139982215Y-127506399D01*
X139631152Y-127860161D01*
X139280670Y-128215219D01*
X138941697Y-128560533D01*
X138625164Y-128885058D01*
X138342000Y-129177754D01*
X138103135Y-129427576D01*
X137919498Y-129623483D01*
X137802019Y-129754432D01*
X137761610Y-129809141D01*
X136857110Y-129809141D01*
X136356446Y-129272568D01*
X136096581Y-128995039D01*
X135804916Y-128685195D01*
X135492981Y-128355124D01*
X135172311Y-128016910D01*
X134854435Y-127682640D01*
X134550886Y-127364402D01*
X134273196Y-127074280D01*
X134032897Y-126824362D01*
X133841520Y-126626733D01*
X133710597Y-126493481D01*
X133651661Y-126436691D01*
X133649568Y-126435531D01*
X133036165Y-126435531D01*
X132976585Y-125721097D01*
X129996032Y-122586531D01*
X127015480Y-119451966D01*
X127017673Y-119013846D01*
X127019867Y-118575725D01*
X127501334Y-119090038D01*
X127770791Y-119376894D01*
X128088924Y-119713912D01*
X128447147Y-120092125D01*
X128836874Y-120502564D01*
X129249522Y-120936261D01*
X129676503Y-121384246D01*
X130109234Y-121837552D01*
X130539128Y-122287211D01*
X130957601Y-122724253D01*
X131356067Y-123139710D01*
X131725941Y-123524614D01*
X132058637Y-123869996D01*
X132345571Y-124166887D01*
X132578157Y-124406321D01*
X132747810Y-124579327D01*
X132845944Y-124676937D01*
X132867452Y-124695661D01*
X132868930Y-124630523D01*
X132860795Y-124463749D01*
X132844458Y-124218029D01*
X132821333Y-123916056D01*
X132811408Y-123795425D01*
X132737480Y-122913072D01*
X133316296Y-122913072D01*
X133346179Y-123053489D01*
X133361420Y-123164540D01*
X133382835Y-123373486D01*
X133407950Y-123653707D01*
X133434287Y-123978582D01*
X133443403Y-124098821D01*
X133470290Y-124444053D01*
X133497427Y-124764656D01*
X133522099Y-125030337D01*
X133541592Y-125210805D01*
X133545989Y-125243555D01*
X133562572Y-125310793D01*
X133598468Y-125389499D01*
X133661309Y-125488496D01*
X133758728Y-125616607D01*
X133898357Y-125782655D01*
X134087829Y-125995461D01*
X134334776Y-126263850D01*
X134646831Y-126596644D01*
X135031626Y-127002666D01*
X135424163Y-127414642D01*
X135814696Y-127822335D01*
X136179248Y-128199904D01*
X136508743Y-128538170D01*
X136794107Y-128827953D01*
X137026264Y-129060075D01*
X137196140Y-129225355D01*
X137294660Y-129314614D01*
X137315670Y-129327893D01*
X137370944Y-129279745D01*
X137500145Y-129154180D01*
X137690734Y-128963796D01*
X137930168Y-128721188D01*
X138205910Y-128438953D01*
X138405320Y-128233342D01*
X139446395Y-127156806D01*
X136376659Y-127156806D01*
X136376659Y-125971057D01*
X140121131Y-125971057D01*
X140121131Y-126499395D01*
X140807617Y-125815037D01*
X141294590Y-125329574D01*
X142242998Y-125329574D01*
X142252070Y-125406154D01*
X142297987Y-125448823D01*
X142408801Y-125467414D01*
X142612561Y-125471762D01*
X142648649Y-125471794D01*
X143054300Y-125471794D01*
X143054300Y-124383262D01*
X142648649Y-124785308D01*
X142419820Y-125029741D01*
X142282957Y-125217004D01*
X142242998Y-125329574D01*
X141294590Y-125329574D01*
X141494104Y-125130679D01*
X141494104Y-124521139D01*
X141496015Y-124240711D01*
X141504763Y-124062310D01*
X141524866Y-123963170D01*
X141560843Y-123920523D01*
X141615095Y-123911598D01*
X141675434Y-123898492D01*
X141720031Y-123845949D01*
X141754280Y-123734128D01*
X141783571Y-123543186D01*
X141813296Y-123253283D01*
X141822835Y-123147101D01*
X141843488Y-122913072D01*
X133316296Y-122913072D01*
X132737480Y-122913072D01*
X131945701Y-122913072D01*
X131945701Y-122351401D01*
X132282178Y-122351401D01*
X132478978Y-122346010D01*
X132585913Y-122319993D01*
X132598996Y-122304507D01*
X133288195Y-122304507D01*
X133324468Y-122339883D01*
X133450109Y-122350802D01*
X133534905Y-122351401D01*
X133817937Y-122351401D01*
X134873402Y-122351401D01*
X141893882Y-122351401D01*
X141656428Y-122108226D01*
X141287623Y-121808144D01*
X140831183Y-121576699D01*
X140279371Y-121410718D01*
X139731081Y-121318918D01*
X139372236Y-121276086D01*
X139372236Y-121727322D01*
X136501475Y-121727322D01*
X136501475Y-121215392D01*
X136080222Y-121258085D01*
X135785891Y-121294118D01*
X135472303Y-121341882D01*
X135284521Y-121375994D01*
X134910074Y-121451210D01*
X134891738Y-121901305D01*
X134873402Y-122351401D01*
X133817937Y-122351401D01*
X133817937Y-122101770D01*
X133809685Y-121945386D01*
X133789072Y-121858465D01*
X133780765Y-121852138D01*
X133688373Y-121892167D01*
X133553392Y-121989278D01*
X133418073Y-122109009D01*
X133324672Y-122216896D01*
X133316351Y-122230925D01*
X133288195Y-122304507D01*
X132598996Y-122304507D01*
X132637796Y-122258585D01*
X132658740Y-122191693D01*
X132744224Y-122018096D01*
X132908406Y-121809408D01*
X133123039Y-121594888D01*
X133359875Y-121403797D01*
X133515442Y-121304268D01*
X133692657Y-121195328D01*
X133783502Y-121103809D01*
X133815421Y-120995896D01*
X133817873Y-120931622D01*
X133817877Y-120916020D01*
X137000737Y-120916020D01*
X137000737Y-121228059D01*
X138872973Y-121228059D01*
X138872973Y-120916020D01*
X137000737Y-120916020D01*
X133817877Y-120916020D01*
X133817937Y-120728797D01*
X134343203Y-120728797D01*
X134584873Y-120734638D01*
X134773226Y-120750206D01*
X134877931Y-120772567D01*
X134889271Y-120781621D01*
X134955689Y-120795519D01*
X135117327Y-120789826D01*
X135346415Y-120766226D01*
X135502949Y-120744434D01*
X135786782Y-120701628D01*
X136046364Y-120662983D01*
X136241437Y-120634472D01*
X136298649Y-120626374D01*
X136448127Y-120580081D01*
X136501475Y-120507541D01*
X136517694Y-120477998D01*
X136575715Y-120455459D01*
X136689579Y-120439038D01*
X136873328Y-120427847D01*
X137141005Y-120420996D01*
X137506652Y-120417598D01*
X137936855Y-120416757D01*
X138395994Y-120417234D01*
X138745282Y-120419486D01*
X138999686Y-120424744D01*
X139174170Y-120434241D01*
X139283699Y-120449208D01*
X139343238Y-120470877D01*
X139367752Y-120500478D01*
X139372236Y-120534896D01*
X139410420Y-120644141D01*
X139535493Y-120706308D01*
X139763238Y-120728481D01*
X139804213Y-120728797D01*
X140189893Y-120768583D01*
X140627941Y-120878109D01*
X141078852Y-121042626D01*
X141503123Y-121247384D01*
X141861248Y-121477634D01*
X141907632Y-121514116D01*
X142058815Y-121632813D01*
X142148344Y-121680353D01*
X142210867Y-121664984D01*
X142275045Y-121601575D01*
X142464599Y-121477368D01*
X142711295Y-121429687D01*
X142976953Y-121454484D01*
X143223393Y-121547710D01*
X143412433Y-121705317D01*
X143426123Y-121723636D01*
X143567573Y-122017841D01*
X143593891Y-122322376D01*
X143507978Y-122612682D01*
X143312737Y-122864200D01*
X143288864Y-122884969D01*
X143150245Y-122983628D01*
X143009599Y-123027076D01*
X142811873Y-123030213D01*
X142762478Y-123027429D01*
X142569020Y-123020331D01*
X142469369Y-123036596D01*
X142433295Y-123085675D01*
X142429594Y-123131499D01*
X142422032Y-123264431D01*
X142403268Y-123464349D01*
X142389782Y-123583956D01*
X142370222Y-123773932D01*
X142378358Y-123871184D01*
X142425529Y-123906730D01*
X142509557Y-123911598D01*
X142559391Y-123895525D01*
X142639783Y-123843507D01*
X142756690Y-123749842D01*
X142916070Y-123608829D01*
X143123880Y-123414767D01*
X143386078Y-123161954D01*
X143708621Y-122844690D01*
X144097466Y-122457273D01*
X144558572Y-121994003D01*
X145097895Y-121449178D01*
X145357807Y-121185904D01*
X148046929Y-118460212D01*
X148043856Y-118892415D01*
G37*
D13*
%TO.C,D2*%
X79065000Y-68696000D02*
X79065000Y-68540000D01*
X79065000Y-66380000D02*
X79065000Y-66224000D01*
X75832666Y-68538608D02*
G75*
G03*
X79064999Y-68695515I1672334J1078608D01*
G01*
X76463871Y-68539836D02*
G75*
G03*
X78545960Y-68539999I1041129J1079836D01*
G01*
X78545960Y-66380001D02*
G75*
G03*
X76463871Y-66380164I-1040960J-1079999D01*
G01*
X79064999Y-66224485D02*
G75*
G03*
X75832666Y-66381392I-1559999J-1235515D01*
G01*
%TD*%
M02*
