M48
; DRILL file {KiCad 7.0.7} date Mon Nov 13 12:36:35 2023
; FORMAT={-:-/ absolute / inch / decimal}
; #@! TF.CreationDate,2023-11-13T12:36:35-05:00
; #@! TF.GenerationSoftware,Kicad,Pcbnew,7.0.7
; #@! TF.FileFunction,Plated,1,2,PTH
FMAT,2
INCH
; #@! TA.AperFunction,Plated,PTH,ViaDrill
T1C0.0157
; #@! TA.AperFunction,Plated,PTH,ComponentDrill
T2C0.0276
; #@! TA.AperFunction,Plated,PTH,ComponentDrill
T3C0.0295
; #@! TA.AperFunction,Plated,PTH,ComponentDrill
T4C0.0354
; #@! TA.AperFunction,Plated,PTH,ComponentDrill
T5C0.0394
%
G90
G05
T1
X4.8622Y-2.126
T2
X4.9197Y-3.6417
X4.9213Y-2.2638
X5.1197Y-3.6417
X5.1213Y-2.2638
X5.5496Y-3.3071
X5.5512Y-2.5984
X5.7496Y-3.3071
X5.7512Y-2.5984
X6.7913Y-2.6362
X6.7913Y-2.8362
X6.7913Y-3.1677
X6.7913Y-3.3677
X7.4394Y-2.9528
X7.6394Y-2.9528
T3
X6.2634Y-2.4516
X6.2634Y-2.9528
X6.2634Y-3.3465
X6.3134Y-2.4016
X6.3134Y-2.5016
X6.3134Y-2.9028
X6.3134Y-3.0028
X6.3134Y-3.2965
X6.3134Y-3.3965
T4
X4.9699Y-2.6575
X4.9699Y-3.248
X5.0699Y-2.6575
X5.0699Y-3.248
X7.0457Y-2.9528
X7.1457Y-2.9528
T5
X4.1339Y-2.9035
X4.1339Y-3.0035
X4.5254Y-2.6585
X4.5254Y-3.2687
X4.6254Y-2.6585
X4.6254Y-3.2687
X4.7254Y-2.6585
X4.7254Y-3.2687
T0
M30
