%TF.GenerationSoftware,KiCad,Pcbnew,7.0.7*%
%TF.CreationDate,2023-11-14T16:40:55-05:00*%
%TF.ProjectId,TEJ4M-Unit-1-04,54454a34-4d2d-4556-9e69-742d312d3034,rev?*%
%TF.SameCoordinates,Original*%
%TF.FileFunction,Copper,L1,Top*%
%TF.FilePolarity,Positive*%
%FSLAX46Y46*%
G04 Gerber Fmt 4.6, Leading zero omitted, Abs format (unit mm)*
G04 Created by KiCad (PCBNEW 7.0.7) date 2023-11-14 16:40:55*
%MOMM*%
%LPD*%
G01*
G04 APERTURE LIST*
%TA.AperFunction,ComponentPad*%
%ADD10C,1.400000*%
%TD*%
%TA.AperFunction,ComponentPad*%
%ADD11O,1.400000X1.400000*%
%TD*%
%TA.AperFunction,ComponentPad*%
%ADD12R,1.300000X1.300000*%
%TD*%
%TA.AperFunction,ComponentPad*%
%ADD13C,1.300000*%
%TD*%
%TA.AperFunction,ComponentPad*%
%ADD14R,1.800000X1.800000*%
%TD*%
%TA.AperFunction,ComponentPad*%
%ADD15C,1.800000*%
%TD*%
%TA.AperFunction,ComponentPad*%
%ADD16R,1.700000X1.700000*%
%TD*%
%TA.AperFunction,ComponentPad*%
%ADD17O,1.700000X1.700000*%
%TD*%
%TA.AperFunction,ViaPad*%
%ADD18C,0.800000*%
%TD*%
%TA.AperFunction,Conductor*%
%ADD19C,0.250000*%
%TD*%
G04 APERTURE END LIST*
D10*
%TO.P,R7,1*%
%TO.N,Net-(D7-K)*%
X138960000Y-74960000D03*
D11*
%TO.P,R7,2*%
%TO.N,Net-(J3-Pin_1)*%
X144040000Y-74960000D03*
%TD*%
D10*
%TO.P,R1,1*%
%TO.N,Net-(D1-K)*%
X80040000Y-92460000D03*
D11*
%TO.P,R1,2*%
%TO.N,Net-(J3-Pin_1)*%
X74960000Y-92460000D03*
%TD*%
D10*
%TO.P,R5,1*%
%TO.N,Net-(Q2-E)*%
X122500000Y-85500000D03*
D11*
%TO.P,R5,2*%
%TO.N,Net-(J3-Pin_2)*%
X122500000Y-80420000D03*
%TD*%
D12*
%TO.P,Q2,1,C*%
%TO.N,Net-(Q1-E)*%
X110360000Y-76230000D03*
D13*
%TO.P,Q2,2,B*%
%TO.N,Net-(Q2-B)*%
X109090000Y-74960000D03*
%TO.P,Q2,3,E*%
%TO.N,Net-(Q2-E)*%
X110360000Y-73690000D03*
%TD*%
D14*
%TO.P,D1,1,K*%
%TO.N,Net-(D1-K)*%
X78775000Y-82460000D03*
D15*
%TO.P,D1,2,A*%
%TO.N,Net-(D1-A)*%
X76235000Y-82460000D03*
%TD*%
D12*
%TO.P,Q3,1,C*%
%TO.N,Net-(J3-Pin_1)*%
X110360000Y-63500000D03*
D13*
%TO.P,Q3,2,B*%
%TO.N,Net-(Q2-E)*%
X109090000Y-62230000D03*
%TO.P,Q3,3,E*%
%TO.N,Net-(D7-A)*%
X110360000Y-60960000D03*
%TD*%
D16*
%TO.P,J2,1*%
%TO.N,Net-(J3-Pin_2)*%
X70025000Y-67485000D03*
D17*
%TO.P,J2,2*%
%TO.N,Net-(D2-A)*%
X67485000Y-67485000D03*
%TO.P,J2,3*%
%TO.N,Net-(J3-Pin_1)*%
X64945000Y-67485000D03*
%TD*%
D16*
%TO.P,J1,1*%
%TO.N,Net-(J3-Pin_2)*%
X70025000Y-82985000D03*
D17*
%TO.P,J1,2*%
%TO.N,Net-(D1-A)*%
X67485000Y-82985000D03*
%TO.P,J1,3*%
%TO.N,Net-(J3-Pin_1)*%
X64945000Y-82985000D03*
%TD*%
D10*
%TO.P,R2,1*%
%TO.N,Net-(D2-K)*%
X80080000Y-57460000D03*
D11*
%TO.P,R2,2*%
%TO.N,Net-(J3-Pin_1)*%
X75000000Y-57460000D03*
%TD*%
D10*
%TO.P,R6,1*%
%TO.N,Net-(D7-A)*%
X122500000Y-66920000D03*
D11*
%TO.P,R6,2*%
%TO.N,Net-(J3-Pin_2)*%
X122500000Y-72000000D03*
%TD*%
D14*
%TO.P,D7,1,K*%
%TO.N,Net-(D7-K)*%
X131500000Y-74960000D03*
D15*
%TO.P,D7,2,A*%
%TO.N,Net-(D7-A)*%
X128960000Y-74960000D03*
%TD*%
D10*
%TO.P,R4,1*%
%TO.N,Net-(D2-A)*%
X91000000Y-65960000D03*
D11*
%TO.P,R4,2*%
%TO.N,Net-(Q2-B)*%
X96080000Y-65960000D03*
%TD*%
D16*
%TO.P,J3,1,Pin_1*%
%TO.N,Net-(J3-Pin_1)*%
X55000000Y-73710000D03*
D17*
%TO.P,J3,2,Pin_2*%
%TO.N,Net-(J3-Pin_2)*%
X55000000Y-76250000D03*
%TD*%
D12*
%TO.P,Q1,1,C*%
%TO.N,Net-(J3-Pin_1)*%
X110360000Y-86230000D03*
D13*
%TO.P,Q1,2,B*%
%TO.N,Net-(Q1-B)*%
X109090000Y-84960000D03*
%TO.P,Q1,3,E*%
%TO.N,Net-(Q1-E)*%
X110360000Y-83690000D03*
%TD*%
D10*
%TO.P,R3,1*%
%TO.N,Net-(D1-A)*%
X90960000Y-83960000D03*
D11*
%TO.P,R3,2*%
%TO.N,Net-(Q1-B)*%
X96040000Y-83960000D03*
%TD*%
D14*
%TO.P,D2,1,K*%
%TO.N,Net-(D2-K)*%
X78775000Y-67460000D03*
D15*
%TO.P,D2,2,A*%
%TO.N,Net-(D2-A)*%
X76235000Y-67460000D03*
%TD*%
D18*
%TO.N,Net-(J3-Pin_1)*%
X73500000Y-53960000D03*
%TD*%
D19*
%TO.N,Net-(D1-K)*%
X80040000Y-83725000D02*
X80040000Y-92460000D01*
X78775000Y-82460000D02*
X80040000Y-83725000D01*
%TO.N,Net-(D1-A)*%
X67485000Y-84445000D02*
X68500000Y-85460000D01*
X75500000Y-85460000D02*
X76235000Y-84725000D01*
X76235000Y-84725000D02*
X76235000Y-82460000D01*
X68500000Y-85460000D02*
X75500000Y-85460000D01*
X67485000Y-82985000D02*
X67485000Y-84445000D01*
%TO.N,Net-(D2-K)*%
X78775000Y-67460000D02*
X80080000Y-66155000D01*
X80080000Y-66155000D02*
X80080000Y-57460000D01*
%TO.N,Net-(D2-A)*%
X67485000Y-65475000D02*
X67485000Y-67485000D01*
X76235000Y-65195000D02*
X75500000Y-64460000D01*
X76235000Y-67460000D02*
X76235000Y-65195000D01*
X68500000Y-64460000D02*
X67485000Y-65475000D01*
X75500000Y-64460000D02*
X68500000Y-64460000D01*
%TO.N,Net-(D7-K)*%
X131500000Y-74960000D02*
X138960000Y-74960000D01*
%TO.N,Net-(D7-A)*%
X121000000Y-60960000D02*
X122500000Y-62460000D01*
X122500000Y-62460000D02*
X122500000Y-66920000D01*
X122500000Y-66920000D02*
X127460000Y-66920000D01*
X127460000Y-66920000D02*
X129000000Y-68460000D01*
X128960000Y-68500000D02*
X128960000Y-74960000D01*
X110360000Y-60960000D02*
X121000000Y-60960000D01*
X129000000Y-68460000D02*
X128960000Y-68500000D01*
%TO.N,Net-(J3-Pin_2)*%
X122500000Y-80420000D02*
X122500000Y-72000000D01*
X70000000Y-67510000D02*
X70000000Y-75460000D01*
X70000000Y-76460000D02*
X55210000Y-76460000D01*
X70025000Y-67485000D02*
X70000000Y-67510000D01*
X70000000Y-75460000D02*
X70000000Y-76460000D01*
X70000000Y-82960000D02*
X70000000Y-75460000D01*
X70025000Y-82985000D02*
X70000000Y-82960000D01*
X55210000Y-76460000D02*
X55000000Y-76250000D01*
%TO.N,Net-(J3-Pin_1)*%
X52525000Y-82985000D02*
X52000000Y-82460000D01*
X143000000Y-94960000D02*
X109500000Y-94960000D01*
X64945000Y-82985000D02*
X52525000Y-82985000D01*
X55000000Y-58460000D02*
X55000000Y-58960000D01*
X110360000Y-86230000D02*
X110360000Y-94100000D01*
X75000000Y-57460000D02*
X56000000Y-57460000D01*
X55000000Y-73710000D02*
X55000000Y-67960000D01*
X64920000Y-67460000D02*
X55500000Y-67460000D01*
X56500000Y-53960000D02*
X55000000Y-55460000D01*
X110360000Y-94100000D02*
X109500000Y-94960000D01*
X53000000Y-94960000D02*
X52000000Y-93960000D01*
X52000000Y-82460000D02*
X52000000Y-74960000D01*
X64945000Y-67485000D02*
X64920000Y-67460000D01*
X74960000Y-92460000D02*
X54500000Y-92460000D01*
X53250000Y-73710000D02*
X55000000Y-73710000D01*
X73500000Y-53960000D02*
X56500000Y-53960000D01*
X55500000Y-67460000D02*
X55000000Y-67960000D01*
X55000000Y-58960000D02*
X55000000Y-67960000D01*
X52000000Y-89960000D02*
X52000000Y-82460000D01*
X54500000Y-92460000D02*
X52000000Y-89960000D01*
X52000000Y-74960000D02*
X53250000Y-73710000D01*
X55000000Y-55460000D02*
X55000000Y-58960000D01*
X56000000Y-57460000D02*
X55000000Y-58460000D01*
X144040000Y-74960000D02*
X144040000Y-93920000D01*
X52000000Y-93960000D02*
X52000000Y-89960000D01*
X144040000Y-93920000D02*
X143000000Y-94960000D01*
X109500000Y-94960000D02*
X53000000Y-94960000D01*
%TO.N,Net-(Q1-B)*%
X100500000Y-83960000D02*
X101500000Y-84960000D01*
X101500000Y-84960000D02*
X109090000Y-84960000D01*
X96040000Y-83960000D02*
X100500000Y-83960000D01*
%TO.N,Net-(Q1-E)*%
X110360000Y-83690000D02*
X110360000Y-76230000D01*
%TO.N,Net-(Q2-B)*%
X96080000Y-65960000D02*
X100000000Y-65960000D01*
X102000000Y-67960000D02*
X102000000Y-71960000D01*
X102000000Y-71960000D02*
X105000000Y-74960000D01*
X105000000Y-74960000D02*
X109090000Y-74960000D01*
X100000000Y-65960000D02*
X102000000Y-67960000D01*
%TO.N,Net-(Q2-E)*%
X110360000Y-73690000D02*
X110360000Y-70820000D01*
X110360000Y-73690000D02*
X115730000Y-73690000D01*
X117500000Y-75460000D02*
X117500000Y-83960000D01*
X106000000Y-68960000D02*
X106000000Y-62960000D01*
X110360000Y-70820000D02*
X109500000Y-69960000D01*
X106730000Y-62230000D02*
X109090000Y-62230000D01*
X107000000Y-69960000D02*
X106000000Y-68960000D01*
X119040000Y-85500000D02*
X122500000Y-85500000D01*
X106000000Y-62960000D02*
X106730000Y-62230000D01*
X115730000Y-73690000D02*
X117500000Y-75460000D01*
X117500000Y-83960000D02*
X119040000Y-85500000D01*
X109500000Y-69960000D02*
X107000000Y-69960000D01*
%TD*%
%TA.AperFunction,NonConductor*%
G36*
X149942539Y-49980185D02*
G01*
X149988294Y-50032989D01*
X149999500Y-50084500D01*
X149999500Y-99836000D01*
X149979815Y-99903039D01*
X149927011Y-99948794D01*
X149875500Y-99960000D01*
X50124500Y-99960000D01*
X50057461Y-99940315D01*
X50011706Y-99887511D01*
X50000500Y-99836000D01*
X50000500Y-74940195D01*
X51369840Y-74940195D01*
X51374225Y-74986583D01*
X51374500Y-74992421D01*
X51374500Y-82377255D01*
X51372775Y-82392872D01*
X51373061Y-82392899D01*
X51372326Y-82400665D01*
X51374500Y-82469814D01*
X51374500Y-89877255D01*
X51372775Y-89892872D01*
X51373061Y-89892899D01*
X51372326Y-89900665D01*
X51374500Y-89969814D01*
X51374500Y-93877255D01*
X51372775Y-93892872D01*
X51373061Y-93892899D01*
X51372326Y-93900665D01*
X51374500Y-93969814D01*
X51374500Y-93999343D01*
X51374501Y-93999360D01*
X51375368Y-94006231D01*
X51375826Y-94012050D01*
X51377290Y-94058624D01*
X51377291Y-94058627D01*
X51382880Y-94077867D01*
X51386824Y-94096911D01*
X51389018Y-94114272D01*
X51389336Y-94116791D01*
X51406490Y-94160119D01*
X51408382Y-94165647D01*
X51421381Y-94210388D01*
X51431580Y-94227634D01*
X51440136Y-94245100D01*
X51447514Y-94263732D01*
X51472542Y-94298181D01*
X51474898Y-94301423D01*
X51478106Y-94306307D01*
X51501827Y-94346416D01*
X51501833Y-94346424D01*
X51515990Y-94360580D01*
X51528627Y-94375375D01*
X51540406Y-94391587D01*
X51557567Y-94405784D01*
X51576309Y-94421288D01*
X51580620Y-94425210D01*
X52499193Y-95343784D01*
X52499194Y-95343784D01*
X52509019Y-95356048D01*
X52509240Y-95355866D01*
X52514210Y-95361873D01*
X52514213Y-95361876D01*
X52514214Y-95361877D01*
X52564651Y-95409241D01*
X52585530Y-95430120D01*
X52591004Y-95434366D01*
X52595442Y-95438156D01*
X52629418Y-95470062D01*
X52629422Y-95470064D01*
X52646973Y-95479713D01*
X52663231Y-95490392D01*
X52679064Y-95502674D01*
X52701015Y-95512172D01*
X52721837Y-95521183D01*
X52727081Y-95523752D01*
X52767908Y-95546197D01*
X52787312Y-95551179D01*
X52805710Y-95557478D01*
X52824105Y-95565438D01*
X52870129Y-95572726D01*
X52875832Y-95573907D01*
X52920981Y-95585500D01*
X52941016Y-95585500D01*
X52960413Y-95587026D01*
X52980196Y-95590160D01*
X53026583Y-95585775D01*
X53032422Y-95585500D01*
X109417257Y-95585500D01*
X109432877Y-95587224D01*
X109432904Y-95586939D01*
X109440660Y-95587671D01*
X109440667Y-95587673D01*
X109509814Y-95585500D01*
X142917257Y-95585500D01*
X142932877Y-95587224D01*
X142932904Y-95586939D01*
X142940660Y-95587671D01*
X142940667Y-95587673D01*
X143009814Y-95585500D01*
X143039350Y-95585500D01*
X143046228Y-95584630D01*
X143052041Y-95584172D01*
X143098627Y-95582709D01*
X143117869Y-95577117D01*
X143136912Y-95573174D01*
X143156792Y-95570664D01*
X143200122Y-95553507D01*
X143205646Y-95551617D01*
X143209396Y-95550527D01*
X143250390Y-95538618D01*
X143267629Y-95528422D01*
X143285103Y-95519862D01*
X143303727Y-95512488D01*
X143303727Y-95512487D01*
X143303732Y-95512486D01*
X143341449Y-95485082D01*
X143346305Y-95481892D01*
X143386420Y-95458170D01*
X143400589Y-95443999D01*
X143415379Y-95431368D01*
X143431587Y-95419594D01*
X143461299Y-95383676D01*
X143465212Y-95379376D01*
X144423787Y-94420802D01*
X144436042Y-94410986D01*
X144435859Y-94410764D01*
X144441866Y-94405792D01*
X144441877Y-94405786D01*
X144477845Y-94367484D01*
X144489227Y-94355364D01*
X144499671Y-94344918D01*
X144510120Y-94334471D01*
X144514379Y-94328978D01*
X144518152Y-94324561D01*
X144550062Y-94290582D01*
X144559713Y-94273024D01*
X144570396Y-94256761D01*
X144582673Y-94240936D01*
X144601185Y-94198153D01*
X144603738Y-94192941D01*
X144626197Y-94152092D01*
X144631180Y-94132680D01*
X144637481Y-94114280D01*
X144645437Y-94095896D01*
X144652729Y-94049852D01*
X144653906Y-94044171D01*
X144665500Y-93999019D01*
X144665500Y-93978982D01*
X144667027Y-93959582D01*
X144670160Y-93939804D01*
X144665775Y-93893415D01*
X144665500Y-93887577D01*
X144665500Y-76053765D01*
X144685185Y-75986726D01*
X144724220Y-75948340D01*
X144766562Y-75922124D01*
X144930981Y-75772236D01*
X145065058Y-75594689D01*
X145164229Y-75395528D01*
X145225115Y-75181536D01*
X145245643Y-74960000D01*
X145225115Y-74738464D01*
X145164229Y-74524472D01*
X145153886Y-74503700D01*
X145065061Y-74325316D01*
X145065056Y-74325308D01*
X144930979Y-74147761D01*
X144766562Y-73997876D01*
X144766560Y-73997874D01*
X144577404Y-73880754D01*
X144577398Y-73880752D01*
X144369940Y-73800382D01*
X144151243Y-73759500D01*
X143928757Y-73759500D01*
X143710060Y-73800382D01*
X143585391Y-73848679D01*
X143502601Y-73880752D01*
X143502595Y-73880754D01*
X143313439Y-73997874D01*
X143313437Y-73997876D01*
X143149020Y-74147761D01*
X143014943Y-74325308D01*
X143014938Y-74325316D01*
X142915775Y-74524461D01*
X142915769Y-74524476D01*
X142854885Y-74738462D01*
X142854884Y-74738464D01*
X142834357Y-74959999D01*
X142834357Y-74960000D01*
X142854884Y-75181535D01*
X142854885Y-75181537D01*
X142915769Y-75395523D01*
X142915775Y-75395538D01*
X143014938Y-75594683D01*
X143014943Y-75594691D01*
X143149020Y-75772238D01*
X143313433Y-75922120D01*
X143313435Y-75922122D01*
X143313437Y-75922123D01*
X143313438Y-75922124D01*
X143355778Y-75948339D01*
X143402412Y-76000364D01*
X143414500Y-76053765D01*
X143414500Y-93609547D01*
X143394815Y-93676586D01*
X143378181Y-93697228D01*
X142777228Y-94298181D01*
X142715905Y-94331666D01*
X142689547Y-94334500D01*
X111105439Y-94334500D01*
X111038400Y-94314815D01*
X110992645Y-94262011D01*
X110982701Y-94192853D01*
X110985335Y-94179661D01*
X110985500Y-94179019D01*
X110985500Y-94158982D01*
X110987027Y-94139582D01*
X110988119Y-94132689D01*
X110990160Y-94119804D01*
X110985775Y-94073415D01*
X110985500Y-94067577D01*
X110985500Y-87499663D01*
X111005185Y-87432624D01*
X111057989Y-87386869D01*
X111096248Y-87376373D01*
X111117483Y-87374091D01*
X111252331Y-87323796D01*
X111367546Y-87237546D01*
X111453796Y-87122331D01*
X111504091Y-86987483D01*
X111510500Y-86927873D01*
X111510499Y-85532128D01*
X111504091Y-85472517D01*
X111503175Y-85470062D01*
X111453797Y-85337671D01*
X111453793Y-85337664D01*
X111367547Y-85222455D01*
X111367544Y-85222452D01*
X111252335Y-85136206D01*
X111252328Y-85136202D01*
X111117482Y-85085908D01*
X111117483Y-85085908D01*
X111057883Y-85079501D01*
X111057881Y-85079500D01*
X111057873Y-85079500D01*
X111057865Y-85079500D01*
X110526245Y-85079500D01*
X110459206Y-85059815D01*
X110413451Y-85007011D01*
X110403507Y-84937853D01*
X110432532Y-84874297D01*
X110491310Y-84836523D01*
X110503450Y-84833613D01*
X110676198Y-84801321D01*
X110875019Y-84724298D01*
X111056302Y-84612052D01*
X111213872Y-84468407D01*
X111342366Y-84298255D01*
X111359556Y-84263732D01*
X111437403Y-84107394D01*
X111437403Y-84107393D01*
X111437405Y-84107389D01*
X111495756Y-83902310D01*
X111515429Y-83690000D01*
X111495756Y-83477690D01*
X111437405Y-83272611D01*
X111437403Y-83272606D01*
X111437403Y-83272605D01*
X111342367Y-83081746D01*
X111213872Y-82911593D01*
X111091880Y-82800382D01*
X111056302Y-82767948D01*
X111056300Y-82767946D01*
X111056297Y-82767944D01*
X111044220Y-82760466D01*
X110997586Y-82708438D01*
X110985500Y-82655041D01*
X110985500Y-77499663D01*
X111005185Y-77432624D01*
X111057989Y-77386869D01*
X111096248Y-77376373D01*
X111117483Y-77374091D01*
X111252331Y-77323796D01*
X111367546Y-77237546D01*
X111453796Y-77122331D01*
X111504091Y-76987483D01*
X111510500Y-76927873D01*
X111510499Y-75532128D01*
X111504091Y-75472517D01*
X111503175Y-75470062D01*
X111453797Y-75337671D01*
X111453793Y-75337664D01*
X111367547Y-75222455D01*
X111367544Y-75222452D01*
X111252335Y-75136206D01*
X111252328Y-75136202D01*
X111117482Y-75085908D01*
X111117483Y-75085908D01*
X111057883Y-75079501D01*
X111057881Y-75079500D01*
X111057873Y-75079500D01*
X111057865Y-75079500D01*
X110526245Y-75079500D01*
X110459206Y-75059815D01*
X110413451Y-75007011D01*
X110403507Y-74937853D01*
X110432532Y-74874297D01*
X110491310Y-74836523D01*
X110503450Y-74833613D01*
X110676198Y-74801321D01*
X110875019Y-74724298D01*
X111056302Y-74612052D01*
X111213872Y-74468407D01*
X111292133Y-74364772D01*
X111348242Y-74323137D01*
X111391087Y-74315500D01*
X115419548Y-74315500D01*
X115486587Y-74335185D01*
X115507228Y-74351819D01*
X116838182Y-75682772D01*
X116871666Y-75744093D01*
X116874500Y-75770451D01*
X116874500Y-83877254D01*
X116872775Y-83892872D01*
X116873061Y-83892899D01*
X116872326Y-83900666D01*
X116874499Y-83969814D01*
X116874499Y-83999351D01*
X116875368Y-84006232D01*
X116875826Y-84012051D01*
X116877290Y-84058624D01*
X116877291Y-84058627D01*
X116882880Y-84077867D01*
X116886824Y-84096911D01*
X116888149Y-84107392D01*
X116889336Y-84116791D01*
X116906490Y-84160119D01*
X116908382Y-84165647D01*
X116916197Y-84192547D01*
X116921382Y-84210390D01*
X116923060Y-84213228D01*
X116931580Y-84227634D01*
X116940136Y-84245100D01*
X116947514Y-84263732D01*
X116972542Y-84298181D01*
X116974898Y-84301423D01*
X116978106Y-84306307D01*
X117001827Y-84346416D01*
X117001833Y-84346424D01*
X117015990Y-84360580D01*
X117028628Y-84375376D01*
X117040405Y-84391586D01*
X117040406Y-84391587D01*
X117076309Y-84421288D01*
X117080620Y-84425210D01*
X118176592Y-85521183D01*
X118539197Y-85883788D01*
X118549022Y-85896051D01*
X118549243Y-85895869D01*
X118554214Y-85901878D01*
X118580217Y-85926295D01*
X118604635Y-85949226D01*
X118625529Y-85970120D01*
X118631011Y-85974373D01*
X118635443Y-85978157D01*
X118669418Y-86010062D01*
X118686976Y-86019714D01*
X118703233Y-86030393D01*
X118719064Y-86042673D01*
X118738713Y-86051176D01*
X118761833Y-86061182D01*
X118767077Y-86063750D01*
X118807908Y-86086197D01*
X118820523Y-86089435D01*
X118827305Y-86091177D01*
X118845719Y-86097481D01*
X118864104Y-86105438D01*
X118910157Y-86112732D01*
X118915826Y-86113906D01*
X118960981Y-86125500D01*
X118981016Y-86125500D01*
X119000413Y-86127026D01*
X119020196Y-86130160D01*
X119066583Y-86125775D01*
X119072422Y-86125500D01*
X121406258Y-86125500D01*
X121473297Y-86145185D01*
X121505212Y-86174773D01*
X121609020Y-86312238D01*
X121773437Y-86462123D01*
X121773439Y-86462125D01*
X121962595Y-86579245D01*
X121962596Y-86579245D01*
X121962599Y-86579247D01*
X122170060Y-86659618D01*
X122388757Y-86700500D01*
X122388759Y-86700500D01*
X122611241Y-86700500D01*
X122611243Y-86700500D01*
X122829940Y-86659618D01*
X123037401Y-86579247D01*
X123226562Y-86462124D01*
X123390981Y-86312236D01*
X123525058Y-86134689D01*
X123624229Y-85935528D01*
X123685115Y-85721536D01*
X123705643Y-85500000D01*
X123685115Y-85278464D01*
X123624229Y-85064472D01*
X123624224Y-85064461D01*
X123525061Y-84865316D01*
X123525056Y-84865308D01*
X123390979Y-84687761D01*
X123226562Y-84537876D01*
X123226560Y-84537874D01*
X123037404Y-84420754D01*
X123037398Y-84420752D01*
X122829940Y-84340382D01*
X122611243Y-84299500D01*
X122388757Y-84299500D01*
X122170060Y-84340382D01*
X122073218Y-84377899D01*
X121962601Y-84420752D01*
X121962595Y-84420754D01*
X121773439Y-84537874D01*
X121773437Y-84537876D01*
X121609020Y-84687761D01*
X121505212Y-84825227D01*
X121449103Y-84866863D01*
X121406258Y-84874500D01*
X119350452Y-84874500D01*
X119283413Y-84854815D01*
X119262771Y-84838181D01*
X118161819Y-83737228D01*
X118128334Y-83675905D01*
X118125500Y-83649547D01*
X118125500Y-80420000D01*
X121294357Y-80420000D01*
X121314884Y-80641535D01*
X121314885Y-80641537D01*
X121375769Y-80855523D01*
X121375775Y-80855538D01*
X121474938Y-81054683D01*
X121474943Y-81054691D01*
X121609020Y-81232238D01*
X121773437Y-81382123D01*
X121773439Y-81382125D01*
X121962595Y-81499245D01*
X121962596Y-81499245D01*
X121962599Y-81499247D01*
X122170060Y-81579618D01*
X122388757Y-81620500D01*
X122388759Y-81620500D01*
X122611241Y-81620500D01*
X122611243Y-81620500D01*
X122829940Y-81579618D01*
X123037401Y-81499247D01*
X123226562Y-81382124D01*
X123390981Y-81232236D01*
X123525058Y-81054689D01*
X123624229Y-80855528D01*
X123685115Y-80641536D01*
X123705643Y-80420000D01*
X123685115Y-80198464D01*
X123624229Y-79984472D01*
X123624224Y-79984461D01*
X123525061Y-79785316D01*
X123525056Y-79785308D01*
X123390979Y-79607761D01*
X123226563Y-79457877D01*
X123226562Y-79457876D01*
X123184222Y-79431660D01*
X123137587Y-79379631D01*
X123125500Y-79326233D01*
X123125500Y-73093765D01*
X123145185Y-73026726D01*
X123184220Y-72988340D01*
X123226562Y-72962124D01*
X123390981Y-72812236D01*
X123525058Y-72634689D01*
X123533536Y-72617664D01*
X123624224Y-72435538D01*
X123624223Y-72435538D01*
X123624229Y-72435528D01*
X123685115Y-72221536D01*
X123705643Y-72000000D01*
X123685115Y-71778464D01*
X123624229Y-71564472D01*
X123624224Y-71564461D01*
X123525061Y-71365316D01*
X123525056Y-71365308D01*
X123390979Y-71187761D01*
X123226562Y-71037876D01*
X123226560Y-71037874D01*
X123037404Y-70920754D01*
X123037398Y-70920752D01*
X122829940Y-70840382D01*
X122611243Y-70799500D01*
X122388757Y-70799500D01*
X122170060Y-70840382D01*
X122044423Y-70889054D01*
X121962601Y-70920752D01*
X121962595Y-70920754D01*
X121773439Y-71037874D01*
X121773437Y-71037876D01*
X121609020Y-71187761D01*
X121474943Y-71365308D01*
X121474938Y-71365316D01*
X121375775Y-71564461D01*
X121375769Y-71564476D01*
X121314885Y-71778462D01*
X121314884Y-71778464D01*
X121294357Y-71999999D01*
X121294357Y-72000000D01*
X121314884Y-72221535D01*
X121314885Y-72221537D01*
X121375769Y-72435523D01*
X121375775Y-72435538D01*
X121474938Y-72634683D01*
X121474943Y-72634691D01*
X121609020Y-72812238D01*
X121773436Y-72962123D01*
X121773438Y-72962124D01*
X121815776Y-72988338D01*
X121862411Y-73040364D01*
X121874499Y-73093765D01*
X121874499Y-79326233D01*
X121854814Y-79393272D01*
X121815778Y-79431659D01*
X121773438Y-79457875D01*
X121773437Y-79457876D01*
X121609020Y-79607761D01*
X121474943Y-79785308D01*
X121474938Y-79785316D01*
X121375775Y-79984461D01*
X121375769Y-79984476D01*
X121314885Y-80198462D01*
X121314884Y-80198464D01*
X121294357Y-80419999D01*
X121294357Y-80420000D01*
X118125500Y-80420000D01*
X118125500Y-75542742D01*
X118127224Y-75527123D01*
X118126939Y-75527097D01*
X118127671Y-75519339D01*
X118127673Y-75519333D01*
X118125499Y-75450185D01*
X118125500Y-75420650D01*
X118124631Y-75413770D01*
X118124172Y-75407943D01*
X118122709Y-75361372D01*
X118117122Y-75342144D01*
X118113174Y-75323084D01*
X118110663Y-75303204D01*
X118093512Y-75259887D01*
X118091619Y-75254358D01*
X118078618Y-75209609D01*
X118078616Y-75209606D01*
X118068423Y-75192371D01*
X118059861Y-75174894D01*
X118052487Y-75156270D01*
X118052486Y-75156268D01*
X118025079Y-75118545D01*
X118021888Y-75113686D01*
X117998172Y-75073583D01*
X117998165Y-75073574D01*
X117984006Y-75059415D01*
X117971368Y-75044619D01*
X117959594Y-75028413D01*
X117933723Y-75007011D01*
X117923688Y-74998709D01*
X117919376Y-74994786D01*
X116230803Y-73306212D01*
X116220980Y-73293950D01*
X116220759Y-73294134D01*
X116215786Y-73288123D01*
X116213854Y-73286309D01*
X116165364Y-73240773D01*
X116150586Y-73225995D01*
X116144475Y-73219883D01*
X116138986Y-73215625D01*
X116134561Y-73211847D01*
X116100582Y-73179938D01*
X116100580Y-73179936D01*
X116100577Y-73179935D01*
X116083029Y-73170288D01*
X116066763Y-73159604D01*
X116050936Y-73147327D01*
X116050935Y-73147326D01*
X116050933Y-73147325D01*
X116008168Y-73128818D01*
X116002922Y-73126248D01*
X115962093Y-73103803D01*
X115962092Y-73103802D01*
X115942693Y-73098822D01*
X115924281Y-73092518D01*
X115905898Y-73084562D01*
X115905892Y-73084560D01*
X115859874Y-73077272D01*
X115854152Y-73076087D01*
X115809021Y-73064500D01*
X115809019Y-73064500D01*
X115788984Y-73064500D01*
X115769586Y-73062973D01*
X115762162Y-73061797D01*
X115749805Y-73059840D01*
X115749804Y-73059840D01*
X115703416Y-73064225D01*
X115697578Y-73064500D01*
X111391087Y-73064500D01*
X111324048Y-73044815D01*
X111292133Y-73015227D01*
X111252031Y-72962124D01*
X111213872Y-72911593D01*
X111056302Y-72767948D01*
X111056300Y-72767946D01*
X111056297Y-72767944D01*
X111044220Y-72760466D01*
X110997586Y-72708438D01*
X110985500Y-72655041D01*
X110985500Y-70902742D01*
X110987224Y-70887122D01*
X110986939Y-70887095D01*
X110987673Y-70879333D01*
X110985500Y-70810172D01*
X110985500Y-70780656D01*
X110985500Y-70780650D01*
X110984631Y-70773779D01*
X110984173Y-70767952D01*
X110982710Y-70721373D01*
X110977119Y-70702130D01*
X110973173Y-70683078D01*
X110970664Y-70663208D01*
X110953504Y-70619867D01*
X110951624Y-70614379D01*
X110938618Y-70569610D01*
X110928422Y-70552370D01*
X110919861Y-70534894D01*
X110912487Y-70516270D01*
X110912486Y-70516268D01*
X110885079Y-70478545D01*
X110881888Y-70473686D01*
X110879742Y-70470058D01*
X110859695Y-70436159D01*
X110858172Y-70433583D01*
X110858165Y-70433574D01*
X110844006Y-70419415D01*
X110831368Y-70404619D01*
X110819594Y-70388413D01*
X110787517Y-70361877D01*
X110783688Y-70358709D01*
X110779376Y-70354786D01*
X110000803Y-69576212D01*
X109990980Y-69563950D01*
X109990759Y-69564134D01*
X109985786Y-69558123D01*
X109985785Y-69558122D01*
X109935364Y-69510773D01*
X109924919Y-69500328D01*
X109914475Y-69489883D01*
X109908986Y-69485625D01*
X109904561Y-69481847D01*
X109870582Y-69449938D01*
X109870580Y-69449936D01*
X109870577Y-69449935D01*
X109853029Y-69440288D01*
X109836763Y-69429604D01*
X109820936Y-69417327D01*
X109820935Y-69417326D01*
X109820933Y-69417325D01*
X109778168Y-69398818D01*
X109772922Y-69396248D01*
X109732093Y-69373803D01*
X109732092Y-69373802D01*
X109712693Y-69368822D01*
X109694281Y-69362518D01*
X109675898Y-69354562D01*
X109675892Y-69354560D01*
X109629874Y-69347272D01*
X109624152Y-69346087D01*
X109579021Y-69334500D01*
X109579019Y-69334500D01*
X109558984Y-69334500D01*
X109539586Y-69332973D01*
X109532162Y-69331797D01*
X109519805Y-69329840D01*
X109519804Y-69329840D01*
X109473416Y-69334225D01*
X109467578Y-69334500D01*
X107310452Y-69334500D01*
X107243413Y-69314815D01*
X107222771Y-69298181D01*
X106983214Y-69058624D01*
X106661816Y-68737225D01*
X106628333Y-68675905D01*
X106625500Y-68649556D01*
X106625500Y-63270451D01*
X106645185Y-63203413D01*
X106661819Y-63182771D01*
X106952772Y-62891819D01*
X107014095Y-62858334D01*
X107040453Y-62855500D01*
X108058913Y-62855500D01*
X108125952Y-62875185D01*
X108157865Y-62904771D01*
X108236128Y-63008407D01*
X108393698Y-63152052D01*
X108574981Y-63264298D01*
X108773802Y-63341321D01*
X108983390Y-63380500D01*
X108983392Y-63380500D01*
X109085500Y-63380500D01*
X109152539Y-63400185D01*
X109198294Y-63452989D01*
X109209500Y-63504500D01*
X109209500Y-64197870D01*
X109209501Y-64197876D01*
X109215908Y-64257483D01*
X109266202Y-64392328D01*
X109266206Y-64392335D01*
X109352452Y-64507544D01*
X109352455Y-64507547D01*
X109467664Y-64593793D01*
X109467671Y-64593797D01*
X109602517Y-64644091D01*
X109602516Y-64644091D01*
X109609444Y-64644835D01*
X109662127Y-64650500D01*
X111057872Y-64650499D01*
X111117483Y-64644091D01*
X111252331Y-64593796D01*
X111367546Y-64507546D01*
X111453796Y-64392331D01*
X111504091Y-64257483D01*
X111510500Y-64197873D01*
X111510499Y-62802128D01*
X111504091Y-62742517D01*
X111498642Y-62727908D01*
X111453797Y-62607671D01*
X111453793Y-62607664D01*
X111367547Y-62492455D01*
X111367544Y-62492452D01*
X111252335Y-62406206D01*
X111252328Y-62406202D01*
X111117482Y-62355908D01*
X111117483Y-62355908D01*
X111057883Y-62349501D01*
X111057881Y-62349500D01*
X111057873Y-62349500D01*
X111057865Y-62349500D01*
X110526245Y-62349500D01*
X110459206Y-62329815D01*
X110413451Y-62277011D01*
X110403507Y-62207853D01*
X110432532Y-62144297D01*
X110491310Y-62106523D01*
X110503450Y-62103613D01*
X110676198Y-62071321D01*
X110875019Y-61994298D01*
X111056302Y-61882052D01*
X111213872Y-61738407D01*
X111292133Y-61634772D01*
X111348242Y-61593137D01*
X111391087Y-61585500D01*
X120689548Y-61585500D01*
X120756587Y-61605185D01*
X120777229Y-61621819D01*
X121838181Y-62682771D01*
X121871666Y-62744094D01*
X121874500Y-62770452D01*
X121874499Y-65826233D01*
X121854814Y-65893272D01*
X121815778Y-65931659D01*
X121773438Y-65957875D01*
X121773437Y-65957876D01*
X121609020Y-66107761D01*
X121474943Y-66285308D01*
X121474938Y-66285316D01*
X121375775Y-66484461D01*
X121375769Y-66484476D01*
X121314885Y-66698462D01*
X121314884Y-66698464D01*
X121294357Y-66919999D01*
X121294357Y-66920000D01*
X121314884Y-67141535D01*
X121314885Y-67141537D01*
X121375769Y-67355523D01*
X121375775Y-67355538D01*
X121474938Y-67554683D01*
X121474943Y-67554691D01*
X121609020Y-67732238D01*
X121773437Y-67882123D01*
X121773439Y-67882125D01*
X121962595Y-67999245D01*
X121962596Y-67999245D01*
X121962599Y-67999247D01*
X122170060Y-68079618D01*
X122388757Y-68120500D01*
X122388759Y-68120500D01*
X122611241Y-68120500D01*
X122611243Y-68120500D01*
X122829940Y-68079618D01*
X123037401Y-67999247D01*
X123226562Y-67882124D01*
X123390981Y-67732236D01*
X123494788Y-67594772D01*
X123550897Y-67553137D01*
X123593742Y-67545500D01*
X127149548Y-67545500D01*
X127216587Y-67565185D01*
X127237229Y-67581819D01*
X128298181Y-68642771D01*
X128331666Y-68704094D01*
X128334500Y-68730452D01*
X128334500Y-73632185D01*
X128314815Y-73699224D01*
X128269518Y-73741239D01*
X128191380Y-73783525D01*
X128191365Y-73783535D01*
X128008222Y-73926081D01*
X128008219Y-73926084D01*
X128008216Y-73926086D01*
X128008216Y-73926087D01*
X127963319Y-73974858D01*
X127851016Y-74096852D01*
X127724075Y-74291151D01*
X127630842Y-74503699D01*
X127573866Y-74728691D01*
X127573864Y-74728702D01*
X127554700Y-74959993D01*
X127554700Y-74960006D01*
X127573864Y-75191297D01*
X127573866Y-75191308D01*
X127630842Y-75416300D01*
X127724075Y-75628848D01*
X127851016Y-75823147D01*
X127851019Y-75823151D01*
X127851021Y-75823153D01*
X128008216Y-75993913D01*
X128008219Y-75993915D01*
X128008222Y-75993918D01*
X128191365Y-76136464D01*
X128191371Y-76136468D01*
X128191374Y-76136470D01*
X128395497Y-76246936D01*
X128509487Y-76286068D01*
X128615015Y-76322297D01*
X128615017Y-76322297D01*
X128615019Y-76322298D01*
X128843951Y-76360500D01*
X128843952Y-76360500D01*
X129076048Y-76360500D01*
X129076049Y-76360500D01*
X129304981Y-76322298D01*
X129524503Y-76246936D01*
X129728626Y-76136470D01*
X129761993Y-76110500D01*
X129834886Y-76053765D01*
X129911784Y-75993913D01*
X129920130Y-75984846D01*
X129980010Y-75948854D01*
X130049849Y-75950949D01*
X130107468Y-75990469D01*
X130127544Y-76025491D01*
X130156203Y-76102330D01*
X130156206Y-76102335D01*
X130242452Y-76217544D01*
X130242455Y-76217547D01*
X130357664Y-76303793D01*
X130357671Y-76303797D01*
X130492517Y-76354091D01*
X130492516Y-76354091D01*
X130499444Y-76354835D01*
X130552127Y-76360500D01*
X132447872Y-76360499D01*
X132507483Y-76354091D01*
X132642331Y-76303796D01*
X132757546Y-76217546D01*
X132843796Y-76102331D01*
X132894091Y-75967483D01*
X132900500Y-75907873D01*
X132900500Y-75709499D01*
X132920185Y-75642461D01*
X132972989Y-75596706D01*
X133024500Y-75585500D01*
X137866258Y-75585500D01*
X137933297Y-75605185D01*
X137965212Y-75634773D01*
X138069020Y-75772238D01*
X138233437Y-75922123D01*
X138233439Y-75922125D01*
X138422595Y-76039245D01*
X138422596Y-76039245D01*
X138422599Y-76039247D01*
X138630060Y-76119618D01*
X138848757Y-76160500D01*
X138848759Y-76160500D01*
X139071241Y-76160500D01*
X139071243Y-76160500D01*
X139289940Y-76119618D01*
X139497401Y-76039247D01*
X139686562Y-75922124D01*
X139850981Y-75772236D01*
X139985058Y-75594689D01*
X140084229Y-75395528D01*
X140145115Y-75181536D01*
X140165643Y-74960000D01*
X140145115Y-74738464D01*
X140084229Y-74524472D01*
X140073886Y-74503700D01*
X139985061Y-74325316D01*
X139985056Y-74325308D01*
X139850979Y-74147761D01*
X139686562Y-73997876D01*
X139686560Y-73997874D01*
X139497404Y-73880754D01*
X139497398Y-73880752D01*
X139289940Y-73800382D01*
X139071243Y-73759500D01*
X138848757Y-73759500D01*
X138630060Y-73800382D01*
X138505391Y-73848679D01*
X138422601Y-73880752D01*
X138422595Y-73880754D01*
X138233439Y-73997874D01*
X138233437Y-73997876D01*
X138069020Y-74147761D01*
X137965212Y-74285227D01*
X137909103Y-74326863D01*
X137866258Y-74334500D01*
X133024499Y-74334500D01*
X132957460Y-74314815D01*
X132911705Y-74262011D01*
X132900499Y-74210500D01*
X132900499Y-74012129D01*
X132900498Y-74012123D01*
X132898966Y-73997874D01*
X132894091Y-73952517D01*
X132884233Y-73926087D01*
X132843797Y-73817671D01*
X132843793Y-73817664D01*
X132757547Y-73702455D01*
X132757544Y-73702452D01*
X132642335Y-73616206D01*
X132642328Y-73616202D01*
X132507482Y-73565908D01*
X132507483Y-73565908D01*
X132447883Y-73559501D01*
X132447881Y-73559500D01*
X132447873Y-73559500D01*
X132447864Y-73559500D01*
X130552129Y-73559500D01*
X130552123Y-73559501D01*
X130492516Y-73565908D01*
X130357671Y-73616202D01*
X130357664Y-73616206D01*
X130242455Y-73702452D01*
X130242452Y-73702455D01*
X130156206Y-73817664D01*
X130156203Y-73817670D01*
X130127544Y-73894508D01*
X130085672Y-73950441D01*
X130020208Y-73974858D01*
X129951935Y-73960006D01*
X129920135Y-73935158D01*
X129911784Y-73926087D01*
X129911778Y-73926082D01*
X129911777Y-73926081D01*
X129728634Y-73783535D01*
X129728628Y-73783531D01*
X129671360Y-73752539D01*
X129650479Y-73741238D01*
X129600891Y-73692020D01*
X129585499Y-73632188D01*
X129585500Y-68716586D01*
X129591673Y-68681220D01*
X129591496Y-68681181D01*
X129592336Y-68677420D01*
X129592833Y-68674576D01*
X129593193Y-68673573D01*
X129593198Y-68673565D01*
X129594979Y-68665593D01*
X129602192Y-68643395D01*
X129605438Y-68635895D01*
X129614425Y-68579146D01*
X129615143Y-68575383D01*
X129627673Y-68519333D01*
X129627416Y-68511163D01*
X129628883Y-68487866D01*
X129629361Y-68484849D01*
X129630160Y-68479804D01*
X129624755Y-68422642D01*
X129624512Y-68418772D01*
X129622709Y-68361373D01*
X129620428Y-68353523D01*
X129616055Y-68330601D01*
X129615287Y-68322467D01*
X129602290Y-68286367D01*
X129595841Y-68268453D01*
X129594637Y-68264748D01*
X129578618Y-68209611D01*
X129578618Y-68209610D01*
X129574460Y-68202580D01*
X129564523Y-68181464D01*
X129561754Y-68173771D01*
X129554319Y-68162831D01*
X129529473Y-68126271D01*
X129527385Y-68122981D01*
X129526697Y-68121818D01*
X129498170Y-68073580D01*
X129492397Y-68067807D01*
X129477521Y-68049826D01*
X129472924Y-68043062D01*
X129472556Y-68042738D01*
X129429840Y-68005078D01*
X129427001Y-68002411D01*
X127960803Y-66536212D01*
X127950980Y-66523950D01*
X127950759Y-66524134D01*
X127945786Y-66518123D01*
X127925930Y-66499477D01*
X127895364Y-66470773D01*
X127884597Y-66460006D01*
X127874475Y-66449883D01*
X127868986Y-66445625D01*
X127864561Y-66441847D01*
X127830582Y-66409938D01*
X127830580Y-66409936D01*
X127830577Y-66409935D01*
X127813029Y-66400288D01*
X127796763Y-66389604D01*
X127780936Y-66377327D01*
X127780935Y-66377326D01*
X127780933Y-66377325D01*
X127738168Y-66358818D01*
X127732922Y-66356248D01*
X127692093Y-66333803D01*
X127692092Y-66333802D01*
X127672693Y-66328822D01*
X127654281Y-66322518D01*
X127635898Y-66314562D01*
X127635892Y-66314560D01*
X127589874Y-66307272D01*
X127584152Y-66306087D01*
X127539021Y-66294500D01*
X127539019Y-66294500D01*
X127518984Y-66294500D01*
X127499586Y-66292973D01*
X127492162Y-66291797D01*
X127479805Y-66289840D01*
X127479804Y-66289840D01*
X127433416Y-66294225D01*
X127427578Y-66294500D01*
X123593742Y-66294500D01*
X123526703Y-66274815D01*
X123494788Y-66245227D01*
X123390979Y-66107761D01*
X123226563Y-65957877D01*
X123226562Y-65957876D01*
X123184222Y-65931660D01*
X123137587Y-65879631D01*
X123125500Y-65826233D01*
X123125500Y-62542737D01*
X123127224Y-62527123D01*
X123126938Y-62527096D01*
X123127672Y-62519333D01*
X123126827Y-62492454D01*
X123125500Y-62450203D01*
X123125500Y-62420650D01*
X123124629Y-62413759D01*
X123124172Y-62407945D01*
X123122709Y-62361373D01*
X123117121Y-62342139D01*
X123113174Y-62323081D01*
X123110664Y-62303208D01*
X123105059Y-62289052D01*
X123093507Y-62259875D01*
X123091614Y-62254346D01*
X123078618Y-62209614D01*
X123078617Y-62209610D01*
X123068420Y-62192368D01*
X123059863Y-62174902D01*
X123052486Y-62156268D01*
X123025083Y-62118550D01*
X123021900Y-62113705D01*
X122998170Y-62073579D01*
X122998165Y-62073573D01*
X122984005Y-62059413D01*
X122971370Y-62044620D01*
X122959593Y-62028412D01*
X122923693Y-61998713D01*
X122919381Y-61994790D01*
X121500803Y-60576212D01*
X121490980Y-60563950D01*
X121490759Y-60564134D01*
X121485786Y-60558123D01*
X121485785Y-60558122D01*
X121435364Y-60510773D01*
X121424919Y-60500328D01*
X121414475Y-60489883D01*
X121408986Y-60485625D01*
X121404561Y-60481847D01*
X121370582Y-60449938D01*
X121370580Y-60449936D01*
X121370577Y-60449935D01*
X121353029Y-60440288D01*
X121336763Y-60429604D01*
X121320933Y-60417325D01*
X121278168Y-60398818D01*
X121272922Y-60396248D01*
X121232093Y-60373803D01*
X121232092Y-60373802D01*
X121212693Y-60368822D01*
X121194281Y-60362518D01*
X121175898Y-60354562D01*
X121175892Y-60354560D01*
X121129874Y-60347272D01*
X121124152Y-60346087D01*
X121079021Y-60334500D01*
X121079019Y-60334500D01*
X121058984Y-60334500D01*
X121039586Y-60332973D01*
X121032162Y-60331797D01*
X121019805Y-60329840D01*
X121019804Y-60329840D01*
X120973416Y-60334225D01*
X120967578Y-60334500D01*
X111391087Y-60334500D01*
X111324048Y-60314815D01*
X111292133Y-60285227D01*
X111213872Y-60181593D01*
X111056302Y-60037948D01*
X110875019Y-59925702D01*
X110875017Y-59925701D01*
X110775608Y-59887190D01*
X110676198Y-59848679D01*
X110466610Y-59809500D01*
X110253390Y-59809500D01*
X110043802Y-59848679D01*
X110043799Y-59848679D01*
X110043799Y-59848680D01*
X109844982Y-59925701D01*
X109844980Y-59925702D01*
X109663699Y-60037947D01*
X109506127Y-60181593D01*
X109377632Y-60351746D01*
X109282596Y-60542605D01*
X109282596Y-60542607D01*
X109224244Y-60747689D01*
X109204042Y-60965708D01*
X109201638Y-60965485D01*
X109184886Y-61022539D01*
X109132082Y-61068294D01*
X109080571Y-61079500D01*
X108983390Y-61079500D01*
X108773802Y-61118679D01*
X108773799Y-61118679D01*
X108773799Y-61118680D01*
X108574982Y-61195701D01*
X108574980Y-61195702D01*
X108393699Y-61307947D01*
X108236127Y-61451593D01*
X108157867Y-61555227D01*
X108101758Y-61596863D01*
X108058913Y-61604500D01*
X106812743Y-61604500D01*
X106797122Y-61602775D01*
X106797096Y-61603061D01*
X106789334Y-61602327D01*
X106789333Y-61602327D01*
X106720186Y-61604500D01*
X106690649Y-61604500D01*
X106683766Y-61605369D01*
X106677949Y-61605826D01*
X106631373Y-61607290D01*
X106612129Y-61612881D01*
X106593079Y-61616825D01*
X106573211Y-61619334D01*
X106529884Y-61636488D01*
X106524358Y-61638379D01*
X106479614Y-61651379D01*
X106479610Y-61651381D01*
X106462366Y-61661579D01*
X106444905Y-61670133D01*
X106426274Y-61677510D01*
X106426262Y-61677517D01*
X106388570Y-61704902D01*
X106383687Y-61708109D01*
X106343580Y-61731829D01*
X106329414Y-61745995D01*
X106314624Y-61758627D01*
X106298414Y-61770404D01*
X106298411Y-61770407D01*
X106268710Y-61806309D01*
X106264777Y-61810631D01*
X105616208Y-62459199D01*
X105603951Y-62469020D01*
X105604134Y-62469241D01*
X105598123Y-62474213D01*
X105550772Y-62524636D01*
X105529889Y-62545519D01*
X105529877Y-62545532D01*
X105525621Y-62551017D01*
X105521837Y-62555447D01*
X105489937Y-62589418D01*
X105489936Y-62589420D01*
X105480284Y-62606976D01*
X105469610Y-62623226D01*
X105457329Y-62639061D01*
X105457324Y-62639068D01*
X105438815Y-62681838D01*
X105436245Y-62687084D01*
X105413803Y-62727906D01*
X105408822Y-62747307D01*
X105402521Y-62765710D01*
X105394562Y-62784102D01*
X105394561Y-62784105D01*
X105387271Y-62830127D01*
X105386087Y-62835846D01*
X105374501Y-62880972D01*
X105374500Y-62880982D01*
X105374500Y-62901016D01*
X105372973Y-62920415D01*
X105369840Y-62940194D01*
X105369840Y-62940195D01*
X105374225Y-62986583D01*
X105374500Y-62992421D01*
X105374500Y-68877255D01*
X105372775Y-68892872D01*
X105373061Y-68892899D01*
X105372326Y-68900665D01*
X105374500Y-68969814D01*
X105374500Y-68999343D01*
X105374501Y-68999360D01*
X105375368Y-69006231D01*
X105375826Y-69012050D01*
X105377290Y-69058624D01*
X105377291Y-69058627D01*
X105382880Y-69077867D01*
X105386824Y-69096911D01*
X105389336Y-69116791D01*
X105406490Y-69160119D01*
X105408382Y-69165647D01*
X105421381Y-69210388D01*
X105431580Y-69227634D01*
X105440136Y-69245100D01*
X105447514Y-69263732D01*
X105472542Y-69298181D01*
X105474898Y-69301423D01*
X105478106Y-69306307D01*
X105501827Y-69346416D01*
X105501833Y-69346424D01*
X105515990Y-69360580D01*
X105528628Y-69375376D01*
X105540405Y-69391586D01*
X105540406Y-69391587D01*
X105576309Y-69421288D01*
X105580620Y-69425210D01*
X106499193Y-70343784D01*
X106499194Y-70343784D01*
X106509019Y-70356048D01*
X106509240Y-70355866D01*
X106514210Y-70361873D01*
X106514213Y-70361876D01*
X106514214Y-70361877D01*
X106564651Y-70409241D01*
X106585530Y-70430120D01*
X106591004Y-70434366D01*
X106595442Y-70438156D01*
X106629418Y-70470062D01*
X106644899Y-70478573D01*
X106646973Y-70479713D01*
X106663231Y-70490392D01*
X106679064Y-70502674D01*
X106701015Y-70512172D01*
X106721837Y-70521183D01*
X106727081Y-70523752D01*
X106767908Y-70546197D01*
X106787312Y-70551179D01*
X106805710Y-70557478D01*
X106824105Y-70565438D01*
X106870129Y-70572726D01*
X106875832Y-70573907D01*
X106920981Y-70585500D01*
X106941016Y-70585500D01*
X106960413Y-70587026D01*
X106980196Y-70590160D01*
X107026583Y-70585775D01*
X107032422Y-70585500D01*
X109189548Y-70585500D01*
X109256587Y-70605185D01*
X109277229Y-70621819D01*
X109698181Y-71042770D01*
X109731666Y-71104093D01*
X109734500Y-71130451D01*
X109734500Y-72655041D01*
X109714815Y-72722080D01*
X109675780Y-72760466D01*
X109663702Y-72767944D01*
X109506127Y-72911593D01*
X109377632Y-73081746D01*
X109282596Y-73272605D01*
X109282596Y-73272607D01*
X109224244Y-73477689D01*
X109204042Y-73695708D01*
X109201638Y-73695485D01*
X109184886Y-73752539D01*
X109132082Y-73798294D01*
X109080571Y-73809500D01*
X108983390Y-73809500D01*
X108773802Y-73848679D01*
X108773799Y-73848679D01*
X108773799Y-73848680D01*
X108574982Y-73925701D01*
X108574980Y-73925702D01*
X108393699Y-74037947D01*
X108236127Y-74181593D01*
X108157867Y-74285227D01*
X108101758Y-74326863D01*
X108058913Y-74334500D01*
X105310452Y-74334500D01*
X105243413Y-74314815D01*
X105222771Y-74298181D01*
X102661819Y-71737228D01*
X102628334Y-71675905D01*
X102625500Y-71649547D01*
X102625500Y-68042738D01*
X102627224Y-68027124D01*
X102626938Y-68027097D01*
X102627672Y-68019334D01*
X102625500Y-67950203D01*
X102625500Y-67920651D01*
X102625500Y-67920650D01*
X102624629Y-67913759D01*
X102624172Y-67907945D01*
X102622709Y-67861372D01*
X102617122Y-67842144D01*
X102613174Y-67823084D01*
X102610664Y-67803208D01*
X102593507Y-67759875D01*
X102591619Y-67754359D01*
X102578619Y-67709612D01*
X102568418Y-67692363D01*
X102559860Y-67674894D01*
X102552486Y-67656268D01*
X102552483Y-67656264D01*
X102552483Y-67656263D01*
X102525098Y-67618571D01*
X102521890Y-67613687D01*
X102498172Y-67573582D01*
X102498163Y-67573571D01*
X102484005Y-67559413D01*
X102471370Y-67544620D01*
X102459593Y-67528412D01*
X102423693Y-67498713D01*
X102419381Y-67494790D01*
X100500802Y-65576211D01*
X100490980Y-65563950D01*
X100490759Y-65564134D01*
X100485786Y-65558123D01*
X100485785Y-65558123D01*
X100435364Y-65510773D01*
X100424919Y-65500328D01*
X100414475Y-65489883D01*
X100408986Y-65485625D01*
X100404561Y-65481847D01*
X100370582Y-65449938D01*
X100370580Y-65449936D01*
X100370577Y-65449935D01*
X100353029Y-65440288D01*
X100336763Y-65429604D01*
X100320933Y-65417325D01*
X100278168Y-65398818D01*
X100272922Y-65396248D01*
X100232093Y-65373803D01*
X100232092Y-65373802D01*
X100212693Y-65368822D01*
X100194281Y-65362518D01*
X100175898Y-65354562D01*
X100175892Y-65354560D01*
X100129874Y-65347272D01*
X100124152Y-65346087D01*
X100079021Y-65334500D01*
X100079019Y-65334500D01*
X100058984Y-65334500D01*
X100039586Y-65332973D01*
X100032162Y-65331797D01*
X100019805Y-65329840D01*
X100019804Y-65329840D01*
X99973416Y-65334225D01*
X99967578Y-65334500D01*
X97173742Y-65334500D01*
X97106703Y-65314815D01*
X97074788Y-65285227D01*
X96970979Y-65147761D01*
X96806562Y-64997876D01*
X96806560Y-64997874D01*
X96617404Y-64880754D01*
X96617398Y-64880752D01*
X96409940Y-64800382D01*
X96191243Y-64759500D01*
X95968757Y-64759500D01*
X95750060Y-64800382D01*
X95625373Y-64848686D01*
X95542601Y-64880752D01*
X95542595Y-64880754D01*
X95353439Y-64997874D01*
X95353437Y-64997876D01*
X95189020Y-65147761D01*
X95054943Y-65325308D01*
X95054938Y-65325316D01*
X94955775Y-65524461D01*
X94955769Y-65524476D01*
X94894885Y-65738462D01*
X94894884Y-65738464D01*
X94874357Y-65959999D01*
X94874357Y-65960000D01*
X94894884Y-66181535D01*
X94894885Y-66181537D01*
X94955769Y-66395523D01*
X94955775Y-66395538D01*
X95054938Y-66594683D01*
X95054943Y-66594691D01*
X95189020Y-66772238D01*
X95353437Y-66922123D01*
X95353439Y-66922125D01*
X95542595Y-67039245D01*
X95542596Y-67039245D01*
X95542599Y-67039247D01*
X95750060Y-67119618D01*
X95968757Y-67160500D01*
X95968759Y-67160500D01*
X96191241Y-67160500D01*
X96191243Y-67160500D01*
X96409940Y-67119618D01*
X96617401Y-67039247D01*
X96806562Y-66922124D01*
X96970981Y-66772236D01*
X97074788Y-66634772D01*
X97130897Y-66593137D01*
X97173742Y-66585500D01*
X99689548Y-66585500D01*
X99756587Y-66605185D01*
X99777229Y-66621819D01*
X101338181Y-68182771D01*
X101371666Y-68244094D01*
X101374500Y-68270452D01*
X101374499Y-71877255D01*
X101372776Y-71892872D01*
X101373061Y-71892899D01*
X101372326Y-71900665D01*
X101374500Y-71969814D01*
X101374500Y-71999343D01*
X101374501Y-71999360D01*
X101375368Y-72006231D01*
X101375826Y-72012050D01*
X101377290Y-72058624D01*
X101377291Y-72058627D01*
X101382880Y-72077867D01*
X101386824Y-72096911D01*
X101389336Y-72116791D01*
X101406490Y-72160119D01*
X101408382Y-72165647D01*
X101421382Y-72210390D01*
X101427973Y-72221536D01*
X101431580Y-72227634D01*
X101440138Y-72245103D01*
X101447514Y-72263732D01*
X101474898Y-72301423D01*
X101478106Y-72306307D01*
X101501827Y-72346416D01*
X101501833Y-72346424D01*
X101515990Y-72360580D01*
X101528628Y-72375376D01*
X101540405Y-72391586D01*
X101540406Y-72391587D01*
X101576309Y-72421288D01*
X101580620Y-72425210D01*
X103049918Y-73894508D01*
X104499194Y-75343784D01*
X104509019Y-75356048D01*
X104509240Y-75355866D01*
X104514210Y-75361873D01*
X104514213Y-75361876D01*
X104514214Y-75361877D01*
X104564651Y-75409241D01*
X104585530Y-75430120D01*
X104591004Y-75434366D01*
X104595442Y-75438156D01*
X104629418Y-75470062D01*
X104629422Y-75470064D01*
X104646973Y-75479713D01*
X104663231Y-75490392D01*
X104679064Y-75502674D01*
X104701015Y-75512172D01*
X104721837Y-75521183D01*
X104727081Y-75523752D01*
X104767908Y-75546197D01*
X104787312Y-75551179D01*
X104805710Y-75557478D01*
X104824105Y-75565438D01*
X104870129Y-75572726D01*
X104875832Y-75573907D01*
X104920981Y-75585500D01*
X104941016Y-75585500D01*
X104960413Y-75587026D01*
X104980196Y-75590160D01*
X105026583Y-75585775D01*
X105032422Y-75585500D01*
X108058913Y-75585500D01*
X108125952Y-75605185D01*
X108157865Y-75634771D01*
X108236128Y-75738407D01*
X108393698Y-75882052D01*
X108574981Y-75994298D01*
X108773802Y-76071321D01*
X108983390Y-76110500D01*
X108983392Y-76110500D01*
X109085500Y-76110500D01*
X109152539Y-76130185D01*
X109198294Y-76182989D01*
X109209500Y-76234500D01*
X109209500Y-76927870D01*
X109209501Y-76927876D01*
X109215908Y-76987483D01*
X109266202Y-77122328D01*
X109266206Y-77122335D01*
X109352452Y-77237544D01*
X109352455Y-77237547D01*
X109467664Y-77323793D01*
X109467671Y-77323797D01*
X109512618Y-77340561D01*
X109602517Y-77374091D01*
X109623756Y-77376374D01*
X109688304Y-77403110D01*
X109728154Y-77460502D01*
X109734500Y-77499663D01*
X109734500Y-82655041D01*
X109714815Y-82722080D01*
X109675780Y-82760466D01*
X109663702Y-82767944D01*
X109506127Y-82911593D01*
X109377632Y-83081746D01*
X109282596Y-83272605D01*
X109282596Y-83272607D01*
X109224244Y-83477689D01*
X109204042Y-83695708D01*
X109201638Y-83695485D01*
X109184886Y-83752539D01*
X109132082Y-83798294D01*
X109080571Y-83809500D01*
X108983390Y-83809500D01*
X108773802Y-83848679D01*
X108773799Y-83848679D01*
X108773799Y-83848680D01*
X108574982Y-83925701D01*
X108574980Y-83925702D01*
X108393699Y-84037947D01*
X108236127Y-84181593D01*
X108195017Y-84236032D01*
X108162723Y-84278797D01*
X108157867Y-84285227D01*
X108101758Y-84326863D01*
X108058913Y-84334500D01*
X101810452Y-84334500D01*
X101743413Y-84314815D01*
X101722771Y-84298181D01*
X101372361Y-83947771D01*
X101000803Y-83576212D01*
X100990980Y-83563950D01*
X100990759Y-83564134D01*
X100985786Y-83558123D01*
X100935364Y-83510773D01*
X100924919Y-83500328D01*
X100914475Y-83489883D01*
X100908986Y-83485625D01*
X100904561Y-83481847D01*
X100870582Y-83449938D01*
X100870580Y-83449936D01*
X100870577Y-83449935D01*
X100853029Y-83440288D01*
X100836763Y-83429604D01*
X100820936Y-83417327D01*
X100820935Y-83417326D01*
X100820933Y-83417325D01*
X100778168Y-83398818D01*
X100772922Y-83396248D01*
X100732093Y-83373803D01*
X100732092Y-83373802D01*
X100712693Y-83368822D01*
X100694281Y-83362518D01*
X100675898Y-83354562D01*
X100675892Y-83354560D01*
X100629874Y-83347272D01*
X100624152Y-83346087D01*
X100579021Y-83334500D01*
X100579019Y-83334500D01*
X100558984Y-83334500D01*
X100539586Y-83332973D01*
X100532162Y-83331797D01*
X100519805Y-83329840D01*
X100519804Y-83329840D01*
X100473416Y-83334225D01*
X100467578Y-83334500D01*
X97133742Y-83334500D01*
X97066703Y-83314815D01*
X97034788Y-83285227D01*
X96930979Y-83147761D01*
X96766562Y-82997876D01*
X96766560Y-82997874D01*
X96577404Y-82880754D01*
X96577398Y-82880752D01*
X96369940Y-82800382D01*
X96151243Y-82759500D01*
X95928757Y-82759500D01*
X95710060Y-82800382D01*
X95578864Y-82851207D01*
X95502601Y-82880752D01*
X95502595Y-82880754D01*
X95313439Y-82997874D01*
X95313437Y-82997876D01*
X95149020Y-83147761D01*
X95014943Y-83325308D01*
X95014938Y-83325316D01*
X94915775Y-83524461D01*
X94915769Y-83524476D01*
X94854885Y-83738462D01*
X94854884Y-83738464D01*
X94834357Y-83959999D01*
X94834357Y-83960000D01*
X94854884Y-84181535D01*
X94854885Y-84181537D01*
X94915769Y-84395523D01*
X94915775Y-84395538D01*
X95014938Y-84594683D01*
X95014943Y-84594691D01*
X95149020Y-84772238D01*
X95313437Y-84922123D01*
X95313439Y-84922125D01*
X95502595Y-85039245D01*
X95502596Y-85039245D01*
X95502599Y-85039247D01*
X95710060Y-85119618D01*
X95928757Y-85160500D01*
X95928759Y-85160500D01*
X96151241Y-85160500D01*
X96151243Y-85160500D01*
X96369940Y-85119618D01*
X96577401Y-85039247D01*
X96766562Y-84922124D01*
X96930981Y-84772236D01*
X97034788Y-84634772D01*
X97090897Y-84593137D01*
X97133742Y-84585500D01*
X100189548Y-84585500D01*
X100256587Y-84605185D01*
X100277229Y-84621819D01*
X100999194Y-85343784D01*
X101009019Y-85356048D01*
X101009240Y-85355866D01*
X101014210Y-85361873D01*
X101014213Y-85361876D01*
X101014214Y-85361877D01*
X101064651Y-85409241D01*
X101085530Y-85430120D01*
X101091004Y-85434366D01*
X101095442Y-85438156D01*
X101129418Y-85470062D01*
X101129422Y-85470064D01*
X101146973Y-85479713D01*
X101163231Y-85490392D01*
X101179064Y-85502674D01*
X101201015Y-85512172D01*
X101221837Y-85521183D01*
X101227081Y-85523752D01*
X101267908Y-85546197D01*
X101287312Y-85551179D01*
X101305710Y-85557478D01*
X101324105Y-85565438D01*
X101370129Y-85572726D01*
X101375832Y-85573907D01*
X101420981Y-85585500D01*
X101441016Y-85585500D01*
X101460413Y-85587026D01*
X101480196Y-85590160D01*
X101526583Y-85585775D01*
X101532422Y-85585500D01*
X108058913Y-85585500D01*
X108125952Y-85605185D01*
X108157867Y-85634773D01*
X108223387Y-85721536D01*
X108236128Y-85738407D01*
X108393698Y-85882052D01*
X108574981Y-85994298D01*
X108773802Y-86071321D01*
X108983390Y-86110500D01*
X108983392Y-86110500D01*
X109085500Y-86110500D01*
X109152539Y-86130185D01*
X109198294Y-86182989D01*
X109209500Y-86234500D01*
X109209500Y-86927870D01*
X109209501Y-86927876D01*
X109215908Y-86987483D01*
X109266202Y-87122328D01*
X109266206Y-87122335D01*
X109352452Y-87237544D01*
X109352455Y-87237547D01*
X109467664Y-87323793D01*
X109467671Y-87323797D01*
X109512618Y-87340560D01*
X109602517Y-87374091D01*
X109623755Y-87376374D01*
X109688304Y-87403110D01*
X109728153Y-87460502D01*
X109734499Y-87499663D01*
X109734500Y-93789547D01*
X109714815Y-93856586D01*
X109698181Y-93877228D01*
X109277228Y-94298181D01*
X109215905Y-94331666D01*
X109189547Y-94334500D01*
X53310452Y-94334500D01*
X53243413Y-94314815D01*
X53222771Y-94298181D01*
X52661819Y-93737228D01*
X52628334Y-93675905D01*
X52625500Y-93649547D01*
X52625500Y-91769452D01*
X52645185Y-91702413D01*
X52697989Y-91656658D01*
X52767147Y-91646714D01*
X52830703Y-91675739D01*
X52837178Y-91681768D01*
X53615408Y-92459999D01*
X53999197Y-92843788D01*
X54009022Y-92856051D01*
X54009243Y-92855869D01*
X54014214Y-92861878D01*
X54040217Y-92886295D01*
X54064635Y-92909226D01*
X54085529Y-92930120D01*
X54091011Y-92934373D01*
X54095443Y-92938157D01*
X54129418Y-92970062D01*
X54146976Y-92979714D01*
X54163233Y-92990393D01*
X54179064Y-93002673D01*
X54198737Y-93011186D01*
X54221833Y-93021182D01*
X54227077Y-93023750D01*
X54267908Y-93046197D01*
X54280523Y-93049435D01*
X54287305Y-93051177D01*
X54305719Y-93057481D01*
X54324104Y-93065438D01*
X54370157Y-93072732D01*
X54375826Y-93073906D01*
X54420981Y-93085500D01*
X54441016Y-93085500D01*
X54460413Y-93087026D01*
X54480196Y-93090160D01*
X54526583Y-93085775D01*
X54532422Y-93085500D01*
X73866258Y-93085500D01*
X73933297Y-93105185D01*
X73965212Y-93134773D01*
X74069020Y-93272238D01*
X74233437Y-93422123D01*
X74233439Y-93422125D01*
X74422595Y-93539245D01*
X74422596Y-93539245D01*
X74422599Y-93539247D01*
X74630060Y-93619618D01*
X74848757Y-93660500D01*
X74848759Y-93660500D01*
X75071241Y-93660500D01*
X75071243Y-93660500D01*
X75289940Y-93619618D01*
X75497401Y-93539247D01*
X75686562Y-93422124D01*
X75850981Y-93272236D01*
X75985058Y-93094689D01*
X76084229Y-92895528D01*
X76145115Y-92681536D01*
X76165643Y-92460000D01*
X76145115Y-92238464D01*
X76084229Y-92024472D01*
X75985831Y-91826863D01*
X75985061Y-91825316D01*
X75985056Y-91825308D01*
X75850979Y-91647761D01*
X75686562Y-91497876D01*
X75686560Y-91497874D01*
X75497404Y-91380754D01*
X75497398Y-91380752D01*
X75289940Y-91300382D01*
X75071243Y-91259500D01*
X74848757Y-91259500D01*
X74630060Y-91300382D01*
X74498864Y-91351207D01*
X74422601Y-91380752D01*
X74422595Y-91380754D01*
X74233439Y-91497874D01*
X74233437Y-91497876D01*
X74069020Y-91647761D01*
X73965212Y-91785227D01*
X73909103Y-91826863D01*
X73866258Y-91834500D01*
X54810452Y-91834500D01*
X54743413Y-91814815D01*
X54722771Y-91798181D01*
X54184090Y-91259500D01*
X52661816Y-89737225D01*
X52628333Y-89675905D01*
X52625500Y-89649556D01*
X52625500Y-83734500D01*
X52645185Y-83667461D01*
X52697989Y-83621706D01*
X52749500Y-83610500D01*
X63669773Y-83610500D01*
X63736812Y-83630185D01*
X63771348Y-83663377D01*
X63904887Y-83854091D01*
X63906505Y-83856401D01*
X64073599Y-84023495D01*
X64151237Y-84077858D01*
X64267165Y-84159032D01*
X64267167Y-84159033D01*
X64267170Y-84159035D01*
X64481337Y-84258903D01*
X64709592Y-84320063D01*
X64886034Y-84335500D01*
X64944999Y-84340659D01*
X64945000Y-84340659D01*
X64945001Y-84340659D01*
X65003966Y-84335500D01*
X65180408Y-84320063D01*
X65408663Y-84258903D01*
X65622830Y-84159035D01*
X65816401Y-84023495D01*
X65983495Y-83856401D01*
X66113426Y-83670840D01*
X66168001Y-83627217D01*
X66237499Y-83620023D01*
X66299854Y-83651546D01*
X66316574Y-83670841D01*
X66356582Y-83727978D01*
X66446505Y-83856401D01*
X66446506Y-83856402D01*
X66613597Y-84023493D01*
X66613603Y-84023498D01*
X66634240Y-84037948D01*
X66806624Y-84158653D01*
X66850248Y-84213228D01*
X66859500Y-84260227D01*
X66859499Y-84362256D01*
X66857776Y-84377872D01*
X66858061Y-84377899D01*
X66857326Y-84385665D01*
X66859500Y-84454814D01*
X66859500Y-84484343D01*
X66859501Y-84484360D01*
X66860368Y-84491231D01*
X66860826Y-84497050D01*
X66862290Y-84543624D01*
X66862291Y-84543627D01*
X66867880Y-84562867D01*
X66871824Y-84581911D01*
X66874336Y-84601792D01*
X66878398Y-84612052D01*
X66891490Y-84645119D01*
X66893382Y-84650647D01*
X66906381Y-84695388D01*
X66916580Y-84712634D01*
X66925138Y-84730103D01*
X66932514Y-84748732D01*
X66959898Y-84786423D01*
X66963106Y-84791307D01*
X66986827Y-84831416D01*
X66986833Y-84831424D01*
X67000990Y-84845580D01*
X67013628Y-84860376D01*
X67025405Y-84876586D01*
X67025406Y-84876587D01*
X67061309Y-84906288D01*
X67065620Y-84910210D01*
X67564650Y-85409240D01*
X67999194Y-85843784D01*
X68009019Y-85856048D01*
X68009240Y-85855866D01*
X68014210Y-85861873D01*
X68014213Y-85861876D01*
X68014214Y-85861877D01*
X68064651Y-85909241D01*
X68085530Y-85930120D01*
X68091004Y-85934366D01*
X68095442Y-85938156D01*
X68129418Y-85970062D01*
X68129524Y-85970120D01*
X68146973Y-85979713D01*
X68163231Y-85990392D01*
X68179064Y-86002674D01*
X68196131Y-86010059D01*
X68221837Y-86021183D01*
X68227081Y-86023752D01*
X68267908Y-86046197D01*
X68287312Y-86051179D01*
X68305710Y-86057478D01*
X68324105Y-86065438D01*
X68370129Y-86072726D01*
X68375832Y-86073907D01*
X68420981Y-86085500D01*
X68441016Y-86085500D01*
X68460413Y-86087026D01*
X68480196Y-86090160D01*
X68526583Y-86085775D01*
X68532422Y-86085500D01*
X75417257Y-86085500D01*
X75432877Y-86087224D01*
X75432904Y-86086939D01*
X75440660Y-86087671D01*
X75440667Y-86087673D01*
X75509814Y-86085500D01*
X75539350Y-86085500D01*
X75546228Y-86084630D01*
X75552041Y-86084172D01*
X75598627Y-86082709D01*
X75617869Y-86077117D01*
X75636912Y-86073174D01*
X75656792Y-86070664D01*
X75700122Y-86053507D01*
X75705646Y-86051617D01*
X75709396Y-86050527D01*
X75750390Y-86038618D01*
X75767629Y-86028422D01*
X75785103Y-86019862D01*
X75803727Y-86012488D01*
X75803727Y-86012487D01*
X75803732Y-86012486D01*
X75841449Y-85985082D01*
X75846305Y-85981892D01*
X75886420Y-85958170D01*
X75900589Y-85943999D01*
X75915379Y-85931368D01*
X75931587Y-85919594D01*
X75961299Y-85883676D01*
X75965212Y-85879376D01*
X76618787Y-85225802D01*
X76631042Y-85215986D01*
X76630859Y-85215764D01*
X76636866Y-85210792D01*
X76636877Y-85210786D01*
X76667775Y-85177882D01*
X76684227Y-85160364D01*
X76694671Y-85149918D01*
X76705120Y-85139471D01*
X76709379Y-85133978D01*
X76713152Y-85129561D01*
X76745062Y-85095582D01*
X76754715Y-85078020D01*
X76765389Y-85061770D01*
X76777673Y-85045936D01*
X76796180Y-85003167D01*
X76798749Y-84997924D01*
X76821196Y-84957093D01*
X76821197Y-84957092D01*
X76826177Y-84937691D01*
X76832478Y-84919288D01*
X76840438Y-84900896D01*
X76847730Y-84854849D01*
X76848911Y-84849152D01*
X76860500Y-84804019D01*
X76860500Y-84783983D01*
X76862027Y-84764582D01*
X76865160Y-84744804D01*
X76860775Y-84698415D01*
X76860500Y-84692577D01*
X76860500Y-83787814D01*
X76880185Y-83720775D01*
X76925483Y-83678759D01*
X76954917Y-83662830D01*
X77003626Y-83636470D01*
X77015515Y-83627217D01*
X77096800Y-83563950D01*
X77186784Y-83493913D01*
X77195130Y-83484846D01*
X77255010Y-83448854D01*
X77324849Y-83450949D01*
X77382468Y-83490469D01*
X77402544Y-83525491D01*
X77431203Y-83602330D01*
X77431206Y-83602335D01*
X77517452Y-83717544D01*
X77517455Y-83717547D01*
X77632664Y-83803793D01*
X77632671Y-83803797D01*
X77767517Y-83854091D01*
X77767516Y-83854091D01*
X77774444Y-83854835D01*
X77827127Y-83860500D01*
X79239545Y-83860499D01*
X79306584Y-83880184D01*
X79327225Y-83896817D01*
X79378180Y-83947771D01*
X79411666Y-84009094D01*
X79414500Y-84035453D01*
X79414500Y-91366233D01*
X79394815Y-91433272D01*
X79355778Y-91471660D01*
X79313436Y-91497877D01*
X79149020Y-91647761D01*
X79014943Y-91825308D01*
X79014938Y-91825316D01*
X78915775Y-92024461D01*
X78915769Y-92024476D01*
X78854885Y-92238462D01*
X78854884Y-92238464D01*
X78834357Y-92459999D01*
X78834357Y-92460000D01*
X78854884Y-92681535D01*
X78854885Y-92681537D01*
X78915769Y-92895523D01*
X78915775Y-92895538D01*
X79014938Y-93094683D01*
X79014943Y-93094691D01*
X79149020Y-93272238D01*
X79313437Y-93422123D01*
X79313439Y-93422125D01*
X79502595Y-93539245D01*
X79502596Y-93539245D01*
X79502599Y-93539247D01*
X79710060Y-93619618D01*
X79928757Y-93660500D01*
X79928759Y-93660500D01*
X80151241Y-93660500D01*
X80151243Y-93660500D01*
X80369940Y-93619618D01*
X80577401Y-93539247D01*
X80766562Y-93422124D01*
X80930981Y-93272236D01*
X81065058Y-93094689D01*
X81164229Y-92895528D01*
X81225115Y-92681536D01*
X81245643Y-92460000D01*
X81225115Y-92238464D01*
X81164229Y-92024472D01*
X81065831Y-91826863D01*
X81065061Y-91825316D01*
X81065056Y-91825308D01*
X80930979Y-91647761D01*
X80766563Y-91497877D01*
X80766562Y-91497876D01*
X80724222Y-91471660D01*
X80677587Y-91419631D01*
X80665500Y-91366233D01*
X80665500Y-89649547D01*
X80665500Y-83960000D01*
X89754357Y-83960000D01*
X89774884Y-84181535D01*
X89774885Y-84181537D01*
X89835769Y-84395523D01*
X89835775Y-84395538D01*
X89934938Y-84594683D01*
X89934943Y-84594691D01*
X90069020Y-84772238D01*
X90233437Y-84922123D01*
X90233439Y-84922125D01*
X90422595Y-85039245D01*
X90422596Y-85039245D01*
X90422599Y-85039247D01*
X90630060Y-85119618D01*
X90848757Y-85160500D01*
X90848759Y-85160500D01*
X91071241Y-85160500D01*
X91071243Y-85160500D01*
X91289940Y-85119618D01*
X91497401Y-85039247D01*
X91686562Y-84922124D01*
X91850981Y-84772236D01*
X91985058Y-84594689D01*
X92084229Y-84395528D01*
X92145115Y-84181536D01*
X92165643Y-83960000D01*
X92145115Y-83738464D01*
X92084229Y-83524472D01*
X92069015Y-83493918D01*
X91985061Y-83325316D01*
X91985056Y-83325308D01*
X91850979Y-83147761D01*
X91686562Y-82997876D01*
X91686560Y-82997874D01*
X91497404Y-82880754D01*
X91497398Y-82880752D01*
X91289940Y-82800382D01*
X91071243Y-82759500D01*
X90848757Y-82759500D01*
X90630060Y-82800382D01*
X90498864Y-82851207D01*
X90422601Y-82880752D01*
X90422595Y-82880754D01*
X90233439Y-82997874D01*
X90233437Y-82997876D01*
X90069020Y-83147761D01*
X89934943Y-83325308D01*
X89934938Y-83325316D01*
X89835775Y-83524461D01*
X89835769Y-83524476D01*
X89774885Y-83738462D01*
X89774884Y-83738464D01*
X89754357Y-83959999D01*
X89754357Y-83960000D01*
X80665500Y-83960000D01*
X80665500Y-83807728D01*
X80667225Y-83792124D01*
X80666938Y-83792097D01*
X80667672Y-83784334D01*
X80665500Y-83715203D01*
X80665500Y-83685651D01*
X80665500Y-83685650D01*
X80664629Y-83678759D01*
X80664172Y-83672945D01*
X80663871Y-83663377D01*
X80662709Y-83626373D01*
X80657122Y-83607144D01*
X80653174Y-83588084D01*
X80650664Y-83568208D01*
X80633507Y-83524875D01*
X80631619Y-83519359D01*
X80618619Y-83474612D01*
X80608418Y-83457363D01*
X80599860Y-83439894D01*
X80592486Y-83421268D01*
X80592483Y-83421264D01*
X80592483Y-83421263D01*
X80565098Y-83383571D01*
X80561890Y-83378687D01*
X80538172Y-83338582D01*
X80538163Y-83338571D01*
X80524005Y-83324413D01*
X80511370Y-83309620D01*
X80499593Y-83293412D01*
X80463693Y-83263713D01*
X80459381Y-83259790D01*
X80211818Y-83012227D01*
X80178333Y-82950904D01*
X80175499Y-82924546D01*
X80175499Y-81512129D01*
X80175498Y-81512123D01*
X80171492Y-81474858D01*
X80169091Y-81452517D01*
X80159233Y-81426087D01*
X80118797Y-81317671D01*
X80118793Y-81317664D01*
X80032547Y-81202455D01*
X80032544Y-81202452D01*
X79917335Y-81116206D01*
X79917328Y-81116202D01*
X79782482Y-81065908D01*
X79782483Y-81065908D01*
X79722883Y-81059501D01*
X79722881Y-81059500D01*
X79722873Y-81059500D01*
X79722864Y-81059500D01*
X77827129Y-81059500D01*
X77827123Y-81059501D01*
X77767516Y-81065908D01*
X77632671Y-81116202D01*
X77632664Y-81116206D01*
X77517455Y-81202452D01*
X77517452Y-81202455D01*
X77431206Y-81317664D01*
X77431203Y-81317670D01*
X77402544Y-81394508D01*
X77360672Y-81450441D01*
X77295208Y-81474858D01*
X77226935Y-81460006D01*
X77195135Y-81435158D01*
X77186784Y-81426087D01*
X77186778Y-81426082D01*
X77186777Y-81426081D01*
X77003634Y-81283535D01*
X77003628Y-81283531D01*
X76799504Y-81173064D01*
X76799495Y-81173061D01*
X76579984Y-81097702D01*
X76389450Y-81065908D01*
X76351049Y-81059500D01*
X76118951Y-81059500D01*
X76080550Y-81065908D01*
X75890015Y-81097702D01*
X75670504Y-81173061D01*
X75670495Y-81173064D01*
X75466371Y-81283531D01*
X75466365Y-81283535D01*
X75283222Y-81426081D01*
X75283219Y-81426084D01*
X75283216Y-81426086D01*
X75283216Y-81426087D01*
X75238319Y-81474858D01*
X75126016Y-81596852D01*
X74999075Y-81791151D01*
X74905842Y-82003699D01*
X74848866Y-82228691D01*
X74848864Y-82228702D01*
X74829700Y-82459993D01*
X74829700Y-82460006D01*
X74848864Y-82691297D01*
X74848866Y-82691308D01*
X74905842Y-82916300D01*
X74999075Y-83128848D01*
X75126016Y-83323147D01*
X75126019Y-83323151D01*
X75126021Y-83323153D01*
X75283216Y-83493913D01*
X75283219Y-83493915D01*
X75283222Y-83493918D01*
X75466365Y-83636464D01*
X75466376Y-83636471D01*
X75544517Y-83678759D01*
X75594108Y-83727978D01*
X75609500Y-83787814D01*
X75609500Y-84414547D01*
X75589815Y-84481586D01*
X75573181Y-84502228D01*
X75277228Y-84798181D01*
X75215905Y-84831666D01*
X75189547Y-84834500D01*
X68810452Y-84834500D01*
X68743413Y-84814815D01*
X68722771Y-84798181D01*
X68220739Y-84296148D01*
X68187254Y-84234825D01*
X68192238Y-84165133D01*
X68234110Y-84109200D01*
X68237272Y-84106910D01*
X68356401Y-84023495D01*
X68478329Y-83901566D01*
X68539648Y-83868084D01*
X68609340Y-83873068D01*
X68665274Y-83914939D01*
X68682189Y-83945917D01*
X68731202Y-84077328D01*
X68731206Y-84077335D01*
X68817452Y-84192544D01*
X68817455Y-84192547D01*
X68932664Y-84278793D01*
X68932671Y-84278797D01*
X69067517Y-84329091D01*
X69067516Y-84329091D01*
X69074444Y-84329835D01*
X69127127Y-84335500D01*
X70922872Y-84335499D01*
X70982483Y-84329091D01*
X71117331Y-84278796D01*
X71232546Y-84192546D01*
X71318796Y-84077331D01*
X71369091Y-83942483D01*
X71375500Y-83882873D01*
X71375499Y-82087128D01*
X71369091Y-82027517D01*
X71367810Y-82024083D01*
X71318797Y-81892671D01*
X71318793Y-81892664D01*
X71232547Y-81777455D01*
X71232544Y-81777452D01*
X71117335Y-81691206D01*
X71117328Y-81691202D01*
X70982482Y-81640908D01*
X70982483Y-81640908D01*
X70922883Y-81634501D01*
X70922881Y-81634500D01*
X70922873Y-81634500D01*
X70922865Y-81634500D01*
X70749500Y-81634500D01*
X70682461Y-81614815D01*
X70636706Y-81562011D01*
X70625500Y-81510500D01*
X70625500Y-76530844D01*
X70627697Y-76507606D01*
X70629227Y-76499588D01*
X70625621Y-76442275D01*
X70625500Y-76438403D01*
X70625500Y-68959499D01*
X70645185Y-68892460D01*
X70697989Y-68846705D01*
X70749500Y-68835499D01*
X70922871Y-68835499D01*
X70922872Y-68835499D01*
X70982483Y-68829091D01*
X71117331Y-68778796D01*
X71232546Y-68692546D01*
X71318796Y-68577331D01*
X71369091Y-68442483D01*
X71375500Y-68382873D01*
X71375499Y-66587128D01*
X71369091Y-66527517D01*
X71368369Y-66525582D01*
X71318797Y-66392671D01*
X71318793Y-66392664D01*
X71232547Y-66277455D01*
X71232544Y-66277452D01*
X71117335Y-66191206D01*
X71117328Y-66191202D01*
X70982482Y-66140908D01*
X70982483Y-66140908D01*
X70922883Y-66134501D01*
X70922881Y-66134500D01*
X70922873Y-66134500D01*
X70922864Y-66134500D01*
X69127129Y-66134500D01*
X69127123Y-66134501D01*
X69067516Y-66140908D01*
X68932671Y-66191202D01*
X68932664Y-66191206D01*
X68817455Y-66277452D01*
X68817452Y-66277455D01*
X68731206Y-66392664D01*
X68731203Y-66392669D01*
X68682189Y-66524083D01*
X68640317Y-66580016D01*
X68574853Y-66604433D01*
X68506580Y-66589581D01*
X68478326Y-66568430D01*
X68356402Y-66446506D01*
X68356401Y-66446505D01*
X68191290Y-66330893D01*
X68163376Y-66311347D01*
X68119751Y-66256770D01*
X68110500Y-66209772D01*
X68110500Y-65785451D01*
X68130185Y-65718412D01*
X68146814Y-65697775D01*
X68722771Y-65121819D01*
X68784094Y-65088334D01*
X68810452Y-65085500D01*
X75189548Y-65085500D01*
X75256587Y-65105185D01*
X75277229Y-65121819D01*
X75573182Y-65417772D01*
X75606666Y-65479093D01*
X75609500Y-65505451D01*
X75609500Y-66132185D01*
X75589815Y-66199224D01*
X75544518Y-66241239D01*
X75466380Y-66283525D01*
X75466365Y-66283535D01*
X75283222Y-66426081D01*
X75283219Y-66426084D01*
X75283216Y-66426086D01*
X75283216Y-66426087D01*
X75242080Y-66470773D01*
X75126016Y-66596852D01*
X74999075Y-66791151D01*
X74905842Y-67003699D01*
X74848866Y-67228691D01*
X74848864Y-67228702D01*
X74829700Y-67459993D01*
X74829700Y-67460006D01*
X74848864Y-67691297D01*
X74848866Y-67691308D01*
X74905842Y-67916300D01*
X74999075Y-68128848D01*
X75126016Y-68323147D01*
X75126019Y-68323151D01*
X75126021Y-68323153D01*
X75283216Y-68493913D01*
X75283219Y-68493915D01*
X75283222Y-68493918D01*
X75466365Y-68636464D01*
X75466371Y-68636468D01*
X75466374Y-68636470D01*
X75670497Y-68746936D01*
X75705356Y-68758903D01*
X75890015Y-68822297D01*
X75890017Y-68822297D01*
X75890019Y-68822298D01*
X76118951Y-68860500D01*
X76118952Y-68860500D01*
X76351048Y-68860500D01*
X76351049Y-68860500D01*
X76579981Y-68822298D01*
X76799503Y-68746936D01*
X77003626Y-68636470D01*
X77186784Y-68493913D01*
X77195130Y-68484846D01*
X77255010Y-68448854D01*
X77324849Y-68450949D01*
X77382468Y-68490469D01*
X77402544Y-68525491D01*
X77431203Y-68602330D01*
X77431206Y-68602335D01*
X77517452Y-68717544D01*
X77517455Y-68717547D01*
X77632664Y-68803793D01*
X77632671Y-68803797D01*
X77767517Y-68854091D01*
X77767516Y-68854091D01*
X77774444Y-68854835D01*
X77827127Y-68860500D01*
X79722872Y-68860499D01*
X79782483Y-68854091D01*
X79917331Y-68803796D01*
X80032546Y-68717546D01*
X80118796Y-68602331D01*
X80169091Y-68467483D01*
X80175500Y-68407873D01*
X80175499Y-66995450D01*
X80195184Y-66928412D01*
X80211813Y-66907775D01*
X80463786Y-66655802D01*
X80476048Y-66645980D01*
X80475865Y-66645759D01*
X80481867Y-66640792D01*
X80481877Y-66640786D01*
X80529241Y-66590348D01*
X80550120Y-66569470D01*
X80554373Y-66563986D01*
X80558150Y-66559563D01*
X80590062Y-66525582D01*
X80599714Y-66508023D01*
X80610389Y-66491772D01*
X80622674Y-66475936D01*
X80641186Y-66433152D01*
X80643742Y-66427935D01*
X80666197Y-66387092D01*
X80671180Y-66367680D01*
X80677477Y-66349291D01*
X80685438Y-66330895D01*
X80692729Y-66284853D01*
X80693908Y-66279162D01*
X80705500Y-66234019D01*
X80705500Y-66213982D01*
X80707027Y-66194582D01*
X80707562Y-66191204D01*
X80710160Y-66174804D01*
X80706131Y-66132185D01*
X80705775Y-66128415D01*
X80705500Y-66122577D01*
X80705500Y-65960000D01*
X89794357Y-65960000D01*
X89814884Y-66181535D01*
X89814885Y-66181537D01*
X89875769Y-66395523D01*
X89875775Y-66395538D01*
X89974938Y-66594683D01*
X89974943Y-66594691D01*
X90109020Y-66772238D01*
X90273437Y-66922123D01*
X90273439Y-66922125D01*
X90462595Y-67039245D01*
X90462596Y-67039245D01*
X90462599Y-67039247D01*
X90670060Y-67119618D01*
X90888757Y-67160500D01*
X90888759Y-67160500D01*
X91111241Y-67160500D01*
X91111243Y-67160500D01*
X91329940Y-67119618D01*
X91537401Y-67039247D01*
X91726562Y-66922124D01*
X91890981Y-66772236D01*
X92025058Y-66594689D01*
X92027602Y-66589581D01*
X92098847Y-66446501D01*
X92124229Y-66395528D01*
X92185115Y-66181536D01*
X92205643Y-65960000D01*
X92185115Y-65738464D01*
X92124229Y-65524472D01*
X92114758Y-65505451D01*
X92025061Y-65325316D01*
X92025056Y-65325308D01*
X91890979Y-65147761D01*
X91726562Y-64997876D01*
X91726560Y-64997874D01*
X91537404Y-64880754D01*
X91537398Y-64880752D01*
X91329940Y-64800382D01*
X91111243Y-64759500D01*
X90888757Y-64759500D01*
X90670060Y-64800382D01*
X90545373Y-64848686D01*
X90462601Y-64880752D01*
X90462595Y-64880754D01*
X90273439Y-64997874D01*
X90273437Y-64997876D01*
X90109020Y-65147761D01*
X89974943Y-65325308D01*
X89974938Y-65325316D01*
X89875775Y-65524461D01*
X89875769Y-65524476D01*
X89814885Y-65738462D01*
X89814884Y-65738464D01*
X89794357Y-65959999D01*
X89794357Y-65960000D01*
X80705500Y-65960000D01*
X80705500Y-58553765D01*
X80725185Y-58486726D01*
X80764220Y-58448340D01*
X80806562Y-58422124D01*
X80970981Y-58272236D01*
X81105058Y-58094689D01*
X81204229Y-57895528D01*
X81265115Y-57681536D01*
X81285643Y-57460000D01*
X81265115Y-57238464D01*
X81204229Y-57024472D01*
X81204224Y-57024461D01*
X81105061Y-56825316D01*
X81105056Y-56825308D01*
X80970979Y-56647761D01*
X80806562Y-56497876D01*
X80806560Y-56497874D01*
X80617404Y-56380754D01*
X80617398Y-56380752D01*
X80409940Y-56300382D01*
X80191243Y-56259500D01*
X79968757Y-56259500D01*
X79750060Y-56300382D01*
X79618864Y-56351207D01*
X79542601Y-56380752D01*
X79542595Y-56380754D01*
X79353439Y-56497874D01*
X79353437Y-56497876D01*
X79189020Y-56647761D01*
X79054943Y-56825308D01*
X79054938Y-56825316D01*
X78955775Y-57024461D01*
X78955769Y-57024476D01*
X78894885Y-57238462D01*
X78894884Y-57238464D01*
X78874357Y-57459999D01*
X78874357Y-57460000D01*
X78894884Y-57681535D01*
X78894885Y-57681537D01*
X78955769Y-57895523D01*
X78955775Y-57895538D01*
X79054938Y-58094683D01*
X79054943Y-58094691D01*
X79189020Y-58272238D01*
X79353433Y-58422120D01*
X79353435Y-58422122D01*
X79353437Y-58422123D01*
X79353438Y-58422124D01*
X79395778Y-58448339D01*
X79442412Y-58500364D01*
X79454500Y-58553765D01*
X79454500Y-65844547D01*
X79434815Y-65911586D01*
X79418185Y-65932223D01*
X79327227Y-66023181D01*
X79327227Y-66023182D01*
X79265903Y-66056666D01*
X79239546Y-66059500D01*
X77827129Y-66059500D01*
X77827123Y-66059501D01*
X77767516Y-66065908D01*
X77632671Y-66116202D01*
X77632664Y-66116206D01*
X77517455Y-66202452D01*
X77517452Y-66202455D01*
X77431206Y-66317664D01*
X77431203Y-66317670D01*
X77402544Y-66394508D01*
X77360672Y-66450441D01*
X77295208Y-66474858D01*
X77226935Y-66460006D01*
X77195135Y-66435158D01*
X77186784Y-66426087D01*
X77186778Y-66426082D01*
X77186777Y-66426081D01*
X77003634Y-66283535D01*
X77003619Y-66283525D01*
X76925482Y-66241239D01*
X76875891Y-66192020D01*
X76860500Y-66132185D01*
X76860500Y-65277742D01*
X76862224Y-65262122D01*
X76861939Y-65262096D01*
X76862671Y-65254340D01*
X76862673Y-65254333D01*
X76860500Y-65185185D01*
X76860500Y-65155650D01*
X76859631Y-65148772D01*
X76859172Y-65142943D01*
X76857709Y-65096372D01*
X76852122Y-65077144D01*
X76848174Y-65058084D01*
X76845663Y-65038204D01*
X76828512Y-64994887D01*
X76826619Y-64989358D01*
X76813618Y-64944609D01*
X76813616Y-64944606D01*
X76803423Y-64927371D01*
X76794861Y-64909894D01*
X76787487Y-64891270D01*
X76787486Y-64891268D01*
X76760079Y-64853545D01*
X76756888Y-64848686D01*
X76733172Y-64808583D01*
X76733165Y-64808574D01*
X76719006Y-64794415D01*
X76706368Y-64779619D01*
X76694594Y-64763413D01*
X76658688Y-64733709D01*
X76654376Y-64729786D01*
X76000803Y-64076212D01*
X75990980Y-64063950D01*
X75990759Y-64064134D01*
X75985786Y-64058123D01*
X75967159Y-64040631D01*
X75935364Y-64010773D01*
X75924919Y-64000328D01*
X75914475Y-63989883D01*
X75908986Y-63985625D01*
X75904561Y-63981847D01*
X75870582Y-63949938D01*
X75870580Y-63949936D01*
X75870577Y-63949935D01*
X75853029Y-63940288D01*
X75836763Y-63929604D01*
X75820933Y-63917325D01*
X75778168Y-63898818D01*
X75772922Y-63896248D01*
X75732093Y-63873803D01*
X75732092Y-63873802D01*
X75712693Y-63868822D01*
X75694281Y-63862518D01*
X75675898Y-63854562D01*
X75675892Y-63854560D01*
X75629874Y-63847272D01*
X75624152Y-63846087D01*
X75579021Y-63834500D01*
X75579019Y-63834500D01*
X75558984Y-63834500D01*
X75539586Y-63832973D01*
X75532162Y-63831797D01*
X75519805Y-63829840D01*
X75519804Y-63829840D01*
X75473416Y-63834225D01*
X75467578Y-63834500D01*
X68582743Y-63834500D01*
X68567122Y-63832775D01*
X68567095Y-63833061D01*
X68559333Y-63832326D01*
X68490172Y-63834500D01*
X68460649Y-63834500D01*
X68453778Y-63835367D01*
X68447959Y-63835825D01*
X68401374Y-63837289D01*
X68401368Y-63837290D01*
X68382126Y-63842880D01*
X68363087Y-63846823D01*
X68343217Y-63849334D01*
X68343203Y-63849337D01*
X68299883Y-63866488D01*
X68294358Y-63868380D01*
X68249613Y-63881380D01*
X68249610Y-63881381D01*
X68232366Y-63891579D01*
X68214905Y-63900133D01*
X68196274Y-63907510D01*
X68196262Y-63907517D01*
X68158570Y-63934902D01*
X68153687Y-63938109D01*
X68113580Y-63961829D01*
X68099414Y-63975995D01*
X68084624Y-63988627D01*
X68068414Y-64000404D01*
X68068411Y-64000407D01*
X68038710Y-64036309D01*
X68034777Y-64040631D01*
X67101208Y-64974199D01*
X67088951Y-64984020D01*
X67089134Y-64984241D01*
X67083123Y-64989213D01*
X67035772Y-65039636D01*
X67014889Y-65060519D01*
X67014877Y-65060532D01*
X67010621Y-65066017D01*
X67006837Y-65070447D01*
X66974937Y-65104418D01*
X66974936Y-65104420D01*
X66965284Y-65121976D01*
X66954610Y-65138226D01*
X66942329Y-65154061D01*
X66942324Y-65154068D01*
X66923815Y-65196838D01*
X66921245Y-65202084D01*
X66898803Y-65242906D01*
X66893822Y-65262307D01*
X66887521Y-65280710D01*
X66879562Y-65299102D01*
X66879561Y-65299105D01*
X66872271Y-65345127D01*
X66871087Y-65350846D01*
X66859501Y-65395972D01*
X66859500Y-65395982D01*
X66859500Y-65416016D01*
X66857973Y-65435413D01*
X66854840Y-65455196D01*
X66858119Y-65489880D01*
X66859225Y-65501583D01*
X66859500Y-65507421D01*
X66859500Y-66209773D01*
X66839815Y-66276812D01*
X66806623Y-66311348D01*
X66613597Y-66446505D01*
X66446505Y-66613597D01*
X66316575Y-66799158D01*
X66261998Y-66842783D01*
X66192500Y-66849977D01*
X66130145Y-66818454D01*
X66113425Y-66799158D01*
X65983494Y-66613597D01*
X65816402Y-66446506D01*
X65816395Y-66446501D01*
X65787232Y-66426081D01*
X65764174Y-66409935D01*
X65622834Y-66310967D01*
X65622830Y-66310965D01*
X65570500Y-66286563D01*
X65408663Y-66211097D01*
X65408659Y-66211096D01*
X65408655Y-66211094D01*
X65180413Y-66149938D01*
X65180403Y-66149936D01*
X64945001Y-66129341D01*
X64944999Y-66129341D01*
X64709596Y-66149936D01*
X64709586Y-66149938D01*
X64481344Y-66211094D01*
X64481335Y-66211098D01*
X64267171Y-66310964D01*
X64267169Y-66310965D01*
X64073597Y-66446505D01*
X63906506Y-66613596D01*
X63788854Y-66781623D01*
X63734277Y-66825248D01*
X63687279Y-66834500D01*
X55749500Y-66834500D01*
X55682461Y-66814815D01*
X55636706Y-66762011D01*
X55625500Y-66710500D01*
X55625500Y-58770451D01*
X55645185Y-58703412D01*
X55661819Y-58682770D01*
X56222771Y-58121819D01*
X56284094Y-58088334D01*
X56310452Y-58085500D01*
X73906258Y-58085500D01*
X73973297Y-58105185D01*
X74005212Y-58134773D01*
X74109020Y-58272238D01*
X74273437Y-58422123D01*
X74273439Y-58422125D01*
X74462595Y-58539245D01*
X74462596Y-58539245D01*
X74462599Y-58539247D01*
X74670060Y-58619618D01*
X74888757Y-58660500D01*
X74888759Y-58660500D01*
X75111241Y-58660500D01*
X75111243Y-58660500D01*
X75329940Y-58619618D01*
X75537401Y-58539247D01*
X75726562Y-58422124D01*
X75890981Y-58272236D01*
X76025058Y-58094689D01*
X76124229Y-57895528D01*
X76185115Y-57681536D01*
X76205643Y-57460000D01*
X76185115Y-57238464D01*
X76124229Y-57024472D01*
X76124224Y-57024461D01*
X76025061Y-56825316D01*
X76025056Y-56825308D01*
X75890979Y-56647761D01*
X75726562Y-56497876D01*
X75726560Y-56497874D01*
X75537404Y-56380754D01*
X75537398Y-56380752D01*
X75329940Y-56300382D01*
X75111243Y-56259500D01*
X74888757Y-56259500D01*
X74670060Y-56300382D01*
X74538864Y-56351207D01*
X74462601Y-56380752D01*
X74462595Y-56380754D01*
X74273439Y-56497874D01*
X74273437Y-56497876D01*
X74109020Y-56647761D01*
X74005212Y-56785227D01*
X73949103Y-56826863D01*
X73906258Y-56834500D01*
X56082743Y-56834500D01*
X56067122Y-56832775D01*
X56067095Y-56833061D01*
X56059333Y-56832326D01*
X55990172Y-56834500D01*
X55960649Y-56834500D01*
X55953778Y-56835367D01*
X55947959Y-56835825D01*
X55901374Y-56837289D01*
X55901368Y-56837290D01*
X55882126Y-56842880D01*
X55863087Y-56846823D01*
X55843217Y-56849334D01*
X55843210Y-56849335D01*
X55843208Y-56849336D01*
X55843204Y-56849337D01*
X55843202Y-56849338D01*
X55799881Y-56866488D01*
X55794353Y-56868381D01*
X55784091Y-56871362D01*
X55714222Y-56871161D01*
X55655553Y-56833218D01*
X55626711Y-56769579D01*
X55625499Y-56752296D01*
X55625499Y-55770451D01*
X55645184Y-55703413D01*
X55661818Y-55682771D01*
X55924175Y-55420415D01*
X56722771Y-54621819D01*
X56784095Y-54588334D01*
X56810453Y-54585500D01*
X72796252Y-54585500D01*
X72863291Y-54605185D01*
X72888400Y-54626526D01*
X72894126Y-54632885D01*
X72894130Y-54632889D01*
X73047265Y-54744148D01*
X73047270Y-54744151D01*
X73220192Y-54821142D01*
X73220197Y-54821144D01*
X73405354Y-54860500D01*
X73405355Y-54860500D01*
X73594644Y-54860500D01*
X73594646Y-54860500D01*
X73779803Y-54821144D01*
X73952730Y-54744151D01*
X74105871Y-54632888D01*
X74232533Y-54492216D01*
X74327179Y-54328284D01*
X74385674Y-54148256D01*
X74405460Y-53960000D01*
X74385674Y-53771744D01*
X74327179Y-53591716D01*
X74232533Y-53427784D01*
X74105871Y-53287112D01*
X74105870Y-53287111D01*
X73952734Y-53175851D01*
X73952729Y-53175848D01*
X73779807Y-53098857D01*
X73779802Y-53098855D01*
X73634000Y-53067865D01*
X73594646Y-53059500D01*
X73405354Y-53059500D01*
X73372897Y-53066398D01*
X73220197Y-53098855D01*
X73220192Y-53098857D01*
X73047270Y-53175848D01*
X73047265Y-53175851D01*
X72894130Y-53287110D01*
X72894126Y-53287114D01*
X72888400Y-53293474D01*
X72828913Y-53330121D01*
X72796252Y-53334500D01*
X56582737Y-53334500D01*
X56567120Y-53332776D01*
X56567093Y-53333062D01*
X56559331Y-53332327D01*
X56490203Y-53334500D01*
X56460650Y-53334500D01*
X56459929Y-53334590D01*
X56453757Y-53335369D01*
X56447945Y-53335826D01*
X56401378Y-53337290D01*
X56401367Y-53337292D01*
X56382134Y-53342879D01*
X56363094Y-53346822D01*
X56343217Y-53349334D01*
X56343210Y-53349335D01*
X56343208Y-53349336D01*
X56343206Y-53349336D01*
X56343205Y-53349337D01*
X56299868Y-53366494D01*
X56294342Y-53368386D01*
X56249611Y-53381382D01*
X56249608Y-53381383D01*
X56232363Y-53391581D01*
X56214901Y-53400135D01*
X56196272Y-53407511D01*
X56196267Y-53407513D01*
X56158564Y-53434906D01*
X56153682Y-53438112D01*
X56113580Y-53461828D01*
X56099408Y-53476000D01*
X56084623Y-53488628D01*
X56068412Y-53500407D01*
X56038709Y-53536310D01*
X56034777Y-53540631D01*
X54616208Y-54959199D01*
X54603951Y-54969020D01*
X54604134Y-54969241D01*
X54598123Y-54974213D01*
X54550772Y-55024636D01*
X54529889Y-55045519D01*
X54529877Y-55045532D01*
X54525621Y-55051017D01*
X54521837Y-55055447D01*
X54489937Y-55089418D01*
X54489936Y-55089420D01*
X54480284Y-55106976D01*
X54469610Y-55123226D01*
X54457329Y-55139061D01*
X54457324Y-55139068D01*
X54438815Y-55181838D01*
X54436245Y-55187084D01*
X54413803Y-55227906D01*
X54408822Y-55247307D01*
X54402521Y-55265710D01*
X54394562Y-55284102D01*
X54394561Y-55284105D01*
X54387271Y-55330127D01*
X54386087Y-55335846D01*
X54374501Y-55380972D01*
X54374500Y-55380982D01*
X54374500Y-55401016D01*
X54372973Y-55420415D01*
X54369840Y-55440194D01*
X54369840Y-55440195D01*
X54374225Y-55486583D01*
X54374500Y-55492421D01*
X54374500Y-58401016D01*
X54372973Y-58420415D01*
X54369840Y-58440194D01*
X54369840Y-58440195D01*
X54374225Y-58486583D01*
X54374500Y-58492421D01*
X54374500Y-58880981D01*
X54374499Y-67901022D01*
X54372972Y-67920421D01*
X54369840Y-67940194D01*
X54369840Y-67940195D01*
X54374225Y-67986583D01*
X54374500Y-67992421D01*
X54374500Y-72235500D01*
X54354815Y-72302539D01*
X54302011Y-72348294D01*
X54250501Y-72359500D01*
X54102130Y-72359500D01*
X54102123Y-72359501D01*
X54042516Y-72365908D01*
X53907671Y-72416202D01*
X53907664Y-72416206D01*
X53792455Y-72502452D01*
X53792452Y-72502455D01*
X53706206Y-72617664D01*
X53706202Y-72617671D01*
X53655908Y-72752517D01*
X53649501Y-72812116D01*
X53649501Y-72812123D01*
X53649500Y-72812135D01*
X53649500Y-72960500D01*
X53629815Y-73027539D01*
X53577011Y-73073294D01*
X53525500Y-73084500D01*
X53332743Y-73084500D01*
X53317122Y-73082775D01*
X53317096Y-73083061D01*
X53309334Y-73082327D01*
X53309333Y-73082327D01*
X53240186Y-73084500D01*
X53210649Y-73084500D01*
X53203766Y-73085369D01*
X53197949Y-73085826D01*
X53151373Y-73087290D01*
X53132129Y-73092881D01*
X53113079Y-73096825D01*
X53093211Y-73099334D01*
X53049884Y-73116488D01*
X53044358Y-73118379D01*
X52999614Y-73131379D01*
X52999610Y-73131381D01*
X52982366Y-73141579D01*
X52964905Y-73150133D01*
X52946274Y-73157510D01*
X52946262Y-73157517D01*
X52908570Y-73184902D01*
X52903687Y-73188109D01*
X52863580Y-73211829D01*
X52849414Y-73225995D01*
X52834624Y-73238627D01*
X52818414Y-73250404D01*
X52818411Y-73250407D01*
X52788710Y-73286309D01*
X52784777Y-73290631D01*
X51616208Y-74459199D01*
X51603951Y-74469020D01*
X51604134Y-74469241D01*
X51598123Y-74474213D01*
X51550772Y-74524636D01*
X51529889Y-74545519D01*
X51529877Y-74545532D01*
X51525621Y-74551017D01*
X51521837Y-74555447D01*
X51489937Y-74589418D01*
X51489936Y-74589420D01*
X51480284Y-74606976D01*
X51469610Y-74623226D01*
X51457329Y-74639061D01*
X51457324Y-74639068D01*
X51438815Y-74681838D01*
X51436245Y-74687084D01*
X51413803Y-74727906D01*
X51408822Y-74747307D01*
X51402521Y-74765710D01*
X51394562Y-74784102D01*
X51394561Y-74784105D01*
X51387271Y-74830127D01*
X51386087Y-74835846D01*
X51374501Y-74880972D01*
X51374500Y-74880982D01*
X51374500Y-74901016D01*
X51372973Y-74920415D01*
X51369840Y-74940194D01*
X51369840Y-74940195D01*
X50000500Y-74940195D01*
X50000500Y-50084500D01*
X50020185Y-50017461D01*
X50072989Y-49971706D01*
X50124500Y-49960500D01*
X149875500Y-49960500D01*
X149942539Y-49980185D01*
G37*
%TD.AperFunction*%
%TA.AperFunction,NonConductor*%
G36*
X63722948Y-68105185D02*
G01*
X63768292Y-68157097D01*
X63770965Y-68162830D01*
X63906505Y-68356401D01*
X64073599Y-68523495D01*
X64153117Y-68579174D01*
X64267165Y-68659032D01*
X64267167Y-68659033D01*
X64267170Y-68659035D01*
X64481337Y-68758903D01*
X64709592Y-68820063D01*
X64886034Y-68835500D01*
X64944999Y-68840659D01*
X64945000Y-68840659D01*
X64945001Y-68840659D01*
X65003966Y-68835500D01*
X65180408Y-68820063D01*
X65408663Y-68758903D01*
X65622830Y-68659035D01*
X65816401Y-68523495D01*
X65983495Y-68356401D01*
X66113424Y-68170842D01*
X66168002Y-68127217D01*
X66237500Y-68120023D01*
X66299855Y-68151546D01*
X66316575Y-68170842D01*
X66446500Y-68356395D01*
X66446505Y-68356401D01*
X66613599Y-68523495D01*
X66693117Y-68579174D01*
X66807165Y-68659032D01*
X66807167Y-68659033D01*
X66807170Y-68659035D01*
X67021337Y-68758903D01*
X67249592Y-68820063D01*
X67426034Y-68835500D01*
X67484999Y-68840659D01*
X67485000Y-68840659D01*
X67485001Y-68840659D01*
X67543966Y-68835500D01*
X67720408Y-68820063D01*
X67948663Y-68758903D01*
X68162830Y-68659035D01*
X68356401Y-68523495D01*
X68478329Y-68401566D01*
X68539648Y-68368084D01*
X68609340Y-68373068D01*
X68665274Y-68414939D01*
X68682189Y-68445917D01*
X68731202Y-68577328D01*
X68731206Y-68577335D01*
X68817452Y-68692544D01*
X68817455Y-68692547D01*
X68932664Y-68778793D01*
X68932671Y-68778797D01*
X68977618Y-68795561D01*
X69067517Y-68829091D01*
X69127127Y-68835500D01*
X69250500Y-68835499D01*
X69317539Y-68855183D01*
X69363294Y-68907987D01*
X69374500Y-68959499D01*
X69374500Y-75710500D01*
X69354815Y-75777539D01*
X69302011Y-75823294D01*
X69250500Y-75834500D01*
X56375358Y-75834500D01*
X56308319Y-75814815D01*
X56262976Y-75762905D01*
X56251552Y-75738407D01*
X56174035Y-75572171D01*
X56159334Y-75551176D01*
X56038496Y-75378600D01*
X55982980Y-75323084D01*
X55916567Y-75256671D01*
X55883084Y-75195351D01*
X55888068Y-75125659D01*
X55929939Y-75069725D01*
X55960915Y-75052810D01*
X56092331Y-75003796D01*
X56207546Y-74917546D01*
X56293796Y-74802331D01*
X56344091Y-74667483D01*
X56350500Y-74607873D01*
X56350499Y-72812128D01*
X56345299Y-72763757D01*
X56344091Y-72752516D01*
X56293797Y-72617671D01*
X56293793Y-72617664D01*
X56207547Y-72502455D01*
X56207544Y-72502452D01*
X56092335Y-72416206D01*
X56092328Y-72416202D01*
X55957482Y-72365908D01*
X55957483Y-72365908D01*
X55897883Y-72359501D01*
X55897881Y-72359500D01*
X55897873Y-72359500D01*
X55897865Y-72359500D01*
X55749500Y-72359500D01*
X55682461Y-72339815D01*
X55636706Y-72287011D01*
X55625500Y-72235500D01*
X55625500Y-68270451D01*
X55645185Y-68203412D01*
X55661810Y-68182779D01*
X55722773Y-68121816D01*
X55784095Y-68088334D01*
X55810452Y-68085500D01*
X63655909Y-68085500D01*
X63722948Y-68105185D01*
G37*
%TD.AperFunction*%
%TA.AperFunction,NonConductor*%
G36*
X53568835Y-74378269D02*
G01*
X53624768Y-74420141D01*
X53649185Y-74485605D01*
X53649501Y-74494451D01*
X53649501Y-74607876D01*
X53655908Y-74667483D01*
X53706202Y-74802328D01*
X53706206Y-74802335D01*
X53792452Y-74917544D01*
X53792455Y-74917547D01*
X53907664Y-75003793D01*
X53907671Y-75003797D01*
X54039081Y-75052810D01*
X54095015Y-75094681D01*
X54119432Y-75160145D01*
X54104580Y-75228418D01*
X54083430Y-75256673D01*
X53961503Y-75378600D01*
X53825965Y-75572169D01*
X53825964Y-75572171D01*
X53726098Y-75786335D01*
X53726094Y-75786344D01*
X53664938Y-76014586D01*
X53664936Y-76014596D01*
X53644341Y-76249999D01*
X53644341Y-76250000D01*
X53664936Y-76485403D01*
X53664938Y-76485413D01*
X53726094Y-76713655D01*
X53726096Y-76713659D01*
X53726097Y-76713663D01*
X53825964Y-76927830D01*
X53825965Y-76927830D01*
X53825967Y-76927834D01*
X53934281Y-77082521D01*
X53961505Y-77121401D01*
X54128599Y-77288495D01*
X54225384Y-77356264D01*
X54322165Y-77424032D01*
X54322167Y-77424033D01*
X54322170Y-77424035D01*
X54536337Y-77523903D01*
X54764592Y-77585063D01*
X54952918Y-77601539D01*
X54999999Y-77605659D01*
X55000000Y-77605659D01*
X55000001Y-77605659D01*
X55039234Y-77602226D01*
X55235408Y-77585063D01*
X55463663Y-77523903D01*
X55677830Y-77424035D01*
X55871401Y-77288495D01*
X55954740Y-77205156D01*
X56038078Y-77121819D01*
X56099401Y-77088334D01*
X56125759Y-77085500D01*
X69250500Y-77085500D01*
X69317539Y-77105185D01*
X69363294Y-77157989D01*
X69374500Y-77209500D01*
X69374500Y-81510500D01*
X69354815Y-81577539D01*
X69302011Y-81623294D01*
X69250501Y-81634500D01*
X69127130Y-81634500D01*
X69127123Y-81634501D01*
X69067516Y-81640908D01*
X68932671Y-81691202D01*
X68932664Y-81691206D01*
X68817455Y-81777452D01*
X68817452Y-81777455D01*
X68731206Y-81892664D01*
X68731203Y-81892669D01*
X68682189Y-82024083D01*
X68640317Y-82080016D01*
X68574853Y-82104433D01*
X68506580Y-82089581D01*
X68478326Y-82068430D01*
X68356402Y-81946506D01*
X68356395Y-81946501D01*
X68162834Y-81810967D01*
X68162830Y-81810965D01*
X68120339Y-81791151D01*
X67948663Y-81711097D01*
X67948659Y-81711096D01*
X67948655Y-81711094D01*
X67720413Y-81649938D01*
X67720403Y-81649936D01*
X67485001Y-81629341D01*
X67484999Y-81629341D01*
X67249596Y-81649936D01*
X67249586Y-81649938D01*
X67021344Y-81711094D01*
X67021335Y-81711098D01*
X66807171Y-81810964D01*
X66807169Y-81810965D01*
X66613597Y-81946505D01*
X66446505Y-82113597D01*
X66316575Y-82299158D01*
X66261998Y-82342783D01*
X66192500Y-82349977D01*
X66130145Y-82318454D01*
X66113425Y-82299158D01*
X65983494Y-82113597D01*
X65816402Y-81946506D01*
X65816395Y-81946501D01*
X65622834Y-81810967D01*
X65622830Y-81810965D01*
X65580339Y-81791151D01*
X65408663Y-81711097D01*
X65408659Y-81711096D01*
X65408655Y-81711094D01*
X65180413Y-81649938D01*
X65180403Y-81649936D01*
X64945001Y-81629341D01*
X64944999Y-81629341D01*
X64709596Y-81649936D01*
X64709586Y-81649938D01*
X64481344Y-81711094D01*
X64481335Y-81711098D01*
X64267171Y-81810964D01*
X64267169Y-81810965D01*
X64073597Y-81946505D01*
X63906505Y-82113597D01*
X63771348Y-82306623D01*
X63716771Y-82350248D01*
X63669773Y-82359500D01*
X52835453Y-82359500D01*
X52768414Y-82339815D01*
X52747772Y-82323181D01*
X52661819Y-82237228D01*
X52628334Y-82175905D01*
X52625500Y-82149547D01*
X52625500Y-75270452D01*
X52645185Y-75203413D01*
X52661819Y-75182771D01*
X53060488Y-74784102D01*
X53437822Y-74406768D01*
X53499143Y-74373285D01*
X53568835Y-74378269D01*
G37*
%TD.AperFunction*%
M02*
