%TF.GenerationSoftware,KiCad,Pcbnew,7.0.7*%
%TF.CreationDate,2023-11-14T16:38:08-05:00*%
%TF.ProjectId,TEJ4M-Unit-1-04,54454a34-4d2d-4556-9e69-742d312d3034,rev?*%
%TF.SameCoordinates,Original*%
%TF.FileFunction,Other,Comment*%
%FSLAX46Y46*%
G04 Gerber Fmt 4.6, Leading zero omitted, Abs format (unit mm)*
G04 Created by KiCad (PCBNEW 7.0.7) date 2023-11-14 16:38:08*
%MOMM*%
%LPD*%
G01*
G04 APERTURE LIST*
%ADD10C,0.200000*%
G04 APERTURE END LIST*
D10*
X152917292Y-52095314D02*
X152060149Y-52095314D01*
X152060149Y-52095314D02*
X152060149Y-50295314D01*
X153517292Y-51152457D02*
X154117292Y-51152457D01*
X154374435Y-52095314D02*
X153517292Y-52095314D01*
X153517292Y-52095314D02*
X153517292Y-50295314D01*
X153517292Y-50295314D02*
X154374435Y-50295314D01*
X155145863Y-52095314D02*
X155145863Y-50295314D01*
X155145863Y-50295314D02*
X155574434Y-50295314D01*
X155574434Y-50295314D02*
X155831577Y-50381028D01*
X155831577Y-50381028D02*
X156003006Y-50552457D01*
X156003006Y-50552457D02*
X156088720Y-50723885D01*
X156088720Y-50723885D02*
X156174434Y-51066742D01*
X156174434Y-51066742D02*
X156174434Y-51323885D01*
X156174434Y-51323885D02*
X156088720Y-51666742D01*
X156088720Y-51666742D02*
X156003006Y-51838171D01*
X156003006Y-51838171D02*
X155831577Y-52009600D01*
X155831577Y-52009600D02*
X155574434Y-52095314D01*
X155574434Y-52095314D02*
X155145863Y-52095314D01*
X158917292Y-51152457D02*
X158317292Y-51152457D01*
X158317292Y-52095314D02*
X158317292Y-50295314D01*
X158317292Y-50295314D02*
X159174435Y-50295314D01*
X160117292Y-52095314D02*
X159945863Y-52009600D01*
X159945863Y-52009600D02*
X159860149Y-51923885D01*
X159860149Y-51923885D02*
X159774435Y-51752457D01*
X159774435Y-51752457D02*
X159774435Y-51238171D01*
X159774435Y-51238171D02*
X159860149Y-51066742D01*
X159860149Y-51066742D02*
X159945863Y-50981028D01*
X159945863Y-50981028D02*
X160117292Y-50895314D01*
X160117292Y-50895314D02*
X160374435Y-50895314D01*
X160374435Y-50895314D02*
X160545863Y-50981028D01*
X160545863Y-50981028D02*
X160631578Y-51066742D01*
X160631578Y-51066742D02*
X160717292Y-51238171D01*
X160717292Y-51238171D02*
X160717292Y-51752457D01*
X160717292Y-51752457D02*
X160631578Y-51923885D01*
X160631578Y-51923885D02*
X160545863Y-52009600D01*
X160545863Y-52009600D02*
X160374435Y-52095314D01*
X160374435Y-52095314D02*
X160117292Y-52095314D01*
X161745863Y-52095314D02*
X161574434Y-52009600D01*
X161574434Y-52009600D02*
X161488720Y-51923885D01*
X161488720Y-51923885D02*
X161403006Y-51752457D01*
X161403006Y-51752457D02*
X161403006Y-51238171D01*
X161403006Y-51238171D02*
X161488720Y-51066742D01*
X161488720Y-51066742D02*
X161574434Y-50981028D01*
X161574434Y-50981028D02*
X161745863Y-50895314D01*
X161745863Y-50895314D02*
X162003006Y-50895314D01*
X162003006Y-50895314D02*
X162174434Y-50981028D01*
X162174434Y-50981028D02*
X162260149Y-51066742D01*
X162260149Y-51066742D02*
X162345863Y-51238171D01*
X162345863Y-51238171D02*
X162345863Y-51752457D01*
X162345863Y-51752457D02*
X162260149Y-51923885D01*
X162260149Y-51923885D02*
X162174434Y-52009600D01*
X162174434Y-52009600D02*
X162003006Y-52095314D01*
X162003006Y-52095314D02*
X161745863Y-52095314D01*
X162860148Y-50895314D02*
X163545862Y-50895314D01*
X163117291Y-50295314D02*
X163117291Y-51838171D01*
X163117291Y-51838171D02*
X163203005Y-52009600D01*
X163203005Y-52009600D02*
X163374434Y-52095314D01*
X163374434Y-52095314D02*
X163545862Y-52095314D01*
X164145862Y-50895314D02*
X164145862Y-52695314D01*
X164145862Y-50981028D02*
X164317291Y-50895314D01*
X164317291Y-50895314D02*
X164660148Y-50895314D01*
X164660148Y-50895314D02*
X164831576Y-50981028D01*
X164831576Y-50981028D02*
X164917291Y-51066742D01*
X164917291Y-51066742D02*
X165003005Y-51238171D01*
X165003005Y-51238171D02*
X165003005Y-51752457D01*
X165003005Y-51752457D02*
X164917291Y-51923885D01*
X164917291Y-51923885D02*
X164831576Y-52009600D01*
X164831576Y-52009600D02*
X164660148Y-52095314D01*
X164660148Y-52095314D02*
X164317291Y-52095314D01*
X164317291Y-52095314D02*
X164145862Y-52009600D01*
X165774433Y-52095314D02*
X165774433Y-50895314D01*
X165774433Y-51238171D02*
X165860147Y-51066742D01*
X165860147Y-51066742D02*
X165945862Y-50981028D01*
X165945862Y-50981028D02*
X166117290Y-50895314D01*
X166117290Y-50895314D02*
X166288719Y-50895314D01*
X166888719Y-52095314D02*
X166888719Y-50895314D01*
X166888719Y-50295314D02*
X166803005Y-50381028D01*
X166803005Y-50381028D02*
X166888719Y-50466742D01*
X166888719Y-50466742D02*
X166974433Y-50381028D01*
X166974433Y-50381028D02*
X166888719Y-50295314D01*
X166888719Y-50295314D02*
X166888719Y-50466742D01*
X167745862Y-50895314D02*
X167745862Y-52095314D01*
X167745862Y-51066742D02*
X167831576Y-50981028D01*
X167831576Y-50981028D02*
X168003005Y-50895314D01*
X168003005Y-50895314D02*
X168260148Y-50895314D01*
X168260148Y-50895314D02*
X168431576Y-50981028D01*
X168431576Y-50981028D02*
X168517291Y-51152457D01*
X168517291Y-51152457D02*
X168517291Y-52095314D01*
X169117290Y-50895314D02*
X169803004Y-50895314D01*
X169374433Y-50295314D02*
X169374433Y-51838171D01*
X169374433Y-51838171D02*
X169460147Y-52009600D01*
X169460147Y-52009600D02*
X169631576Y-52095314D01*
X169631576Y-52095314D02*
X169803004Y-52095314D01*
X170403004Y-51923885D02*
X170488718Y-52009600D01*
X170488718Y-52009600D02*
X170403004Y-52095314D01*
X170403004Y-52095314D02*
X170317290Y-52009600D01*
X170317290Y-52009600D02*
X170403004Y-51923885D01*
X170403004Y-51923885D02*
X170403004Y-52095314D01*
X170403004Y-50981028D02*
X170488718Y-51066742D01*
X170488718Y-51066742D02*
X170403004Y-51152457D01*
X170403004Y-51152457D02*
X170317290Y-51066742D01*
X170317290Y-51066742D02*
X170403004Y-50981028D01*
X170403004Y-50981028D02*
X170403004Y-51152457D01*
X152917292Y-54993314D02*
X152060149Y-54993314D01*
X152060149Y-54993314D02*
X152060149Y-53193314D01*
X153517292Y-54050457D02*
X154117292Y-54050457D01*
X154374435Y-54993314D02*
X153517292Y-54993314D01*
X153517292Y-54993314D02*
X153517292Y-53193314D01*
X153517292Y-53193314D02*
X154374435Y-53193314D01*
X155145863Y-54993314D02*
X155145863Y-53193314D01*
X155145863Y-53193314D02*
X155574434Y-53193314D01*
X155574434Y-53193314D02*
X155831577Y-53279028D01*
X155831577Y-53279028D02*
X156003006Y-53450457D01*
X156003006Y-53450457D02*
X156088720Y-53621885D01*
X156088720Y-53621885D02*
X156174434Y-53964742D01*
X156174434Y-53964742D02*
X156174434Y-54221885D01*
X156174434Y-54221885D02*
X156088720Y-54564742D01*
X156088720Y-54564742D02*
X156003006Y-54736171D01*
X156003006Y-54736171D02*
X155831577Y-54907600D01*
X155831577Y-54907600D02*
X155574434Y-54993314D01*
X155574434Y-54993314D02*
X155145863Y-54993314D01*
X156517292Y-55164742D02*
X157888720Y-55164742D01*
X158060149Y-53193314D02*
X159088721Y-53193314D01*
X158574435Y-54993314D02*
X158574435Y-53193314D01*
X159688721Y-54993314D02*
X159688721Y-53193314D01*
X159688721Y-54050457D02*
X160717292Y-54050457D01*
X160717292Y-54993314D02*
X160717292Y-53193314D01*
X161317292Y-53193314D02*
X162345864Y-53193314D01*
X161831578Y-54993314D02*
X161831578Y-53193314D01*
X162945864Y-54821885D02*
X163031578Y-54907600D01*
X163031578Y-54907600D02*
X162945864Y-54993314D01*
X162945864Y-54993314D02*
X162860150Y-54907600D01*
X162860150Y-54907600D02*
X162945864Y-54821885D01*
X162945864Y-54821885D02*
X162945864Y-54993314D01*
X162945864Y-53879028D02*
X163031578Y-53964742D01*
X163031578Y-53964742D02*
X162945864Y-54050457D01*
X162945864Y-54050457D02*
X162860150Y-53964742D01*
X162860150Y-53964742D02*
X162945864Y-53879028D01*
X162945864Y-53879028D02*
X162945864Y-54050457D01*
X164660150Y-54993314D02*
X163803007Y-54993314D01*
X163803007Y-54993314D02*
X163803007Y-53193314D01*
X165260150Y-54050457D02*
X165860150Y-54050457D01*
X166117293Y-54993314D02*
X165260150Y-54993314D01*
X165260150Y-54993314D02*
X165260150Y-53193314D01*
X165260150Y-53193314D02*
X166117293Y-53193314D01*
X166888721Y-54993314D02*
X166888721Y-53193314D01*
X166888721Y-53193314D02*
X167317292Y-53193314D01*
X167317292Y-53193314D02*
X167574435Y-53279028D01*
X167574435Y-53279028D02*
X167745864Y-53450457D01*
X167745864Y-53450457D02*
X167831578Y-53621885D01*
X167831578Y-53621885D02*
X167917292Y-53964742D01*
X167917292Y-53964742D02*
X167917292Y-54221885D01*
X167917292Y-54221885D02*
X167831578Y-54564742D01*
X167831578Y-54564742D02*
X167745864Y-54736171D01*
X167745864Y-54736171D02*
X167574435Y-54907600D01*
X167574435Y-54907600D02*
X167317292Y-54993314D01*
X167317292Y-54993314D02*
X166888721Y-54993314D01*
X168260150Y-55164742D02*
X169631578Y-55164742D01*
X170060150Y-54993314D02*
X170060150Y-53193314D01*
X170060150Y-53193314D02*
X170488721Y-53193314D01*
X170488721Y-53193314D02*
X170745864Y-53279028D01*
X170745864Y-53279028D02*
X170917293Y-53450457D01*
X170917293Y-53450457D02*
X171003007Y-53621885D01*
X171003007Y-53621885D02*
X171088721Y-53964742D01*
X171088721Y-53964742D02*
X171088721Y-54221885D01*
X171088721Y-54221885D02*
X171003007Y-54564742D01*
X171003007Y-54564742D02*
X170917293Y-54736171D01*
X170917293Y-54736171D02*
X170745864Y-54907600D01*
X170745864Y-54907600D02*
X170488721Y-54993314D01*
X170488721Y-54993314D02*
X170060150Y-54993314D01*
X171688721Y-53193314D02*
X172803007Y-53193314D01*
X172803007Y-53193314D02*
X172203007Y-53879028D01*
X172203007Y-53879028D02*
X172460150Y-53879028D01*
X172460150Y-53879028D02*
X172631579Y-53964742D01*
X172631579Y-53964742D02*
X172717293Y-54050457D01*
X172717293Y-54050457D02*
X172803007Y-54221885D01*
X172803007Y-54221885D02*
X172803007Y-54650457D01*
X172803007Y-54650457D02*
X172717293Y-54821885D01*
X172717293Y-54821885D02*
X172631579Y-54907600D01*
X172631579Y-54907600D02*
X172460150Y-54993314D01*
X172460150Y-54993314D02*
X171945864Y-54993314D01*
X171945864Y-54993314D02*
X171774436Y-54907600D01*
X171774436Y-54907600D02*
X171688721Y-54821885D01*
X173574436Y-54821885D02*
X173660150Y-54907600D01*
X173660150Y-54907600D02*
X173574436Y-54993314D01*
X173574436Y-54993314D02*
X173488722Y-54907600D01*
X173488722Y-54907600D02*
X173574436Y-54821885D01*
X173574436Y-54821885D02*
X173574436Y-54993314D01*
X174774436Y-53193314D02*
X174945865Y-53193314D01*
X174945865Y-53193314D02*
X175117293Y-53279028D01*
X175117293Y-53279028D02*
X175203008Y-53364742D01*
X175203008Y-53364742D02*
X175288722Y-53536171D01*
X175288722Y-53536171D02*
X175374436Y-53879028D01*
X175374436Y-53879028D02*
X175374436Y-54307600D01*
X175374436Y-54307600D02*
X175288722Y-54650457D01*
X175288722Y-54650457D02*
X175203008Y-54821885D01*
X175203008Y-54821885D02*
X175117293Y-54907600D01*
X175117293Y-54907600D02*
X174945865Y-54993314D01*
X174945865Y-54993314D02*
X174774436Y-54993314D01*
X174774436Y-54993314D02*
X174603008Y-54907600D01*
X174603008Y-54907600D02*
X174517293Y-54821885D01*
X174517293Y-54821885D02*
X174431579Y-54650457D01*
X174431579Y-54650457D02*
X174345865Y-54307600D01*
X174345865Y-54307600D02*
X174345865Y-53879028D01*
X174345865Y-53879028D02*
X174431579Y-53536171D01*
X174431579Y-53536171D02*
X174517293Y-53364742D01*
X174517293Y-53364742D02*
X174603008Y-53279028D01*
X174603008Y-53279028D02*
X174774436Y-53193314D01*
X176145865Y-54993314D02*
X176145865Y-53793314D01*
X176145865Y-53964742D02*
X176231579Y-53879028D01*
X176231579Y-53879028D02*
X176403008Y-53793314D01*
X176403008Y-53793314D02*
X176660151Y-53793314D01*
X176660151Y-53793314D02*
X176831579Y-53879028D01*
X176831579Y-53879028D02*
X176917294Y-54050457D01*
X176917294Y-54050457D02*
X176917294Y-54993314D01*
X176917294Y-54050457D02*
X177003008Y-53879028D01*
X177003008Y-53879028D02*
X177174436Y-53793314D01*
X177174436Y-53793314D02*
X177431579Y-53793314D01*
X177431579Y-53793314D02*
X177603008Y-53879028D01*
X177603008Y-53879028D02*
X177688722Y-54050457D01*
X177688722Y-54050457D02*
X177688722Y-54993314D01*
X178545865Y-54993314D02*
X178545865Y-53793314D01*
X178545865Y-53964742D02*
X178631579Y-53879028D01*
X178631579Y-53879028D02*
X178803008Y-53793314D01*
X178803008Y-53793314D02*
X179060151Y-53793314D01*
X179060151Y-53793314D02*
X179231579Y-53879028D01*
X179231579Y-53879028D02*
X179317294Y-54050457D01*
X179317294Y-54050457D02*
X179317294Y-54993314D01*
X179317294Y-54050457D02*
X179403008Y-53879028D01*
X179403008Y-53879028D02*
X179574436Y-53793314D01*
X179574436Y-53793314D02*
X179831579Y-53793314D01*
X179831579Y-53793314D02*
X180003008Y-53879028D01*
X180003008Y-53879028D02*
X180088722Y-54050457D01*
X180088722Y-54050457D02*
X180088722Y-54993314D01*
X153088720Y-60789314D02*
X152488720Y-59932171D01*
X152060149Y-60789314D02*
X152060149Y-58989314D01*
X152060149Y-58989314D02*
X152745863Y-58989314D01*
X152745863Y-58989314D02*
X152917292Y-59075028D01*
X152917292Y-59075028D02*
X153003006Y-59160742D01*
X153003006Y-59160742D02*
X153088720Y-59332171D01*
X153088720Y-59332171D02*
X153088720Y-59589314D01*
X153088720Y-59589314D02*
X153003006Y-59760742D01*
X153003006Y-59760742D02*
X152917292Y-59846457D01*
X152917292Y-59846457D02*
X152745863Y-59932171D01*
X152745863Y-59932171D02*
X152060149Y-59932171D01*
X154545863Y-60703600D02*
X154374435Y-60789314D01*
X154374435Y-60789314D02*
X154031578Y-60789314D01*
X154031578Y-60789314D02*
X153860149Y-60703600D01*
X153860149Y-60703600D02*
X153774435Y-60532171D01*
X153774435Y-60532171D02*
X153774435Y-59846457D01*
X153774435Y-59846457D02*
X153860149Y-59675028D01*
X153860149Y-59675028D02*
X154031578Y-59589314D01*
X154031578Y-59589314D02*
X154374435Y-59589314D01*
X154374435Y-59589314D02*
X154545863Y-59675028D01*
X154545863Y-59675028D02*
X154631578Y-59846457D01*
X154631578Y-59846457D02*
X154631578Y-60017885D01*
X154631578Y-60017885D02*
X153774435Y-60189314D01*
X155317292Y-60703600D02*
X155488720Y-60789314D01*
X155488720Y-60789314D02*
X155831577Y-60789314D01*
X155831577Y-60789314D02*
X156003006Y-60703600D01*
X156003006Y-60703600D02*
X156088720Y-60532171D01*
X156088720Y-60532171D02*
X156088720Y-60446457D01*
X156088720Y-60446457D02*
X156003006Y-60275028D01*
X156003006Y-60275028D02*
X155831577Y-60189314D01*
X155831577Y-60189314D02*
X155574435Y-60189314D01*
X155574435Y-60189314D02*
X155403006Y-60103600D01*
X155403006Y-60103600D02*
X155317292Y-59932171D01*
X155317292Y-59932171D02*
X155317292Y-59846457D01*
X155317292Y-59846457D02*
X155403006Y-59675028D01*
X155403006Y-59675028D02*
X155574435Y-59589314D01*
X155574435Y-59589314D02*
X155831577Y-59589314D01*
X155831577Y-59589314D02*
X156003006Y-59675028D01*
X156860149Y-60789314D02*
X156860149Y-59589314D01*
X156860149Y-58989314D02*
X156774435Y-59075028D01*
X156774435Y-59075028D02*
X156860149Y-59160742D01*
X156860149Y-59160742D02*
X156945863Y-59075028D01*
X156945863Y-59075028D02*
X156860149Y-58989314D01*
X156860149Y-58989314D02*
X156860149Y-59160742D01*
X157631578Y-60703600D02*
X157803006Y-60789314D01*
X157803006Y-60789314D02*
X158145863Y-60789314D01*
X158145863Y-60789314D02*
X158317292Y-60703600D01*
X158317292Y-60703600D02*
X158403006Y-60532171D01*
X158403006Y-60532171D02*
X158403006Y-60446457D01*
X158403006Y-60446457D02*
X158317292Y-60275028D01*
X158317292Y-60275028D02*
X158145863Y-60189314D01*
X158145863Y-60189314D02*
X157888721Y-60189314D01*
X157888721Y-60189314D02*
X157717292Y-60103600D01*
X157717292Y-60103600D02*
X157631578Y-59932171D01*
X157631578Y-59932171D02*
X157631578Y-59846457D01*
X157631578Y-59846457D02*
X157717292Y-59675028D01*
X157717292Y-59675028D02*
X157888721Y-59589314D01*
X157888721Y-59589314D02*
X158145863Y-59589314D01*
X158145863Y-59589314D02*
X158317292Y-59675028D01*
X158917292Y-59589314D02*
X159603006Y-59589314D01*
X159174435Y-58989314D02*
X159174435Y-60532171D01*
X159174435Y-60532171D02*
X159260149Y-60703600D01*
X159260149Y-60703600D02*
X159431578Y-60789314D01*
X159431578Y-60789314D02*
X159603006Y-60789314D01*
X160460149Y-60789314D02*
X160288720Y-60703600D01*
X160288720Y-60703600D02*
X160203006Y-60617885D01*
X160203006Y-60617885D02*
X160117292Y-60446457D01*
X160117292Y-60446457D02*
X160117292Y-59932171D01*
X160117292Y-59932171D02*
X160203006Y-59760742D01*
X160203006Y-59760742D02*
X160288720Y-59675028D01*
X160288720Y-59675028D02*
X160460149Y-59589314D01*
X160460149Y-59589314D02*
X160717292Y-59589314D01*
X160717292Y-59589314D02*
X160888720Y-59675028D01*
X160888720Y-59675028D02*
X160974435Y-59760742D01*
X160974435Y-59760742D02*
X161060149Y-59932171D01*
X161060149Y-59932171D02*
X161060149Y-60446457D01*
X161060149Y-60446457D02*
X160974435Y-60617885D01*
X160974435Y-60617885D02*
X160888720Y-60703600D01*
X160888720Y-60703600D02*
X160717292Y-60789314D01*
X160717292Y-60789314D02*
X160460149Y-60789314D01*
X161831577Y-60789314D02*
X161831577Y-59589314D01*
X161831577Y-59932171D02*
X161917291Y-59760742D01*
X161917291Y-59760742D02*
X162003006Y-59675028D01*
X162003006Y-59675028D02*
X162174434Y-59589314D01*
X162174434Y-59589314D02*
X162345863Y-59589314D01*
X164917292Y-59846457D02*
X164317292Y-59846457D01*
X164317292Y-60789314D02*
X164317292Y-58989314D01*
X164317292Y-58989314D02*
X165174435Y-58989314D01*
X166117292Y-60789314D02*
X165945863Y-60703600D01*
X165945863Y-60703600D02*
X165860149Y-60617885D01*
X165860149Y-60617885D02*
X165774435Y-60446457D01*
X165774435Y-60446457D02*
X165774435Y-59932171D01*
X165774435Y-59932171D02*
X165860149Y-59760742D01*
X165860149Y-59760742D02*
X165945863Y-59675028D01*
X165945863Y-59675028D02*
X166117292Y-59589314D01*
X166117292Y-59589314D02*
X166374435Y-59589314D01*
X166374435Y-59589314D02*
X166545863Y-59675028D01*
X166545863Y-59675028D02*
X166631578Y-59760742D01*
X166631578Y-59760742D02*
X166717292Y-59932171D01*
X166717292Y-59932171D02*
X166717292Y-60446457D01*
X166717292Y-60446457D02*
X166631578Y-60617885D01*
X166631578Y-60617885D02*
X166545863Y-60703600D01*
X166545863Y-60703600D02*
X166374435Y-60789314D01*
X166374435Y-60789314D02*
X166117292Y-60789314D01*
X167745863Y-60789314D02*
X167574434Y-60703600D01*
X167574434Y-60703600D02*
X167488720Y-60617885D01*
X167488720Y-60617885D02*
X167403006Y-60446457D01*
X167403006Y-60446457D02*
X167403006Y-59932171D01*
X167403006Y-59932171D02*
X167488720Y-59760742D01*
X167488720Y-59760742D02*
X167574434Y-59675028D01*
X167574434Y-59675028D02*
X167745863Y-59589314D01*
X167745863Y-59589314D02*
X168003006Y-59589314D01*
X168003006Y-59589314D02*
X168174434Y-59675028D01*
X168174434Y-59675028D02*
X168260149Y-59760742D01*
X168260149Y-59760742D02*
X168345863Y-59932171D01*
X168345863Y-59932171D02*
X168345863Y-60446457D01*
X168345863Y-60446457D02*
X168260149Y-60617885D01*
X168260149Y-60617885D02*
X168174434Y-60703600D01*
X168174434Y-60703600D02*
X168003006Y-60789314D01*
X168003006Y-60789314D02*
X167745863Y-60789314D01*
X168860148Y-59589314D02*
X169545862Y-59589314D01*
X169117291Y-58989314D02*
X169117291Y-60532171D01*
X169117291Y-60532171D02*
X169203005Y-60703600D01*
X169203005Y-60703600D02*
X169374434Y-60789314D01*
X169374434Y-60789314D02*
X169545862Y-60789314D01*
X170145862Y-59589314D02*
X170145862Y-61389314D01*
X170145862Y-59675028D02*
X170317291Y-59589314D01*
X170317291Y-59589314D02*
X170660148Y-59589314D01*
X170660148Y-59589314D02*
X170831576Y-59675028D01*
X170831576Y-59675028D02*
X170917291Y-59760742D01*
X170917291Y-59760742D02*
X171003005Y-59932171D01*
X171003005Y-59932171D02*
X171003005Y-60446457D01*
X171003005Y-60446457D02*
X170917291Y-60617885D01*
X170917291Y-60617885D02*
X170831576Y-60703600D01*
X170831576Y-60703600D02*
X170660148Y-60789314D01*
X170660148Y-60789314D02*
X170317291Y-60789314D01*
X170317291Y-60789314D02*
X170145862Y-60703600D01*
X171774433Y-60789314D02*
X171774433Y-59589314D01*
X171774433Y-59932171D02*
X171860147Y-59760742D01*
X171860147Y-59760742D02*
X171945862Y-59675028D01*
X171945862Y-59675028D02*
X172117290Y-59589314D01*
X172117290Y-59589314D02*
X172288719Y-59589314D01*
X172888719Y-60789314D02*
X172888719Y-59589314D01*
X172888719Y-58989314D02*
X172803005Y-59075028D01*
X172803005Y-59075028D02*
X172888719Y-59160742D01*
X172888719Y-59160742D02*
X172974433Y-59075028D01*
X172974433Y-59075028D02*
X172888719Y-58989314D01*
X172888719Y-58989314D02*
X172888719Y-59160742D01*
X173745862Y-59589314D02*
X173745862Y-60789314D01*
X173745862Y-59760742D02*
X173831576Y-59675028D01*
X173831576Y-59675028D02*
X174003005Y-59589314D01*
X174003005Y-59589314D02*
X174260148Y-59589314D01*
X174260148Y-59589314D02*
X174431576Y-59675028D01*
X174431576Y-59675028D02*
X174517291Y-59846457D01*
X174517291Y-59846457D02*
X174517291Y-60789314D01*
X175117290Y-59589314D02*
X175803004Y-59589314D01*
X175374433Y-58989314D02*
X175374433Y-60532171D01*
X175374433Y-60532171D02*
X175460147Y-60703600D01*
X175460147Y-60703600D02*
X175631576Y-60789314D01*
X175631576Y-60789314D02*
X175803004Y-60789314D01*
X176403004Y-60617885D02*
X176488718Y-60703600D01*
X176488718Y-60703600D02*
X176403004Y-60789314D01*
X176403004Y-60789314D02*
X176317290Y-60703600D01*
X176317290Y-60703600D02*
X176403004Y-60617885D01*
X176403004Y-60617885D02*
X176403004Y-60789314D01*
X176403004Y-59675028D02*
X176488718Y-59760742D01*
X176488718Y-59760742D02*
X176403004Y-59846457D01*
X176403004Y-59846457D02*
X176317290Y-59760742D01*
X176317290Y-59760742D02*
X176403004Y-59675028D01*
X176403004Y-59675028D02*
X176403004Y-59846457D01*
X153088720Y-63687314D02*
X152488720Y-62830171D01*
X152060149Y-63687314D02*
X152060149Y-61887314D01*
X152060149Y-61887314D02*
X152745863Y-61887314D01*
X152745863Y-61887314D02*
X152917292Y-61973028D01*
X152917292Y-61973028D02*
X153003006Y-62058742D01*
X153003006Y-62058742D02*
X153088720Y-62230171D01*
X153088720Y-62230171D02*
X153088720Y-62487314D01*
X153088720Y-62487314D02*
X153003006Y-62658742D01*
X153003006Y-62658742D02*
X152917292Y-62744457D01*
X152917292Y-62744457D02*
X152745863Y-62830171D01*
X152745863Y-62830171D02*
X152060149Y-62830171D01*
X154545863Y-63601600D02*
X154374435Y-63687314D01*
X154374435Y-63687314D02*
X154031578Y-63687314D01*
X154031578Y-63687314D02*
X153860149Y-63601600D01*
X153860149Y-63601600D02*
X153774435Y-63430171D01*
X153774435Y-63430171D02*
X153774435Y-62744457D01*
X153774435Y-62744457D02*
X153860149Y-62573028D01*
X153860149Y-62573028D02*
X154031578Y-62487314D01*
X154031578Y-62487314D02*
X154374435Y-62487314D01*
X154374435Y-62487314D02*
X154545863Y-62573028D01*
X154545863Y-62573028D02*
X154631578Y-62744457D01*
X154631578Y-62744457D02*
X154631578Y-62915885D01*
X154631578Y-62915885D02*
X153774435Y-63087314D01*
X155317292Y-63601600D02*
X155488720Y-63687314D01*
X155488720Y-63687314D02*
X155831577Y-63687314D01*
X155831577Y-63687314D02*
X156003006Y-63601600D01*
X156003006Y-63601600D02*
X156088720Y-63430171D01*
X156088720Y-63430171D02*
X156088720Y-63344457D01*
X156088720Y-63344457D02*
X156003006Y-63173028D01*
X156003006Y-63173028D02*
X155831577Y-63087314D01*
X155831577Y-63087314D02*
X155574435Y-63087314D01*
X155574435Y-63087314D02*
X155403006Y-63001600D01*
X155403006Y-63001600D02*
X155317292Y-62830171D01*
X155317292Y-62830171D02*
X155317292Y-62744457D01*
X155317292Y-62744457D02*
X155403006Y-62573028D01*
X155403006Y-62573028D02*
X155574435Y-62487314D01*
X155574435Y-62487314D02*
X155831577Y-62487314D01*
X155831577Y-62487314D02*
X156003006Y-62573028D01*
X156860149Y-63687314D02*
X156860149Y-62487314D01*
X156860149Y-61887314D02*
X156774435Y-61973028D01*
X156774435Y-61973028D02*
X156860149Y-62058742D01*
X156860149Y-62058742D02*
X156945863Y-61973028D01*
X156945863Y-61973028D02*
X156860149Y-61887314D01*
X156860149Y-61887314D02*
X156860149Y-62058742D01*
X157631578Y-63601600D02*
X157803006Y-63687314D01*
X157803006Y-63687314D02*
X158145863Y-63687314D01*
X158145863Y-63687314D02*
X158317292Y-63601600D01*
X158317292Y-63601600D02*
X158403006Y-63430171D01*
X158403006Y-63430171D02*
X158403006Y-63344457D01*
X158403006Y-63344457D02*
X158317292Y-63173028D01*
X158317292Y-63173028D02*
X158145863Y-63087314D01*
X158145863Y-63087314D02*
X157888721Y-63087314D01*
X157888721Y-63087314D02*
X157717292Y-63001600D01*
X157717292Y-63001600D02*
X157631578Y-62830171D01*
X157631578Y-62830171D02*
X157631578Y-62744457D01*
X157631578Y-62744457D02*
X157717292Y-62573028D01*
X157717292Y-62573028D02*
X157888721Y-62487314D01*
X157888721Y-62487314D02*
X158145863Y-62487314D01*
X158145863Y-62487314D02*
X158317292Y-62573028D01*
X158917292Y-62487314D02*
X159603006Y-62487314D01*
X159174435Y-61887314D02*
X159174435Y-63430171D01*
X159174435Y-63430171D02*
X159260149Y-63601600D01*
X159260149Y-63601600D02*
X159431578Y-63687314D01*
X159431578Y-63687314D02*
X159603006Y-63687314D01*
X160460149Y-63687314D02*
X160288720Y-63601600D01*
X160288720Y-63601600D02*
X160203006Y-63515885D01*
X160203006Y-63515885D02*
X160117292Y-63344457D01*
X160117292Y-63344457D02*
X160117292Y-62830171D01*
X160117292Y-62830171D02*
X160203006Y-62658742D01*
X160203006Y-62658742D02*
X160288720Y-62573028D01*
X160288720Y-62573028D02*
X160460149Y-62487314D01*
X160460149Y-62487314D02*
X160717292Y-62487314D01*
X160717292Y-62487314D02*
X160888720Y-62573028D01*
X160888720Y-62573028D02*
X160974435Y-62658742D01*
X160974435Y-62658742D02*
X161060149Y-62830171D01*
X161060149Y-62830171D02*
X161060149Y-63344457D01*
X161060149Y-63344457D02*
X160974435Y-63515885D01*
X160974435Y-63515885D02*
X160888720Y-63601600D01*
X160888720Y-63601600D02*
X160717292Y-63687314D01*
X160717292Y-63687314D02*
X160460149Y-63687314D01*
X161831577Y-63687314D02*
X161831577Y-62487314D01*
X161831577Y-62830171D02*
X161917291Y-62658742D01*
X161917291Y-62658742D02*
X162003006Y-62573028D01*
X162003006Y-62573028D02*
X162174434Y-62487314D01*
X162174434Y-62487314D02*
X162345863Y-62487314D01*
X162517292Y-63858742D02*
X163888720Y-63858742D01*
X164060149Y-61887314D02*
X165088721Y-61887314D01*
X164574435Y-63687314D02*
X164574435Y-61887314D01*
X165688721Y-63687314D02*
X165688721Y-61887314D01*
X165688721Y-62744457D02*
X166717292Y-62744457D01*
X166717292Y-63687314D02*
X166717292Y-61887314D01*
X167317292Y-61887314D02*
X168345864Y-61887314D01*
X167831578Y-63687314D02*
X167831578Y-61887314D01*
X168945864Y-63515885D02*
X169031578Y-63601600D01*
X169031578Y-63601600D02*
X168945864Y-63687314D01*
X168945864Y-63687314D02*
X168860150Y-63601600D01*
X168860150Y-63601600D02*
X168945864Y-63515885D01*
X168945864Y-63515885D02*
X168945864Y-63687314D01*
X168945864Y-62573028D02*
X169031578Y-62658742D01*
X169031578Y-62658742D02*
X168945864Y-62744457D01*
X168945864Y-62744457D02*
X168860150Y-62658742D01*
X168860150Y-62658742D02*
X168945864Y-62573028D01*
X168945864Y-62573028D02*
X168945864Y-62744457D01*
X170831578Y-63687314D02*
X170231578Y-62830171D01*
X169803007Y-63687314D02*
X169803007Y-61887314D01*
X169803007Y-61887314D02*
X170488721Y-61887314D01*
X170488721Y-61887314D02*
X170660150Y-61973028D01*
X170660150Y-61973028D02*
X170745864Y-62058742D01*
X170745864Y-62058742D02*
X170831578Y-62230171D01*
X170831578Y-62230171D02*
X170831578Y-62487314D01*
X170831578Y-62487314D02*
X170745864Y-62658742D01*
X170745864Y-62658742D02*
X170660150Y-62744457D01*
X170660150Y-62744457D02*
X170488721Y-62830171D01*
X170488721Y-62830171D02*
X169803007Y-62830171D01*
X171174436Y-63858742D02*
X172545864Y-63858742D01*
X172888722Y-63173028D02*
X173745865Y-63173028D01*
X172717293Y-63687314D02*
X173317293Y-61887314D01*
X173317293Y-61887314D02*
X173917293Y-63687314D01*
X174345864Y-63687314D02*
X175288722Y-62487314D01*
X174345864Y-62487314D02*
X175288722Y-63687314D01*
X175974436Y-63687314D02*
X175974436Y-62487314D01*
X175974436Y-61887314D02*
X175888722Y-61973028D01*
X175888722Y-61973028D02*
X175974436Y-62058742D01*
X175974436Y-62058742D02*
X176060150Y-61973028D01*
X176060150Y-61973028D02*
X175974436Y-61887314D01*
X175974436Y-61887314D02*
X175974436Y-62058742D01*
X177603008Y-63687314D02*
X177603008Y-62744457D01*
X177603008Y-62744457D02*
X177517293Y-62573028D01*
X177517293Y-62573028D02*
X177345865Y-62487314D01*
X177345865Y-62487314D02*
X177003008Y-62487314D01*
X177003008Y-62487314D02*
X176831579Y-62573028D01*
X177603008Y-63601600D02*
X177431579Y-63687314D01*
X177431579Y-63687314D02*
X177003008Y-63687314D01*
X177003008Y-63687314D02*
X176831579Y-63601600D01*
X176831579Y-63601600D02*
X176745865Y-63430171D01*
X176745865Y-63430171D02*
X176745865Y-63258742D01*
X176745865Y-63258742D02*
X176831579Y-63087314D01*
X176831579Y-63087314D02*
X177003008Y-63001600D01*
X177003008Y-63001600D02*
X177431579Y-63001600D01*
X177431579Y-63001600D02*
X177603008Y-62915885D01*
X178717293Y-63687314D02*
X178545864Y-63601600D01*
X178545864Y-63601600D02*
X178460150Y-63430171D01*
X178460150Y-63430171D02*
X178460150Y-61887314D01*
X178974436Y-63858742D02*
X180345864Y-63858742D01*
X180774436Y-63687314D02*
X180774436Y-61887314D01*
X180774436Y-61887314D02*
X181203007Y-61887314D01*
X181203007Y-61887314D02*
X181460150Y-61973028D01*
X181460150Y-61973028D02*
X181631579Y-62144457D01*
X181631579Y-62144457D02*
X181717293Y-62315885D01*
X181717293Y-62315885D02*
X181803007Y-62658742D01*
X181803007Y-62658742D02*
X181803007Y-62915885D01*
X181803007Y-62915885D02*
X181717293Y-63258742D01*
X181717293Y-63258742D02*
X181631579Y-63430171D01*
X181631579Y-63430171D02*
X181460150Y-63601600D01*
X181460150Y-63601600D02*
X181203007Y-63687314D01*
X181203007Y-63687314D02*
X180774436Y-63687314D01*
X182574436Y-63687314D02*
X182574436Y-61887314D01*
X183431579Y-63687314D02*
X183431579Y-61887314D01*
X183431579Y-61887314D02*
X184460150Y-63687314D01*
X184460150Y-63687314D02*
X184460150Y-61887314D01*
X185660150Y-61887314D02*
X185831579Y-61887314D01*
X185831579Y-61887314D02*
X186003007Y-61973028D01*
X186003007Y-61973028D02*
X186088722Y-62058742D01*
X186088722Y-62058742D02*
X186174436Y-62230171D01*
X186174436Y-62230171D02*
X186260150Y-62573028D01*
X186260150Y-62573028D02*
X186260150Y-63001600D01*
X186260150Y-63001600D02*
X186174436Y-63344457D01*
X186174436Y-63344457D02*
X186088722Y-63515885D01*
X186088722Y-63515885D02*
X186003007Y-63601600D01*
X186003007Y-63601600D02*
X185831579Y-63687314D01*
X185831579Y-63687314D02*
X185660150Y-63687314D01*
X185660150Y-63687314D02*
X185488722Y-63601600D01*
X185488722Y-63601600D02*
X185403007Y-63515885D01*
X185403007Y-63515885D02*
X185317293Y-63344457D01*
X185317293Y-63344457D02*
X185231579Y-63001600D01*
X185231579Y-63001600D02*
X185231579Y-62573028D01*
X185231579Y-62573028D02*
X185317293Y-62230171D01*
X185317293Y-62230171D02*
X185403007Y-62058742D01*
X185403007Y-62058742D02*
X185488722Y-61973028D01*
X185488722Y-61973028D02*
X185660150Y-61887314D01*
X186945865Y-62058742D02*
X187031579Y-61973028D01*
X187031579Y-61973028D02*
X187203008Y-61887314D01*
X187203008Y-61887314D02*
X187631579Y-61887314D01*
X187631579Y-61887314D02*
X187803008Y-61973028D01*
X187803008Y-61973028D02*
X187888722Y-62058742D01*
X187888722Y-62058742D02*
X187974436Y-62230171D01*
X187974436Y-62230171D02*
X187974436Y-62401600D01*
X187974436Y-62401600D02*
X187888722Y-62658742D01*
X187888722Y-62658742D02*
X186860150Y-63687314D01*
X186860150Y-63687314D02*
X187974436Y-63687314D01*
X189088722Y-61887314D02*
X189260151Y-61887314D01*
X189260151Y-61887314D02*
X189431579Y-61973028D01*
X189431579Y-61973028D02*
X189517294Y-62058742D01*
X189517294Y-62058742D02*
X189603008Y-62230171D01*
X189603008Y-62230171D02*
X189688722Y-62573028D01*
X189688722Y-62573028D02*
X189688722Y-63001600D01*
X189688722Y-63001600D02*
X189603008Y-63344457D01*
X189603008Y-63344457D02*
X189517294Y-63515885D01*
X189517294Y-63515885D02*
X189431579Y-63601600D01*
X189431579Y-63601600D02*
X189260151Y-63687314D01*
X189260151Y-63687314D02*
X189088722Y-63687314D01*
X189088722Y-63687314D02*
X188917294Y-63601600D01*
X188917294Y-63601600D02*
X188831579Y-63515885D01*
X188831579Y-63515885D02*
X188745865Y-63344457D01*
X188745865Y-63344457D02*
X188660151Y-63001600D01*
X188660151Y-63001600D02*
X188660151Y-62573028D01*
X188660151Y-62573028D02*
X188745865Y-62230171D01*
X188745865Y-62230171D02*
X188831579Y-62058742D01*
X188831579Y-62058742D02*
X188917294Y-61973028D01*
X188917294Y-61973028D02*
X189088722Y-61887314D01*
X191231580Y-62487314D02*
X191231580Y-63687314D01*
X190803008Y-61801600D02*
X190374437Y-63087314D01*
X190374437Y-63087314D02*
X191488722Y-63087314D01*
X191745866Y-63858742D02*
X193117294Y-63858742D01*
X194403009Y-63687314D02*
X193545866Y-63687314D01*
X193545866Y-63687314D02*
X193545866Y-61887314D01*
X194831580Y-61887314D02*
X195945866Y-61887314D01*
X195945866Y-61887314D02*
X195345866Y-62573028D01*
X195345866Y-62573028D02*
X195603009Y-62573028D01*
X195603009Y-62573028D02*
X195774438Y-62658742D01*
X195774438Y-62658742D02*
X195860152Y-62744457D01*
X195860152Y-62744457D02*
X195945866Y-62915885D01*
X195945866Y-62915885D02*
X195945866Y-63344457D01*
X195945866Y-63344457D02*
X195860152Y-63515885D01*
X195860152Y-63515885D02*
X195774438Y-63601600D01*
X195774438Y-63601600D02*
X195603009Y-63687314D01*
X195603009Y-63687314D02*
X195088723Y-63687314D01*
X195088723Y-63687314D02*
X194917295Y-63601600D01*
X194917295Y-63601600D02*
X194831580Y-63515885D01*
X196717295Y-63515885D02*
X196803009Y-63601600D01*
X196803009Y-63601600D02*
X196717295Y-63687314D01*
X196717295Y-63687314D02*
X196631581Y-63601600D01*
X196631581Y-63601600D02*
X196717295Y-63515885D01*
X196717295Y-63515885D02*
X196717295Y-63687314D01*
X198345867Y-61887314D02*
X198003009Y-61887314D01*
X198003009Y-61887314D02*
X197831581Y-61973028D01*
X197831581Y-61973028D02*
X197745867Y-62058742D01*
X197745867Y-62058742D02*
X197574438Y-62315885D01*
X197574438Y-62315885D02*
X197488724Y-62658742D01*
X197488724Y-62658742D02*
X197488724Y-63344457D01*
X197488724Y-63344457D02*
X197574438Y-63515885D01*
X197574438Y-63515885D02*
X197660152Y-63601600D01*
X197660152Y-63601600D02*
X197831581Y-63687314D01*
X197831581Y-63687314D02*
X198174438Y-63687314D01*
X198174438Y-63687314D02*
X198345867Y-63601600D01*
X198345867Y-63601600D02*
X198431581Y-63515885D01*
X198431581Y-63515885D02*
X198517295Y-63344457D01*
X198517295Y-63344457D02*
X198517295Y-62915885D01*
X198517295Y-62915885D02*
X198431581Y-62744457D01*
X198431581Y-62744457D02*
X198345867Y-62658742D01*
X198345867Y-62658742D02*
X198174438Y-62573028D01*
X198174438Y-62573028D02*
X197831581Y-62573028D01*
X197831581Y-62573028D02*
X197660152Y-62658742D01*
X197660152Y-62658742D02*
X197574438Y-62744457D01*
X197574438Y-62744457D02*
X197488724Y-62915885D01*
X199288724Y-63687314D02*
X199288724Y-62487314D01*
X199288724Y-62658742D02*
X199374438Y-62573028D01*
X199374438Y-62573028D02*
X199545867Y-62487314D01*
X199545867Y-62487314D02*
X199803010Y-62487314D01*
X199803010Y-62487314D02*
X199974438Y-62573028D01*
X199974438Y-62573028D02*
X200060153Y-62744457D01*
X200060153Y-62744457D02*
X200060153Y-63687314D01*
X200060153Y-62744457D02*
X200145867Y-62573028D01*
X200145867Y-62573028D02*
X200317295Y-62487314D01*
X200317295Y-62487314D02*
X200574438Y-62487314D01*
X200574438Y-62487314D02*
X200745867Y-62573028D01*
X200745867Y-62573028D02*
X200831581Y-62744457D01*
X200831581Y-62744457D02*
X200831581Y-63687314D01*
X201688724Y-63687314D02*
X201688724Y-62487314D01*
X201688724Y-62658742D02*
X201774438Y-62573028D01*
X201774438Y-62573028D02*
X201945867Y-62487314D01*
X201945867Y-62487314D02*
X202203010Y-62487314D01*
X202203010Y-62487314D02*
X202374438Y-62573028D01*
X202374438Y-62573028D02*
X202460153Y-62744457D01*
X202460153Y-62744457D02*
X202460153Y-63687314D01*
X202460153Y-62744457D02*
X202545867Y-62573028D01*
X202545867Y-62573028D02*
X202717295Y-62487314D01*
X202717295Y-62487314D02*
X202974438Y-62487314D01*
X202974438Y-62487314D02*
X203145867Y-62573028D01*
X203145867Y-62573028D02*
X203231581Y-62744457D01*
X203231581Y-62744457D02*
X203231581Y-63687314D01*
X203660153Y-63858742D02*
X205031581Y-63858742D01*
X205460153Y-63687314D02*
X205460153Y-61887314D01*
X205460153Y-61887314D02*
X205888724Y-61887314D01*
X205888724Y-61887314D02*
X206145867Y-61973028D01*
X206145867Y-61973028D02*
X206317296Y-62144457D01*
X206317296Y-62144457D02*
X206403010Y-62315885D01*
X206403010Y-62315885D02*
X206488724Y-62658742D01*
X206488724Y-62658742D02*
X206488724Y-62915885D01*
X206488724Y-62915885D02*
X206403010Y-63258742D01*
X206403010Y-63258742D02*
X206317296Y-63430171D01*
X206317296Y-63430171D02*
X206145867Y-63601600D01*
X206145867Y-63601600D02*
X205888724Y-63687314D01*
X205888724Y-63687314D02*
X205460153Y-63687314D01*
X208203010Y-63687314D02*
X207174439Y-63687314D01*
X207688724Y-63687314D02*
X207688724Y-61887314D01*
X207688724Y-61887314D02*
X207517296Y-62144457D01*
X207517296Y-62144457D02*
X207345867Y-62315885D01*
X207345867Y-62315885D02*
X207174439Y-62401600D01*
X208974439Y-63515885D02*
X209060153Y-63601600D01*
X209060153Y-63601600D02*
X208974439Y-63687314D01*
X208974439Y-63687314D02*
X208888725Y-63601600D01*
X208888725Y-63601600D02*
X208974439Y-63515885D01*
X208974439Y-63515885D02*
X208974439Y-63687314D01*
X210603011Y-61887314D02*
X210260153Y-61887314D01*
X210260153Y-61887314D02*
X210088725Y-61973028D01*
X210088725Y-61973028D02*
X210003011Y-62058742D01*
X210003011Y-62058742D02*
X209831582Y-62315885D01*
X209831582Y-62315885D02*
X209745868Y-62658742D01*
X209745868Y-62658742D02*
X209745868Y-63344457D01*
X209745868Y-63344457D02*
X209831582Y-63515885D01*
X209831582Y-63515885D02*
X209917296Y-63601600D01*
X209917296Y-63601600D02*
X210088725Y-63687314D01*
X210088725Y-63687314D02*
X210431582Y-63687314D01*
X210431582Y-63687314D02*
X210603011Y-63601600D01*
X210603011Y-63601600D02*
X210688725Y-63515885D01*
X210688725Y-63515885D02*
X210774439Y-63344457D01*
X210774439Y-63344457D02*
X210774439Y-62915885D01*
X210774439Y-62915885D02*
X210688725Y-62744457D01*
X210688725Y-62744457D02*
X210603011Y-62658742D01*
X210603011Y-62658742D02*
X210431582Y-62573028D01*
X210431582Y-62573028D02*
X210088725Y-62573028D01*
X210088725Y-62573028D02*
X209917296Y-62658742D01*
X209917296Y-62658742D02*
X209831582Y-62744457D01*
X209831582Y-62744457D02*
X209745868Y-62915885D01*
X211545868Y-63687314D02*
X211545868Y-62487314D01*
X211545868Y-62658742D02*
X211631582Y-62573028D01*
X211631582Y-62573028D02*
X211803011Y-62487314D01*
X211803011Y-62487314D02*
X212060154Y-62487314D01*
X212060154Y-62487314D02*
X212231582Y-62573028D01*
X212231582Y-62573028D02*
X212317297Y-62744457D01*
X212317297Y-62744457D02*
X212317297Y-63687314D01*
X212317297Y-62744457D02*
X212403011Y-62573028D01*
X212403011Y-62573028D02*
X212574439Y-62487314D01*
X212574439Y-62487314D02*
X212831582Y-62487314D01*
X212831582Y-62487314D02*
X213003011Y-62573028D01*
X213003011Y-62573028D02*
X213088725Y-62744457D01*
X213088725Y-62744457D02*
X213088725Y-63687314D01*
X213945868Y-63687314D02*
X213945868Y-62487314D01*
X213945868Y-62658742D02*
X214031582Y-62573028D01*
X214031582Y-62573028D02*
X214203011Y-62487314D01*
X214203011Y-62487314D02*
X214460154Y-62487314D01*
X214460154Y-62487314D02*
X214631582Y-62573028D01*
X214631582Y-62573028D02*
X214717297Y-62744457D01*
X214717297Y-62744457D02*
X214717297Y-63687314D01*
X214717297Y-62744457D02*
X214803011Y-62573028D01*
X214803011Y-62573028D02*
X214974439Y-62487314D01*
X214974439Y-62487314D02*
X215231582Y-62487314D01*
X215231582Y-62487314D02*
X215403011Y-62573028D01*
X215403011Y-62573028D02*
X215488725Y-62744457D01*
X215488725Y-62744457D02*
X215488725Y-63687314D01*
X215917297Y-63858742D02*
X217288725Y-63858742D01*
X217717297Y-63687314D02*
X217717297Y-61887314D01*
X217717297Y-61887314D02*
X218403011Y-61887314D01*
X218403011Y-61887314D02*
X218574440Y-61973028D01*
X218574440Y-61973028D02*
X218660154Y-62058742D01*
X218660154Y-62058742D02*
X218745868Y-62230171D01*
X218745868Y-62230171D02*
X218745868Y-62487314D01*
X218745868Y-62487314D02*
X218660154Y-62658742D01*
X218660154Y-62658742D02*
X218574440Y-62744457D01*
X218574440Y-62744457D02*
X218403011Y-62830171D01*
X218403011Y-62830171D02*
X217717297Y-62830171D01*
X220374440Y-61887314D02*
X219517297Y-61887314D01*
X219517297Y-61887314D02*
X219431583Y-62744457D01*
X219431583Y-62744457D02*
X219517297Y-62658742D01*
X219517297Y-62658742D02*
X219688726Y-62573028D01*
X219688726Y-62573028D02*
X220117297Y-62573028D01*
X220117297Y-62573028D02*
X220288726Y-62658742D01*
X220288726Y-62658742D02*
X220374440Y-62744457D01*
X220374440Y-62744457D02*
X220460154Y-62915885D01*
X220460154Y-62915885D02*
X220460154Y-63344457D01*
X220460154Y-63344457D02*
X220374440Y-63515885D01*
X220374440Y-63515885D02*
X220288726Y-63601600D01*
X220288726Y-63601600D02*
X220117297Y-63687314D01*
X220117297Y-63687314D02*
X219688726Y-63687314D01*
X219688726Y-63687314D02*
X219517297Y-63601600D01*
X219517297Y-63601600D02*
X219431583Y-63515885D01*
X221231583Y-63515885D02*
X221317297Y-63601600D01*
X221317297Y-63601600D02*
X221231583Y-63687314D01*
X221231583Y-63687314D02*
X221145869Y-63601600D01*
X221145869Y-63601600D02*
X221231583Y-63515885D01*
X221231583Y-63515885D02*
X221231583Y-63687314D01*
X222431583Y-61887314D02*
X222603012Y-61887314D01*
X222603012Y-61887314D02*
X222774440Y-61973028D01*
X222774440Y-61973028D02*
X222860155Y-62058742D01*
X222860155Y-62058742D02*
X222945869Y-62230171D01*
X222945869Y-62230171D02*
X223031583Y-62573028D01*
X223031583Y-62573028D02*
X223031583Y-63001600D01*
X223031583Y-63001600D02*
X222945869Y-63344457D01*
X222945869Y-63344457D02*
X222860155Y-63515885D01*
X222860155Y-63515885D02*
X222774440Y-63601600D01*
X222774440Y-63601600D02*
X222603012Y-63687314D01*
X222603012Y-63687314D02*
X222431583Y-63687314D01*
X222431583Y-63687314D02*
X222260155Y-63601600D01*
X222260155Y-63601600D02*
X222174440Y-63515885D01*
X222174440Y-63515885D02*
X222088726Y-63344457D01*
X222088726Y-63344457D02*
X222003012Y-63001600D01*
X222003012Y-63001600D02*
X222003012Y-62573028D01*
X222003012Y-62573028D02*
X222088726Y-62230171D01*
X222088726Y-62230171D02*
X222174440Y-62058742D01*
X222174440Y-62058742D02*
X222260155Y-61973028D01*
X222260155Y-61973028D02*
X222431583Y-61887314D01*
X224060155Y-62658742D02*
X223888726Y-62573028D01*
X223888726Y-62573028D02*
X223803012Y-62487314D01*
X223803012Y-62487314D02*
X223717298Y-62315885D01*
X223717298Y-62315885D02*
X223717298Y-62230171D01*
X223717298Y-62230171D02*
X223803012Y-62058742D01*
X223803012Y-62058742D02*
X223888726Y-61973028D01*
X223888726Y-61973028D02*
X224060155Y-61887314D01*
X224060155Y-61887314D02*
X224403012Y-61887314D01*
X224403012Y-61887314D02*
X224574441Y-61973028D01*
X224574441Y-61973028D02*
X224660155Y-62058742D01*
X224660155Y-62058742D02*
X224745869Y-62230171D01*
X224745869Y-62230171D02*
X224745869Y-62315885D01*
X224745869Y-62315885D02*
X224660155Y-62487314D01*
X224660155Y-62487314D02*
X224574441Y-62573028D01*
X224574441Y-62573028D02*
X224403012Y-62658742D01*
X224403012Y-62658742D02*
X224060155Y-62658742D01*
X224060155Y-62658742D02*
X223888726Y-62744457D01*
X223888726Y-62744457D02*
X223803012Y-62830171D01*
X223803012Y-62830171D02*
X223717298Y-63001600D01*
X223717298Y-63001600D02*
X223717298Y-63344457D01*
X223717298Y-63344457D02*
X223803012Y-63515885D01*
X223803012Y-63515885D02*
X223888726Y-63601600D01*
X223888726Y-63601600D02*
X224060155Y-63687314D01*
X224060155Y-63687314D02*
X224403012Y-63687314D01*
X224403012Y-63687314D02*
X224574441Y-63601600D01*
X224574441Y-63601600D02*
X224660155Y-63515885D01*
X224660155Y-63515885D02*
X224745869Y-63344457D01*
X224745869Y-63344457D02*
X224745869Y-63001600D01*
X224745869Y-63001600D02*
X224660155Y-62830171D01*
X224660155Y-62830171D02*
X224574441Y-62744457D01*
X224574441Y-62744457D02*
X224403012Y-62658742D01*
X225517298Y-63687314D02*
X225517298Y-62487314D01*
X225517298Y-62658742D02*
X225603012Y-62573028D01*
X225603012Y-62573028D02*
X225774441Y-62487314D01*
X225774441Y-62487314D02*
X226031584Y-62487314D01*
X226031584Y-62487314D02*
X226203012Y-62573028D01*
X226203012Y-62573028D02*
X226288727Y-62744457D01*
X226288727Y-62744457D02*
X226288727Y-63687314D01*
X226288727Y-62744457D02*
X226374441Y-62573028D01*
X226374441Y-62573028D02*
X226545869Y-62487314D01*
X226545869Y-62487314D02*
X226803012Y-62487314D01*
X226803012Y-62487314D02*
X226974441Y-62573028D01*
X226974441Y-62573028D02*
X227060155Y-62744457D01*
X227060155Y-62744457D02*
X227060155Y-63687314D01*
X227917298Y-63687314D02*
X227917298Y-62487314D01*
X227917298Y-62658742D02*
X228003012Y-62573028D01*
X228003012Y-62573028D02*
X228174441Y-62487314D01*
X228174441Y-62487314D02*
X228431584Y-62487314D01*
X228431584Y-62487314D02*
X228603012Y-62573028D01*
X228603012Y-62573028D02*
X228688727Y-62744457D01*
X228688727Y-62744457D02*
X228688727Y-63687314D01*
X228688727Y-62744457D02*
X228774441Y-62573028D01*
X228774441Y-62573028D02*
X228945869Y-62487314D01*
X228945869Y-62487314D02*
X229203012Y-62487314D01*
X229203012Y-62487314D02*
X229374441Y-62573028D01*
X229374441Y-62573028D02*
X229460155Y-62744457D01*
X229460155Y-62744457D02*
X229460155Y-63687314D01*
X229888727Y-63858742D02*
X231260155Y-63858742D01*
X231688727Y-63687314D02*
X231688727Y-61887314D01*
X231688727Y-62744457D02*
X232717298Y-62744457D01*
X232717298Y-63687314D02*
X232717298Y-61887314D01*
X233831584Y-63687314D02*
X233660155Y-63601600D01*
X233660155Y-63601600D02*
X233574441Y-63515885D01*
X233574441Y-63515885D02*
X233488727Y-63344457D01*
X233488727Y-63344457D02*
X233488727Y-62830171D01*
X233488727Y-62830171D02*
X233574441Y-62658742D01*
X233574441Y-62658742D02*
X233660155Y-62573028D01*
X233660155Y-62573028D02*
X233831584Y-62487314D01*
X233831584Y-62487314D02*
X234088727Y-62487314D01*
X234088727Y-62487314D02*
X234260155Y-62573028D01*
X234260155Y-62573028D02*
X234345870Y-62658742D01*
X234345870Y-62658742D02*
X234431584Y-62830171D01*
X234431584Y-62830171D02*
X234431584Y-63344457D01*
X234431584Y-63344457D02*
X234345870Y-63515885D01*
X234345870Y-63515885D02*
X234260155Y-63601600D01*
X234260155Y-63601600D02*
X234088727Y-63687314D01*
X234088727Y-63687314D02*
X233831584Y-63687314D01*
X235203012Y-63687314D02*
X235203012Y-62487314D01*
X235203012Y-62830171D02*
X235288726Y-62658742D01*
X235288726Y-62658742D02*
X235374441Y-62573028D01*
X235374441Y-62573028D02*
X235545869Y-62487314D01*
X235545869Y-62487314D02*
X235717298Y-62487314D01*
X236317298Y-63687314D02*
X236317298Y-62487314D01*
X236317298Y-61887314D02*
X236231584Y-61973028D01*
X236231584Y-61973028D02*
X236317298Y-62058742D01*
X236317298Y-62058742D02*
X236403012Y-61973028D01*
X236403012Y-61973028D02*
X236317298Y-61887314D01*
X236317298Y-61887314D02*
X236317298Y-62058742D01*
X237003012Y-62487314D02*
X237945870Y-62487314D01*
X237945870Y-62487314D02*
X237003012Y-63687314D01*
X237003012Y-63687314D02*
X237945870Y-63687314D01*
X238888727Y-63687314D02*
X238717298Y-63601600D01*
X238717298Y-63601600D02*
X238631584Y-63515885D01*
X238631584Y-63515885D02*
X238545870Y-63344457D01*
X238545870Y-63344457D02*
X238545870Y-62830171D01*
X238545870Y-62830171D02*
X238631584Y-62658742D01*
X238631584Y-62658742D02*
X238717298Y-62573028D01*
X238717298Y-62573028D02*
X238888727Y-62487314D01*
X238888727Y-62487314D02*
X239145870Y-62487314D01*
X239145870Y-62487314D02*
X239317298Y-62573028D01*
X239317298Y-62573028D02*
X239403013Y-62658742D01*
X239403013Y-62658742D02*
X239488727Y-62830171D01*
X239488727Y-62830171D02*
X239488727Y-63344457D01*
X239488727Y-63344457D02*
X239403013Y-63515885D01*
X239403013Y-63515885D02*
X239317298Y-63601600D01*
X239317298Y-63601600D02*
X239145870Y-63687314D01*
X239145870Y-63687314D02*
X238888727Y-63687314D01*
X240260155Y-62487314D02*
X240260155Y-63687314D01*
X240260155Y-62658742D02*
X240345869Y-62573028D01*
X240345869Y-62573028D02*
X240517298Y-62487314D01*
X240517298Y-62487314D02*
X240774441Y-62487314D01*
X240774441Y-62487314D02*
X240945869Y-62573028D01*
X240945869Y-62573028D02*
X241031584Y-62744457D01*
X241031584Y-62744457D02*
X241031584Y-63687314D01*
X241631583Y-62487314D02*
X242317297Y-62487314D01*
X241888726Y-61887314D02*
X241888726Y-63430171D01*
X241888726Y-63430171D02*
X241974440Y-63601600D01*
X241974440Y-63601600D02*
X242145869Y-63687314D01*
X242145869Y-63687314D02*
X242317297Y-63687314D01*
X243688726Y-63687314D02*
X243688726Y-62744457D01*
X243688726Y-62744457D02*
X243603011Y-62573028D01*
X243603011Y-62573028D02*
X243431583Y-62487314D01*
X243431583Y-62487314D02*
X243088726Y-62487314D01*
X243088726Y-62487314D02*
X242917297Y-62573028D01*
X243688726Y-63601600D02*
X243517297Y-63687314D01*
X243517297Y-63687314D02*
X243088726Y-63687314D01*
X243088726Y-63687314D02*
X242917297Y-63601600D01*
X242917297Y-63601600D02*
X242831583Y-63430171D01*
X242831583Y-63430171D02*
X242831583Y-63258742D01*
X242831583Y-63258742D02*
X242917297Y-63087314D01*
X242917297Y-63087314D02*
X243088726Y-63001600D01*
X243088726Y-63001600D02*
X243517297Y-63001600D01*
X243517297Y-63001600D02*
X243688726Y-62915885D01*
X244803011Y-63687314D02*
X244631582Y-63601600D01*
X244631582Y-63601600D02*
X244545868Y-63430171D01*
X244545868Y-63430171D02*
X244545868Y-61887314D01*
X151803006Y-67683314D02*
X152831578Y-67683314D01*
X152317292Y-69483314D02*
X152317292Y-67683314D01*
X153431578Y-69483314D02*
X153431578Y-68283314D01*
X153431578Y-68626171D02*
X153517292Y-68454742D01*
X153517292Y-68454742D02*
X153603007Y-68369028D01*
X153603007Y-68369028D02*
X153774435Y-68283314D01*
X153774435Y-68283314D02*
X153945864Y-68283314D01*
X155317293Y-69483314D02*
X155317293Y-68540457D01*
X155317293Y-68540457D02*
X155231578Y-68369028D01*
X155231578Y-68369028D02*
X155060150Y-68283314D01*
X155060150Y-68283314D02*
X154717293Y-68283314D01*
X154717293Y-68283314D02*
X154545864Y-68369028D01*
X155317293Y-69397600D02*
X155145864Y-69483314D01*
X155145864Y-69483314D02*
X154717293Y-69483314D01*
X154717293Y-69483314D02*
X154545864Y-69397600D01*
X154545864Y-69397600D02*
X154460150Y-69226171D01*
X154460150Y-69226171D02*
X154460150Y-69054742D01*
X154460150Y-69054742D02*
X154545864Y-68883314D01*
X154545864Y-68883314D02*
X154717293Y-68797600D01*
X154717293Y-68797600D02*
X155145864Y-68797600D01*
X155145864Y-68797600D02*
X155317293Y-68711885D01*
X156174435Y-68283314D02*
X156174435Y-69483314D01*
X156174435Y-68454742D02*
X156260149Y-68369028D01*
X156260149Y-68369028D02*
X156431578Y-68283314D01*
X156431578Y-68283314D02*
X156688721Y-68283314D01*
X156688721Y-68283314D02*
X156860149Y-68369028D01*
X156860149Y-68369028D02*
X156945864Y-68540457D01*
X156945864Y-68540457D02*
X156945864Y-69483314D01*
X157717292Y-69397600D02*
X157888720Y-69483314D01*
X157888720Y-69483314D02*
X158231577Y-69483314D01*
X158231577Y-69483314D02*
X158403006Y-69397600D01*
X158403006Y-69397600D02*
X158488720Y-69226171D01*
X158488720Y-69226171D02*
X158488720Y-69140457D01*
X158488720Y-69140457D02*
X158403006Y-68969028D01*
X158403006Y-68969028D02*
X158231577Y-68883314D01*
X158231577Y-68883314D02*
X157974435Y-68883314D01*
X157974435Y-68883314D02*
X157803006Y-68797600D01*
X157803006Y-68797600D02*
X157717292Y-68626171D01*
X157717292Y-68626171D02*
X157717292Y-68540457D01*
X157717292Y-68540457D02*
X157803006Y-68369028D01*
X157803006Y-68369028D02*
X157974435Y-68283314D01*
X157974435Y-68283314D02*
X158231577Y-68283314D01*
X158231577Y-68283314D02*
X158403006Y-68369028D01*
X159260149Y-69483314D02*
X159260149Y-68283314D01*
X159260149Y-67683314D02*
X159174435Y-67769028D01*
X159174435Y-67769028D02*
X159260149Y-67854742D01*
X159260149Y-67854742D02*
X159345863Y-67769028D01*
X159345863Y-67769028D02*
X159260149Y-67683314D01*
X159260149Y-67683314D02*
X159260149Y-67854742D01*
X160031578Y-69397600D02*
X160203006Y-69483314D01*
X160203006Y-69483314D02*
X160545863Y-69483314D01*
X160545863Y-69483314D02*
X160717292Y-69397600D01*
X160717292Y-69397600D02*
X160803006Y-69226171D01*
X160803006Y-69226171D02*
X160803006Y-69140457D01*
X160803006Y-69140457D02*
X160717292Y-68969028D01*
X160717292Y-68969028D02*
X160545863Y-68883314D01*
X160545863Y-68883314D02*
X160288721Y-68883314D01*
X160288721Y-68883314D02*
X160117292Y-68797600D01*
X160117292Y-68797600D02*
X160031578Y-68626171D01*
X160031578Y-68626171D02*
X160031578Y-68540457D01*
X160031578Y-68540457D02*
X160117292Y-68369028D01*
X160117292Y-68369028D02*
X160288721Y-68283314D01*
X160288721Y-68283314D02*
X160545863Y-68283314D01*
X160545863Y-68283314D02*
X160717292Y-68369028D01*
X161317292Y-68283314D02*
X162003006Y-68283314D01*
X161574435Y-67683314D02*
X161574435Y-69226171D01*
X161574435Y-69226171D02*
X161660149Y-69397600D01*
X161660149Y-69397600D02*
X161831578Y-69483314D01*
X161831578Y-69483314D02*
X162003006Y-69483314D01*
X162860149Y-69483314D02*
X162688720Y-69397600D01*
X162688720Y-69397600D02*
X162603006Y-69311885D01*
X162603006Y-69311885D02*
X162517292Y-69140457D01*
X162517292Y-69140457D02*
X162517292Y-68626171D01*
X162517292Y-68626171D02*
X162603006Y-68454742D01*
X162603006Y-68454742D02*
X162688720Y-68369028D01*
X162688720Y-68369028D02*
X162860149Y-68283314D01*
X162860149Y-68283314D02*
X163117292Y-68283314D01*
X163117292Y-68283314D02*
X163288720Y-68369028D01*
X163288720Y-68369028D02*
X163374435Y-68454742D01*
X163374435Y-68454742D02*
X163460149Y-68626171D01*
X163460149Y-68626171D02*
X163460149Y-69140457D01*
X163460149Y-69140457D02*
X163374435Y-69311885D01*
X163374435Y-69311885D02*
X163288720Y-69397600D01*
X163288720Y-69397600D02*
X163117292Y-69483314D01*
X163117292Y-69483314D02*
X162860149Y-69483314D01*
X164231577Y-69483314D02*
X164231577Y-68283314D01*
X164231577Y-68626171D02*
X164317291Y-68454742D01*
X164317291Y-68454742D02*
X164403006Y-68369028D01*
X164403006Y-68369028D02*
X164574434Y-68283314D01*
X164574434Y-68283314D02*
X164745863Y-68283314D01*
X167317292Y-68540457D02*
X166717292Y-68540457D01*
X166717292Y-69483314D02*
X166717292Y-67683314D01*
X166717292Y-67683314D02*
X167574435Y-67683314D01*
X168517292Y-69483314D02*
X168345863Y-69397600D01*
X168345863Y-69397600D02*
X168260149Y-69311885D01*
X168260149Y-69311885D02*
X168174435Y-69140457D01*
X168174435Y-69140457D02*
X168174435Y-68626171D01*
X168174435Y-68626171D02*
X168260149Y-68454742D01*
X168260149Y-68454742D02*
X168345863Y-68369028D01*
X168345863Y-68369028D02*
X168517292Y-68283314D01*
X168517292Y-68283314D02*
X168774435Y-68283314D01*
X168774435Y-68283314D02*
X168945863Y-68369028D01*
X168945863Y-68369028D02*
X169031578Y-68454742D01*
X169031578Y-68454742D02*
X169117292Y-68626171D01*
X169117292Y-68626171D02*
X169117292Y-69140457D01*
X169117292Y-69140457D02*
X169031578Y-69311885D01*
X169031578Y-69311885D02*
X168945863Y-69397600D01*
X168945863Y-69397600D02*
X168774435Y-69483314D01*
X168774435Y-69483314D02*
X168517292Y-69483314D01*
X170145863Y-69483314D02*
X169974434Y-69397600D01*
X169974434Y-69397600D02*
X169888720Y-69311885D01*
X169888720Y-69311885D02*
X169803006Y-69140457D01*
X169803006Y-69140457D02*
X169803006Y-68626171D01*
X169803006Y-68626171D02*
X169888720Y-68454742D01*
X169888720Y-68454742D02*
X169974434Y-68369028D01*
X169974434Y-68369028D02*
X170145863Y-68283314D01*
X170145863Y-68283314D02*
X170403006Y-68283314D01*
X170403006Y-68283314D02*
X170574434Y-68369028D01*
X170574434Y-68369028D02*
X170660149Y-68454742D01*
X170660149Y-68454742D02*
X170745863Y-68626171D01*
X170745863Y-68626171D02*
X170745863Y-69140457D01*
X170745863Y-69140457D02*
X170660149Y-69311885D01*
X170660149Y-69311885D02*
X170574434Y-69397600D01*
X170574434Y-69397600D02*
X170403006Y-69483314D01*
X170403006Y-69483314D02*
X170145863Y-69483314D01*
X171260148Y-68283314D02*
X171945862Y-68283314D01*
X171517291Y-67683314D02*
X171517291Y-69226171D01*
X171517291Y-69226171D02*
X171603005Y-69397600D01*
X171603005Y-69397600D02*
X171774434Y-69483314D01*
X171774434Y-69483314D02*
X171945862Y-69483314D01*
X172545862Y-68283314D02*
X172545862Y-70083314D01*
X172545862Y-68369028D02*
X172717291Y-68283314D01*
X172717291Y-68283314D02*
X173060148Y-68283314D01*
X173060148Y-68283314D02*
X173231576Y-68369028D01*
X173231576Y-68369028D02*
X173317291Y-68454742D01*
X173317291Y-68454742D02*
X173403005Y-68626171D01*
X173403005Y-68626171D02*
X173403005Y-69140457D01*
X173403005Y-69140457D02*
X173317291Y-69311885D01*
X173317291Y-69311885D02*
X173231576Y-69397600D01*
X173231576Y-69397600D02*
X173060148Y-69483314D01*
X173060148Y-69483314D02*
X172717291Y-69483314D01*
X172717291Y-69483314D02*
X172545862Y-69397600D01*
X174174433Y-69483314D02*
X174174433Y-68283314D01*
X174174433Y-68626171D02*
X174260147Y-68454742D01*
X174260147Y-68454742D02*
X174345862Y-68369028D01*
X174345862Y-68369028D02*
X174517290Y-68283314D01*
X174517290Y-68283314D02*
X174688719Y-68283314D01*
X175288719Y-69483314D02*
X175288719Y-68283314D01*
X175288719Y-67683314D02*
X175203005Y-67769028D01*
X175203005Y-67769028D02*
X175288719Y-67854742D01*
X175288719Y-67854742D02*
X175374433Y-67769028D01*
X175374433Y-67769028D02*
X175288719Y-67683314D01*
X175288719Y-67683314D02*
X175288719Y-67854742D01*
X176145862Y-68283314D02*
X176145862Y-69483314D01*
X176145862Y-68454742D02*
X176231576Y-68369028D01*
X176231576Y-68369028D02*
X176403005Y-68283314D01*
X176403005Y-68283314D02*
X176660148Y-68283314D01*
X176660148Y-68283314D02*
X176831576Y-68369028D01*
X176831576Y-68369028D02*
X176917291Y-68540457D01*
X176917291Y-68540457D02*
X176917291Y-69483314D01*
X177517290Y-68283314D02*
X178203004Y-68283314D01*
X177774433Y-67683314D02*
X177774433Y-69226171D01*
X177774433Y-69226171D02*
X177860147Y-69397600D01*
X177860147Y-69397600D02*
X178031576Y-69483314D01*
X178031576Y-69483314D02*
X178203004Y-69483314D01*
X178803004Y-69311885D02*
X178888718Y-69397600D01*
X178888718Y-69397600D02*
X178803004Y-69483314D01*
X178803004Y-69483314D02*
X178717290Y-69397600D01*
X178717290Y-69397600D02*
X178803004Y-69311885D01*
X178803004Y-69311885D02*
X178803004Y-69483314D01*
X178803004Y-68369028D02*
X178888718Y-68454742D01*
X178888718Y-68454742D02*
X178803004Y-68540457D01*
X178803004Y-68540457D02*
X178717290Y-68454742D01*
X178717290Y-68454742D02*
X178803004Y-68369028D01*
X178803004Y-68369028D02*
X178803004Y-68540457D01*
X152060149Y-72381314D02*
X152060149Y-70581314D01*
X152060149Y-70581314D02*
X152745863Y-70581314D01*
X152745863Y-70581314D02*
X152917292Y-70667028D01*
X152917292Y-70667028D02*
X153003006Y-70752742D01*
X153003006Y-70752742D02*
X153088720Y-70924171D01*
X153088720Y-70924171D02*
X153088720Y-71181314D01*
X153088720Y-71181314D02*
X153003006Y-71352742D01*
X153003006Y-71352742D02*
X152917292Y-71438457D01*
X152917292Y-71438457D02*
X152745863Y-71524171D01*
X152745863Y-71524171D02*
X152060149Y-71524171D01*
X154631578Y-72381314D02*
X154631578Y-71438457D01*
X154631578Y-71438457D02*
X154545863Y-71267028D01*
X154545863Y-71267028D02*
X154374435Y-71181314D01*
X154374435Y-71181314D02*
X154031578Y-71181314D01*
X154031578Y-71181314D02*
X153860149Y-71267028D01*
X154631578Y-72295600D02*
X154460149Y-72381314D01*
X154460149Y-72381314D02*
X154031578Y-72381314D01*
X154031578Y-72381314D02*
X153860149Y-72295600D01*
X153860149Y-72295600D02*
X153774435Y-72124171D01*
X153774435Y-72124171D02*
X153774435Y-71952742D01*
X153774435Y-71952742D02*
X153860149Y-71781314D01*
X153860149Y-71781314D02*
X154031578Y-71695600D01*
X154031578Y-71695600D02*
X154460149Y-71695600D01*
X154460149Y-71695600D02*
X154631578Y-71609885D01*
X156260149Y-72295600D02*
X156088720Y-72381314D01*
X156088720Y-72381314D02*
X155745863Y-72381314D01*
X155745863Y-72381314D02*
X155574434Y-72295600D01*
X155574434Y-72295600D02*
X155488720Y-72209885D01*
X155488720Y-72209885D02*
X155403006Y-72038457D01*
X155403006Y-72038457D02*
X155403006Y-71524171D01*
X155403006Y-71524171D02*
X155488720Y-71352742D01*
X155488720Y-71352742D02*
X155574434Y-71267028D01*
X155574434Y-71267028D02*
X155745863Y-71181314D01*
X155745863Y-71181314D02*
X156088720Y-71181314D01*
X156088720Y-71181314D02*
X156260149Y-71267028D01*
X157031577Y-72381314D02*
X157031577Y-70581314D01*
X157203006Y-71695600D02*
X157717291Y-72381314D01*
X157717291Y-71181314D02*
X157031577Y-71867028D01*
X159260149Y-72381314D02*
X159260149Y-71438457D01*
X159260149Y-71438457D02*
X159174434Y-71267028D01*
X159174434Y-71267028D02*
X159003006Y-71181314D01*
X159003006Y-71181314D02*
X158660149Y-71181314D01*
X158660149Y-71181314D02*
X158488720Y-71267028D01*
X159260149Y-72295600D02*
X159088720Y-72381314D01*
X159088720Y-72381314D02*
X158660149Y-72381314D01*
X158660149Y-72381314D02*
X158488720Y-72295600D01*
X158488720Y-72295600D02*
X158403006Y-72124171D01*
X158403006Y-72124171D02*
X158403006Y-71952742D01*
X158403006Y-71952742D02*
X158488720Y-71781314D01*
X158488720Y-71781314D02*
X158660149Y-71695600D01*
X158660149Y-71695600D02*
X159088720Y-71695600D01*
X159088720Y-71695600D02*
X159260149Y-71609885D01*
X160888720Y-71181314D02*
X160888720Y-72638457D01*
X160888720Y-72638457D02*
X160803005Y-72809885D01*
X160803005Y-72809885D02*
X160717291Y-72895600D01*
X160717291Y-72895600D02*
X160545862Y-72981314D01*
X160545862Y-72981314D02*
X160288720Y-72981314D01*
X160288720Y-72981314D02*
X160117291Y-72895600D01*
X160888720Y-72295600D02*
X160717291Y-72381314D01*
X160717291Y-72381314D02*
X160374434Y-72381314D01*
X160374434Y-72381314D02*
X160203005Y-72295600D01*
X160203005Y-72295600D02*
X160117291Y-72209885D01*
X160117291Y-72209885D02*
X160031577Y-72038457D01*
X160031577Y-72038457D02*
X160031577Y-71524171D01*
X160031577Y-71524171D02*
X160117291Y-71352742D01*
X160117291Y-71352742D02*
X160203005Y-71267028D01*
X160203005Y-71267028D02*
X160374434Y-71181314D01*
X160374434Y-71181314D02*
X160717291Y-71181314D01*
X160717291Y-71181314D02*
X160888720Y-71267028D01*
X162431576Y-72295600D02*
X162260148Y-72381314D01*
X162260148Y-72381314D02*
X161917291Y-72381314D01*
X161917291Y-72381314D02*
X161745862Y-72295600D01*
X161745862Y-72295600D02*
X161660148Y-72124171D01*
X161660148Y-72124171D02*
X161660148Y-71438457D01*
X161660148Y-71438457D02*
X161745862Y-71267028D01*
X161745862Y-71267028D02*
X161917291Y-71181314D01*
X161917291Y-71181314D02*
X162260148Y-71181314D01*
X162260148Y-71181314D02*
X162431576Y-71267028D01*
X162431576Y-71267028D02*
X162517291Y-71438457D01*
X162517291Y-71438457D02*
X162517291Y-71609885D01*
X162517291Y-71609885D02*
X161660148Y-71781314D01*
X162860148Y-72552742D02*
X164231576Y-72552742D01*
X164403005Y-70581314D02*
X165431577Y-70581314D01*
X164917291Y-72381314D02*
X164917291Y-70581314D01*
X166374434Y-70581314D02*
X166717291Y-70581314D01*
X166717291Y-70581314D02*
X166888720Y-70667028D01*
X166888720Y-70667028D02*
X167060148Y-70838457D01*
X167060148Y-70838457D02*
X167145863Y-71181314D01*
X167145863Y-71181314D02*
X167145863Y-71781314D01*
X167145863Y-71781314D02*
X167060148Y-72124171D01*
X167060148Y-72124171D02*
X166888720Y-72295600D01*
X166888720Y-72295600D02*
X166717291Y-72381314D01*
X166717291Y-72381314D02*
X166374434Y-72381314D01*
X166374434Y-72381314D02*
X166203006Y-72295600D01*
X166203006Y-72295600D02*
X166031577Y-72124171D01*
X166031577Y-72124171D02*
X165945863Y-71781314D01*
X165945863Y-71781314D02*
X165945863Y-71181314D01*
X165945863Y-71181314D02*
X166031577Y-70838457D01*
X166031577Y-70838457D02*
X166203006Y-70667028D01*
X166203006Y-70667028D02*
X166374434Y-70581314D01*
X167488720Y-72552742D02*
X168860148Y-72552742D01*
X169203006Y-72295600D02*
X169460149Y-72381314D01*
X169460149Y-72381314D02*
X169888720Y-72381314D01*
X169888720Y-72381314D02*
X170060149Y-72295600D01*
X170060149Y-72295600D02*
X170145863Y-72209885D01*
X170145863Y-72209885D02*
X170231577Y-72038457D01*
X170231577Y-72038457D02*
X170231577Y-71867028D01*
X170231577Y-71867028D02*
X170145863Y-71695600D01*
X170145863Y-71695600D02*
X170060149Y-71609885D01*
X170060149Y-71609885D02*
X169888720Y-71524171D01*
X169888720Y-71524171D02*
X169545863Y-71438457D01*
X169545863Y-71438457D02*
X169374434Y-71352742D01*
X169374434Y-71352742D02*
X169288720Y-71267028D01*
X169288720Y-71267028D02*
X169203006Y-71095600D01*
X169203006Y-71095600D02*
X169203006Y-70924171D01*
X169203006Y-70924171D02*
X169288720Y-70752742D01*
X169288720Y-70752742D02*
X169374434Y-70667028D01*
X169374434Y-70667028D02*
X169545863Y-70581314D01*
X169545863Y-70581314D02*
X169974434Y-70581314D01*
X169974434Y-70581314D02*
X170231577Y-70667028D01*
X171345863Y-70581314D02*
X171688720Y-70581314D01*
X171688720Y-70581314D02*
X171860149Y-70667028D01*
X171860149Y-70667028D02*
X172031577Y-70838457D01*
X172031577Y-70838457D02*
X172117292Y-71181314D01*
X172117292Y-71181314D02*
X172117292Y-71781314D01*
X172117292Y-71781314D02*
X172031577Y-72124171D01*
X172031577Y-72124171D02*
X171860149Y-72295600D01*
X171860149Y-72295600D02*
X171688720Y-72381314D01*
X171688720Y-72381314D02*
X171345863Y-72381314D01*
X171345863Y-72381314D02*
X171174435Y-72295600D01*
X171174435Y-72295600D02*
X171003006Y-72124171D01*
X171003006Y-72124171D02*
X170917292Y-71781314D01*
X170917292Y-71781314D02*
X170917292Y-71181314D01*
X170917292Y-71181314D02*
X171003006Y-70838457D01*
X171003006Y-70838457D02*
X171174435Y-70667028D01*
X171174435Y-70667028D02*
X171345863Y-70581314D01*
X172631577Y-70581314D02*
X173660149Y-70581314D01*
X173145863Y-72381314D02*
X173145863Y-70581314D01*
X173831578Y-72552742D02*
X175203006Y-72552742D01*
X175374435Y-70581314D02*
X176403007Y-70581314D01*
X175888721Y-72381314D02*
X175888721Y-70581314D01*
X177003007Y-72381314D02*
X177003007Y-70581314D01*
X177003007Y-71438457D02*
X178031578Y-71438457D01*
X178031578Y-72381314D02*
X178031578Y-70581314D01*
X178631578Y-70581314D02*
X179660150Y-70581314D01*
X179145864Y-72381314D02*
X179145864Y-70581314D01*
X180260150Y-72209885D02*
X180345864Y-72295600D01*
X180345864Y-72295600D02*
X180260150Y-72381314D01*
X180260150Y-72381314D02*
X180174436Y-72295600D01*
X180174436Y-72295600D02*
X180260150Y-72209885D01*
X180260150Y-72209885D02*
X180260150Y-72381314D01*
X180260150Y-71267028D02*
X180345864Y-71352742D01*
X180345864Y-71352742D02*
X180260150Y-71438457D01*
X180260150Y-71438457D02*
X180174436Y-71352742D01*
X180174436Y-71352742D02*
X180260150Y-71267028D01*
X180260150Y-71267028D02*
X180260150Y-71438457D01*
X180860150Y-70581314D02*
X181888722Y-70581314D01*
X181374436Y-72381314D02*
X181374436Y-70581314D01*
X182831579Y-70581314D02*
X183174436Y-70581314D01*
X183174436Y-70581314D02*
X183345865Y-70667028D01*
X183345865Y-70667028D02*
X183517293Y-70838457D01*
X183517293Y-70838457D02*
X183603008Y-71181314D01*
X183603008Y-71181314D02*
X183603008Y-71781314D01*
X183603008Y-71781314D02*
X183517293Y-72124171D01*
X183517293Y-72124171D02*
X183345865Y-72295600D01*
X183345865Y-72295600D02*
X183174436Y-72381314D01*
X183174436Y-72381314D02*
X182831579Y-72381314D01*
X182831579Y-72381314D02*
X182660151Y-72295600D01*
X182660151Y-72295600D02*
X182488722Y-72124171D01*
X182488722Y-72124171D02*
X182403008Y-71781314D01*
X182403008Y-71781314D02*
X182403008Y-71181314D01*
X182403008Y-71181314D02*
X182488722Y-70838457D01*
X182488722Y-70838457D02*
X182660151Y-70667028D01*
X182660151Y-70667028D02*
X182831579Y-70581314D01*
X184374436Y-71695600D02*
X185745865Y-71695600D01*
X186688721Y-72381314D02*
X187031578Y-72381314D01*
X187031578Y-72381314D02*
X187203007Y-72295600D01*
X187203007Y-72295600D02*
X187288721Y-72209885D01*
X187288721Y-72209885D02*
X187460150Y-71952742D01*
X187460150Y-71952742D02*
X187545864Y-71609885D01*
X187545864Y-71609885D02*
X187545864Y-70924171D01*
X187545864Y-70924171D02*
X187460150Y-70752742D01*
X187460150Y-70752742D02*
X187374436Y-70667028D01*
X187374436Y-70667028D02*
X187203007Y-70581314D01*
X187203007Y-70581314D02*
X186860150Y-70581314D01*
X186860150Y-70581314D02*
X186688721Y-70667028D01*
X186688721Y-70667028D02*
X186603007Y-70752742D01*
X186603007Y-70752742D02*
X186517293Y-70924171D01*
X186517293Y-70924171D02*
X186517293Y-71352742D01*
X186517293Y-71352742D02*
X186603007Y-71524171D01*
X186603007Y-71524171D02*
X186688721Y-71609885D01*
X186688721Y-71609885D02*
X186860150Y-71695600D01*
X186860150Y-71695600D02*
X187203007Y-71695600D01*
X187203007Y-71695600D02*
X187374436Y-71609885D01*
X187374436Y-71609885D02*
X187460150Y-71524171D01*
X187460150Y-71524171D02*
X187545864Y-71352742D01*
X188231579Y-70752742D02*
X188317293Y-70667028D01*
X188317293Y-70667028D02*
X188488722Y-70581314D01*
X188488722Y-70581314D02*
X188917293Y-70581314D01*
X188917293Y-70581314D02*
X189088722Y-70667028D01*
X189088722Y-70667028D02*
X189174436Y-70752742D01*
X189174436Y-70752742D02*
X189260150Y-70924171D01*
X189260150Y-70924171D02*
X189260150Y-71095600D01*
X189260150Y-71095600D02*
X189174436Y-71352742D01*
X189174436Y-71352742D02*
X188145864Y-72381314D01*
X188145864Y-72381314D02*
X189260150Y-72381314D01*
X151974435Y-78091600D02*
X152231578Y-78177314D01*
X152231578Y-78177314D02*
X152660149Y-78177314D01*
X152660149Y-78177314D02*
X152831578Y-78091600D01*
X152831578Y-78091600D02*
X152917292Y-78005885D01*
X152917292Y-78005885D02*
X153003006Y-77834457D01*
X153003006Y-77834457D02*
X153003006Y-77663028D01*
X153003006Y-77663028D02*
X152917292Y-77491600D01*
X152917292Y-77491600D02*
X152831578Y-77405885D01*
X152831578Y-77405885D02*
X152660149Y-77320171D01*
X152660149Y-77320171D02*
X152317292Y-77234457D01*
X152317292Y-77234457D02*
X152145863Y-77148742D01*
X152145863Y-77148742D02*
X152060149Y-77063028D01*
X152060149Y-77063028D02*
X151974435Y-76891600D01*
X151974435Y-76891600D02*
X151974435Y-76720171D01*
X151974435Y-76720171D02*
X152060149Y-76548742D01*
X152060149Y-76548742D02*
X152145863Y-76463028D01*
X152145863Y-76463028D02*
X152317292Y-76377314D01*
X152317292Y-76377314D02*
X152745863Y-76377314D01*
X152745863Y-76377314D02*
X153003006Y-76463028D01*
X153603006Y-76977314D02*
X153945864Y-78177314D01*
X153945864Y-78177314D02*
X154288721Y-77320171D01*
X154288721Y-77320171D02*
X154631578Y-78177314D01*
X154631578Y-78177314D02*
X154974435Y-76977314D01*
X155660149Y-78177314D02*
X155660149Y-76977314D01*
X155660149Y-76377314D02*
X155574435Y-76463028D01*
X155574435Y-76463028D02*
X155660149Y-76548742D01*
X155660149Y-76548742D02*
X155745863Y-76463028D01*
X155745863Y-76463028D02*
X155660149Y-76377314D01*
X155660149Y-76377314D02*
X155660149Y-76548742D01*
X156260149Y-76977314D02*
X156945863Y-76977314D01*
X156517292Y-76377314D02*
X156517292Y-77920171D01*
X156517292Y-77920171D02*
X156603006Y-78091600D01*
X156603006Y-78091600D02*
X156774435Y-78177314D01*
X156774435Y-78177314D02*
X156945863Y-78177314D01*
X158317292Y-78091600D02*
X158145863Y-78177314D01*
X158145863Y-78177314D02*
X157803006Y-78177314D01*
X157803006Y-78177314D02*
X157631577Y-78091600D01*
X157631577Y-78091600D02*
X157545863Y-78005885D01*
X157545863Y-78005885D02*
X157460149Y-77834457D01*
X157460149Y-77834457D02*
X157460149Y-77320171D01*
X157460149Y-77320171D02*
X157545863Y-77148742D01*
X157545863Y-77148742D02*
X157631577Y-77063028D01*
X157631577Y-77063028D02*
X157803006Y-76977314D01*
X157803006Y-76977314D02*
X158145863Y-76977314D01*
X158145863Y-76977314D02*
X158317292Y-77063028D01*
X159088720Y-78177314D02*
X159088720Y-76377314D01*
X159860149Y-78177314D02*
X159860149Y-77234457D01*
X159860149Y-77234457D02*
X159774434Y-77063028D01*
X159774434Y-77063028D02*
X159603006Y-76977314D01*
X159603006Y-76977314D02*
X159345863Y-76977314D01*
X159345863Y-76977314D02*
X159174434Y-77063028D01*
X159174434Y-77063028D02*
X159088720Y-77148742D01*
X162688720Y-77234457D02*
X162088720Y-77234457D01*
X162088720Y-78177314D02*
X162088720Y-76377314D01*
X162088720Y-76377314D02*
X162945863Y-76377314D01*
X163888720Y-78177314D02*
X163717291Y-78091600D01*
X163717291Y-78091600D02*
X163631577Y-78005885D01*
X163631577Y-78005885D02*
X163545863Y-77834457D01*
X163545863Y-77834457D02*
X163545863Y-77320171D01*
X163545863Y-77320171D02*
X163631577Y-77148742D01*
X163631577Y-77148742D02*
X163717291Y-77063028D01*
X163717291Y-77063028D02*
X163888720Y-76977314D01*
X163888720Y-76977314D02*
X164145863Y-76977314D01*
X164145863Y-76977314D02*
X164317291Y-77063028D01*
X164317291Y-77063028D02*
X164403006Y-77148742D01*
X164403006Y-77148742D02*
X164488720Y-77320171D01*
X164488720Y-77320171D02*
X164488720Y-77834457D01*
X164488720Y-77834457D02*
X164403006Y-78005885D01*
X164403006Y-78005885D02*
X164317291Y-78091600D01*
X164317291Y-78091600D02*
X164145863Y-78177314D01*
X164145863Y-78177314D02*
X163888720Y-78177314D01*
X165517291Y-78177314D02*
X165345862Y-78091600D01*
X165345862Y-78091600D02*
X165260148Y-78005885D01*
X165260148Y-78005885D02*
X165174434Y-77834457D01*
X165174434Y-77834457D02*
X165174434Y-77320171D01*
X165174434Y-77320171D02*
X165260148Y-77148742D01*
X165260148Y-77148742D02*
X165345862Y-77063028D01*
X165345862Y-77063028D02*
X165517291Y-76977314D01*
X165517291Y-76977314D02*
X165774434Y-76977314D01*
X165774434Y-76977314D02*
X165945862Y-77063028D01*
X165945862Y-77063028D02*
X166031577Y-77148742D01*
X166031577Y-77148742D02*
X166117291Y-77320171D01*
X166117291Y-77320171D02*
X166117291Y-77834457D01*
X166117291Y-77834457D02*
X166031577Y-78005885D01*
X166031577Y-78005885D02*
X165945862Y-78091600D01*
X165945862Y-78091600D02*
X165774434Y-78177314D01*
X165774434Y-78177314D02*
X165517291Y-78177314D01*
X166631576Y-76977314D02*
X167317290Y-76977314D01*
X166888719Y-76377314D02*
X166888719Y-77920171D01*
X166888719Y-77920171D02*
X166974433Y-78091600D01*
X166974433Y-78091600D02*
X167145862Y-78177314D01*
X167145862Y-78177314D02*
X167317290Y-78177314D01*
X167917290Y-76977314D02*
X167917290Y-78777314D01*
X167917290Y-77063028D02*
X168088719Y-76977314D01*
X168088719Y-76977314D02*
X168431576Y-76977314D01*
X168431576Y-76977314D02*
X168603004Y-77063028D01*
X168603004Y-77063028D02*
X168688719Y-77148742D01*
X168688719Y-77148742D02*
X168774433Y-77320171D01*
X168774433Y-77320171D02*
X168774433Y-77834457D01*
X168774433Y-77834457D02*
X168688719Y-78005885D01*
X168688719Y-78005885D02*
X168603004Y-78091600D01*
X168603004Y-78091600D02*
X168431576Y-78177314D01*
X168431576Y-78177314D02*
X168088719Y-78177314D01*
X168088719Y-78177314D02*
X167917290Y-78091600D01*
X169545861Y-78177314D02*
X169545861Y-76977314D01*
X169545861Y-77320171D02*
X169631575Y-77148742D01*
X169631575Y-77148742D02*
X169717290Y-77063028D01*
X169717290Y-77063028D02*
X169888718Y-76977314D01*
X169888718Y-76977314D02*
X170060147Y-76977314D01*
X170660147Y-78177314D02*
X170660147Y-76977314D01*
X170660147Y-76377314D02*
X170574433Y-76463028D01*
X170574433Y-76463028D02*
X170660147Y-76548742D01*
X170660147Y-76548742D02*
X170745861Y-76463028D01*
X170745861Y-76463028D02*
X170660147Y-76377314D01*
X170660147Y-76377314D02*
X170660147Y-76548742D01*
X171517290Y-76977314D02*
X171517290Y-78177314D01*
X171517290Y-77148742D02*
X171603004Y-77063028D01*
X171603004Y-77063028D02*
X171774433Y-76977314D01*
X171774433Y-76977314D02*
X172031576Y-76977314D01*
X172031576Y-76977314D02*
X172203004Y-77063028D01*
X172203004Y-77063028D02*
X172288719Y-77234457D01*
X172288719Y-77234457D02*
X172288719Y-78177314D01*
X172888718Y-76977314D02*
X173574432Y-76977314D01*
X173145861Y-76377314D02*
X173145861Y-77920171D01*
X173145861Y-77920171D02*
X173231575Y-78091600D01*
X173231575Y-78091600D02*
X173403004Y-78177314D01*
X173403004Y-78177314D02*
X173574432Y-78177314D01*
X174174432Y-78005885D02*
X174260146Y-78091600D01*
X174260146Y-78091600D02*
X174174432Y-78177314D01*
X174174432Y-78177314D02*
X174088718Y-78091600D01*
X174088718Y-78091600D02*
X174174432Y-78005885D01*
X174174432Y-78005885D02*
X174174432Y-78177314D01*
X174174432Y-77063028D02*
X174260146Y-77148742D01*
X174260146Y-77148742D02*
X174174432Y-77234457D01*
X174174432Y-77234457D02*
X174088718Y-77148742D01*
X174088718Y-77148742D02*
X174174432Y-77063028D01*
X174174432Y-77063028D02*
X174174432Y-77234457D01*
X153088720Y-80903885D02*
X153003006Y-80989600D01*
X153003006Y-80989600D02*
X152745863Y-81075314D01*
X152745863Y-81075314D02*
X152574435Y-81075314D01*
X152574435Y-81075314D02*
X152317292Y-80989600D01*
X152317292Y-80989600D02*
X152145863Y-80818171D01*
X152145863Y-80818171D02*
X152060149Y-80646742D01*
X152060149Y-80646742D02*
X151974435Y-80303885D01*
X151974435Y-80303885D02*
X151974435Y-80046742D01*
X151974435Y-80046742D02*
X152060149Y-79703885D01*
X152060149Y-79703885D02*
X152145863Y-79532457D01*
X152145863Y-79532457D02*
X152317292Y-79361028D01*
X152317292Y-79361028D02*
X152574435Y-79275314D01*
X152574435Y-79275314D02*
X152745863Y-79275314D01*
X152745863Y-79275314D02*
X153003006Y-79361028D01*
X153003006Y-79361028D02*
X153088720Y-79446742D01*
X154117292Y-81075314D02*
X153945863Y-80989600D01*
X153945863Y-80989600D02*
X153860149Y-80903885D01*
X153860149Y-80903885D02*
X153774435Y-80732457D01*
X153774435Y-80732457D02*
X153774435Y-80218171D01*
X153774435Y-80218171D02*
X153860149Y-80046742D01*
X153860149Y-80046742D02*
X153945863Y-79961028D01*
X153945863Y-79961028D02*
X154117292Y-79875314D01*
X154117292Y-79875314D02*
X154374435Y-79875314D01*
X154374435Y-79875314D02*
X154545863Y-79961028D01*
X154545863Y-79961028D02*
X154631578Y-80046742D01*
X154631578Y-80046742D02*
X154717292Y-80218171D01*
X154717292Y-80218171D02*
X154717292Y-80732457D01*
X154717292Y-80732457D02*
X154631578Y-80903885D01*
X154631578Y-80903885D02*
X154545863Y-80989600D01*
X154545863Y-80989600D02*
X154374435Y-81075314D01*
X154374435Y-81075314D02*
X154117292Y-81075314D01*
X155488720Y-79875314D02*
X155488720Y-81075314D01*
X155488720Y-80046742D02*
X155574434Y-79961028D01*
X155574434Y-79961028D02*
X155745863Y-79875314D01*
X155745863Y-79875314D02*
X156003006Y-79875314D01*
X156003006Y-79875314D02*
X156174434Y-79961028D01*
X156174434Y-79961028D02*
X156260149Y-80132457D01*
X156260149Y-80132457D02*
X156260149Y-81075314D01*
X157117291Y-79875314D02*
X157117291Y-81075314D01*
X157117291Y-80046742D02*
X157203005Y-79961028D01*
X157203005Y-79961028D02*
X157374434Y-79875314D01*
X157374434Y-79875314D02*
X157631577Y-79875314D01*
X157631577Y-79875314D02*
X157803005Y-79961028D01*
X157803005Y-79961028D02*
X157888720Y-80132457D01*
X157888720Y-80132457D02*
X157888720Y-81075314D01*
X159431576Y-80989600D02*
X159260148Y-81075314D01*
X159260148Y-81075314D02*
X158917291Y-81075314D01*
X158917291Y-81075314D02*
X158745862Y-80989600D01*
X158745862Y-80989600D02*
X158660148Y-80818171D01*
X158660148Y-80818171D02*
X158660148Y-80132457D01*
X158660148Y-80132457D02*
X158745862Y-79961028D01*
X158745862Y-79961028D02*
X158917291Y-79875314D01*
X158917291Y-79875314D02*
X159260148Y-79875314D01*
X159260148Y-79875314D02*
X159431576Y-79961028D01*
X159431576Y-79961028D02*
X159517291Y-80132457D01*
X159517291Y-80132457D02*
X159517291Y-80303885D01*
X159517291Y-80303885D02*
X158660148Y-80475314D01*
X161060148Y-80989600D02*
X160888719Y-81075314D01*
X160888719Y-81075314D02*
X160545862Y-81075314D01*
X160545862Y-81075314D02*
X160374433Y-80989600D01*
X160374433Y-80989600D02*
X160288719Y-80903885D01*
X160288719Y-80903885D02*
X160203005Y-80732457D01*
X160203005Y-80732457D02*
X160203005Y-80218171D01*
X160203005Y-80218171D02*
X160288719Y-80046742D01*
X160288719Y-80046742D02*
X160374433Y-79961028D01*
X160374433Y-79961028D02*
X160545862Y-79875314D01*
X160545862Y-79875314D02*
X160888719Y-79875314D01*
X160888719Y-79875314D02*
X161060148Y-79961028D01*
X161574433Y-79875314D02*
X162260147Y-79875314D01*
X161831576Y-79275314D02*
X161831576Y-80818171D01*
X161831576Y-80818171D02*
X161917290Y-80989600D01*
X161917290Y-80989600D02*
X162088719Y-81075314D01*
X162088719Y-81075314D02*
X162260147Y-81075314D01*
X163117290Y-81075314D02*
X162945861Y-80989600D01*
X162945861Y-80989600D02*
X162860147Y-80903885D01*
X162860147Y-80903885D02*
X162774433Y-80732457D01*
X162774433Y-80732457D02*
X162774433Y-80218171D01*
X162774433Y-80218171D02*
X162860147Y-80046742D01*
X162860147Y-80046742D02*
X162945861Y-79961028D01*
X162945861Y-79961028D02*
X163117290Y-79875314D01*
X163117290Y-79875314D02*
X163374433Y-79875314D01*
X163374433Y-79875314D02*
X163545861Y-79961028D01*
X163545861Y-79961028D02*
X163631576Y-80046742D01*
X163631576Y-80046742D02*
X163717290Y-80218171D01*
X163717290Y-80218171D02*
X163717290Y-80732457D01*
X163717290Y-80732457D02*
X163631576Y-80903885D01*
X163631576Y-80903885D02*
X163545861Y-80989600D01*
X163545861Y-80989600D02*
X163374433Y-81075314D01*
X163374433Y-81075314D02*
X163117290Y-81075314D01*
X164488718Y-81075314D02*
X164488718Y-79875314D01*
X164488718Y-80218171D02*
X164574432Y-80046742D01*
X164574432Y-80046742D02*
X164660147Y-79961028D01*
X164660147Y-79961028D02*
X164831575Y-79875314D01*
X164831575Y-79875314D02*
X165003004Y-79875314D01*
X165174433Y-81246742D02*
X166545861Y-81246742D01*
X166974433Y-81075314D02*
X166974433Y-79275314D01*
X166974433Y-79275314D02*
X167660147Y-79275314D01*
X167660147Y-79275314D02*
X167831576Y-79361028D01*
X167831576Y-79361028D02*
X167917290Y-79446742D01*
X167917290Y-79446742D02*
X168003004Y-79618171D01*
X168003004Y-79618171D02*
X168003004Y-79875314D01*
X168003004Y-79875314D02*
X167917290Y-80046742D01*
X167917290Y-80046742D02*
X167831576Y-80132457D01*
X167831576Y-80132457D02*
X167660147Y-80218171D01*
X167660147Y-80218171D02*
X166974433Y-80218171D01*
X168774433Y-81075314D02*
X168774433Y-79875314D01*
X168774433Y-79275314D02*
X168688719Y-79361028D01*
X168688719Y-79361028D02*
X168774433Y-79446742D01*
X168774433Y-79446742D02*
X168860147Y-79361028D01*
X168860147Y-79361028D02*
X168774433Y-79275314D01*
X168774433Y-79275314D02*
X168774433Y-79446742D01*
X169631576Y-79875314D02*
X169631576Y-81075314D01*
X169631576Y-80046742D02*
X169717290Y-79961028D01*
X169717290Y-79961028D02*
X169888719Y-79875314D01*
X169888719Y-79875314D02*
X170145862Y-79875314D01*
X170145862Y-79875314D02*
X170317290Y-79961028D01*
X170317290Y-79961028D02*
X170403005Y-80132457D01*
X170403005Y-80132457D02*
X170403005Y-81075314D01*
X171174433Y-80989600D02*
X171431576Y-81075314D01*
X171431576Y-81075314D02*
X171860147Y-81075314D01*
X171860147Y-81075314D02*
X172031576Y-80989600D01*
X172031576Y-80989600D02*
X172117290Y-80903885D01*
X172117290Y-80903885D02*
X172203004Y-80732457D01*
X172203004Y-80732457D02*
X172203004Y-80561028D01*
X172203004Y-80561028D02*
X172117290Y-80389600D01*
X172117290Y-80389600D02*
X172031576Y-80303885D01*
X172031576Y-80303885D02*
X171860147Y-80218171D01*
X171860147Y-80218171D02*
X171517290Y-80132457D01*
X171517290Y-80132457D02*
X171345861Y-80046742D01*
X171345861Y-80046742D02*
X171260147Y-79961028D01*
X171260147Y-79961028D02*
X171174433Y-79789600D01*
X171174433Y-79789600D02*
X171174433Y-79618171D01*
X171174433Y-79618171D02*
X171260147Y-79446742D01*
X171260147Y-79446742D02*
X171345861Y-79361028D01*
X171345861Y-79361028D02*
X171517290Y-79275314D01*
X171517290Y-79275314D02*
X171945861Y-79275314D01*
X171945861Y-79275314D02*
X172203004Y-79361028D01*
X173231576Y-81075314D02*
X173060147Y-80989600D01*
X173060147Y-80989600D02*
X172974433Y-80903885D01*
X172974433Y-80903885D02*
X172888719Y-80732457D01*
X172888719Y-80732457D02*
X172888719Y-80218171D01*
X172888719Y-80218171D02*
X172974433Y-80046742D01*
X172974433Y-80046742D02*
X173060147Y-79961028D01*
X173060147Y-79961028D02*
X173231576Y-79875314D01*
X173231576Y-79875314D02*
X173488719Y-79875314D01*
X173488719Y-79875314D02*
X173660147Y-79961028D01*
X173660147Y-79961028D02*
X173745862Y-80046742D01*
X173745862Y-80046742D02*
X173831576Y-80218171D01*
X173831576Y-80218171D02*
X173831576Y-80732457D01*
X173831576Y-80732457D02*
X173745862Y-80903885D01*
X173745862Y-80903885D02*
X173660147Y-80989600D01*
X173660147Y-80989600D02*
X173488719Y-81075314D01*
X173488719Y-81075314D02*
X173231576Y-81075314D01*
X175374433Y-80989600D02*
X175203004Y-81075314D01*
X175203004Y-81075314D02*
X174860147Y-81075314D01*
X174860147Y-81075314D02*
X174688718Y-80989600D01*
X174688718Y-80989600D02*
X174603004Y-80903885D01*
X174603004Y-80903885D02*
X174517290Y-80732457D01*
X174517290Y-80732457D02*
X174517290Y-80218171D01*
X174517290Y-80218171D02*
X174603004Y-80046742D01*
X174603004Y-80046742D02*
X174688718Y-79961028D01*
X174688718Y-79961028D02*
X174860147Y-79875314D01*
X174860147Y-79875314D02*
X175203004Y-79875314D01*
X175203004Y-79875314D02*
X175374433Y-79961028D01*
X176145861Y-81075314D02*
X176145861Y-79275314D01*
X176317290Y-80389600D02*
X176831575Y-81075314D01*
X176831575Y-79875314D02*
X176145861Y-80561028D01*
X178288718Y-80989600D02*
X178117290Y-81075314D01*
X178117290Y-81075314D02*
X177774433Y-81075314D01*
X177774433Y-81075314D02*
X177603004Y-80989600D01*
X177603004Y-80989600D02*
X177517290Y-80818171D01*
X177517290Y-80818171D02*
X177517290Y-80132457D01*
X177517290Y-80132457D02*
X177603004Y-79961028D01*
X177603004Y-79961028D02*
X177774433Y-79875314D01*
X177774433Y-79875314D02*
X178117290Y-79875314D01*
X178117290Y-79875314D02*
X178288718Y-79961028D01*
X178288718Y-79961028D02*
X178374433Y-80132457D01*
X178374433Y-80132457D02*
X178374433Y-80303885D01*
X178374433Y-80303885D02*
X177517290Y-80475314D01*
X178888718Y-79875314D02*
X179574432Y-79875314D01*
X179145861Y-79275314D02*
X179145861Y-80818171D01*
X179145861Y-80818171D02*
X179231575Y-80989600D01*
X179231575Y-80989600D02*
X179403004Y-81075314D01*
X179403004Y-81075314D02*
X179574432Y-81075314D01*
X179745861Y-81246742D02*
X181117289Y-81246742D01*
X181460147Y-79446742D02*
X181545861Y-79361028D01*
X181545861Y-79361028D02*
X181717290Y-79275314D01*
X181717290Y-79275314D02*
X182145861Y-79275314D01*
X182145861Y-79275314D02*
X182317290Y-79361028D01*
X182317290Y-79361028D02*
X182403004Y-79446742D01*
X182403004Y-79446742D02*
X182488718Y-79618171D01*
X182488718Y-79618171D02*
X182488718Y-79789600D01*
X182488718Y-79789600D02*
X182403004Y-80046742D01*
X182403004Y-80046742D02*
X181374432Y-81075314D01*
X181374432Y-81075314D02*
X182488718Y-81075314D01*
X183260147Y-80903885D02*
X183345861Y-80989600D01*
X183345861Y-80989600D02*
X183260147Y-81075314D01*
X183260147Y-81075314D02*
X183174433Y-80989600D01*
X183174433Y-80989600D02*
X183260147Y-80903885D01*
X183260147Y-80903885D02*
X183260147Y-81075314D01*
X184974433Y-79275314D02*
X184117290Y-79275314D01*
X184117290Y-79275314D02*
X184031576Y-80132457D01*
X184031576Y-80132457D02*
X184117290Y-80046742D01*
X184117290Y-80046742D02*
X184288719Y-79961028D01*
X184288719Y-79961028D02*
X184717290Y-79961028D01*
X184717290Y-79961028D02*
X184888719Y-80046742D01*
X184888719Y-80046742D02*
X184974433Y-80132457D01*
X184974433Y-80132457D02*
X185060147Y-80303885D01*
X185060147Y-80303885D02*
X185060147Y-80732457D01*
X185060147Y-80732457D02*
X184974433Y-80903885D01*
X184974433Y-80903885D02*
X184888719Y-80989600D01*
X184888719Y-80989600D02*
X184717290Y-81075314D01*
X184717290Y-81075314D02*
X184288719Y-81075314D01*
X184288719Y-81075314D02*
X184117290Y-80989600D01*
X184117290Y-80989600D02*
X184031576Y-80903885D01*
X186603005Y-79875314D02*
X186603005Y-81075314D01*
X186174433Y-79189600D02*
X185745862Y-80475314D01*
X185745862Y-80475314D02*
X186860147Y-80475314D01*
X187545862Y-81075314D02*
X187545862Y-79875314D01*
X187545862Y-80046742D02*
X187631576Y-79961028D01*
X187631576Y-79961028D02*
X187803005Y-79875314D01*
X187803005Y-79875314D02*
X188060148Y-79875314D01*
X188060148Y-79875314D02*
X188231576Y-79961028D01*
X188231576Y-79961028D02*
X188317291Y-80132457D01*
X188317291Y-80132457D02*
X188317291Y-81075314D01*
X188317291Y-80132457D02*
X188403005Y-79961028D01*
X188403005Y-79961028D02*
X188574433Y-79875314D01*
X188574433Y-79875314D02*
X188831576Y-79875314D01*
X188831576Y-79875314D02*
X189003005Y-79961028D01*
X189003005Y-79961028D02*
X189088719Y-80132457D01*
X189088719Y-80132457D02*
X189088719Y-81075314D01*
X189945862Y-81075314D02*
X189945862Y-79875314D01*
X189945862Y-80046742D02*
X190031576Y-79961028D01*
X190031576Y-79961028D02*
X190203005Y-79875314D01*
X190203005Y-79875314D02*
X190460148Y-79875314D01*
X190460148Y-79875314D02*
X190631576Y-79961028D01*
X190631576Y-79961028D02*
X190717291Y-80132457D01*
X190717291Y-80132457D02*
X190717291Y-81075314D01*
X190717291Y-80132457D02*
X190803005Y-79961028D01*
X190803005Y-79961028D02*
X190974433Y-79875314D01*
X190974433Y-79875314D02*
X191231576Y-79875314D01*
X191231576Y-79875314D02*
X191403005Y-79961028D01*
X191403005Y-79961028D02*
X191488719Y-80132457D01*
X191488719Y-80132457D02*
X191488719Y-81075314D01*
X192345862Y-80903885D02*
X192431576Y-80989600D01*
X192431576Y-80989600D02*
X192345862Y-81075314D01*
X192345862Y-81075314D02*
X192260148Y-80989600D01*
X192260148Y-80989600D02*
X192345862Y-80903885D01*
X192345862Y-80903885D02*
X192345862Y-81075314D01*
X192345862Y-79961028D02*
X192431576Y-80046742D01*
X192431576Y-80046742D02*
X192345862Y-80132457D01*
X192345862Y-80132457D02*
X192260148Y-80046742D01*
X192260148Y-80046742D02*
X192345862Y-79961028D01*
X192345862Y-79961028D02*
X192345862Y-80132457D01*
X193203005Y-81075314D02*
X193203005Y-79275314D01*
X193203005Y-79275314D02*
X193888719Y-79275314D01*
X193888719Y-79275314D02*
X194060148Y-79361028D01*
X194060148Y-79361028D02*
X194145862Y-79446742D01*
X194145862Y-79446742D02*
X194231576Y-79618171D01*
X194231576Y-79618171D02*
X194231576Y-79875314D01*
X194231576Y-79875314D02*
X194145862Y-80046742D01*
X194145862Y-80046742D02*
X194060148Y-80132457D01*
X194060148Y-80132457D02*
X193888719Y-80218171D01*
X193888719Y-80218171D02*
X193203005Y-80218171D01*
X195003005Y-81075314D02*
X195003005Y-79875314D01*
X195003005Y-79275314D02*
X194917291Y-79361028D01*
X194917291Y-79361028D02*
X195003005Y-79446742D01*
X195003005Y-79446742D02*
X195088719Y-79361028D01*
X195088719Y-79361028D02*
X195003005Y-79275314D01*
X195003005Y-79275314D02*
X195003005Y-79446742D01*
X195860148Y-79875314D02*
X195860148Y-81075314D01*
X195860148Y-80046742D02*
X195945862Y-79961028D01*
X195945862Y-79961028D02*
X196117291Y-79875314D01*
X196117291Y-79875314D02*
X196374434Y-79875314D01*
X196374434Y-79875314D02*
X196545862Y-79961028D01*
X196545862Y-79961028D02*
X196631577Y-80132457D01*
X196631577Y-80132457D02*
X196631577Y-81075314D01*
X197403005Y-80989600D02*
X197660148Y-81075314D01*
X197660148Y-81075314D02*
X198088719Y-81075314D01*
X198088719Y-81075314D02*
X198260148Y-80989600D01*
X198260148Y-80989600D02*
X198345862Y-80903885D01*
X198345862Y-80903885D02*
X198431576Y-80732457D01*
X198431576Y-80732457D02*
X198431576Y-80561028D01*
X198431576Y-80561028D02*
X198345862Y-80389600D01*
X198345862Y-80389600D02*
X198260148Y-80303885D01*
X198260148Y-80303885D02*
X198088719Y-80218171D01*
X198088719Y-80218171D02*
X197745862Y-80132457D01*
X197745862Y-80132457D02*
X197574433Y-80046742D01*
X197574433Y-80046742D02*
X197488719Y-79961028D01*
X197488719Y-79961028D02*
X197403005Y-79789600D01*
X197403005Y-79789600D02*
X197403005Y-79618171D01*
X197403005Y-79618171D02*
X197488719Y-79446742D01*
X197488719Y-79446742D02*
X197574433Y-79361028D01*
X197574433Y-79361028D02*
X197745862Y-79275314D01*
X197745862Y-79275314D02*
X198174433Y-79275314D01*
X198174433Y-79275314D02*
X198431576Y-79361028D01*
X199460148Y-81075314D02*
X199288719Y-80989600D01*
X199288719Y-80989600D02*
X199203005Y-80903885D01*
X199203005Y-80903885D02*
X199117291Y-80732457D01*
X199117291Y-80732457D02*
X199117291Y-80218171D01*
X199117291Y-80218171D02*
X199203005Y-80046742D01*
X199203005Y-80046742D02*
X199288719Y-79961028D01*
X199288719Y-79961028D02*
X199460148Y-79875314D01*
X199460148Y-79875314D02*
X199717291Y-79875314D01*
X199717291Y-79875314D02*
X199888719Y-79961028D01*
X199888719Y-79961028D02*
X199974434Y-80046742D01*
X199974434Y-80046742D02*
X200060148Y-80218171D01*
X200060148Y-80218171D02*
X200060148Y-80732457D01*
X200060148Y-80732457D02*
X199974434Y-80903885D01*
X199974434Y-80903885D02*
X199888719Y-80989600D01*
X199888719Y-80989600D02*
X199717291Y-81075314D01*
X199717291Y-81075314D02*
X199460148Y-81075314D01*
X201603005Y-80989600D02*
X201431576Y-81075314D01*
X201431576Y-81075314D02*
X201088719Y-81075314D01*
X201088719Y-81075314D02*
X200917290Y-80989600D01*
X200917290Y-80989600D02*
X200831576Y-80903885D01*
X200831576Y-80903885D02*
X200745862Y-80732457D01*
X200745862Y-80732457D02*
X200745862Y-80218171D01*
X200745862Y-80218171D02*
X200831576Y-80046742D01*
X200831576Y-80046742D02*
X200917290Y-79961028D01*
X200917290Y-79961028D02*
X201088719Y-79875314D01*
X201088719Y-79875314D02*
X201431576Y-79875314D01*
X201431576Y-79875314D02*
X201603005Y-79961028D01*
X202374433Y-81075314D02*
X202374433Y-79275314D01*
X202545862Y-80389600D02*
X203060147Y-81075314D01*
X203060147Y-79875314D02*
X202374433Y-80561028D01*
X204517290Y-80989600D02*
X204345862Y-81075314D01*
X204345862Y-81075314D02*
X204003005Y-81075314D01*
X204003005Y-81075314D02*
X203831576Y-80989600D01*
X203831576Y-80989600D02*
X203745862Y-80818171D01*
X203745862Y-80818171D02*
X203745862Y-80132457D01*
X203745862Y-80132457D02*
X203831576Y-79961028D01*
X203831576Y-79961028D02*
X204003005Y-79875314D01*
X204003005Y-79875314D02*
X204345862Y-79875314D01*
X204345862Y-79875314D02*
X204517290Y-79961028D01*
X204517290Y-79961028D02*
X204603005Y-80132457D01*
X204603005Y-80132457D02*
X204603005Y-80303885D01*
X204603005Y-80303885D02*
X203745862Y-80475314D01*
X205117290Y-79875314D02*
X205803004Y-79875314D01*
X205374433Y-79275314D02*
X205374433Y-80818171D01*
X205374433Y-80818171D02*
X205460147Y-80989600D01*
X205460147Y-80989600D02*
X205631576Y-81075314D01*
X205631576Y-81075314D02*
X205803004Y-81075314D01*
X205974433Y-81246742D02*
X207345861Y-81246742D01*
X208717290Y-81075314D02*
X207688719Y-81075314D01*
X208203004Y-81075314D02*
X208203004Y-79275314D01*
X208203004Y-79275314D02*
X208031576Y-79532457D01*
X208031576Y-79532457D02*
X207860147Y-79703885D01*
X207860147Y-79703885D02*
X207688719Y-79789600D01*
X209317290Y-81075314D02*
X210260148Y-79875314D01*
X209317290Y-79875314D02*
X210260148Y-81075314D01*
X211288719Y-79275314D02*
X211460148Y-79275314D01*
X211460148Y-79275314D02*
X211631576Y-79361028D01*
X211631576Y-79361028D02*
X211717291Y-79446742D01*
X211717291Y-79446742D02*
X211803005Y-79618171D01*
X211803005Y-79618171D02*
X211888719Y-79961028D01*
X211888719Y-79961028D02*
X211888719Y-80389600D01*
X211888719Y-80389600D02*
X211803005Y-80732457D01*
X211803005Y-80732457D02*
X211717291Y-80903885D01*
X211717291Y-80903885D02*
X211631576Y-80989600D01*
X211631576Y-80989600D02*
X211460148Y-81075314D01*
X211460148Y-81075314D02*
X211288719Y-81075314D01*
X211288719Y-81075314D02*
X211117291Y-80989600D01*
X211117291Y-80989600D02*
X211031576Y-80903885D01*
X211031576Y-80903885D02*
X210945862Y-80732457D01*
X210945862Y-80732457D02*
X210860148Y-80389600D01*
X210860148Y-80389600D02*
X210860148Y-79961028D01*
X210860148Y-79961028D02*
X210945862Y-79618171D01*
X210945862Y-79618171D02*
X211031576Y-79446742D01*
X211031576Y-79446742D02*
X211117291Y-79361028D01*
X211117291Y-79361028D02*
X211288719Y-79275314D01*
X212488719Y-79275314D02*
X213603005Y-79275314D01*
X213603005Y-79275314D02*
X213003005Y-79961028D01*
X213003005Y-79961028D02*
X213260148Y-79961028D01*
X213260148Y-79961028D02*
X213431577Y-80046742D01*
X213431577Y-80046742D02*
X213517291Y-80132457D01*
X213517291Y-80132457D02*
X213603005Y-80303885D01*
X213603005Y-80303885D02*
X213603005Y-80732457D01*
X213603005Y-80732457D02*
X213517291Y-80903885D01*
X213517291Y-80903885D02*
X213431577Y-80989600D01*
X213431577Y-80989600D02*
X213260148Y-81075314D01*
X213260148Y-81075314D02*
X212745862Y-81075314D01*
X212745862Y-81075314D02*
X212574434Y-80989600D01*
X212574434Y-80989600D02*
X212488719Y-80903885D01*
X213945863Y-81246742D02*
X215317291Y-81246742D01*
X215745863Y-81075314D02*
X215745863Y-79275314D01*
X215745863Y-79275314D02*
X216431577Y-79275314D01*
X216431577Y-79275314D02*
X216603006Y-79361028D01*
X216603006Y-79361028D02*
X216688720Y-79446742D01*
X216688720Y-79446742D02*
X216774434Y-79618171D01*
X216774434Y-79618171D02*
X216774434Y-79875314D01*
X216774434Y-79875314D02*
X216688720Y-80046742D01*
X216688720Y-80046742D02*
X216603006Y-80132457D01*
X216603006Y-80132457D02*
X216431577Y-80218171D01*
X216431577Y-80218171D02*
X215745863Y-80218171D01*
X217460149Y-79446742D02*
X217545863Y-79361028D01*
X217545863Y-79361028D02*
X217717292Y-79275314D01*
X217717292Y-79275314D02*
X218145863Y-79275314D01*
X218145863Y-79275314D02*
X218317292Y-79361028D01*
X218317292Y-79361028D02*
X218403006Y-79446742D01*
X218403006Y-79446742D02*
X218488720Y-79618171D01*
X218488720Y-79618171D02*
X218488720Y-79789600D01*
X218488720Y-79789600D02*
X218403006Y-80046742D01*
X218403006Y-80046742D02*
X217374434Y-81075314D01*
X217374434Y-81075314D02*
X218488720Y-81075314D01*
X219260149Y-80903885D02*
X219345863Y-80989600D01*
X219345863Y-80989600D02*
X219260149Y-81075314D01*
X219260149Y-81075314D02*
X219174435Y-80989600D01*
X219174435Y-80989600D02*
X219260149Y-80903885D01*
X219260149Y-80903885D02*
X219260149Y-81075314D01*
X220974435Y-79275314D02*
X220117292Y-79275314D01*
X220117292Y-79275314D02*
X220031578Y-80132457D01*
X220031578Y-80132457D02*
X220117292Y-80046742D01*
X220117292Y-80046742D02*
X220288721Y-79961028D01*
X220288721Y-79961028D02*
X220717292Y-79961028D01*
X220717292Y-79961028D02*
X220888721Y-80046742D01*
X220888721Y-80046742D02*
X220974435Y-80132457D01*
X220974435Y-80132457D02*
X221060149Y-80303885D01*
X221060149Y-80303885D02*
X221060149Y-80732457D01*
X221060149Y-80732457D02*
X220974435Y-80903885D01*
X220974435Y-80903885D02*
X220888721Y-80989600D01*
X220888721Y-80989600D02*
X220717292Y-81075314D01*
X220717292Y-81075314D02*
X220288721Y-81075314D01*
X220288721Y-81075314D02*
X220117292Y-80989600D01*
X220117292Y-80989600D02*
X220031578Y-80903885D01*
X222603007Y-79875314D02*
X222603007Y-81075314D01*
X222174435Y-79189600D02*
X221745864Y-80475314D01*
X221745864Y-80475314D02*
X222860149Y-80475314D01*
X223545864Y-81075314D02*
X223545864Y-79875314D01*
X223545864Y-80046742D02*
X223631578Y-79961028D01*
X223631578Y-79961028D02*
X223803007Y-79875314D01*
X223803007Y-79875314D02*
X224060150Y-79875314D01*
X224060150Y-79875314D02*
X224231578Y-79961028D01*
X224231578Y-79961028D02*
X224317293Y-80132457D01*
X224317293Y-80132457D02*
X224317293Y-81075314D01*
X224317293Y-80132457D02*
X224403007Y-79961028D01*
X224403007Y-79961028D02*
X224574435Y-79875314D01*
X224574435Y-79875314D02*
X224831578Y-79875314D01*
X224831578Y-79875314D02*
X225003007Y-79961028D01*
X225003007Y-79961028D02*
X225088721Y-80132457D01*
X225088721Y-80132457D02*
X225088721Y-81075314D01*
X225945864Y-81075314D02*
X225945864Y-79875314D01*
X225945864Y-80046742D02*
X226031578Y-79961028D01*
X226031578Y-79961028D02*
X226203007Y-79875314D01*
X226203007Y-79875314D02*
X226460150Y-79875314D01*
X226460150Y-79875314D02*
X226631578Y-79961028D01*
X226631578Y-79961028D02*
X226717293Y-80132457D01*
X226717293Y-80132457D02*
X226717293Y-81075314D01*
X226717293Y-80132457D02*
X226803007Y-79961028D01*
X226803007Y-79961028D02*
X226974435Y-79875314D01*
X226974435Y-79875314D02*
X227231578Y-79875314D01*
X227231578Y-79875314D02*
X227403007Y-79961028D01*
X227403007Y-79961028D02*
X227488721Y-80132457D01*
X227488721Y-80132457D02*
X227488721Y-81075314D01*
X227917293Y-81246742D02*
X229288721Y-81246742D01*
X229460150Y-79275314D02*
X230060150Y-81075314D01*
X230060150Y-81075314D02*
X230660150Y-79275314D01*
X231945864Y-80989600D02*
X231774436Y-81075314D01*
X231774436Y-81075314D02*
X231431579Y-81075314D01*
X231431579Y-81075314D02*
X231260150Y-80989600D01*
X231260150Y-80989600D02*
X231174436Y-80818171D01*
X231174436Y-80818171D02*
X231174436Y-80132457D01*
X231174436Y-80132457D02*
X231260150Y-79961028D01*
X231260150Y-79961028D02*
X231431579Y-79875314D01*
X231431579Y-79875314D02*
X231774436Y-79875314D01*
X231774436Y-79875314D02*
X231945864Y-79961028D01*
X231945864Y-79961028D02*
X232031579Y-80132457D01*
X232031579Y-80132457D02*
X232031579Y-80303885D01*
X232031579Y-80303885D02*
X231174436Y-80475314D01*
X232803007Y-81075314D02*
X232803007Y-79875314D01*
X232803007Y-80218171D02*
X232888721Y-80046742D01*
X232888721Y-80046742D02*
X232974436Y-79961028D01*
X232974436Y-79961028D02*
X233145864Y-79875314D01*
X233145864Y-79875314D02*
X233317293Y-79875314D01*
X233660150Y-79875314D02*
X234345864Y-79875314D01*
X233917293Y-79275314D02*
X233917293Y-80818171D01*
X233917293Y-80818171D02*
X234003007Y-80989600D01*
X234003007Y-80989600D02*
X234174436Y-81075314D01*
X234174436Y-81075314D02*
X234345864Y-81075314D01*
X234945864Y-81075314D02*
X234945864Y-79875314D01*
X234945864Y-79275314D02*
X234860150Y-79361028D01*
X234860150Y-79361028D02*
X234945864Y-79446742D01*
X234945864Y-79446742D02*
X235031578Y-79361028D01*
X235031578Y-79361028D02*
X234945864Y-79275314D01*
X234945864Y-79275314D02*
X234945864Y-79446742D01*
X236574436Y-80989600D02*
X236403007Y-81075314D01*
X236403007Y-81075314D02*
X236060150Y-81075314D01*
X236060150Y-81075314D02*
X235888721Y-80989600D01*
X235888721Y-80989600D02*
X235803007Y-80903885D01*
X235803007Y-80903885D02*
X235717293Y-80732457D01*
X235717293Y-80732457D02*
X235717293Y-80218171D01*
X235717293Y-80218171D02*
X235803007Y-80046742D01*
X235803007Y-80046742D02*
X235888721Y-79961028D01*
X235888721Y-79961028D02*
X236060150Y-79875314D01*
X236060150Y-79875314D02*
X236403007Y-79875314D01*
X236403007Y-79875314D02*
X236574436Y-79961028D01*
X238117293Y-81075314D02*
X238117293Y-80132457D01*
X238117293Y-80132457D02*
X238031578Y-79961028D01*
X238031578Y-79961028D02*
X237860150Y-79875314D01*
X237860150Y-79875314D02*
X237517293Y-79875314D01*
X237517293Y-79875314D02*
X237345864Y-79961028D01*
X238117293Y-80989600D02*
X237945864Y-81075314D01*
X237945864Y-81075314D02*
X237517293Y-81075314D01*
X237517293Y-81075314D02*
X237345864Y-80989600D01*
X237345864Y-80989600D02*
X237260150Y-80818171D01*
X237260150Y-80818171D02*
X237260150Y-80646742D01*
X237260150Y-80646742D02*
X237345864Y-80475314D01*
X237345864Y-80475314D02*
X237517293Y-80389600D01*
X237517293Y-80389600D02*
X237945864Y-80389600D01*
X237945864Y-80389600D02*
X238117293Y-80303885D01*
X239231578Y-81075314D02*
X239060149Y-80989600D01*
X239060149Y-80989600D02*
X238974435Y-80818171D01*
X238974435Y-80818171D02*
X238974435Y-79275314D01*
X152060149Y-86871314D02*
X152060149Y-85071314D01*
X152060149Y-85071314D02*
X152745863Y-85071314D01*
X152745863Y-85071314D02*
X152917292Y-85157028D01*
X152917292Y-85157028D02*
X153003006Y-85242742D01*
X153003006Y-85242742D02*
X153088720Y-85414171D01*
X153088720Y-85414171D02*
X153088720Y-85671314D01*
X153088720Y-85671314D02*
X153003006Y-85842742D01*
X153003006Y-85842742D02*
X152917292Y-85928457D01*
X152917292Y-85928457D02*
X152745863Y-86014171D01*
X152745863Y-86014171D02*
X152060149Y-86014171D01*
X154117292Y-86871314D02*
X153945863Y-86785600D01*
X153945863Y-86785600D02*
X153860149Y-86699885D01*
X153860149Y-86699885D02*
X153774435Y-86528457D01*
X153774435Y-86528457D02*
X153774435Y-86014171D01*
X153774435Y-86014171D02*
X153860149Y-85842742D01*
X153860149Y-85842742D02*
X153945863Y-85757028D01*
X153945863Y-85757028D02*
X154117292Y-85671314D01*
X154117292Y-85671314D02*
X154374435Y-85671314D01*
X154374435Y-85671314D02*
X154545863Y-85757028D01*
X154545863Y-85757028D02*
X154631578Y-85842742D01*
X154631578Y-85842742D02*
X154717292Y-86014171D01*
X154717292Y-86014171D02*
X154717292Y-86528457D01*
X154717292Y-86528457D02*
X154631578Y-86699885D01*
X154631578Y-86699885D02*
X154545863Y-86785600D01*
X154545863Y-86785600D02*
X154374435Y-86871314D01*
X154374435Y-86871314D02*
X154117292Y-86871314D01*
X155317291Y-85671314D02*
X155660149Y-86871314D01*
X155660149Y-86871314D02*
X156003006Y-86014171D01*
X156003006Y-86014171D02*
X156345863Y-86871314D01*
X156345863Y-86871314D02*
X156688720Y-85671314D01*
X158060148Y-86785600D02*
X157888720Y-86871314D01*
X157888720Y-86871314D02*
X157545863Y-86871314D01*
X157545863Y-86871314D02*
X157374434Y-86785600D01*
X157374434Y-86785600D02*
X157288720Y-86614171D01*
X157288720Y-86614171D02*
X157288720Y-85928457D01*
X157288720Y-85928457D02*
X157374434Y-85757028D01*
X157374434Y-85757028D02*
X157545863Y-85671314D01*
X157545863Y-85671314D02*
X157888720Y-85671314D01*
X157888720Y-85671314D02*
X158060148Y-85757028D01*
X158060148Y-85757028D02*
X158145863Y-85928457D01*
X158145863Y-85928457D02*
X158145863Y-86099885D01*
X158145863Y-86099885D02*
X157288720Y-86271314D01*
X158917291Y-86871314D02*
X158917291Y-85671314D01*
X158917291Y-86014171D02*
X159003005Y-85842742D01*
X159003005Y-85842742D02*
X159088720Y-85757028D01*
X159088720Y-85757028D02*
X159260148Y-85671314D01*
X159260148Y-85671314D02*
X159431577Y-85671314D01*
X161317292Y-86785600D02*
X161574435Y-86871314D01*
X161574435Y-86871314D02*
X162003006Y-86871314D01*
X162003006Y-86871314D02*
X162174435Y-86785600D01*
X162174435Y-86785600D02*
X162260149Y-86699885D01*
X162260149Y-86699885D02*
X162345863Y-86528457D01*
X162345863Y-86528457D02*
X162345863Y-86357028D01*
X162345863Y-86357028D02*
X162260149Y-86185600D01*
X162260149Y-86185600D02*
X162174435Y-86099885D01*
X162174435Y-86099885D02*
X162003006Y-86014171D01*
X162003006Y-86014171D02*
X161660149Y-85928457D01*
X161660149Y-85928457D02*
X161488720Y-85842742D01*
X161488720Y-85842742D02*
X161403006Y-85757028D01*
X161403006Y-85757028D02*
X161317292Y-85585600D01*
X161317292Y-85585600D02*
X161317292Y-85414171D01*
X161317292Y-85414171D02*
X161403006Y-85242742D01*
X161403006Y-85242742D02*
X161488720Y-85157028D01*
X161488720Y-85157028D02*
X161660149Y-85071314D01*
X161660149Y-85071314D02*
X162088720Y-85071314D01*
X162088720Y-85071314D02*
X162345863Y-85157028D01*
X163888721Y-85671314D02*
X163888721Y-86871314D01*
X163117292Y-85671314D02*
X163117292Y-86614171D01*
X163117292Y-86614171D02*
X163203006Y-86785600D01*
X163203006Y-86785600D02*
X163374435Y-86871314D01*
X163374435Y-86871314D02*
X163631578Y-86871314D01*
X163631578Y-86871314D02*
X163803006Y-86785600D01*
X163803006Y-86785600D02*
X163888721Y-86699885D01*
X164745863Y-85671314D02*
X164745863Y-87471314D01*
X164745863Y-85757028D02*
X164917292Y-85671314D01*
X164917292Y-85671314D02*
X165260149Y-85671314D01*
X165260149Y-85671314D02*
X165431577Y-85757028D01*
X165431577Y-85757028D02*
X165517292Y-85842742D01*
X165517292Y-85842742D02*
X165603006Y-86014171D01*
X165603006Y-86014171D02*
X165603006Y-86528457D01*
X165603006Y-86528457D02*
X165517292Y-86699885D01*
X165517292Y-86699885D02*
X165431577Y-86785600D01*
X165431577Y-86785600D02*
X165260149Y-86871314D01*
X165260149Y-86871314D02*
X164917292Y-86871314D01*
X164917292Y-86871314D02*
X164745863Y-86785600D01*
X166374434Y-85671314D02*
X166374434Y-87471314D01*
X166374434Y-85757028D02*
X166545863Y-85671314D01*
X166545863Y-85671314D02*
X166888720Y-85671314D01*
X166888720Y-85671314D02*
X167060148Y-85757028D01*
X167060148Y-85757028D02*
X167145863Y-85842742D01*
X167145863Y-85842742D02*
X167231577Y-86014171D01*
X167231577Y-86014171D02*
X167231577Y-86528457D01*
X167231577Y-86528457D02*
X167145863Y-86699885D01*
X167145863Y-86699885D02*
X167060148Y-86785600D01*
X167060148Y-86785600D02*
X166888720Y-86871314D01*
X166888720Y-86871314D02*
X166545863Y-86871314D01*
X166545863Y-86871314D02*
X166374434Y-86785600D01*
X168260148Y-86871314D02*
X168088719Y-86785600D01*
X168088719Y-86785600D02*
X168003005Y-86614171D01*
X168003005Y-86614171D02*
X168003005Y-85071314D01*
X168774433Y-85671314D02*
X169203005Y-86871314D01*
X169631576Y-85671314D02*
X169203005Y-86871314D01*
X169203005Y-86871314D02*
X169031576Y-87299885D01*
X169031576Y-87299885D02*
X168945862Y-87385600D01*
X168945862Y-87385600D02*
X168774433Y-87471314D01*
X172288720Y-85928457D02*
X171688720Y-85928457D01*
X171688720Y-86871314D02*
X171688720Y-85071314D01*
X171688720Y-85071314D02*
X172545863Y-85071314D01*
X173488720Y-86871314D02*
X173317291Y-86785600D01*
X173317291Y-86785600D02*
X173231577Y-86699885D01*
X173231577Y-86699885D02*
X173145863Y-86528457D01*
X173145863Y-86528457D02*
X173145863Y-86014171D01*
X173145863Y-86014171D02*
X173231577Y-85842742D01*
X173231577Y-85842742D02*
X173317291Y-85757028D01*
X173317291Y-85757028D02*
X173488720Y-85671314D01*
X173488720Y-85671314D02*
X173745863Y-85671314D01*
X173745863Y-85671314D02*
X173917291Y-85757028D01*
X173917291Y-85757028D02*
X174003006Y-85842742D01*
X174003006Y-85842742D02*
X174088720Y-86014171D01*
X174088720Y-86014171D02*
X174088720Y-86528457D01*
X174088720Y-86528457D02*
X174003006Y-86699885D01*
X174003006Y-86699885D02*
X173917291Y-86785600D01*
X173917291Y-86785600D02*
X173745863Y-86871314D01*
X173745863Y-86871314D02*
X173488720Y-86871314D01*
X175117291Y-86871314D02*
X174945862Y-86785600D01*
X174945862Y-86785600D02*
X174860148Y-86699885D01*
X174860148Y-86699885D02*
X174774434Y-86528457D01*
X174774434Y-86528457D02*
X174774434Y-86014171D01*
X174774434Y-86014171D02*
X174860148Y-85842742D01*
X174860148Y-85842742D02*
X174945862Y-85757028D01*
X174945862Y-85757028D02*
X175117291Y-85671314D01*
X175117291Y-85671314D02*
X175374434Y-85671314D01*
X175374434Y-85671314D02*
X175545862Y-85757028D01*
X175545862Y-85757028D02*
X175631577Y-85842742D01*
X175631577Y-85842742D02*
X175717291Y-86014171D01*
X175717291Y-86014171D02*
X175717291Y-86528457D01*
X175717291Y-86528457D02*
X175631577Y-86699885D01*
X175631577Y-86699885D02*
X175545862Y-86785600D01*
X175545862Y-86785600D02*
X175374434Y-86871314D01*
X175374434Y-86871314D02*
X175117291Y-86871314D01*
X176231576Y-85671314D02*
X176917290Y-85671314D01*
X176488719Y-85071314D02*
X176488719Y-86614171D01*
X176488719Y-86614171D02*
X176574433Y-86785600D01*
X176574433Y-86785600D02*
X176745862Y-86871314D01*
X176745862Y-86871314D02*
X176917290Y-86871314D01*
X177517290Y-85671314D02*
X177517290Y-87471314D01*
X177517290Y-85757028D02*
X177688719Y-85671314D01*
X177688719Y-85671314D02*
X178031576Y-85671314D01*
X178031576Y-85671314D02*
X178203004Y-85757028D01*
X178203004Y-85757028D02*
X178288719Y-85842742D01*
X178288719Y-85842742D02*
X178374433Y-86014171D01*
X178374433Y-86014171D02*
X178374433Y-86528457D01*
X178374433Y-86528457D02*
X178288719Y-86699885D01*
X178288719Y-86699885D02*
X178203004Y-86785600D01*
X178203004Y-86785600D02*
X178031576Y-86871314D01*
X178031576Y-86871314D02*
X177688719Y-86871314D01*
X177688719Y-86871314D02*
X177517290Y-86785600D01*
X179145861Y-86871314D02*
X179145861Y-85671314D01*
X179145861Y-86014171D02*
X179231575Y-85842742D01*
X179231575Y-85842742D02*
X179317290Y-85757028D01*
X179317290Y-85757028D02*
X179488718Y-85671314D01*
X179488718Y-85671314D02*
X179660147Y-85671314D01*
X180260147Y-86871314D02*
X180260147Y-85671314D01*
X180260147Y-85071314D02*
X180174433Y-85157028D01*
X180174433Y-85157028D02*
X180260147Y-85242742D01*
X180260147Y-85242742D02*
X180345861Y-85157028D01*
X180345861Y-85157028D02*
X180260147Y-85071314D01*
X180260147Y-85071314D02*
X180260147Y-85242742D01*
X181117290Y-85671314D02*
X181117290Y-86871314D01*
X181117290Y-85842742D02*
X181203004Y-85757028D01*
X181203004Y-85757028D02*
X181374433Y-85671314D01*
X181374433Y-85671314D02*
X181631576Y-85671314D01*
X181631576Y-85671314D02*
X181803004Y-85757028D01*
X181803004Y-85757028D02*
X181888719Y-85928457D01*
X181888719Y-85928457D02*
X181888719Y-86871314D01*
X182488718Y-85671314D02*
X183174432Y-85671314D01*
X182745861Y-85071314D02*
X182745861Y-86614171D01*
X182745861Y-86614171D02*
X182831575Y-86785600D01*
X182831575Y-86785600D02*
X183003004Y-86871314D01*
X183003004Y-86871314D02*
X183174432Y-86871314D01*
X183774432Y-86699885D02*
X183860146Y-86785600D01*
X183860146Y-86785600D02*
X183774432Y-86871314D01*
X183774432Y-86871314D02*
X183688718Y-86785600D01*
X183688718Y-86785600D02*
X183774432Y-86699885D01*
X183774432Y-86699885D02*
X183774432Y-86871314D01*
X183774432Y-85757028D02*
X183860146Y-85842742D01*
X183860146Y-85842742D02*
X183774432Y-85928457D01*
X183774432Y-85928457D02*
X183688718Y-85842742D01*
X183688718Y-85842742D02*
X183774432Y-85757028D01*
X183774432Y-85757028D02*
X183774432Y-85928457D01*
X153088720Y-89597885D02*
X153003006Y-89683600D01*
X153003006Y-89683600D02*
X152745863Y-89769314D01*
X152745863Y-89769314D02*
X152574435Y-89769314D01*
X152574435Y-89769314D02*
X152317292Y-89683600D01*
X152317292Y-89683600D02*
X152145863Y-89512171D01*
X152145863Y-89512171D02*
X152060149Y-89340742D01*
X152060149Y-89340742D02*
X151974435Y-88997885D01*
X151974435Y-88997885D02*
X151974435Y-88740742D01*
X151974435Y-88740742D02*
X152060149Y-88397885D01*
X152060149Y-88397885D02*
X152145863Y-88226457D01*
X152145863Y-88226457D02*
X152317292Y-88055028D01*
X152317292Y-88055028D02*
X152574435Y-87969314D01*
X152574435Y-87969314D02*
X152745863Y-87969314D01*
X152745863Y-87969314D02*
X153003006Y-88055028D01*
X153003006Y-88055028D02*
X153088720Y-88140742D01*
X154117292Y-89769314D02*
X153945863Y-89683600D01*
X153945863Y-89683600D02*
X153860149Y-89597885D01*
X153860149Y-89597885D02*
X153774435Y-89426457D01*
X153774435Y-89426457D02*
X153774435Y-88912171D01*
X153774435Y-88912171D02*
X153860149Y-88740742D01*
X153860149Y-88740742D02*
X153945863Y-88655028D01*
X153945863Y-88655028D02*
X154117292Y-88569314D01*
X154117292Y-88569314D02*
X154374435Y-88569314D01*
X154374435Y-88569314D02*
X154545863Y-88655028D01*
X154545863Y-88655028D02*
X154631578Y-88740742D01*
X154631578Y-88740742D02*
X154717292Y-88912171D01*
X154717292Y-88912171D02*
X154717292Y-89426457D01*
X154717292Y-89426457D02*
X154631578Y-89597885D01*
X154631578Y-89597885D02*
X154545863Y-89683600D01*
X154545863Y-89683600D02*
X154374435Y-89769314D01*
X154374435Y-89769314D02*
X154117292Y-89769314D01*
X155488720Y-88569314D02*
X155488720Y-89769314D01*
X155488720Y-88740742D02*
X155574434Y-88655028D01*
X155574434Y-88655028D02*
X155745863Y-88569314D01*
X155745863Y-88569314D02*
X156003006Y-88569314D01*
X156003006Y-88569314D02*
X156174434Y-88655028D01*
X156174434Y-88655028D02*
X156260149Y-88826457D01*
X156260149Y-88826457D02*
X156260149Y-89769314D01*
X157117291Y-88569314D02*
X157117291Y-89769314D01*
X157117291Y-88740742D02*
X157203005Y-88655028D01*
X157203005Y-88655028D02*
X157374434Y-88569314D01*
X157374434Y-88569314D02*
X157631577Y-88569314D01*
X157631577Y-88569314D02*
X157803005Y-88655028D01*
X157803005Y-88655028D02*
X157888720Y-88826457D01*
X157888720Y-88826457D02*
X157888720Y-89769314D01*
X159431576Y-89683600D02*
X159260148Y-89769314D01*
X159260148Y-89769314D02*
X158917291Y-89769314D01*
X158917291Y-89769314D02*
X158745862Y-89683600D01*
X158745862Y-89683600D02*
X158660148Y-89512171D01*
X158660148Y-89512171D02*
X158660148Y-88826457D01*
X158660148Y-88826457D02*
X158745862Y-88655028D01*
X158745862Y-88655028D02*
X158917291Y-88569314D01*
X158917291Y-88569314D02*
X159260148Y-88569314D01*
X159260148Y-88569314D02*
X159431576Y-88655028D01*
X159431576Y-88655028D02*
X159517291Y-88826457D01*
X159517291Y-88826457D02*
X159517291Y-88997885D01*
X159517291Y-88997885D02*
X158660148Y-89169314D01*
X161060148Y-89683600D02*
X160888719Y-89769314D01*
X160888719Y-89769314D02*
X160545862Y-89769314D01*
X160545862Y-89769314D02*
X160374433Y-89683600D01*
X160374433Y-89683600D02*
X160288719Y-89597885D01*
X160288719Y-89597885D02*
X160203005Y-89426457D01*
X160203005Y-89426457D02*
X160203005Y-88912171D01*
X160203005Y-88912171D02*
X160288719Y-88740742D01*
X160288719Y-88740742D02*
X160374433Y-88655028D01*
X160374433Y-88655028D02*
X160545862Y-88569314D01*
X160545862Y-88569314D02*
X160888719Y-88569314D01*
X160888719Y-88569314D02*
X161060148Y-88655028D01*
X161574433Y-88569314D02*
X162260147Y-88569314D01*
X161831576Y-87969314D02*
X161831576Y-89512171D01*
X161831576Y-89512171D02*
X161917290Y-89683600D01*
X161917290Y-89683600D02*
X162088719Y-89769314D01*
X162088719Y-89769314D02*
X162260147Y-89769314D01*
X163117290Y-89769314D02*
X162945861Y-89683600D01*
X162945861Y-89683600D02*
X162860147Y-89597885D01*
X162860147Y-89597885D02*
X162774433Y-89426457D01*
X162774433Y-89426457D02*
X162774433Y-88912171D01*
X162774433Y-88912171D02*
X162860147Y-88740742D01*
X162860147Y-88740742D02*
X162945861Y-88655028D01*
X162945861Y-88655028D02*
X163117290Y-88569314D01*
X163117290Y-88569314D02*
X163374433Y-88569314D01*
X163374433Y-88569314D02*
X163545861Y-88655028D01*
X163545861Y-88655028D02*
X163631576Y-88740742D01*
X163631576Y-88740742D02*
X163717290Y-88912171D01*
X163717290Y-88912171D02*
X163717290Y-89426457D01*
X163717290Y-89426457D02*
X163631576Y-89597885D01*
X163631576Y-89597885D02*
X163545861Y-89683600D01*
X163545861Y-89683600D02*
X163374433Y-89769314D01*
X163374433Y-89769314D02*
X163117290Y-89769314D01*
X164488718Y-89769314D02*
X164488718Y-88569314D01*
X164488718Y-88912171D02*
X164574432Y-88740742D01*
X164574432Y-88740742D02*
X164660147Y-88655028D01*
X164660147Y-88655028D02*
X164831575Y-88569314D01*
X164831575Y-88569314D02*
X165003004Y-88569314D01*
X165174433Y-89940742D02*
X166545861Y-89940742D01*
X166974433Y-89769314D02*
X166974433Y-87969314D01*
X166974433Y-87969314D02*
X167660147Y-87969314D01*
X167660147Y-87969314D02*
X167831576Y-88055028D01*
X167831576Y-88055028D02*
X167917290Y-88140742D01*
X167917290Y-88140742D02*
X168003004Y-88312171D01*
X168003004Y-88312171D02*
X168003004Y-88569314D01*
X168003004Y-88569314D02*
X167917290Y-88740742D01*
X167917290Y-88740742D02*
X167831576Y-88826457D01*
X167831576Y-88826457D02*
X167660147Y-88912171D01*
X167660147Y-88912171D02*
X166974433Y-88912171D01*
X168774433Y-89769314D02*
X168774433Y-88569314D01*
X168774433Y-87969314D02*
X168688719Y-88055028D01*
X168688719Y-88055028D02*
X168774433Y-88140742D01*
X168774433Y-88140742D02*
X168860147Y-88055028D01*
X168860147Y-88055028D02*
X168774433Y-87969314D01*
X168774433Y-87969314D02*
X168774433Y-88140742D01*
X169631576Y-88569314D02*
X169631576Y-89769314D01*
X169631576Y-88740742D02*
X169717290Y-88655028D01*
X169717290Y-88655028D02*
X169888719Y-88569314D01*
X169888719Y-88569314D02*
X170145862Y-88569314D01*
X170145862Y-88569314D02*
X170317290Y-88655028D01*
X170317290Y-88655028D02*
X170403005Y-88826457D01*
X170403005Y-88826457D02*
X170403005Y-89769314D01*
X171174433Y-89683600D02*
X171431576Y-89769314D01*
X171431576Y-89769314D02*
X171860147Y-89769314D01*
X171860147Y-89769314D02*
X172031576Y-89683600D01*
X172031576Y-89683600D02*
X172117290Y-89597885D01*
X172117290Y-89597885D02*
X172203004Y-89426457D01*
X172203004Y-89426457D02*
X172203004Y-89255028D01*
X172203004Y-89255028D02*
X172117290Y-89083600D01*
X172117290Y-89083600D02*
X172031576Y-88997885D01*
X172031576Y-88997885D02*
X171860147Y-88912171D01*
X171860147Y-88912171D02*
X171517290Y-88826457D01*
X171517290Y-88826457D02*
X171345861Y-88740742D01*
X171345861Y-88740742D02*
X171260147Y-88655028D01*
X171260147Y-88655028D02*
X171174433Y-88483600D01*
X171174433Y-88483600D02*
X171174433Y-88312171D01*
X171174433Y-88312171D02*
X171260147Y-88140742D01*
X171260147Y-88140742D02*
X171345861Y-88055028D01*
X171345861Y-88055028D02*
X171517290Y-87969314D01*
X171517290Y-87969314D02*
X171945861Y-87969314D01*
X171945861Y-87969314D02*
X172203004Y-88055028D01*
X173231576Y-89769314D02*
X173060147Y-89683600D01*
X173060147Y-89683600D02*
X172974433Y-89597885D01*
X172974433Y-89597885D02*
X172888719Y-89426457D01*
X172888719Y-89426457D02*
X172888719Y-88912171D01*
X172888719Y-88912171D02*
X172974433Y-88740742D01*
X172974433Y-88740742D02*
X173060147Y-88655028D01*
X173060147Y-88655028D02*
X173231576Y-88569314D01*
X173231576Y-88569314D02*
X173488719Y-88569314D01*
X173488719Y-88569314D02*
X173660147Y-88655028D01*
X173660147Y-88655028D02*
X173745862Y-88740742D01*
X173745862Y-88740742D02*
X173831576Y-88912171D01*
X173831576Y-88912171D02*
X173831576Y-89426457D01*
X173831576Y-89426457D02*
X173745862Y-89597885D01*
X173745862Y-89597885D02*
X173660147Y-89683600D01*
X173660147Y-89683600D02*
X173488719Y-89769314D01*
X173488719Y-89769314D02*
X173231576Y-89769314D01*
X175374433Y-89683600D02*
X175203004Y-89769314D01*
X175203004Y-89769314D02*
X174860147Y-89769314D01*
X174860147Y-89769314D02*
X174688718Y-89683600D01*
X174688718Y-89683600D02*
X174603004Y-89597885D01*
X174603004Y-89597885D02*
X174517290Y-89426457D01*
X174517290Y-89426457D02*
X174517290Y-88912171D01*
X174517290Y-88912171D02*
X174603004Y-88740742D01*
X174603004Y-88740742D02*
X174688718Y-88655028D01*
X174688718Y-88655028D02*
X174860147Y-88569314D01*
X174860147Y-88569314D02*
X175203004Y-88569314D01*
X175203004Y-88569314D02*
X175374433Y-88655028D01*
X176145861Y-89769314D02*
X176145861Y-87969314D01*
X176317290Y-89083600D02*
X176831575Y-89769314D01*
X176831575Y-88569314D02*
X176145861Y-89255028D01*
X178288718Y-89683600D02*
X178117290Y-89769314D01*
X178117290Y-89769314D02*
X177774433Y-89769314D01*
X177774433Y-89769314D02*
X177603004Y-89683600D01*
X177603004Y-89683600D02*
X177517290Y-89512171D01*
X177517290Y-89512171D02*
X177517290Y-88826457D01*
X177517290Y-88826457D02*
X177603004Y-88655028D01*
X177603004Y-88655028D02*
X177774433Y-88569314D01*
X177774433Y-88569314D02*
X178117290Y-88569314D01*
X178117290Y-88569314D02*
X178288718Y-88655028D01*
X178288718Y-88655028D02*
X178374433Y-88826457D01*
X178374433Y-88826457D02*
X178374433Y-88997885D01*
X178374433Y-88997885D02*
X177517290Y-89169314D01*
X178888718Y-88569314D02*
X179574432Y-88569314D01*
X179145861Y-87969314D02*
X179145861Y-89512171D01*
X179145861Y-89512171D02*
X179231575Y-89683600D01*
X179231575Y-89683600D02*
X179403004Y-89769314D01*
X179403004Y-89769314D02*
X179574432Y-89769314D01*
X179745861Y-89940742D02*
X181117289Y-89940742D01*
X181460147Y-88140742D02*
X181545861Y-88055028D01*
X181545861Y-88055028D02*
X181717290Y-87969314D01*
X181717290Y-87969314D02*
X182145861Y-87969314D01*
X182145861Y-87969314D02*
X182317290Y-88055028D01*
X182317290Y-88055028D02*
X182403004Y-88140742D01*
X182403004Y-88140742D02*
X182488718Y-88312171D01*
X182488718Y-88312171D02*
X182488718Y-88483600D01*
X182488718Y-88483600D02*
X182403004Y-88740742D01*
X182403004Y-88740742D02*
X181374432Y-89769314D01*
X181374432Y-89769314D02*
X182488718Y-89769314D01*
X183260147Y-89597885D02*
X183345861Y-89683600D01*
X183345861Y-89683600D02*
X183260147Y-89769314D01*
X183260147Y-89769314D02*
X183174433Y-89683600D01*
X183174433Y-89683600D02*
X183260147Y-89597885D01*
X183260147Y-89597885D02*
X183260147Y-89769314D01*
X184974433Y-87969314D02*
X184117290Y-87969314D01*
X184117290Y-87969314D02*
X184031576Y-88826457D01*
X184031576Y-88826457D02*
X184117290Y-88740742D01*
X184117290Y-88740742D02*
X184288719Y-88655028D01*
X184288719Y-88655028D02*
X184717290Y-88655028D01*
X184717290Y-88655028D02*
X184888719Y-88740742D01*
X184888719Y-88740742D02*
X184974433Y-88826457D01*
X184974433Y-88826457D02*
X185060147Y-88997885D01*
X185060147Y-88997885D02*
X185060147Y-89426457D01*
X185060147Y-89426457D02*
X184974433Y-89597885D01*
X184974433Y-89597885D02*
X184888719Y-89683600D01*
X184888719Y-89683600D02*
X184717290Y-89769314D01*
X184717290Y-89769314D02*
X184288719Y-89769314D01*
X184288719Y-89769314D02*
X184117290Y-89683600D01*
X184117290Y-89683600D02*
X184031576Y-89597885D01*
X186603005Y-88569314D02*
X186603005Y-89769314D01*
X186174433Y-87883600D02*
X185745862Y-89169314D01*
X185745862Y-89169314D02*
X186860147Y-89169314D01*
X187545862Y-89769314D02*
X187545862Y-88569314D01*
X187545862Y-88740742D02*
X187631576Y-88655028D01*
X187631576Y-88655028D02*
X187803005Y-88569314D01*
X187803005Y-88569314D02*
X188060148Y-88569314D01*
X188060148Y-88569314D02*
X188231576Y-88655028D01*
X188231576Y-88655028D02*
X188317291Y-88826457D01*
X188317291Y-88826457D02*
X188317291Y-89769314D01*
X188317291Y-88826457D02*
X188403005Y-88655028D01*
X188403005Y-88655028D02*
X188574433Y-88569314D01*
X188574433Y-88569314D02*
X188831576Y-88569314D01*
X188831576Y-88569314D02*
X189003005Y-88655028D01*
X189003005Y-88655028D02*
X189088719Y-88826457D01*
X189088719Y-88826457D02*
X189088719Y-89769314D01*
X189945862Y-89769314D02*
X189945862Y-88569314D01*
X189945862Y-88740742D02*
X190031576Y-88655028D01*
X190031576Y-88655028D02*
X190203005Y-88569314D01*
X190203005Y-88569314D02*
X190460148Y-88569314D01*
X190460148Y-88569314D02*
X190631576Y-88655028D01*
X190631576Y-88655028D02*
X190717291Y-88826457D01*
X190717291Y-88826457D02*
X190717291Y-89769314D01*
X190717291Y-88826457D02*
X190803005Y-88655028D01*
X190803005Y-88655028D02*
X190974433Y-88569314D01*
X190974433Y-88569314D02*
X191231576Y-88569314D01*
X191231576Y-88569314D02*
X191403005Y-88655028D01*
X191403005Y-88655028D02*
X191488719Y-88826457D01*
X191488719Y-88826457D02*
X191488719Y-89769314D01*
X192345862Y-89597885D02*
X192431576Y-89683600D01*
X192431576Y-89683600D02*
X192345862Y-89769314D01*
X192345862Y-89769314D02*
X192260148Y-89683600D01*
X192260148Y-89683600D02*
X192345862Y-89597885D01*
X192345862Y-89597885D02*
X192345862Y-89769314D01*
X192345862Y-88655028D02*
X192431576Y-88740742D01*
X192431576Y-88740742D02*
X192345862Y-88826457D01*
X192345862Y-88826457D02*
X192260148Y-88740742D01*
X192260148Y-88740742D02*
X192345862Y-88655028D01*
X192345862Y-88655028D02*
X192345862Y-88826457D01*
X193203005Y-89769314D02*
X193203005Y-87969314D01*
X193203005Y-87969314D02*
X193888719Y-87969314D01*
X193888719Y-87969314D02*
X194060148Y-88055028D01*
X194060148Y-88055028D02*
X194145862Y-88140742D01*
X194145862Y-88140742D02*
X194231576Y-88312171D01*
X194231576Y-88312171D02*
X194231576Y-88569314D01*
X194231576Y-88569314D02*
X194145862Y-88740742D01*
X194145862Y-88740742D02*
X194060148Y-88826457D01*
X194060148Y-88826457D02*
X193888719Y-88912171D01*
X193888719Y-88912171D02*
X193203005Y-88912171D01*
X195003005Y-89769314D02*
X195003005Y-88569314D01*
X195003005Y-87969314D02*
X194917291Y-88055028D01*
X194917291Y-88055028D02*
X195003005Y-88140742D01*
X195003005Y-88140742D02*
X195088719Y-88055028D01*
X195088719Y-88055028D02*
X195003005Y-87969314D01*
X195003005Y-87969314D02*
X195003005Y-88140742D01*
X195860148Y-88569314D02*
X195860148Y-89769314D01*
X195860148Y-88740742D02*
X195945862Y-88655028D01*
X195945862Y-88655028D02*
X196117291Y-88569314D01*
X196117291Y-88569314D02*
X196374434Y-88569314D01*
X196374434Y-88569314D02*
X196545862Y-88655028D01*
X196545862Y-88655028D02*
X196631577Y-88826457D01*
X196631577Y-88826457D02*
X196631577Y-89769314D01*
X197403005Y-89683600D02*
X197660148Y-89769314D01*
X197660148Y-89769314D02*
X198088719Y-89769314D01*
X198088719Y-89769314D02*
X198260148Y-89683600D01*
X198260148Y-89683600D02*
X198345862Y-89597885D01*
X198345862Y-89597885D02*
X198431576Y-89426457D01*
X198431576Y-89426457D02*
X198431576Y-89255028D01*
X198431576Y-89255028D02*
X198345862Y-89083600D01*
X198345862Y-89083600D02*
X198260148Y-88997885D01*
X198260148Y-88997885D02*
X198088719Y-88912171D01*
X198088719Y-88912171D02*
X197745862Y-88826457D01*
X197745862Y-88826457D02*
X197574433Y-88740742D01*
X197574433Y-88740742D02*
X197488719Y-88655028D01*
X197488719Y-88655028D02*
X197403005Y-88483600D01*
X197403005Y-88483600D02*
X197403005Y-88312171D01*
X197403005Y-88312171D02*
X197488719Y-88140742D01*
X197488719Y-88140742D02*
X197574433Y-88055028D01*
X197574433Y-88055028D02*
X197745862Y-87969314D01*
X197745862Y-87969314D02*
X198174433Y-87969314D01*
X198174433Y-87969314D02*
X198431576Y-88055028D01*
X199460148Y-89769314D02*
X199288719Y-89683600D01*
X199288719Y-89683600D02*
X199203005Y-89597885D01*
X199203005Y-89597885D02*
X199117291Y-89426457D01*
X199117291Y-89426457D02*
X199117291Y-88912171D01*
X199117291Y-88912171D02*
X199203005Y-88740742D01*
X199203005Y-88740742D02*
X199288719Y-88655028D01*
X199288719Y-88655028D02*
X199460148Y-88569314D01*
X199460148Y-88569314D02*
X199717291Y-88569314D01*
X199717291Y-88569314D02*
X199888719Y-88655028D01*
X199888719Y-88655028D02*
X199974434Y-88740742D01*
X199974434Y-88740742D02*
X200060148Y-88912171D01*
X200060148Y-88912171D02*
X200060148Y-89426457D01*
X200060148Y-89426457D02*
X199974434Y-89597885D01*
X199974434Y-89597885D02*
X199888719Y-89683600D01*
X199888719Y-89683600D02*
X199717291Y-89769314D01*
X199717291Y-89769314D02*
X199460148Y-89769314D01*
X201603005Y-89683600D02*
X201431576Y-89769314D01*
X201431576Y-89769314D02*
X201088719Y-89769314D01*
X201088719Y-89769314D02*
X200917290Y-89683600D01*
X200917290Y-89683600D02*
X200831576Y-89597885D01*
X200831576Y-89597885D02*
X200745862Y-89426457D01*
X200745862Y-89426457D02*
X200745862Y-88912171D01*
X200745862Y-88912171D02*
X200831576Y-88740742D01*
X200831576Y-88740742D02*
X200917290Y-88655028D01*
X200917290Y-88655028D02*
X201088719Y-88569314D01*
X201088719Y-88569314D02*
X201431576Y-88569314D01*
X201431576Y-88569314D02*
X201603005Y-88655028D01*
X202374433Y-89769314D02*
X202374433Y-87969314D01*
X202545862Y-89083600D02*
X203060147Y-89769314D01*
X203060147Y-88569314D02*
X202374433Y-89255028D01*
X204517290Y-89683600D02*
X204345862Y-89769314D01*
X204345862Y-89769314D02*
X204003005Y-89769314D01*
X204003005Y-89769314D02*
X203831576Y-89683600D01*
X203831576Y-89683600D02*
X203745862Y-89512171D01*
X203745862Y-89512171D02*
X203745862Y-88826457D01*
X203745862Y-88826457D02*
X203831576Y-88655028D01*
X203831576Y-88655028D02*
X204003005Y-88569314D01*
X204003005Y-88569314D02*
X204345862Y-88569314D01*
X204345862Y-88569314D02*
X204517290Y-88655028D01*
X204517290Y-88655028D02*
X204603005Y-88826457D01*
X204603005Y-88826457D02*
X204603005Y-88997885D01*
X204603005Y-88997885D02*
X203745862Y-89169314D01*
X205117290Y-88569314D02*
X205803004Y-88569314D01*
X205374433Y-87969314D02*
X205374433Y-89512171D01*
X205374433Y-89512171D02*
X205460147Y-89683600D01*
X205460147Y-89683600D02*
X205631576Y-89769314D01*
X205631576Y-89769314D02*
X205803004Y-89769314D01*
X205974433Y-89940742D02*
X207345861Y-89940742D01*
X208717290Y-89769314D02*
X207688719Y-89769314D01*
X208203004Y-89769314D02*
X208203004Y-87969314D01*
X208203004Y-87969314D02*
X208031576Y-88226457D01*
X208031576Y-88226457D02*
X207860147Y-88397885D01*
X207860147Y-88397885D02*
X207688719Y-88483600D01*
X209317290Y-89769314D02*
X210260148Y-88569314D01*
X209317290Y-88569314D02*
X210260148Y-89769314D01*
X211288719Y-87969314D02*
X211460148Y-87969314D01*
X211460148Y-87969314D02*
X211631576Y-88055028D01*
X211631576Y-88055028D02*
X211717291Y-88140742D01*
X211717291Y-88140742D02*
X211803005Y-88312171D01*
X211803005Y-88312171D02*
X211888719Y-88655028D01*
X211888719Y-88655028D02*
X211888719Y-89083600D01*
X211888719Y-89083600D02*
X211803005Y-89426457D01*
X211803005Y-89426457D02*
X211717291Y-89597885D01*
X211717291Y-89597885D02*
X211631576Y-89683600D01*
X211631576Y-89683600D02*
X211460148Y-89769314D01*
X211460148Y-89769314D02*
X211288719Y-89769314D01*
X211288719Y-89769314D02*
X211117291Y-89683600D01*
X211117291Y-89683600D02*
X211031576Y-89597885D01*
X211031576Y-89597885D02*
X210945862Y-89426457D01*
X210945862Y-89426457D02*
X210860148Y-89083600D01*
X210860148Y-89083600D02*
X210860148Y-88655028D01*
X210860148Y-88655028D02*
X210945862Y-88312171D01*
X210945862Y-88312171D02*
X211031576Y-88140742D01*
X211031576Y-88140742D02*
X211117291Y-88055028D01*
X211117291Y-88055028D02*
X211288719Y-87969314D01*
X212574434Y-88140742D02*
X212660148Y-88055028D01*
X212660148Y-88055028D02*
X212831577Y-87969314D01*
X212831577Y-87969314D02*
X213260148Y-87969314D01*
X213260148Y-87969314D02*
X213431577Y-88055028D01*
X213431577Y-88055028D02*
X213517291Y-88140742D01*
X213517291Y-88140742D02*
X213603005Y-88312171D01*
X213603005Y-88312171D02*
X213603005Y-88483600D01*
X213603005Y-88483600D02*
X213517291Y-88740742D01*
X213517291Y-88740742D02*
X212488719Y-89769314D01*
X212488719Y-89769314D02*
X213603005Y-89769314D01*
X213945863Y-89940742D02*
X215317291Y-89940742D01*
X215745863Y-89769314D02*
X215745863Y-87969314D01*
X215745863Y-87969314D02*
X216431577Y-87969314D01*
X216431577Y-87969314D02*
X216603006Y-88055028D01*
X216603006Y-88055028D02*
X216688720Y-88140742D01*
X216688720Y-88140742D02*
X216774434Y-88312171D01*
X216774434Y-88312171D02*
X216774434Y-88569314D01*
X216774434Y-88569314D02*
X216688720Y-88740742D01*
X216688720Y-88740742D02*
X216603006Y-88826457D01*
X216603006Y-88826457D02*
X216431577Y-88912171D01*
X216431577Y-88912171D02*
X215745863Y-88912171D01*
X217460149Y-88140742D02*
X217545863Y-88055028D01*
X217545863Y-88055028D02*
X217717292Y-87969314D01*
X217717292Y-87969314D02*
X218145863Y-87969314D01*
X218145863Y-87969314D02*
X218317292Y-88055028D01*
X218317292Y-88055028D02*
X218403006Y-88140742D01*
X218403006Y-88140742D02*
X218488720Y-88312171D01*
X218488720Y-88312171D02*
X218488720Y-88483600D01*
X218488720Y-88483600D02*
X218403006Y-88740742D01*
X218403006Y-88740742D02*
X217374434Y-89769314D01*
X217374434Y-89769314D02*
X218488720Y-89769314D01*
X219260149Y-89597885D02*
X219345863Y-89683600D01*
X219345863Y-89683600D02*
X219260149Y-89769314D01*
X219260149Y-89769314D02*
X219174435Y-89683600D01*
X219174435Y-89683600D02*
X219260149Y-89597885D01*
X219260149Y-89597885D02*
X219260149Y-89769314D01*
X220974435Y-87969314D02*
X220117292Y-87969314D01*
X220117292Y-87969314D02*
X220031578Y-88826457D01*
X220031578Y-88826457D02*
X220117292Y-88740742D01*
X220117292Y-88740742D02*
X220288721Y-88655028D01*
X220288721Y-88655028D02*
X220717292Y-88655028D01*
X220717292Y-88655028D02*
X220888721Y-88740742D01*
X220888721Y-88740742D02*
X220974435Y-88826457D01*
X220974435Y-88826457D02*
X221060149Y-88997885D01*
X221060149Y-88997885D02*
X221060149Y-89426457D01*
X221060149Y-89426457D02*
X220974435Y-89597885D01*
X220974435Y-89597885D02*
X220888721Y-89683600D01*
X220888721Y-89683600D02*
X220717292Y-89769314D01*
X220717292Y-89769314D02*
X220288721Y-89769314D01*
X220288721Y-89769314D02*
X220117292Y-89683600D01*
X220117292Y-89683600D02*
X220031578Y-89597885D01*
X222603007Y-88569314D02*
X222603007Y-89769314D01*
X222174435Y-87883600D02*
X221745864Y-89169314D01*
X221745864Y-89169314D02*
X222860149Y-89169314D01*
X223545864Y-89769314D02*
X223545864Y-88569314D01*
X223545864Y-88740742D02*
X223631578Y-88655028D01*
X223631578Y-88655028D02*
X223803007Y-88569314D01*
X223803007Y-88569314D02*
X224060150Y-88569314D01*
X224060150Y-88569314D02*
X224231578Y-88655028D01*
X224231578Y-88655028D02*
X224317293Y-88826457D01*
X224317293Y-88826457D02*
X224317293Y-89769314D01*
X224317293Y-88826457D02*
X224403007Y-88655028D01*
X224403007Y-88655028D02*
X224574435Y-88569314D01*
X224574435Y-88569314D02*
X224831578Y-88569314D01*
X224831578Y-88569314D02*
X225003007Y-88655028D01*
X225003007Y-88655028D02*
X225088721Y-88826457D01*
X225088721Y-88826457D02*
X225088721Y-89769314D01*
X225945864Y-89769314D02*
X225945864Y-88569314D01*
X225945864Y-88740742D02*
X226031578Y-88655028D01*
X226031578Y-88655028D02*
X226203007Y-88569314D01*
X226203007Y-88569314D02*
X226460150Y-88569314D01*
X226460150Y-88569314D02*
X226631578Y-88655028D01*
X226631578Y-88655028D02*
X226717293Y-88826457D01*
X226717293Y-88826457D02*
X226717293Y-89769314D01*
X226717293Y-88826457D02*
X226803007Y-88655028D01*
X226803007Y-88655028D02*
X226974435Y-88569314D01*
X226974435Y-88569314D02*
X227231578Y-88569314D01*
X227231578Y-88569314D02*
X227403007Y-88655028D01*
X227403007Y-88655028D02*
X227488721Y-88826457D01*
X227488721Y-88826457D02*
X227488721Y-89769314D01*
X227917293Y-89940742D02*
X229288721Y-89940742D01*
X229460150Y-87969314D02*
X230060150Y-89769314D01*
X230060150Y-89769314D02*
X230660150Y-87969314D01*
X231945864Y-89683600D02*
X231774436Y-89769314D01*
X231774436Y-89769314D02*
X231431579Y-89769314D01*
X231431579Y-89769314D02*
X231260150Y-89683600D01*
X231260150Y-89683600D02*
X231174436Y-89512171D01*
X231174436Y-89512171D02*
X231174436Y-88826457D01*
X231174436Y-88826457D02*
X231260150Y-88655028D01*
X231260150Y-88655028D02*
X231431579Y-88569314D01*
X231431579Y-88569314D02*
X231774436Y-88569314D01*
X231774436Y-88569314D02*
X231945864Y-88655028D01*
X231945864Y-88655028D02*
X232031579Y-88826457D01*
X232031579Y-88826457D02*
X232031579Y-88997885D01*
X232031579Y-88997885D02*
X231174436Y-89169314D01*
X232803007Y-89769314D02*
X232803007Y-88569314D01*
X232803007Y-88912171D02*
X232888721Y-88740742D01*
X232888721Y-88740742D02*
X232974436Y-88655028D01*
X232974436Y-88655028D02*
X233145864Y-88569314D01*
X233145864Y-88569314D02*
X233317293Y-88569314D01*
X233660150Y-88569314D02*
X234345864Y-88569314D01*
X233917293Y-87969314D02*
X233917293Y-89512171D01*
X233917293Y-89512171D02*
X234003007Y-89683600D01*
X234003007Y-89683600D02*
X234174436Y-89769314D01*
X234174436Y-89769314D02*
X234345864Y-89769314D01*
X234945864Y-89769314D02*
X234945864Y-88569314D01*
X234945864Y-87969314D02*
X234860150Y-88055028D01*
X234860150Y-88055028D02*
X234945864Y-88140742D01*
X234945864Y-88140742D02*
X235031578Y-88055028D01*
X235031578Y-88055028D02*
X234945864Y-87969314D01*
X234945864Y-87969314D02*
X234945864Y-88140742D01*
X236574436Y-89683600D02*
X236403007Y-89769314D01*
X236403007Y-89769314D02*
X236060150Y-89769314D01*
X236060150Y-89769314D02*
X235888721Y-89683600D01*
X235888721Y-89683600D02*
X235803007Y-89597885D01*
X235803007Y-89597885D02*
X235717293Y-89426457D01*
X235717293Y-89426457D02*
X235717293Y-88912171D01*
X235717293Y-88912171D02*
X235803007Y-88740742D01*
X235803007Y-88740742D02*
X235888721Y-88655028D01*
X235888721Y-88655028D02*
X236060150Y-88569314D01*
X236060150Y-88569314D02*
X236403007Y-88569314D01*
X236403007Y-88569314D02*
X236574436Y-88655028D01*
X238117293Y-89769314D02*
X238117293Y-88826457D01*
X238117293Y-88826457D02*
X238031578Y-88655028D01*
X238031578Y-88655028D02*
X237860150Y-88569314D01*
X237860150Y-88569314D02*
X237517293Y-88569314D01*
X237517293Y-88569314D02*
X237345864Y-88655028D01*
X238117293Y-89683600D02*
X237945864Y-89769314D01*
X237945864Y-89769314D02*
X237517293Y-89769314D01*
X237517293Y-89769314D02*
X237345864Y-89683600D01*
X237345864Y-89683600D02*
X237260150Y-89512171D01*
X237260150Y-89512171D02*
X237260150Y-89340742D01*
X237260150Y-89340742D02*
X237345864Y-89169314D01*
X237345864Y-89169314D02*
X237517293Y-89083600D01*
X237517293Y-89083600D02*
X237945864Y-89083600D01*
X237945864Y-89083600D02*
X238117293Y-88997885D01*
X239231578Y-89769314D02*
X239060149Y-89683600D01*
X239060149Y-89683600D02*
X238974435Y-89512171D01*
X238974435Y-89512171D02*
X238974435Y-87969314D01*
M02*
